*
*
G04 PADS9.1 Build Number: 384028 generated Gerber (RS-274-X) file*
G04 PC Version=2.1*
*
%IN "ASPS_DAQv5p2.pcb"*%
*
%MOIN*%
*
%FSLAX35Y35*%
*
*
*
*
G04 PC Standard Apertures*
*
*
G04 Thermal Relief Aperture macro.*
%AMTER*
1,1,$1,0,0*
1,0,$1-$2,0,0*
21,0,$3,$4,0,0,45*
21,0,$3,$4,0,0,135*
%
*
*
G04 Annular Aperture macro.*
%AMANN*
1,1,$1,0,0*
1,0,$2,0,0*
%
*
*
G04 Odd Aperture macro.*
%AMODD*
1,1,$1,0,0*
1,0,$1-0.005,0,0*
%
*
*
G04 PC Custom Aperture Macros*
*
*
*
*
*
*
G04 PC Aperture Table*
*
%ADD010C,0.001*%
%ADD011R,0.093X0.093*%
%ADD012C,0.093*%
%ADD018R,0.038X0.03*%
%ADD019R,0.03X0.038*%
%ADD020R,0.065X0.065*%
%ADD021C,0.065*%
%ADD022R,0.031X0.031*%
%ADD023C,0.15*%
%ADD033C,0.183*%
%ADD034R,0.02756X0.04528*%
%ADD035R,0.03937X0.03937*%
%ADD037C,0.015*%
%ADD038O,0.074X0.024*%
%ADD040R,0.1X0.06*%
%ADD042R,0.024X0.039*%
%ADD044R,0.083X0.083*%
%ADD045C,0.083*%
%ADD047R,0.1X0.1*%
%ADD048R,0.06X0.06*%
%ADD049C,0.06*%
%ADD052R,0.22441X0.06693*%
%ADD053C,0.01*%
%ADD054C,0.008*%
%ADD055C,0.03*%
%ADD056C,0.05*%
%ADD058C,0.028*%
%ADD060C,0.02*%
%ADD106R,0.05512X0.04724*%
%ADD107R,0.034X0.05*%
%ADD108R,0.02X0.028*%
%ADD109R,0.06X0.1*%
%ADD110C,0.08917*%
%ADD111C,0.12598*%
%ADD112C,0.06512*%
%ADD113O,0.01X0.024*%
%ADD114O,0.024X0.01*%
%ADD115R,0.146X0.146*%
%ADD116O,0.008X0.065*%
%ADD117O,0.065X0.008*%
%ADD118R,0.01969X0.01969*%
%ADD119R,0.02X0.024*%
%ADD120R,0.028X0.035*%
%ADD121R,0.035X0.028*%
%ADD122C,0.12205*%
%ADD123R,0.04X0.04*%
%ADD124C,0.04*%
%ADD125R,0.055X0.024*%
%ADD126R,0.067X0.067*%
%ADD127R,0.024X0.016*%
%ADD128R,0.01969X0.08858*%
%ADD129R,0.07874X0.09843*%
%ADD130C,0.03543*%
%ADD131R,0.024X0.02*%
%ADD132R,0.02559X0.01969*%
%ADD133R,0.05906X0.02362*%
%ADD134C,0.012*%
%ADD163R,0.031X0.02*%
%ADD164R,0.02362X0.00787*%
%ADD165R,0.00787X0.02362*%
%ADD166R,0.06299X0.10236*%
%ADD167R,0.10236X0.06299*%
%ADD168C,0.039*%
%ADD169C,0.031*%
%ADD170R,0.06X0.05*%
%ADD171R,0.05X0.06*%
%ADD172C,0.006*%
*
*
*
*
G04 PC Circuitry*
G04 Layer Name ASPS_DAQv5p2.pcb - circuitry*
%LPD*%
*
*
G04 PC Custom Flashes*
G04 Layer Name ASPS_DAQv5p2.pcb - flashes*
%LPD*%
*
*
G04 PC Circuitry*
G04 Layer Name ASPS_DAQv5p2.pcb - circuitry*
%LPD*%
*
G54D10*
G54D11*
G01X129500Y168000D03*
Y218000D03*
X463000Y157000D03*
X130000Y302000D03*
X453000Y395000D03*
X295000Y130000D03*
G54D12*
X129500Y151500D03*
X107800Y168000D03*
Y151500D03*
X129500Y201500D03*
X107800Y218000D03*
Y201500D03*
X463000Y173500D03*
X484700Y157000D03*
Y173500D03*
X130000Y285500D03*
Y269000D03*
Y252500D03*
X108300Y302000D03*
Y285500D03*
Y269000D03*
Y252500D03*
X436500Y395000D03*
X420000D03*
X403500D03*
X453000Y416700D03*
X436500D03*
X420000D03*
X403500D03*
X311500Y130000D03*
X328000D03*
X344500D03*
X295000Y108300D03*
X311500D03*
X328000D03*
X344500D03*
G54D18*
X298900Y175000D03*
X305100D03*
X314900Y349000D03*
X321100D03*
X328900Y341500D03*
X335100D03*
X328900Y348500D03*
X335100D03*
X452900Y259000D03*
X459100D03*
X474100Y229000D03*
X467900D03*
Y222000D03*
X474100D03*
X321100Y356000D03*
X314900D03*
X378900Y401500D03*
X385100D03*
X266200Y321000D03*
X260000D03*
X466900Y259000D03*
X473100D03*
X364900Y401500D03*
X371100D03*
X321100Y363000D03*
X314900D03*
X329900Y175000D03*
X336100D03*
X315900Y168000D03*
X322100D03*
X329900Y182000D03*
X336100D03*
Y154000D03*
X329900D03*
Y161000D03*
X336100D03*
X321100Y370000D03*
X314900D03*
X335100Y363000D03*
X328900D03*
X207900Y130000D03*
X214100D03*
X207900Y123000D03*
X214100D03*
X244900Y156000D03*
X251100D03*
Y163000D03*
X244900D03*
X299100Y269000D03*
X292900D03*
X306900Y281000D03*
X313100D03*
X327100D03*
X320900D03*
X306900Y269000D03*
X313100D03*
X306900Y262000D03*
X313100D03*
X288900Y321000D03*
X295100D03*
X288900Y314000D03*
X295100D03*
X329900Y168000D03*
X336100D03*
X322100Y182000D03*
X315900D03*
Y175000D03*
X322100D03*
X298900Y161000D03*
X305100D03*
X298900Y168000D03*
X305100D03*
X385100Y408500D03*
X378900D03*
G54D19*
X176500Y297100D03*
Y290900D03*
Y228100D03*
Y221900D03*
X416000Y146900D03*
Y153100D03*
X176500Y178100D03*
Y171900D03*
X328500Y334100D03*
Y327900D03*
X349500Y367100D03*
Y360900D03*
X356500Y367100D03*
Y360900D03*
X486500Y373900D03*
Y380100D03*
X475000Y365600D03*
Y359400D03*
X489500Y238400D03*
Y244600D03*
X482500D03*
Y238400D03*
X407500Y327900D03*
Y334100D03*
X468000Y365600D03*
Y359400D03*
X407500Y341900D03*
Y348100D03*
X386500D03*
Y341900D03*
X400500D03*
Y348100D03*
X365500Y341900D03*
Y348100D03*
X372500Y341900D03*
Y348100D03*
X176500Y161100D03*
Y154900D03*
X162500Y147100D03*
Y140900D03*
X176500Y147100D03*
Y140900D03*
X169500Y161100D03*
Y154900D03*
X325000Y403900D03*
Y410100D03*
X351000Y403900D03*
Y410100D03*
X335500Y327900D03*
Y334100D03*
X183500Y147100D03*
Y140900D03*
X155500D03*
Y147100D03*
X183500Y161100D03*
Y154900D03*
X155500Y190900D03*
Y197100D03*
Y259900D03*
Y266100D03*
X176500Y211100D03*
Y204900D03*
X162500Y197100D03*
Y190900D03*
X176500Y197100D03*
Y190900D03*
X183500Y197100D03*
Y190900D03*
X169500Y211100D03*
Y204900D03*
X176500Y280100D03*
Y273900D03*
X162500Y266100D03*
Y259900D03*
X176500Y266100D03*
Y259900D03*
X183500Y266100D03*
Y259900D03*
X169500Y280100D03*
Y273900D03*
X183500Y211100D03*
Y204900D03*
Y280100D03*
Y273900D03*
X393500Y341900D03*
Y348100D03*
X416000Y177900D03*
Y184100D03*
X430000Y177900D03*
Y184100D03*
X416000Y163900D03*
Y170100D03*
X423000Y163900D03*
Y170100D03*
X437000Y184100D03*
Y177900D03*
X409000D03*
Y184100D03*
Y170100D03*
Y163900D03*
X243000Y339400D03*
Y345600D03*
X281000Y183100D03*
Y176900D03*
X419000Y266100D03*
Y259900D03*
X228000Y114900D03*
Y121100D03*
X311000Y403900D03*
Y410100D03*
X169500Y266100D03*
Y259900D03*
X162500Y297100D03*
Y290900D03*
X169500Y297100D03*
Y290900D03*
Y147100D03*
Y140900D03*
X162500Y178100D03*
Y171900D03*
X169500Y178100D03*
Y171900D03*
Y197100D03*
Y190900D03*
X162500Y228100D03*
Y221900D03*
X169500Y228100D03*
Y221900D03*
X423000Y177900D03*
Y184100D03*
X430000Y146900D03*
Y153100D03*
X423000Y146900D03*
Y153100D03*
X379500Y341900D03*
Y348100D03*
G54D20*
X233000Y392500D03*
X213000Y362500D03*
G54D21*
X223000Y392500D03*
X213000D03*
X223000Y362500D03*
X233000D03*
G54D22*
X305150Y182000D03*
X298850D03*
X183500Y290850D03*
Y297150D03*
Y171850D03*
Y178150D03*
Y221850D03*
Y228150D03*
X409000Y153150D03*
Y146850D03*
X337000Y403850D03*
Y410150D03*
X344000Y403850D03*
Y410150D03*
X200850Y106000D03*
X207150D03*
X221150D03*
X214850D03*
X326150Y269000D03*
X319850D03*
X326150Y262000D03*
X319850D03*
X371150Y408500D03*
X364850D03*
G54D23*
X273000Y377500D03*
X173000D03*
G54D33*
X116500Y400000D03*
Y120000D03*
X476500D03*
X478500Y400000D03*
G54D34*
X404000Y357272D03*
X409000D03*
X414000D03*
X419000D03*
X458000Y379728D03*
X453000D03*
X448000D03*
X443000D03*
G54D35*
X411500Y368000D03*
X450500Y369000D03*
G54D37*
X350500Y341350D03*
X475000Y415900D02*
Y417000D01*
X479100Y420000D02*
X475000D01*
Y424100D02*
Y423000D01*
X470900Y420000D02*
X475000D01*
X407566Y399066D02*
X406788Y398288D01*
X399434Y399066D02*
X400212Y398288D01*
X399434Y390934D02*
X400212Y391712D01*
X407566Y390934D02*
X406788Y391712D01*
X453000Y389250D02*
Y390350D01*
X458750Y395000D02*
X453000D01*
Y400750D02*
Y399650D01*
X447250Y395000D02*
X453000D01*
X125934Y273066D02*
X126712Y272288D01*
X125934Y264934D02*
X126712Y265712D01*
X134066Y264934D02*
X133288Y265712D01*
X134066Y273066D02*
X133288Y272288D01*
X135750Y302000D02*
X134650D01*
X130000Y307750D02*
Y302000D01*
X124250D02*
X125350D01*
X130000Y296250D02*
Y302000D01*
G54D38*
X389000Y358000D03*
Y363000D03*
Y368000D03*
Y373000D03*
Y378000D03*
Y383000D03*
Y388000D03*
Y393000D03*
X367000D03*
Y388000D03*
Y383000D03*
Y378000D03*
Y373000D03*
Y368000D03*
Y363000D03*
Y358000D03*
X451700Y251500D03*
Y246500D03*
Y241500D03*
Y236500D03*
X474300D03*
Y241500D03*
Y246500D03*
Y251500D03*
G54D40*
X431000Y380500D03*
Y359500D03*
G54D42*
X479000Y374350D03*
Y380650D03*
X486500Y365650D03*
Y359350D03*
G54D44*
X115500Y356890D03*
G54D45*
Y343110D03*
G54D47*
X463000Y244000D03*
G54D48*
X242000Y293000D03*
X373000Y420000D03*
X475000D03*
X452000Y346000D03*
X150000Y120000D03*
X398000Y218000D03*
X271000Y308000D03*
X128000Y420000D03*
X145000Y320000D03*
X222000Y303000D03*
X213250Y409500D03*
X226750D03*
X213250Y419500D03*
X226750D03*
G54D49*
X441500Y283480D03*
X431500Y288480D03*
X441500Y293480D03*
X431500Y298480D03*
X441500Y303480D03*
X431500Y308480D03*
X441500Y313480D03*
X431500Y318480D03*
X232000Y293000D03*
X383000Y420000D03*
X485000D03*
X462000Y346000D03*
X160000Y120000D03*
X408000Y218000D03*
X271000Y298000D03*
Y288000D03*
Y278000D03*
X118000Y420000D03*
X108000D03*
X155000Y320000D03*
X165000D03*
X175000D03*
X212000Y303000D03*
X129500Y201500D02*
Y218000D01*
Y151500D02*
Y168000D01*
X463000Y157000D02*
Y173500D01*
X233000Y342500D02*
Y362500D01*
X223000D02*
Y373000D01*
X233000Y383000*
Y392500*
G54D52*
X435500Y240858D03*
Y223142D03*
G54D53*
X347650Y338200D02*
X353350D01*
Y347700*
X351993*
X351700Y347993*
Y355000*
X349300*
Y347993*
X349007Y347700*
X347650*
Y338200*
X348000D02*
Y347700D01*
X348500Y338200D02*
Y347700D01*
X349000Y338200D02*
Y347700D01*
X349500Y338200D02*
Y355000D01*
X350000Y338200D02*
Y355000D01*
X350500Y338200D02*
Y355000D01*
X351000Y338200D02*
Y355000D01*
X351500Y338200D02*
Y355000D01*
X352000Y338200D02*
Y347700D01*
X352500Y338200D02*
Y347700D01*
X353000Y338200D02*
Y347700D01*
X420252Y381280D02*
X402748D01*
Y376374*
X403439*
X403732Y376081*
Y364169*
X419268*
Y376081*
X419561Y376374*
X420252*
Y381280*
X403000Y376374D02*
Y381280D01*
X403500Y376313D02*
Y381280D01*
X404000Y364169D02*
Y381280D01*
X404500Y364169D02*
Y381280D01*
X405000Y364169D02*
Y381280D01*
X405500Y364169D02*
Y381280D01*
X406000Y364169D02*
Y381280D01*
X406500Y364169D02*
Y381280D01*
X407000Y364169D02*
Y381280D01*
X407500Y364169D02*
Y381280D01*
X408000Y364169D02*
Y381280D01*
X408500Y364169D02*
Y381280D01*
X409000Y364169D02*
Y381280D01*
X409500Y364169D02*
Y381280D01*
X410000Y364169D02*
Y381280D01*
X410500Y364169D02*
Y381280D01*
X411000Y364169D02*
Y381280D01*
X411500Y364169D02*
Y381280D01*
X412000Y364169D02*
Y381280D01*
X412500Y364169D02*
Y381280D01*
X413000Y364169D02*
Y381280D01*
X413500Y364169D02*
Y381280D01*
X414000Y364169D02*
Y381280D01*
X414500Y364169D02*
Y381280D01*
X415000Y364169D02*
Y381280D01*
X415500Y364169D02*
Y381280D01*
X416000Y364169D02*
Y381280D01*
X416500Y364169D02*
Y381280D01*
X417000Y364169D02*
Y381280D01*
X417500Y364169D02*
Y381280D01*
X418000Y364169D02*
Y381280D01*
X418500Y364169D02*
Y381280D01*
X419000Y364169D02*
Y381280D01*
X419500Y376313D02*
Y381280D01*
X420000Y376374D02*
Y381280D01*
X441748Y355720D02*
X459252D01*
Y360626*
X458561*
X458268Y360919*
Y372831*
X442732*
Y360919*
X442439Y360626*
X441748*
Y355720*
X442000D02*
Y360626D01*
X442500Y355720D02*
Y360687D01*
X443000Y355720D02*
Y372831D01*
X443500Y355720D02*
Y372831D01*
X444000Y355720D02*
Y372831D01*
X444500Y355720D02*
Y372831D01*
X445000Y355720D02*
Y372831D01*
X445500Y355720D02*
Y372831D01*
X446000Y355720D02*
Y372831D01*
X446500Y355720D02*
Y372831D01*
X447000Y355720D02*
Y372831D01*
X447500Y355720D02*
Y372831D01*
X448000Y355720D02*
Y372831D01*
X448500Y355720D02*
Y372831D01*
X449000Y355720D02*
Y372831D01*
X449500Y355720D02*
Y372831D01*
X450000Y355720D02*
Y372831D01*
X450500Y355720D02*
Y372831D01*
X451000Y355720D02*
Y372831D01*
X451500Y355720D02*
Y372831D01*
X452000Y355720D02*
Y372831D01*
X452500Y355720D02*
Y372831D01*
X453000Y355720D02*
Y372831D01*
X453500Y355720D02*
Y372831D01*
X454000Y355720D02*
Y372831D01*
X454500Y355720D02*
Y372831D01*
X455000Y355720D02*
Y372831D01*
X455500Y355720D02*
Y372831D01*
X456000Y355720D02*
Y372831D01*
X456500Y355720D02*
Y372831D01*
X457000Y355720D02*
Y372831D01*
X457500Y355720D02*
Y372831D01*
X458000Y355720D02*
Y372831D01*
X458500Y355720D02*
Y360687D01*
X459000Y355720D02*
Y360626D01*
X418000Y289969D02*
X419500D01*
X420232Y290700*
X426731*
X428631Y292600*
X434369*
X435800Y291169*
Y289300*
X431500Y288480*
X409300Y294500D02*
X413469D01*
X418000Y289969*
X407856Y300900D02*
X407856D01*
X411289*
X411789Y300400*
X415869*
X418000Y302531*
X419338Y303869*
X420238*
X424000Y307631*
Y310931*
X427269Y314200*
X434731*
X437322Y311609*
Y297478*
X438500Y296300*
X438680*
X441500Y293480*
X418031Y298500D02*
X421369Y301838D01*
Y302738*
X425600Y306969*
Y310269*
X427931Y312600*
X434069*
X435722Y310946*
Y302989*
X418031Y294500D02*
X420232Y292300D01*
X426069*
X427969Y294200*
X435031*
X437400Y291831*
Y287580*
X441500Y283480*
X407250Y299275D02*
X407275Y299300D01*
X410626*
X410626D02*
X411426Y298500D01*
X411426D02*
X418031D01*
X407250Y296135D02*
X408537D01*
X408607Y296205*
X409993*
X410063Y296135*
X411289*
X411324Y296100*
X414131*
X415731Y294500*
X418031*
X431500Y308480D02*
Y307100D01*
X431611*
X435722Y302989*
X425500Y363500D02*
X459500D01*
Y352500*
X425500*
Y363500*
X402500Y384500D02*
X435500D01*
Y376500*
X402500*
Y384500*
X397500Y360500D02*
X415500D01*
Y353207*
X413793Y351500*
X397500*
Y360500*
X212500Y317500D02*
X205500D01*
Y316500*
X212500*
Y317500*
X243500D02*
X236500D01*
Y316500*
X243500*
Y317500*
X343200Y348300D02*
X356500D01*
Y338500*
X343200*
Y348300*
X214500Y347500D02*
X204500D01*
Y337500*
X214500*
Y347500*
X423500Y230500D02*
X446500D01*
Y219500*
X423500*
Y230500*
X318000Y141000D02*
Y147000D01*
X322000*
Y153000*
X331500*
Y141000*
X318000*
X458500Y236500D02*
X467500D01*
Y251500*
X458500*
Y236500*
X224000Y412500D02*
Y403000D01*
X241000*
Y388000*
X266500*
Y412500*
X224000*
X205000Y423500D02*
X217500D01*
Y387500*
X205000*
Y423500*
X224000D02*
X266000D01*
Y415500*
X224000*
Y423500*
X316000Y124500D02*
Y147000D01*
X312000*
Y153000*
X288500*
Y124500*
X316000*
X142000Y278000D02*
X148000D01*
Y274000*
X154000*
Y264500*
X142000*
Y278000*
Y280000D02*
X148000D01*
Y284000*
X154000*
Y306500*
X124500*
Y297500*
X142000*
Y280000*
Y209000D02*
X148000D01*
Y205000*
X154000*
Y195500*
X142000*
Y209000*
Y159000D02*
X148000D01*
Y155000*
X154000*
Y145500*
X142000*
Y159000*
X450500Y166000D02*
X444500D01*
Y170000*
X438500*
Y179500*
X450500*
Y166000*
X124500Y211000D02*
X148000D01*
Y215000*
X154000*
Y222500*
X124500*
Y211000*
Y161000D02*
X148000D01*
Y165000*
X154000*
Y172500*
X124500*
Y161000*
X468000Y164000D02*
X444500D01*
Y160000*
X438500*
Y152500*
X468000*
Y164000*
X425500Y363299D02*
X459500D01*
X425500Y362399D02*
X459500D01*
X425500Y361499D02*
X459500D01*
X425500Y360599D02*
X459500D01*
X425500Y359699D02*
X459500D01*
X425500Y358799D02*
X459500D01*
X425500Y357899D02*
X459500D01*
X425500Y356999D02*
X459500D01*
X425500Y356099D02*
X459500D01*
X425500Y355199D02*
X459500D01*
X425500Y354299D02*
X459500D01*
X425500Y353399D02*
X459500D01*
X402500Y383699D02*
X435500D01*
X402500Y382799D02*
X435500D01*
X402500Y381899D02*
X435500D01*
X402500Y380999D02*
X435500D01*
X402500Y380099D02*
X435500D01*
X402500Y379199D02*
X435500D01*
X402500Y378299D02*
X435500D01*
X402500Y377399D02*
X435500D01*
X397500Y360499D02*
X415500D01*
X397500Y359599D02*
X415500D01*
X397500Y358699D02*
X415500D01*
X397500Y357799D02*
X415500D01*
X397500Y356899D02*
X415500D01*
X397500Y355999D02*
X415500D01*
X397500Y355099D02*
X415500D01*
X397500Y354199D02*
X415500D01*
X397500Y353299D02*
X415500D01*
X397500Y352399D02*
X414692D01*
X205500Y317399D02*
X212500D01*
X236500D02*
X243500D01*
X343200Y347499D02*
X356500D01*
X343200Y346599D02*
X356500D01*
X343200Y345699D02*
X356500D01*
X343200Y344799D02*
X356500D01*
X343200Y343899D02*
X356500D01*
X343200Y342999D02*
X356500D01*
X343200Y342099D02*
X356500D01*
X343200Y341199D02*
X356500D01*
X343200Y340299D02*
X356500D01*
X343200Y339399D02*
X356500D01*
X204500Y347399D02*
X214500D01*
X204500Y346499D02*
X214500D01*
X204500Y345599D02*
X214500D01*
X204500Y344699D02*
X214500D01*
X204500Y343799D02*
X214500D01*
X204500Y342899D02*
X214500D01*
X204500Y341999D02*
X214500D01*
X204500Y341099D02*
X214500D01*
X204500Y340199D02*
X214500D01*
X204500Y339299D02*
X214500D01*
X204500Y338399D02*
X214500D01*
X423500Y230299D02*
X446500D01*
X423500Y229399D02*
X446500D01*
X423500Y228499D02*
X446500D01*
X423500Y227599D02*
X446500D01*
X423500Y226699D02*
X446500D01*
X423500Y225799D02*
X446500D01*
X423500Y224899D02*
X446500D01*
X423500Y223999D02*
X446500D01*
X423500Y223099D02*
X446500D01*
X423500Y222199D02*
X446500D01*
X423500Y221299D02*
X446500D01*
X423500Y220399D02*
X446500D01*
X322000Y152699D02*
X331500D01*
X322000Y151799D02*
X331500D01*
X322000Y150899D02*
X331500D01*
X322000Y149999D02*
X331500D01*
X322000Y149099D02*
X331500D01*
X322000Y148199D02*
X331500D01*
X322000Y147299D02*
X331500D01*
X318000Y146399D02*
X331500D01*
X318000Y145499D02*
X331500D01*
X318000Y144599D02*
X331500D01*
X318000Y143699D02*
X331500D01*
X318000Y142799D02*
X331500D01*
X318000Y141899D02*
X331500D01*
X458500Y250899D02*
X467500D01*
X458500Y249999D02*
X467500D01*
X458500Y249099D02*
X467500D01*
X458500Y248199D02*
X467500D01*
X458500Y247299D02*
X467500D01*
X458500Y246399D02*
X467500D01*
X458500Y245499D02*
X467500D01*
X458500Y244599D02*
X467500D01*
X458500Y243699D02*
X467500D01*
X458500Y242799D02*
X467500D01*
X458500Y241899D02*
X467500D01*
X458500Y240999D02*
X467500D01*
X458500Y240099D02*
X467500D01*
X458500Y239199D02*
X467500D01*
X458500Y238299D02*
X467500D01*
X458500Y237399D02*
X467500D01*
X224000Y422699D02*
X266000D01*
X224000Y421799D02*
X266000D01*
X224000Y420899D02*
X266000D01*
X224000Y419999D02*
X266000D01*
X224000Y419099D02*
X266000D01*
X224000Y418199D02*
X266000D01*
X224000Y417299D02*
X266000D01*
X224000Y416399D02*
X266000D01*
X288500Y146999D02*
X316000D01*
X288500Y146099D02*
X316000D01*
X288500Y145199D02*
X316000D01*
X288500Y144299D02*
X316000D01*
X288500Y143399D02*
X316000D01*
X288500Y142499D02*
X316000D01*
X288500Y141599D02*
X316000D01*
X288500Y140699D02*
X316000D01*
X288500Y139799D02*
X316000D01*
X288500Y138899D02*
X316000D01*
X288500Y137999D02*
X316000D01*
X288500Y137099D02*
X316000D01*
X288500Y136199D02*
X316000D01*
X288500Y135299D02*
X316000D01*
X288500Y134399D02*
X316000D01*
X288500Y133499D02*
X316000D01*
X288500Y132599D02*
X316000D01*
X288500Y131699D02*
X316000D01*
X288500Y130799D02*
X316000D01*
X288500Y129899D02*
X316000D01*
X288500Y128999D02*
X316000D01*
X288500Y128099D02*
X316000D01*
X288500Y127199D02*
X316000D01*
X288500Y126299D02*
X316000D01*
X288500Y125399D02*
X316000D01*
X288500Y152399D02*
X312000D01*
X288500Y151499D02*
X312000D01*
X288500Y150599D02*
X312000D01*
X288500Y149699D02*
X312000D01*
X288500Y148799D02*
X312000D01*
X288500Y147899D02*
X312000D01*
X142000Y273499D02*
X154000D01*
X142000Y272599D02*
X154000D01*
X142000Y271699D02*
X154000D01*
X142000Y270799D02*
X154000D01*
X142000Y269899D02*
X154000D01*
X142000Y268999D02*
X154000D01*
X142000Y268099D02*
X154000D01*
X142000Y267199D02*
X154000D01*
X142000Y266299D02*
X154000D01*
X142000Y265399D02*
X154000D01*
X142000Y277999D02*
X148000D01*
X142000Y277099D02*
X148000D01*
X142000Y276199D02*
X148000D01*
X142000Y275299D02*
X148000D01*
X142000Y274399D02*
X148000D01*
X124500Y306099D02*
X154000D01*
X124500Y305199D02*
X154000D01*
X124500Y304299D02*
X154000D01*
X124500Y303399D02*
X154000D01*
X124500Y302499D02*
X154000D01*
X124500Y301599D02*
X154000D01*
X124500Y300699D02*
X154000D01*
X124500Y299799D02*
X154000D01*
X124500Y298899D02*
X154000D01*
X124500Y297999D02*
X154000D01*
X142000Y297099D02*
X154000D01*
X142000Y296199D02*
X154000D01*
X142000Y295299D02*
X154000D01*
X142000Y294399D02*
X154000D01*
X142000Y293499D02*
X154000D01*
X142000Y292599D02*
X154000D01*
X142000Y291699D02*
X154000D01*
X142000Y290799D02*
X154000D01*
X142000Y289899D02*
X154000D01*
X142000Y288999D02*
X154000D01*
X142000Y288099D02*
X154000D01*
X142000Y287199D02*
X154000D01*
X142000Y286299D02*
X154000D01*
X142000Y285399D02*
X154000D01*
X142000Y284499D02*
X154000D01*
X142000Y283599D02*
X148000D01*
X142000Y282699D02*
X148000D01*
X142000Y281799D02*
X148000D01*
X142000Y280899D02*
X148000D01*
X142000Y204499D02*
X154000D01*
X142000Y203599D02*
X154000D01*
X142000Y202699D02*
X154000D01*
X142000Y201799D02*
X154000D01*
X142000Y200899D02*
X154000D01*
X142000Y199999D02*
X154000D01*
X142000Y199099D02*
X154000D01*
X142000Y198199D02*
X154000D01*
X142000Y197299D02*
X154000D01*
X142000Y196399D02*
X154000D01*
X142000Y208999D02*
X148000D01*
X142000Y208099D02*
X148000D01*
X142000Y207199D02*
X148000D01*
X142000Y206299D02*
X148000D01*
X142000Y205399D02*
X148000D01*
X142000Y154499D02*
X154000D01*
X142000Y153599D02*
X154000D01*
X142000Y152699D02*
X154000D01*
X142000Y151799D02*
X154000D01*
X142000Y150899D02*
X154000D01*
X142000Y149999D02*
X154000D01*
X142000Y149099D02*
X154000D01*
X142000Y148199D02*
X154000D01*
X142000Y147299D02*
X154000D01*
X142000Y146399D02*
X154000D01*
X142000Y158999D02*
X148000D01*
X142000Y158099D02*
X148000D01*
X142000Y157199D02*
X148000D01*
X142000Y156299D02*
X148000D01*
X142000Y155399D02*
X148000D01*
X438500Y179499D02*
X450500D01*
X438500Y178599D02*
X450500D01*
X438500Y177699D02*
X450500D01*
X438500Y176799D02*
X450500D01*
X438500Y175899D02*
X450500D01*
X438500Y174999D02*
X450500D01*
X438500Y174099D02*
X450500D01*
X438500Y173199D02*
X450500D01*
X438500Y172299D02*
X450500D01*
X438500Y171399D02*
X450500D01*
X438500Y170499D02*
X450500D01*
X444500Y169599D02*
X450500D01*
X444500Y168699D02*
X450500D01*
X444500Y167799D02*
X450500D01*
X444500Y166899D02*
X450500D01*
X124500Y221799D02*
X154000D01*
X124500Y220899D02*
X154000D01*
X124500Y219999D02*
X154000D01*
X124500Y219099D02*
X154000D01*
X124500Y218199D02*
X154000D01*
X124500Y217299D02*
X154000D01*
X124500Y216399D02*
X154000D01*
X124500Y215499D02*
X154000D01*
X124500Y214599D02*
X148000D01*
X124500Y213699D02*
X148000D01*
X124500Y212799D02*
X148000D01*
X124500Y211899D02*
X148000D01*
X124500Y171799D02*
X154000D01*
X124500Y170899D02*
X154000D01*
X124500Y169999D02*
X154000D01*
X124500Y169099D02*
X154000D01*
X124500Y168199D02*
X154000D01*
X124500Y167299D02*
X154000D01*
X124500Y166399D02*
X154000D01*
X124500Y165499D02*
X154000D01*
X124500Y164599D02*
X148000D01*
X124500Y163699D02*
X148000D01*
X124500Y162799D02*
X148000D01*
X124500Y161899D02*
X148000D01*
X444500Y163299D02*
X468000D01*
X444500Y162399D02*
X468000D01*
X444500Y161499D02*
X468000D01*
X444500Y160599D02*
X468000D01*
X438500Y159699D02*
X468000D01*
X438500Y158799D02*
X468000D01*
X438500Y157899D02*
X468000D01*
X438500Y156999D02*
X468000D01*
X438500Y156099D02*
X468000D01*
X438500Y155199D02*
X468000D01*
X438500Y154299D02*
X468000D01*
X438500Y153399D02*
X468000D01*
X135750Y252500D02*
G75*
G03X135750I-5750J0D01*
G01X114050Y302000D02*
G03X114050I-5750J0D01*
G01Y252500D02*
G03X114050I-5750J0D01*
G01Y269000D02*
G03X114050I-5750J0D01*
G01X488750Y400000D02*
G03X488750I-10250J0D01*
G01X489100Y420000D02*
G03X489100I-4100J0D01*
G01X458750Y416700D02*
G03X458750I-5750J0D01*
G01X442250Y395000D02*
G03X442250I-5750J0D01*
G01Y416700D02*
G03X442250I-5750J0D01*
G01X425750Y395000D02*
G03X425750I-5750J0D01*
G01Y416700D02*
G03X425750I-5750J0D01*
G01X409250Y395000D02*
G03X409250I-5750J0D01*
G01Y416700D02*
G03X409250I-5750J0D01*
G01X137500Y243000D02*
Y311000D01*
G03X137000Y311500I-500J0*
G01X101600*
G03X101100Y311000I0J-500*
G01Y243000*
G03X101600Y242500I500J0*
G01X137000*
G03X137500Y243000I0J500*
G01X491900Y376000D02*
Y425900D01*
G03X491400Y426400I-500J-0*
G01X396000*
G03X395500Y425900I0J-500*
G01Y387000*
G03X396000Y386500I500J0*
G01X444500*
Y383466*
G03X444806Y383006I500J0*
G01X445149Y382776D02*
G03X444806Y383006I-771J-784D01*
G01X445149Y382776D02*
G03X445851I351J357D01*
G01X446622Y383092D02*
G03X445851Y382776I0J-1100D01*
G01X446622Y383092D02*
X449378D01*
X450149Y382776D02*
G03X449378Y383092I-771J-784D01*
G01X450149Y382776D02*
G03X450851I351J357D01*
G01X451622Y383092D02*
G03X450851Y382776I0J-1100D01*
G01X451622Y383092D02*
X454378D01*
X455149Y382776D02*
G03X454378Y383092I-771J-784D01*
G01X455149Y382776D02*
G03X455851I351J357D01*
G01X456622Y383092D02*
G03X455851Y382776I0J-1100D01*
G01X456622Y383092D02*
X459378D01*
X460478Y381992D02*
G03X459378Y383092I-1100J0D01*
G01X460478Y381992D02*
Y377465D01*
X460151Y376682D02*
G03X460478Y377465I-773J783D01*
G01X460151Y376682D02*
G03X460149Y375973I351J-356D01*
G01X460475Y375646*
G03X460828Y375500I353J354*
G01X471155*
G03X471486Y376375I0J500*
G01X471417Y376439D02*
G03X471486Y376375I1061J1061D01*
G01X471417Y376439D02*
X470763Y377094D01*
G03X470409Y377240I-354J-354*
G01X469638*
X468538Y378340D02*
G03X469638Y377240I1100J0D01*
G01X468538Y378340D02*
Y381140D01*
X469638Y382240D02*
G03X468538Y381140I-0J-1100D01*
G01X469638Y382240D02*
X471638D01*
X472738Y381140D02*
G03X471638Y382240I-1100J0D01*
G01X472738Y381140D02*
Y379569D01*
G03X472884Y379215I500J-0*
G01X472953Y379146*
G03X473306Y379000I353J354*
G01X476200*
G03X476700Y379500I-0J500*
G01Y382600*
X477800Y383700D02*
G03X476700Y382600I0J-1100D01*
G01X477800Y383700D02*
X480200D01*
X481300Y382600D02*
G03X480200Y383700I-1100J-0D01*
G01X481300Y382600D02*
Y380729D01*
G03X482154Y380375I500J-0*
G01X482939Y381161*
X483550Y381531D02*
G03X482939Y381161I450J-1431D01*
G01X483550Y381531D02*
G03X483900Y382006I-150J477D01*
G01X485000Y383100D02*
G03X483900Y382006I0J-1100D01*
G01X485000Y383100D02*
X488000D01*
X489100Y382000D02*
G03X488000Y383100I-1100J0D01*
G01X489100Y382000D02*
Y378200D01*
X488728Y377375D02*
G03X489100Y378200I-728J825D01*
G01X488728Y377375D02*
G03Y376625I330J-375D01*
G01X489091Y375937D02*
G03X488728Y376625I-1091J-137D01*
G01X489091Y375938D02*
G03X489587Y375500I496J62D01*
G01X491400*
G03X491900Y376000I-0J500*
G01X135750Y252500D02*
G03X135750I-5750J0D01*
G01X128439Y274534D02*
G03X129070Y274674I1561J-5534D01*
G01X128439Y274534D02*
G03X128724Y274744I-135J481D01*
X129070Y274674I265J424*
G01X130652Y279787D02*
G03X124264Y285098I-652J5713D01*
G01X130652Y279787D02*
G03X130257Y279075I56J-497D01*
G01X128824Y275640D02*
G03X130257Y279075I-824J2360D01*
G01X128824Y275640D02*
G03X128569Y275439I165J-472D01*
X128253Y275513I-265J-424*
G01X125504Y278139D02*
G03X128253Y275513I2496J-139D01*
G01X125504Y278139D02*
G03X125358Y278520I-499J28D01*
G01X120025Y283854*
G03X119672Y284000I-353J-354*
G01X114221*
G03X113748Y283660I0J-500*
G01Y287340D02*
G03Y283660I-5448J-1840D01*
G01Y287340D02*
G03X114221Y287000I473J160D01*
G01X120500*
X121561Y286561D02*
G03X120500Y287000I-1061J-1061D01*
G01X121561Y286561D02*
X123412Y284710D01*
G03X124264Y285098I353J353*
G01X135750Y306650D02*
Y297350D01*
X134650Y296250D02*
G03X135750Y297350I0J1100D01*
G01X134650Y296250D02*
X125350D01*
X124250Y297350D02*
G03X125350Y296250I1100J0D01*
G01X124250Y297350D02*
Y306650D01*
X125350Y307750D02*
G03X124250Y306650I0J-1100D01*
G01X125350Y307750D02*
X134650D01*
X135750Y306650D02*
G03X134650Y307750I-1100J0D01*
G01X114050Y302000D02*
G03X114050I-5750J0D01*
G01Y252500D02*
G03X114050I-5750J0D01*
G01Y269000D02*
G03X114050I-5750J0D01*
G01X488750Y400000D02*
G03X488750I-10250J0D01*
G01X489100Y420000D02*
G03X489100I-4100J0D01*
G01X479100Y423000D02*
Y417000D01*
X478000Y415900D02*
G03X479100Y417000I0J1100D01*
G01X478000Y415900D02*
X472000D01*
X470900Y417000D02*
G03X472000Y415900I1100J0D01*
G01X470900Y417000D02*
Y423000D01*
X472000Y424100D02*
G03X470900Y423000I0J-1100D01*
G01X472000Y424100D02*
X478000D01*
X479100Y423000D02*
G03X478000Y424100I-1100J0D01*
G01X467462Y381140D02*
Y378340D01*
X466362Y377240D02*
G03X467462Y378340I0J1100D01*
G01X466362Y377240D02*
X464362D01*
X463262Y378340D02*
G03X464362Y377240I1100J0D01*
G01X463262Y378340D02*
Y381140D01*
X464362Y382240D02*
G03X463262Y381140I0J-1100D01*
G01X464362Y382240D02*
X466362D01*
X467462Y381140D02*
G03X466362Y382240I-1100J0D01*
G01X458750Y399650D02*
Y390350D01*
X457650Y389250D02*
G03X458750Y390350I0J1100D01*
G01X457650Y389250D02*
X448350D01*
X447250Y390350D02*
G03X448350Y389250I1100J0D01*
G01X447250Y390350D02*
Y399650D01*
X448350Y400750D02*
G03X447250Y399650I0J-1100D01*
G01X448350Y400750D02*
X457650D01*
X458750Y399650D02*
G03X457650Y400750I-1100J0D01*
G01X458750Y416700D02*
G03X458750I-5750J0D01*
G01X442250Y395000D02*
G03X442250I-5750J0D01*
G01Y416700D02*
G03X442250I-5750J0D01*
G01X425750Y395000D02*
G03X425750I-5750J0D01*
G01Y416700D02*
G03X425750I-5750J0D01*
G01X409250Y395000D02*
G03X409250I-5750J0D01*
G01Y416700D02*
G03X409250I-5750J0D01*
G01X101100Y310899D02*
X137500D01*
X101100Y309999D02*
X137500D01*
X101100Y309099D02*
X137500D01*
X101100Y308199D02*
X137500D01*
X135538Y307299D02*
X137500D01*
X135750Y306399D02*
X137500D01*
X135750Y305499D02*
X137500D01*
X135750Y304599D02*
X137500D01*
X135750Y303699D02*
X137500D01*
X135750Y302799D02*
X137500D01*
X135750Y301899D02*
X137500D01*
X135750Y300999D02*
X137500D01*
X135750Y300099D02*
X137500D01*
X135750Y299199D02*
X137500D01*
X135750Y298299D02*
X137500D01*
X135750Y297399D02*
X137500D01*
X135347Y296499D02*
X137500D01*
X101100Y295599D02*
X137500D01*
X101100Y294699D02*
X137500D01*
X101100Y293799D02*
X137500D01*
X101100Y292899D02*
X137500D01*
X101100Y291999D02*
X137500D01*
X131311Y291099D02*
X137500D01*
X133314Y290199D02*
X137500D01*
X134317Y289299D02*
X137500D01*
X134966Y288399D02*
X137500D01*
X135391Y287499D02*
X137500D01*
X135644Y286599D02*
X137500D01*
X135747Y285699D02*
X137500D01*
X135707Y284799D02*
X137500D01*
X135523Y283899D02*
X137500D01*
X135177Y282999D02*
X137500D01*
X134636Y282099D02*
X137500D01*
X133816Y281199D02*
X137500D01*
X132451Y280299D02*
X137500D01*
X130220Y279399D02*
X137500D01*
X130450Y278499D02*
X137500D01*
X130468Y277599D02*
X137500D01*
X130135Y276699D02*
X137500D01*
X129185Y275799D02*
X137500D01*
X101100Y274899D02*
X137500D01*
X132842Y273999D02*
X137500D01*
X134033Y273099D02*
X137500D01*
X134778Y272199D02*
X137500D01*
X135271Y271299D02*
X137500D01*
X135577Y270399D02*
X137500D01*
X135728Y269499D02*
X137500D01*
X135736Y268599D02*
X137500D01*
X135601Y267699D02*
X137500D01*
X135312Y266799D02*
X137500D01*
X134842Y265899D02*
X137500D01*
X134129Y264999D02*
X137500D01*
X133007Y264099D02*
X137500D01*
X101100Y263199D02*
X137500D01*
X101100Y262299D02*
X137500D01*
X101100Y261399D02*
X137500D01*
X101100Y260499D02*
X137500D01*
X101100Y259599D02*
X137500D01*
X101100Y258699D02*
X137500D01*
X132233Y257799D02*
X137500D01*
X133703Y256899D02*
X137500D01*
X134563Y255999D02*
X137500D01*
X135129Y255099D02*
X137500D01*
X135493Y254199D02*
X137500D01*
X135694Y253299D02*
X137500D01*
X135749Y252399D02*
X137500D01*
X135662Y251499D02*
X137500D01*
X135427Y250599D02*
X137500D01*
X135021Y249699D02*
X137500D01*
X134400Y248799D02*
X137500D01*
X133448Y247899D02*
X137500D01*
X131673Y246999D02*
X137500D01*
X101100Y246099D02*
X137500D01*
X101100Y245199D02*
X137500D01*
X101100Y244299D02*
X137500D01*
X101100Y243399D02*
X137500D01*
X109611Y291099D02*
X128689D01*
X109973Y246999D02*
X128327D01*
X110533Y257799D02*
X127767D01*
X111142Y273999D02*
X127158D01*
X111307Y264099D02*
X126993D01*
X101100Y275799D02*
X126815D01*
X111614Y290199D02*
X126686D01*
X111748Y247899D02*
X126552D01*
X112003Y256899D02*
X126297D01*
X112333Y273099D02*
X125967D01*
X112429Y264999D02*
X125871D01*
X101100Y276699D02*
X125865D01*
X112617Y289299D02*
X125683D01*
X112700Y248799D02*
X125600D01*
X101100Y277599D02*
X125532D01*
X112863Y255999D02*
X125437D01*
X101100Y278499D02*
X125379D01*
X113078Y272199D02*
X125222D01*
X113142Y265899D02*
X125158D01*
X113266Y288399D02*
X125034D01*
X113321Y249699D02*
X124979D01*
X113429Y255099D02*
X124871D01*
X113571Y271299D02*
X124729D01*
X113612Y266799D02*
X124688D01*
X109973Y296499D02*
X124653D01*
X113691Y287499D02*
X124609D01*
X113727Y250599D02*
X124573D01*
X113793Y254199D02*
X124507D01*
X101100Y279399D02*
X124480D01*
X110533Y307299D02*
X124462D01*
X113877Y270399D02*
X124423D01*
X113901Y267699D02*
X124399D01*
X121521Y286599D02*
X124356D01*
X113962Y251499D02*
X124338D01*
X113994Y253299D02*
X124306D01*
X114028Y269499D02*
X124272D01*
X114036Y268599D02*
X124264D01*
X122423Y285699D02*
X124253D01*
X114049Y252399D02*
X124251D01*
X112003Y306399D02*
X124250D01*
X112863Y305499D02*
X124250D01*
X113429Y304599D02*
X124250D01*
X113793Y303699D02*
X124250D01*
X113994Y302799D02*
X124250D01*
X114049Y301899D02*
X124250D01*
X113962Y300999D02*
X124250D01*
X113727Y300099D02*
X124250D01*
X113321Y299199D02*
X124250D01*
X112700Y298299D02*
X124250D01*
X111748Y297399D02*
X124250D01*
X123323Y284799D02*
X124190D01*
X110751Y280299D02*
X123580D01*
X112116Y281199D02*
X122680D01*
X112936Y282099D02*
X121780D01*
X113477Y282999D02*
X120880D01*
X113920Y283899D02*
X119973D01*
X101100Y291099D02*
X106989D01*
X101100Y296499D02*
X106627D01*
X101100Y246999D02*
X106627D01*
X101100Y307299D02*
X106067D01*
X101100Y257799D02*
X106067D01*
X101100Y280299D02*
X105849D01*
X101100Y273999D02*
X105458D01*
X101100Y264099D02*
X105293D01*
X101100Y290199D02*
X104986D01*
X101100Y297399D02*
X104852D01*
X101100Y247899D02*
X104852D01*
X101100Y306399D02*
X104597D01*
X101100Y256899D02*
X104597D01*
X101100Y281199D02*
X104484D01*
X101100Y273099D02*
X104267D01*
X101100Y264999D02*
X104171D01*
X101100Y289299D02*
X103983D01*
X101100Y298299D02*
X103900D01*
X101100Y248799D02*
X103900D01*
X101100Y305499D02*
X103737D01*
X101100Y255999D02*
X103737D01*
X101100Y282099D02*
X103664D01*
X101100Y272199D02*
X103522D01*
X101100Y265899D02*
X103458D01*
X101100Y288399D02*
X103334D01*
X101100Y299199D02*
X103279D01*
X101100Y249699D02*
X103279D01*
X101100Y304599D02*
X103171D01*
X101100Y255099D02*
X103171D01*
X101100Y282999D02*
X103123D01*
X101100Y271299D02*
X103029D01*
X101100Y266799D02*
X102988D01*
X101100Y287499D02*
X102909D01*
X101100Y300099D02*
X102873D01*
X101100Y250599D02*
X102873D01*
X101100Y303699D02*
X102807D01*
X101100Y254199D02*
X102807D01*
X101100Y283899D02*
X102777D01*
X101100Y270399D02*
X102723D01*
X101100Y267699D02*
X102699D01*
X101100Y286599D02*
X102656D01*
X101100Y300999D02*
X102638D01*
X101100Y251499D02*
X102638D01*
X101100Y302799D02*
X102606D01*
X101100Y253299D02*
X102606D01*
X101100Y284799D02*
X102593D01*
X101100Y269499D02*
X102572D01*
X101100Y268599D02*
X102564D01*
X101100Y285699D02*
X102553D01*
X101100Y301899D02*
X102551D01*
X101100Y252399D02*
X102551D01*
X395500Y425899D02*
X491900D01*
X395500Y424999D02*
X491900D01*
X485105Y424099D02*
X491900D01*
X487565Y423199D02*
X491900D01*
X488395Y422299D02*
X491900D01*
X488854Y421399D02*
X491900D01*
X489070Y420499D02*
X491900D01*
X489080Y419599D02*
X491900D01*
X488888Y418699D02*
X491900D01*
X488459Y417799D02*
X491900D01*
X487682Y416899D02*
X491900D01*
X485894Y415999D02*
X491900D01*
X458523Y415099D02*
X491900D01*
X458177Y414199D02*
X491900D01*
X457636Y413299D02*
X491900D01*
X456816Y412399D02*
X491900D01*
X455451Y411499D02*
X491900D01*
X395500Y410599D02*
X491900D01*
X481816Y409699D02*
X491900D01*
X483758Y408799D02*
X491900D01*
X485033Y407899D02*
X491900D01*
X485989Y406999D02*
X491900D01*
X486738Y406099D02*
X491900D01*
X487334Y405199D02*
X491900D01*
X487805Y404299D02*
X491900D01*
X488170Y403399D02*
X491900D01*
X488441Y402499D02*
X491900D01*
X488625Y401599D02*
X491900D01*
X488726Y400699D02*
X491900D01*
X488748Y399799D02*
X491900D01*
X488691Y398899D02*
X491900D01*
X488553Y397999D02*
X491900D01*
X488331Y397099D02*
X491900D01*
X488019Y396199D02*
X491900D01*
X487608Y395299D02*
X491900D01*
X487084Y394399D02*
X491900D01*
X486424Y393499D02*
X491900D01*
X485591Y392599D02*
X491900D01*
X484513Y391699D02*
X491900D01*
X483017Y390799D02*
X491900D01*
X480240Y389899D02*
X491900D01*
X395500Y388999D02*
X491900D01*
X395500Y388099D02*
X491900D01*
X395500Y387199D02*
X491900D01*
X444500Y386299D02*
X491900D01*
X444500Y385399D02*
X491900D01*
X444500Y384499D02*
X491900D01*
X480660Y383599D02*
X491900D01*
X488850Y382699D02*
X491900D01*
X489100Y381799D02*
X491900D01*
X489100Y380899D02*
X491900D01*
X489100Y379999D02*
X491900D01*
X489100Y379099D02*
X491900D01*
X489100Y378199D02*
X491900D01*
X488657Y377299D02*
X491900D01*
X488923Y376399D02*
X491900D01*
X478054Y424099D02*
X484895D01*
X481296Y382699D02*
X484150D01*
X478455Y415999D02*
X484106D01*
X481300Y381799D02*
X483854D01*
X481300Y380899D02*
X482677D01*
X479082Y423199D02*
X482435D01*
X479095Y416899D02*
X482318D01*
X479100Y422299D02*
X481605D01*
X479100Y417799D02*
X481541D01*
X479100Y421399D02*
X481146D01*
X479100Y418699D02*
X481112D01*
X479100Y420499D02*
X480930D01*
X479100Y419599D02*
X480920D01*
X444500Y383599D02*
X477340D01*
X458653Y389899D02*
X476760D01*
X460221Y382699D02*
X476704D01*
X472519Y381799D02*
X476700D01*
X472738Y380899D02*
X476700D01*
X472738Y379999D02*
X476700D01*
X473008Y379099D02*
X476498D01*
X395500Y409699D02*
X475184D01*
X458750Y390799D02*
X473983D01*
X395500Y408799D02*
X473242D01*
X458750Y391699D02*
X472487D01*
X395500Y407899D02*
X471967D01*
X395500Y424099D02*
X471946D01*
X458707Y415999D02*
X471545D01*
X460008Y376399D02*
X471460D01*
X458750Y392599D02*
X471409D01*
X395500Y406999D02*
X471011D01*
X395500Y423199D02*
X470918D01*
X458747Y416899D02*
X470905D01*
X454311Y422299D02*
X470900D01*
X456314Y421399D02*
X470900D01*
X457317Y420499D02*
X470900D01*
X457966Y419599D02*
X470900D01*
X458391Y418699D02*
X470900D01*
X458644Y417799D02*
X470900D01*
X458750Y393499D02*
X470576D01*
X395500Y406099D02*
X470262D01*
X458750Y394399D02*
X469916D01*
X395500Y405199D02*
X469666D01*
X458750Y395299D02*
X469392D01*
X466716Y377299D02*
X469284D01*
X395500Y404299D02*
X469195D01*
X458750Y396199D02*
X468981D01*
X395500Y403399D02*
X468830D01*
X467243Y381799D02*
X468757D01*
X458750Y397099D02*
X468669D01*
X395500Y402499D02*
X468559D01*
X467453Y378199D02*
X468547D01*
X467462Y380899D02*
X468538D01*
X467462Y379999D02*
X468538D01*
X467462Y379099D02*
X468538D01*
X458750Y397999D02*
X468447D01*
X395500Y401599D02*
X468375D01*
X458750Y398899D02*
X468309D01*
X457982Y400699D02*
X468274D01*
X458740Y399799D02*
X468252D01*
X460465Y377299D02*
X464008D01*
X460478Y381799D02*
X463481D01*
X460478Y378199D02*
X463271D01*
X460478Y380899D02*
X463262D01*
X460478Y379999D02*
X463262D01*
X460478Y379099D02*
X463262D01*
X455252Y382699D02*
X455748D01*
X437811Y422299D02*
X451689D01*
X450252Y382699D02*
X450748D01*
X438951Y411499D02*
X450549D01*
X439814Y421399D02*
X449686D01*
X440316Y412399D02*
X449184D01*
X440817Y420499D02*
X448683D01*
X441136Y413299D02*
X448364D01*
X441466Y419599D02*
X448034D01*
X437267Y400699D02*
X448018D01*
X441677Y414199D02*
X447823D01*
X441891Y418699D02*
X447609D01*
X442023Y415099D02*
X447477D01*
X442144Y417799D02*
X447356D01*
X439153Y389899D02*
X447347D01*
X442207Y415999D02*
X447293D01*
X439668Y399799D02*
X447260D01*
X442247Y416899D02*
X447253D01*
X440726Y398899D02*
X447250D01*
X441406Y397999D02*
X447250D01*
X441853Y397099D02*
X447250D01*
X442124Y396199D02*
X447250D01*
X442242Y395299D02*
X447250D01*
X442218Y394399D02*
X447250D01*
X442051Y393499D02*
X447250D01*
X441725Y392599D02*
X447250D01*
X441208Y391699D02*
X447250D01*
X440426Y390799D02*
X447250D01*
X445252Y382699D02*
X445748D01*
X420767Y400699D02*
X435733D01*
X421311Y422299D02*
X435189D01*
X422451Y411499D02*
X434049D01*
X422653Y389899D02*
X433847D01*
X423168Y399799D02*
X433332D01*
X423314Y421399D02*
X433186D01*
X423816Y412399D02*
X432684D01*
X423926Y390799D02*
X432574D01*
X424226Y398899D02*
X432274D01*
X424317Y420499D02*
X432183D01*
X424636Y413299D02*
X431864D01*
X424708Y391699D02*
X431792D01*
X424906Y397999D02*
X431594D01*
X424966Y419599D02*
X431534D01*
X425177Y414199D02*
X431323D01*
X425225Y392599D02*
X431275D01*
X425353Y397099D02*
X431147D01*
X425391Y418699D02*
X431109D01*
X425523Y415099D02*
X430977D01*
X425551Y393499D02*
X430949D01*
X425624Y396199D02*
X430876D01*
X425644Y417799D02*
X430856D01*
X425707Y415999D02*
X430793D01*
X425718Y394399D02*
X430782D01*
X425742Y395299D02*
X430758D01*
X425747Y416899D02*
X430753D01*
X404267Y400699D02*
X419233D01*
X404811Y422299D02*
X418689D01*
X405951Y411499D02*
X417549D01*
X406153Y389899D02*
X417347D01*
X406668Y399799D02*
X416832D01*
X406814Y421399D02*
X416686D01*
X407316Y412399D02*
X416184D01*
X407426Y390799D02*
X416074D01*
X407726Y398899D02*
X415774D01*
X407817Y420499D02*
X415683D01*
X408136Y413299D02*
X415364D01*
X408208Y391699D02*
X415292D01*
X408406Y397999D02*
X415094D01*
X408466Y419599D02*
X415034D01*
X408677Y414199D02*
X414823D01*
X408725Y392599D02*
X414775D01*
X408853Y397099D02*
X414647D01*
X408891Y418699D02*
X414609D01*
X409023Y415099D02*
X414477D01*
X409051Y393499D02*
X414449D01*
X409124Y396199D02*
X414376D01*
X409144Y417799D02*
X414356D01*
X409207Y415999D02*
X414293D01*
X409218Y394399D02*
X414282D01*
X409242Y395299D02*
X414258D01*
X409247Y416899D02*
X414253D01*
X395500Y400699D02*
X402733D01*
X395500Y422299D02*
X402189D01*
X395500Y411499D02*
X401049D01*
X395500Y389899D02*
X400847D01*
X395500Y399799D02*
X400332D01*
X395500Y421399D02*
X400186D01*
X395500Y412399D02*
X399684D01*
X395500Y390799D02*
X399574D01*
X395500Y398899D02*
X399274D01*
X395500Y420499D02*
X399183D01*
X395500Y413299D02*
X398864D01*
X395500Y391699D02*
X398792D01*
X395500Y397999D02*
X398594D01*
X395500Y419599D02*
X398534D01*
X395500Y414199D02*
X398323D01*
X395500Y392599D02*
X398275D01*
X395500Y397099D02*
X398147D01*
X395500Y418699D02*
X398109D01*
X395500Y415099D02*
X397977D01*
X395500Y393499D02*
X397949D01*
X395500Y396199D02*
X397876D01*
X395500Y417799D02*
X397856D01*
X395500Y415999D02*
X397793D01*
X395500Y394399D02*
X397782D01*
X395500Y395299D02*
X397758D01*
X395500Y416899D02*
X397753D01*
X450844Y382770D02*
X452026Y381589D01*
X455156Y382770D02*
X453974Y381589D01*
X445844Y382770D02*
X447026Y381589D01*
X450156Y382770D02*
X448974Y381589D01*
X460156Y376687D02*
X458974Y377868D01*
X455844Y382770D02*
X457026Y381589D01*
X460156Y382770D02*
X458974Y381589D01*
X477022Y383377D02*
X478151Y382248D01*
X480978Y383377D02*
X479849Y382248D01*
X467140Y377562D02*
X466069Y378633D01*
X463584Y377562D02*
X464655Y378633D01*
X463584Y381918D02*
X464655Y380847D01*
X467140Y381918D02*
X466069Y380847D01*
X224000Y412500D02*
X266500D01*
X224000Y411500D02*
X266500D01*
X224000Y410500D02*
X266500D01*
X224000Y409500D02*
X266500D01*
X224000Y408500D02*
X266500D01*
X224000Y407500D02*
X266500D01*
X224000Y406500D02*
X266500D01*
X224000Y405500D02*
X266500D01*
X224000Y404500D02*
X266500D01*
X224000Y403500D02*
X266500D01*
X241000Y402500D02*
X266500D01*
X241000Y401500D02*
X266500D01*
X241000Y400500D02*
X266500D01*
X241000Y399500D02*
X266500D01*
X241000Y398500D02*
X266500D01*
X241000Y397500D02*
X266500D01*
X241000Y396500D02*
X266500D01*
X241000Y395500D02*
X266500D01*
X241000Y394500D02*
X266500D01*
X241000Y393500D02*
X266500D01*
X241000Y392500D02*
X266500D01*
X241000Y391500D02*
X266500D01*
X241000Y390500D02*
X266500D01*
X241000Y389500D02*
X266500D01*
X241000Y388500D02*
X266500D01*
X224000Y403000D02*
Y412500D01*
X225000Y403000D02*
Y412500D01*
X226000Y403000D02*
Y412500D01*
X227000Y403000D02*
Y412500D01*
X228000Y403000D02*
Y412500D01*
X229000Y403000D02*
Y412500D01*
X230000Y403000D02*
Y412500D01*
X231000Y403000D02*
Y412500D01*
X232000Y403000D02*
Y412500D01*
X233000Y403000D02*
Y412500D01*
X234000Y403000D02*
Y412500D01*
X235000Y403000D02*
Y412500D01*
X236000Y403000D02*
Y412500D01*
X237000Y403000D02*
Y412500D01*
X238000Y403000D02*
Y412500D01*
X239000Y403000D02*
Y412500D01*
X240000Y403000D02*
Y412500D01*
X241000Y388000D02*
Y412500D01*
X242000Y388000D02*
Y412500D01*
X243000Y388000D02*
Y412500D01*
X244000Y388000D02*
Y412500D01*
X245000Y388000D02*
Y412500D01*
X246000Y388000D02*
Y412500D01*
X247000Y388000D02*
Y412500D01*
X248000Y388000D02*
Y412500D01*
X249000Y388000D02*
Y412500D01*
X250000Y388000D02*
Y412500D01*
X251000Y388000D02*
Y412500D01*
X252000Y388000D02*
Y412500D01*
X253000Y388000D02*
Y412500D01*
X254000Y388000D02*
Y412500D01*
X255000Y388000D02*
Y412500D01*
X256000Y388000D02*
Y412500D01*
X257000Y388000D02*
Y412500D01*
X258000Y388000D02*
Y412500D01*
X259000Y388000D02*
Y412500D01*
X260000Y388000D02*
Y412500D01*
X261000Y388000D02*
Y412500D01*
X262000Y388000D02*
Y412500D01*
X263000Y388000D02*
Y412500D01*
X264000Y388000D02*
Y412500D01*
X265000Y388000D02*
Y412500D01*
X266000Y388000D02*
Y412500D01*
X205000Y423500D02*
X217500D01*
X205000Y422500D02*
X217500D01*
X205000Y421500D02*
X217500D01*
X205000Y420500D02*
X217500D01*
X205000Y419500D02*
X217500D01*
X205000Y418500D02*
X217500D01*
X205000Y417500D02*
X217500D01*
X205000Y416500D02*
X217500D01*
X205000Y415500D02*
X217500D01*
X205000Y414500D02*
X217500D01*
X205000Y413500D02*
X217500D01*
X205000Y412500D02*
X217500D01*
X205000Y411500D02*
X217500D01*
X205000Y410500D02*
X217500D01*
X205000Y409500D02*
X217500D01*
X205000Y408500D02*
X217500D01*
X205000Y407500D02*
X217500D01*
X205000Y406500D02*
X217500D01*
X205000Y405500D02*
X217500D01*
X205000Y404500D02*
X217500D01*
X205000Y403500D02*
X217500D01*
X205000Y402500D02*
X217500D01*
X205000Y401500D02*
X217500D01*
X205000Y400500D02*
X217500D01*
X205000Y399500D02*
X217500D01*
X205000Y398500D02*
X217500D01*
X205000Y397500D02*
X217500D01*
X205000Y396500D02*
X217500D01*
X205000Y395500D02*
X217500D01*
X205000Y394500D02*
X217500D01*
X205000Y393500D02*
X217500D01*
X205000Y392500D02*
X217500D01*
X205000Y391500D02*
X217500D01*
X205000Y390500D02*
X217500D01*
X205000Y389500D02*
X217500D01*
X205000Y388500D02*
X217500D01*
X205000Y387500D02*
Y423500D01*
X206000Y387500D02*
Y423500D01*
X207000Y387500D02*
Y423500D01*
X208000Y387500D02*
Y423500D01*
X209000Y387500D02*
Y423500D01*
X210000Y387500D02*
Y423500D01*
X211000Y387500D02*
Y423500D01*
X212000Y387500D02*
Y423500D01*
X213000Y387500D02*
Y423500D01*
X214000Y387500D02*
Y423500D01*
X215000Y387500D02*
Y423500D01*
X216000Y387500D02*
Y423500D01*
X217000Y387500D02*
Y423500D01*
X100000Y100000D02*
X493000D01*
Y427500*
X100000*
Y100000*
G54D54*
X205000Y125000D02*
X207900Y127900D01*
Y130000*
X205000Y125000D02*
Y115593D01*
X207150Y113443*
Y106000*
X200850D02*
X201000D01*
Y109500*
X214100Y123000D02*
Y130000D01*
X207900Y123000D02*
X208300D01*
X214850Y116450*
Y106000*
X237480Y127055D02*
Y128039D01*
X224500Y115000D02*
X228000D01*
Y114900*
X261000Y122000D02*
Y128531D01*
X261299*
X221150Y106000D02*
X227500D01*
X228000Y121100D02*
Y121500D01*
X229783Y123283*
X231298*
X231745Y122835*
X233260*
X237480Y127055*
X272520Y106583D02*
X273437Y107500D01*
X275500*
X237480Y127055D02*
Y106583D01*
X272520*
Y128039D02*
Y121867D01*
X275500Y118887*
Y107500*
X248701Y128531D02*
Y136395D01*
X257806Y145500*
X183500Y197000D02*
Y197100D01*
X152000Y141000D02*
X155500D01*
Y140900*
X183500Y151000D02*
Y154900D01*
X173000Y155000D02*
X176500D01*
Y154900*
X183500Y201000D02*
Y204900D01*
X173000Y205000D02*
X176500D01*
Y204900*
X152000Y190500D02*
X155500D01*
Y190900*
X173500Y147000D02*
X176500D01*
Y147100*
X180000Y178000D02*
X183500D01*
Y178150*
X173500Y197000D02*
X176500D01*
Y197100*
X214000Y135500D02*
Y133000D01*
X214100Y132900*
Y130000*
X162480Y209016D02*
X164061D01*
X164160Y208917*
X167717*
X169500Y210700*
Y211100*
X162480Y207047D02*
X163268D01*
X165500Y204815*
Y204086*
X167586Y202000*
X178414*
X180000Y203586*
Y207200*
X183500Y210700*
Y211100*
X159921Y204488D02*
Y204773D01*
X161227*
X162500Y203500*
X157953Y204488D02*
Y202544D01*
X160500Y199996*
Y199500*
X162500Y197500*
Y197100*
X155984Y204488D02*
Y202169D01*
X159000Y199153*
Y189586*
X160586Y188000*
X171500*
X174400Y190900*
X176500*
X169500Y197100D02*
Y196700D01*
X172200Y194000*
X173800*
X176500Y191300*
Y190900*
X162480Y162953D02*
X163268D01*
X166815Y166500*
X183500*
X187500Y170500*
Y175000*
X222500Y210000*
X256000*
X286000Y240000*
X162480Y160984D02*
X164484D01*
X167500Y164000*
X174000*
X176500Y161500*
Y161100*
X162480Y159016D02*
X164061D01*
X164160Y158917*
X167717*
X169500Y160700*
Y161100*
X162480Y157047D02*
X163268D01*
X165500Y154815*
Y154086*
X167586Y152000*
X178414*
X180000Y153586*
Y157200*
X183500Y160700*
Y161100*
X159921Y154488D02*
Y154500D01*
X162000*
X157953Y154488D02*
Y152047D01*
X162500Y147500*
Y147100*
X155984Y154488D02*
Y151733D01*
X159000Y148717*
Y139586*
X160586Y138000*
X171500*
X174400Y140900*
X176500*
X154016Y165512D02*
Y169216D01*
X162500Y177700*
Y178100*
X155984Y165512D02*
Y167484D01*
X158000Y169500*
X160500*
X162500Y171500*
Y171900*
X157953Y165512D02*
Y167453D01*
X158500Y168000*
X163414*
X166000Y170586*
Y173214*
X167786Y175000*
X173800*
X176500Y177700*
Y178100*
X169500Y171900D02*
Y172000D01*
X173000*
X162500Y171900D02*
Y172300D01*
X166000Y175800*
Y176500*
X167600Y178100*
X169500*
Y147100D02*
Y146700D01*
X172359Y143841*
X173959*
X176500Y141300*
Y140900*
X169500Y204900D02*
Y205000D01*
X173000*
X183500Y190900D02*
Y191300D01*
X205700Y213500*
X241000*
X278800Y251300*
X351545*
X353874Y253629*
X354235Y254400*
Y257250*
X183500Y197100D02*
Y201000D01*
X176500Y190900D02*
X183500D01*
X162500D02*
Y191000D01*
X165500*
X162500Y197100D02*
Y196700D01*
X165200Y194000*
X166800*
X169500Y191300*
Y190900*
X183500Y140900D02*
Y141300D01*
X193500Y151300*
Y168000*
X228500Y203000*
X260000*
X302000Y245000*
X347225*
X355805Y253580*
Y257250*
X183500Y147100D02*
Y151000D01*
X169500Y154900D02*
Y155000D01*
X173000*
X176500Y140900D02*
X183500D01*
X162500D02*
Y141000D01*
X166000*
X162500Y147100D02*
Y146700D01*
X165200Y144000*
X166800*
X169500Y141300*
Y140900*
X176500Y161100D02*
Y161500D01*
X179000Y164000*
X185500*
X188000Y166500*
Y168000*
X226500Y206500*
X258000*
X300000Y248500*
X331000*
X176500Y171900D02*
X179950D01*
X180000Y171850*
X183500*
X257806Y145500D02*
X258083Y145777D01*
X258760*
Y145500*
X257806*
X268500Y174079D02*
X272000D01*
Y173559*
X250000Y183500D02*
X251547Y181953D01*
X253913*
X250000Y179500D02*
Y179887D01*
X253913*
Y179984*
X238000Y163000D02*
X244900D01*
X251500Y193000D02*
X254441D01*
X257500Y169000D02*
X258047Y171213D01*
Y171913*
X267000Y160500D02*
Y163441D01*
X272000Y165000D02*
Y168441D01*
X277000Y183400D02*
X281000D01*
Y183100*
X268500Y171500D02*
Y174079D01*
X298900Y168000D02*
Y166100D01*
X300559Y164441*
X301259*
X304700Y161000*
X305100*
X298900D02*
X299300D01*
X307284Y153016*
X311488*
X272000Y173559D02*
Y173500D01*
X275500*
X267000Y168559D02*
X268273D01*
X268500Y171500*
X259559Y193000D02*
Y189497D01*
X260016Y189040*
Y186087*
X251100Y163000D02*
Y166100D01*
X252500Y167500*
X251100Y156000D02*
Y163000D01*
X244900Y156000D02*
X245300D01*
X251800Y149500*
X253060*
X257060Y145500*
X257806*
X266240Y148059D02*
X268835D01*
X272520Y144374*
Y128039*
X266240Y145500D02*
X268000D01*
X269500Y144000*
X263953Y186087D02*
Y188453D01*
X265500Y190000*
X265921Y186087D02*
Y186787D01*
X267135Y188000*
X269500*
X268087Y183921D02*
X270921D01*
X292500Y205500*
X321500*
X337000Y221000*
X343500*
X268087Y181953D02*
X270953D01*
X293000Y204000*
X322500*
X336500Y218000*
X346000*
X268087Y178016D02*
X270016D01*
X272500Y180500*
X277800*
X281000Y177300*
Y176900*
X268087Y176047D02*
X271547D01*
X273500Y178000*
X268087Y174079D02*
X268500D01*
X265921Y171913D02*
Y168559D01*
X267000*
X263953Y171913D02*
X265921D01*
X298850Y182000D02*
X299000D01*
Y178500*
X298900Y175000D02*
X299300D01*
X302000Y172300*
Y166286*
X303786Y164500*
X306414*
X308500Y162414*
Y158360*
X309907Y156953*
X311488*
X324500Y201500D02*
X311000Y188000D01*
Y165315*
X314047Y162268*
Y161480*
X313000Y172500D02*
X315500Y175000D01*
X315900*
X313000Y172500D02*
Y166086D01*
X315086Y164000*
X315811*
X316016Y163795*
Y161480*
X329500Y178500D02*
Y182000D01*
X329900*
X305000Y171000D02*
Y168000D01*
X305100*
X322000Y171000D02*
Y175000D01*
X322100*
X322000Y171000D02*
Y168000D01*
X322100*
X329000Y172000D02*
Y175000D01*
X329900*
X305100Y161000D02*
Y157400D01*
X307516Y154984*
X311488*
X317984Y161480D02*
Y164590D01*
X318083Y164689*
Y166217*
X319953Y161480D02*
Y162268D01*
X321685Y164000*
X322914*
X325000Y166086*
Y177000*
X322512Y158921D02*
X323000D01*
Y161000*
X322512Y156953D02*
X325453D01*
X329500Y161000*
X329900*
X322512Y154984D02*
X325767D01*
X328283Y157500*
X337414*
X339400Y159486*
Y172100*
X315900Y175000D02*
X316438D01*
X316438D02*
X319500Y178500D01*
X315900Y182000D02*
X316000D01*
Y179000*
X322100Y182000D02*
Y179900D01*
X325000Y177000*
X329900Y168000D02*
X330300D01*
X333000Y170700*
Y172300*
X335700Y175000*
X336100*
Y161000D02*
X337000D01*
Y164000*
X329900Y161000D02*
X330300D01*
X333000Y163700*
Y165300*
X335700Y168000*
X336100*
Y154000D02*
X340000D01*
X336100Y182000D02*
X336500D01*
X348500Y194000*
Y243621*
X357375Y252496*
Y257250*
X315900Y168000D02*
X316300D01*
X318083Y166217*
X336100Y182000D02*
Y175000D01*
X336500*
X339400Y172100*
X305100Y175000D02*
Y178450D01*
X305150Y178500*
Y182000*
X388000Y209500D02*
Y170500D01*
X400500Y158000*
X425185*
X429232Y162047*
X430020*
X430500Y170500D02*
X432579D01*
Y170512*
X427000Y184000D02*
X430000D01*
Y184100*
X419500Y153000D02*
X423000D01*
Y153100*
X419500Y170000D02*
X423000D01*
Y170100*
X395000Y184000D02*
X402000D01*
X402100Y184100*
X409000*
X423000Y146900D02*
X424900D01*
X428217Y150217*
Y150917*
X430000Y152700*
Y153100*
Y153500*
X432000Y155500*
X434500*
X436516Y157516*
Y159488*
X430000Y146900D02*
Y147300D01*
X438484Y155784*
Y159488*
X423000Y184100D02*
Y183700D01*
X425700Y181000*
X427300*
X430000Y178300*
Y177900*
X409000Y163900D02*
Y164000D01*
X412500*
X409000Y170100D02*
X411100D01*
X414000Y173000*
X424914*
X427000Y170914*
Y170185*
X429232Y167953*
X430020*
X409000Y184100D02*
X416000D01*
X409000Y177900D02*
Y178000D01*
X412500*
X437000Y184100D02*
Y184000D01*
X440500*
X423000Y163900D02*
Y164300D01*
X424783Y166083*
X426561*
X426660Y165984*
X430020*
X416000Y170100D02*
Y170000D01*
X419500*
X416000Y163900D02*
Y163500D01*
X418500Y161000*
X425000*
X428016Y164016*
X430020*
X430000Y177900D02*
Y177500D01*
X434547Y172953*
Y170512*
X416000Y184100D02*
X418100D01*
X421000Y187000*
X431914*
X433500Y185414*
Y176000*
X436516Y172984*
Y170512*
X416000Y184100D02*
Y183700D01*
X418700Y181000*
X420300*
X423000Y178300*
Y177900*
X416000D02*
Y178000D01*
X419500*
X409000Y146850D02*
Y147000D01*
X412500*
X409000Y153150D02*
X412350D01*
X412400Y153100*
X416000*
Y146900D02*
Y147300D01*
X418700Y150000*
X424714*
X426500Y151786*
Y154414*
X429086Y157000*
X434000*
X434547Y157547*
Y159488*
X108300Y285500D02*
X120500D01*
X128000Y278000*
X173000Y274000D02*
X176500D01*
Y273900*
X183000Y270000D02*
Y273900D01*
X183500*
X183000Y270000D02*
Y266100D01*
X183500*
X152000Y260000D02*
X155500D01*
Y259900*
X180000Y228000D02*
X183500D01*
Y228150*
X162480Y212953D02*
X163268D01*
X167315Y217000*
X194500*
X227000Y249500*
X162480Y210984D02*
X164484D01*
X167500Y214000*
X174000*
X176500Y211500*
Y211100*
X154016Y215512D02*
Y219216D01*
X162500Y227700*
Y228100*
X155984Y215512D02*
Y217484D01*
X158000Y219500*
X160500*
X162500Y221500*
Y221900*
X157953Y215512D02*
Y217453D01*
X158500Y218000*
X163414*
X166000Y220586*
Y223214*
X167786Y225000*
X173800*
X176500Y227700*
Y228100*
X169500Y221900D02*
Y222000D01*
X173000*
X162500Y221900D02*
Y222300D01*
X166000Y225800*
Y226500*
X167600Y228100*
X169500*
X162480Y281953D02*
X163268D01*
X166315Y285000*
X211000*
X228000Y268000*
X288000*
X162480Y279984D02*
X164500D01*
X165500Y280984*
Y281000*
X167500Y283000*
X174000*
X176500Y280500*
Y280100*
X162480Y278016D02*
X164061D01*
X164160Y277917*
X167717*
X169500Y279700*
Y280100*
X162480Y276047D02*
X163268D01*
X165000Y274315*
Y273586*
X167586Y271000*
X178414*
X180000Y272586*
Y276200*
X183500Y279700*
Y280100*
X159921Y273488D02*
Y273000D01*
X162000*
X157953Y273488D02*
Y271544D01*
X160717Y268779*
Y268283*
X162500Y266500*
Y266100*
X155984Y273488D02*
Y271169D01*
X159000Y268153*
Y258586*
X160586Y257000*
X171557*
X174457Y259900*
X176500*
X154016Y284512D02*
Y288216D01*
X162500Y296700*
Y297100*
X155984Y284512D02*
Y286795D01*
X158189Y289000*
X160000*
X160283Y288717*
X160717*
X162500Y290500*
Y290900*
X157953Y284512D02*
Y286780D01*
X158173Y287000*
X163414*
X166000Y289586*
Y292214*
X167786Y294000*
X173800*
X176500Y296700*
Y297100*
X169500Y266100D02*
Y265700D01*
X172200Y263000*
X173800*
X176500Y260300*
Y259900*
X169500Y273900D02*
Y274000D01*
X173000*
X183500Y259900D02*
Y259500D01*
X190000Y253000*
X351265*
X352665Y254400*
Y257250*
X176500Y259900D02*
X183500D01*
X176500Y266100D02*
Y266000D01*
X180000*
X162500Y259900D02*
Y260000D01*
X166000*
X162500Y266100D02*
Y265700D01*
X165200Y263000*
X166800*
X169500Y260300*
Y259900*
X176500Y280100D02*
Y280500D01*
X179000Y283000*
X211000*
X238500Y255500*
X334255*
X343129Y264374*
X343900Y264735*
X346750*
X176500Y211100D02*
Y211500D01*
X180000Y215000*
X199500*
X234500Y250000*
X266500*
X176500Y221900D02*
X179950D01*
X180000Y221850*
X183500*
X294000Y274155D02*
X346750D01*
X292900Y269000D02*
Y271900D01*
X294000Y273000*
Y274155*
X299100Y269000D02*
X303000D01*
X313100Y281000D02*
Y275900D01*
Y275725*
X346750*
X350100Y242732D02*
X358945Y251577D01*
Y257250*
X350100Y242732D02*
Y196400D01*
X362500Y184000*
X385500*
X357500Y262500D02*
X359285Y261740D01*
X359760*
X360515Y260985*
Y257250*
X352000Y280500D02*
X352017Y280483D01*
X355000Y221000D02*
X385914D01*
X400896Y235982*
Y236896*
X414500Y250500*
X359000Y227000D02*
X386980D01*
X414000Y254020*
Y261635*
X363000Y230000D02*
X388000D01*
X412500Y254500*
X352500Y218000D02*
X385394D01*
X421500Y254106*
Y263600*
X330000Y271000D02*
X332941D01*
X329500Y288500D02*
X332941D01*
X366000Y239500D02*
Y242441D01*
X376500Y241000D02*
Y243941D01*
X371500Y241000D02*
Y243941D01*
X334500Y283500D02*
X337228D01*
X303000Y269000D02*
X306900D01*
X302000Y281000D02*
X306900D01*
X341000Y271000D02*
X342585Y272585D01*
X346750*
X341500Y287000D02*
X343900Y286715D01*
X346750*
X376200Y252000D02*
Y249059D01*
X376500*
X376200Y252000D02*
X376215Y254400D01*
Y257250*
X365225Y250500D02*
Y247559D01*
X366000*
X365225Y250500D02*
Y257250D01*
X362085Y252000D02*
Y257250D01*
X320441Y288000D02*
X321000D01*
Y284000*
X325559Y288000D02*
Y285145D01*
X327100Y283605*
Y281000*
X326150Y262000D02*
X338695D01*
X343000Y266305*
X346750*
X326150Y269000D02*
X328000Y267150D01*
X334650*
X335500Y268000*
X343000*
Y267875*
X346750*
X313100Y262000D02*
X319850D01*
X306900D02*
Y269000D01*
X313100D02*
X319850D01*
X320900Y281000D02*
X321000D01*
Y284000*
X327100Y281000D02*
X335968D01*
X335968D02*
X336533Y280435D01*
X336533D02*
X346750D01*
X361000Y243441D02*
X361500D01*
Y240000*
X361000Y248559D02*
X362085D01*
Y252000*
X338059Y288500D02*
Y287211D01*
X341500Y287000*
X338059Y271000D02*
X341000D01*
X371500Y249059D02*
X372000D01*
Y252000*
X340772Y283500D02*
X342500D01*
X342575Y283575*
X346750*
Y269445D02*
X349600D01*
X350371Y269084*
X350916*
X353500Y266500*
X346750Y271015D02*
X350793D01*
X350793D02*
X351308Y270500D01*
X351308D02*
X353500D01*
X346750Y277295D02*
X350400D01*
X351346Y276349*
Y275654*
X353000Y274000*
X346750Y278865D02*
X350400D01*
X352017Y280483*
X346750Y283575D02*
X350425D01*
X351000Y283000*
X355547*
X357047Y281500*
X359894*
X366795Y288401*
Y317750*
X346750Y285145D02*
X349600D01*
X352000Y285500*
X346750Y288285D02*
X350715D01*
X351066Y287934*
X353113*
X357047Y284000*
X359000*
X346750Y289855D02*
X350400D01*
X350545Y290000*
X351500*
X352000Y289500*
X353816*
X355316Y288000*
X359000*
X379355Y257250D02*
Y260100D01*
X379663Y260923*
Y260987*
X379910Y261234*
Y261356*
X380018Y261464*
Y261583*
X387835Y269400*
X397600*
X399500Y267500*
X377785Y257250D02*
Y263000D01*
X378000*
X369935Y257250D02*
Y260100D01*
X370000Y262500*
X368365Y257250D02*
Y254400D01*
X368400Y252300*
X366795Y257250D02*
Y264000D01*
X363655Y257250D02*
Y262500D01*
X380500Y244500D02*
Y251000D01*
X382495Y252995*
Y257250*
X391500Y215000D02*
Y176586D01*
X407086Y161000*
X413500*
X416000Y163500*
Y163900*
X383000Y247500D02*
Y250917D01*
X383000D02*
X384065Y251982D01*
X384065D02*
Y257250D01*
X381000Y241000D02*
X385635Y245635D01*
Y257250*
X385000Y240000D02*
Y242410D01*
X387205Y244615*
Y257250*
X387000Y263000D02*
X388775Y261225D01*
Y257250*
X414500Y240000D02*
Y243500D01*
X434000Y263000*
X458028*
X460028Y265000*
X471914*
X478000Y258914*
Y257300*
X479000Y256300*
X427000Y251000D02*
X431500D01*
X453000Y213000D02*
Y218500D01*
X390500Y240000D02*
Y243441D01*
X391000*
X402000Y286700D02*
X404400Y286715D01*
X407250*
X418000Y255000D02*
Y257000D01*
X418500*
X419000Y257500*
Y259900*
X412500Y285100D02*
X414691D01*
X417441Y282350*
Y282000*
X412500Y272600D02*
X416441D01*
Y273500*
X395100Y252000D02*
Y248559D01*
X396000*
X391900Y252000D02*
X391915Y254400D01*
Y257250*
X437000Y213000D02*
X442000D01*
X422559Y282000D02*
X426000D01*
X421559Y273500D02*
Y273000D01*
X425500*
X396000Y243441D02*
Y244441D01*
X397350*
X399500Y245500*
X391000Y248559D02*
X391900D01*
Y252000*
X419000Y266100D02*
Y265211D01*
X421000Y264100*
X421500Y263600*
X418000Y286031D02*
Y286000D01*
X421000*
X407250Y288285D02*
X411915D01*
X412000Y288200*
X414900*
X407250Y285145D02*
X410100D01*
X412500Y285100*
X407250Y283575D02*
X410100D01*
X410871Y283214*
X415085Y279000*
X445780*
X482681Y315902*
X407250Y277295D02*
X430705D01*
X431000Y277000*
X450218*
X459218Y286000*
X472780*
X482681Y276098*
X407250Y272585D02*
X410100D01*
X412500Y272600*
X407250Y266305D02*
X413695D01*
X413900Y266100*
X419000*
X407250Y264735D02*
X410900D01*
X414000Y261635*
X407250Y263165D02*
X410100D01*
X412500Y260765*
Y254500*
X395055Y257250D02*
Y254400D01*
X395100Y252000*
X390345Y257250D02*
Y260900D01*
X390645Y261200*
Y263000*
X391000*
X380925Y257250D02*
Y260100D01*
X381286Y260871*
X387415Y267000*
X395000*
X451700Y236500D02*
X452000D01*
Y233500*
X451700Y241500D02*
X454200D01*
X456500Y243800*
Y253000*
X459100Y255600*
Y259000*
X451700Y251500D02*
Y254700D01*
X452900Y255900*
Y259000*
X464000Y222000D02*
X467900D01*
X486000Y238000D02*
Y238400D01*
X489500*
X473100Y259000D02*
Y255900D01*
X474300Y254700*
Y251500*
X466900Y259000D02*
X467000D01*
Y262500*
X482500Y238400D02*
Y238800D01*
X485200Y241500*
X486800*
X489500Y244200*
Y244600*
X474100Y222000D02*
Y229000D01*
Y232800*
X474300Y233000*
Y236500*
Y246500D02*
X476800D01*
X479000Y248700*
Y256300*
X474300Y241500D02*
X476800D01*
X478300Y243000*
X479000*
X479800Y242200*
X480500*
X482500Y244200*
Y244600*
X202000Y312500D02*
X202120Y312380D01*
X203000Y313260*
X211079*
X211000Y325000D02*
X211079Y324921D01*
Y320740*
X196500Y322000D02*
X198000Y323500D01*
Y322709*
X199941Y324650*
Y325000*
X169500Y290900D02*
Y291000D01*
X173000*
X162500Y290900D02*
Y291300D01*
X166000Y294800*
Y295500*
X167600Y297100*
X169500*
X212000Y303000D02*
X216000Y307000D01*
Y316000*
X217000Y317000*
X220921*
X165000Y320000D02*
X181000Y336000D01*
X244414*
X248000Y339586*
Y346000*
X155000Y320000D02*
X197500Y362500D01*
X213000*
X205059Y325000D02*
X211000D01*
X198000Y312441D02*
Y312500D01*
X202000*
X198000Y317559D02*
X201895D01*
X202455Y317000*
X206000*
X183500Y297150D02*
X184000D01*
Y301000*
X176500Y290900D02*
X179950D01*
X180000Y290850*
X183500*
X228000Y291343D02*
Y294657D01*
X237343Y304000*
X238183*
X247000Y312817*
Y313703*
X248786Y315489*
X248786D02*
X248860D01*
X248860D02*
X250371Y317000D01*
X251921*
X228000Y291343D02*
X230343Y289000D01*
X238000*
X242000Y293000*
X292200Y316500D02*
Y322914D01*
X292786Y323500*
X297414*
X301900Y319014*
Y316000*
X292200Y316500D02*
X294700Y314000D01*
X295100*
X232000Y316441D02*
Y313000D01*
X236000*
X236740Y313260*
X242079*
X275500Y366500D02*
X295000D01*
X300500Y361000*
X285100Y313900D02*
X288900D01*
Y314000*
X285400Y321000D02*
X288900D01*
X266000Y317500D02*
Y321000D01*
X266200*
X242000Y325000D02*
X242079Y324921D01*
Y320740*
X232000Y293000D02*
X241646Y302646D01*
Y304535*
X250371Y313260*
X251921*
X295100Y321000D02*
Y318957D01*
X299214Y314844*
Y314186*
X301700Y311700*
X232000Y321559D02*
X232350D01*
X234835Y319075*
X234925*
X237000Y317000*
X251921D02*
X259000D01*
X261000Y315000*
X274000*
X286000Y303000*
Y293000*
X302000Y277000*
X312000*
X313100Y275900*
X251921Y313260D02*
X273154D01*
X284000Y302414*
Y282731*
X292576Y274155*
X294000*
X220921Y320740D02*
X222471D01*
X235731Y334000*
X317607*
X319107Y335500*
X320000*
X220921Y317000D02*
X222471D01*
X223983Y318512*
X223983D02*
X224057D01*
X224057D02*
X225500Y319955D01*
Y321603*
X235897Y332000*
X269494*
X274900Y326594*
Y323700*
X220921Y313260D02*
X222471D01*
X223983Y314771*
X224057*
X226961Y317675*
Y321084*
X234747Y328870*
X239450*
Y329264*
X240686Y330500*
X265900*
X269900Y326500*
X271700*
Y326400*
X220921Y313260D02*
Y309079D01*
X222000Y308000*
Y303000*
X233000Y342500D02*
X240300D01*
X243000Y339800*
Y339400*
Y345600D02*
X245600D01*
X246000Y346000*
X248000*
X260000Y321000D02*
Y324500D01*
X359056Y328350D02*
X361169D01*
X334000Y356000D02*
X334559D01*
X321100Y367100D02*
Y370000D01*
X310000Y299086D02*
X313586Y295500D01*
X336000*
X342915Y302415*
X346750*
X310000Y299086D02*
Y324000D01*
X314500Y328500*
X318500*
X324500Y334500*
Y339500*
X364728Y325253D02*
X365500Y326025D01*
Y330713*
X369437Y334650*
X369831*
X364728Y325253D02*
Y321924D01*
X364854Y321798*
X364854D02*
Y321760D01*
X364854D02*
X365159Y321455D01*
X365170*
X365225Y321400*
Y317750*
X304600Y302506D02*
Y327600D01*
X307500Y330500*
X304600Y302506D02*
X313106Y294000D01*
X336645*
X343129Y300484*
X343900Y300845*
X346750*
X358500Y312000D02*
X358648Y312148D01*
X355500Y310000D02*
Y312797D01*
X355500D02*
X355805Y313102D01*
X355805D02*
Y317750D01*
X339000Y319000D02*
X340394D01*
X346750Y312644*
Y311835*
X340500Y315500D02*
Y313255D01*
X343129Y310626*
X343900Y310265*
X346750*
X326500Y366500D02*
X327813Y363000D01*
X327813D02*
X328900D01*
X362000Y342000D02*
X365500D01*
Y341900*
X320500Y344500D02*
Y342000D01*
X320559*
X321000Y359000D02*
Y356000D01*
X321100*
X379500Y329500D02*
X383000D01*
Y329559*
X377500Y312500D02*
X377785Y314900D01*
Y317750*
X347000Y333000D02*
Y332500D01*
X350500*
Y331559*
X330000Y305500D02*
X332941D01*
X346500Y327000D02*
Y322710D01*
X351000Y318210*
Y314585*
X352085Y313500*
X353245*
X353874Y314129*
X354235Y314900*
Y317750*
X344000Y335000D02*
Y332606D01*
X346606Y330000*
X347194*
X348194Y329000*
X352505*
X353250Y328255*
X318100Y366500D02*
Y366700D01*
X319900*
X320300Y367100*
X321100*
X352500Y300500D02*
X355104Y303104D01*
X355209*
X357106Y305000*
X364000*
X369500D02*
X384385D01*
X393485Y314100*
Y317750*
X350000Y323000D02*
Y326441D01*
X350500*
X379500Y323000D02*
X381650Y323441D01*
X383000*
Y324441*
X341000Y305000D02*
Y305255D01*
X342800*
X343100Y305555*
X346750*
X379500Y341900D02*
Y342000D01*
X383000*
X319500Y315000D02*
X334545D01*
X342545Y307000*
X342975*
X343100Y307125*
X346750*
X319500Y320000D02*
X331675D01*
X342980Y308695*
X346750*
X362469Y323500D02*
Y322196D01*
X363655Y321010*
Y317750*
X358531Y323500D02*
X359056D01*
Y328350*
X355500Y332272D02*
X356000D01*
Y335500*
X355500Y328728D02*
X357368D01*
X357746Y328350*
X359056*
X379272Y335000D02*
X382000D01*
X338059Y305500D02*
Y305000D01*
X341000*
X334559Y356000D02*
X337500D01*
X370272Y323500D02*
X373000D01*
X366728D02*
X366795D01*
Y317750*
X346750Y292995D02*
X351005D01*
X353000Y291000*
X356000*
X346750Y294565D02*
X351435D01*
X353000Y293000*
X354500*
X355500Y294000*
X358000*
X346750Y296135D02*
X351233D01*
X351233D02*
X351368Y296000D01*
X351368D02*
X354000D01*
X352665Y317750D02*
Y322926D01*
X353250Y323511*
Y328255*
X357375Y317750D02*
Y313421D01*
X358648Y312148*
X362085Y317750D02*
Y314900D01*
X362100Y312500*
X379355Y317750D02*
Y320600D01*
X379500Y323000*
X328900Y363000D02*
Y360100D01*
X329441Y359559*
Y356000*
X335100Y363000D02*
X344500D01*
X347000Y365500*
Y370200*
X348858Y372058*
Y374476*
X335500Y327900D02*
Y328667D01*
X339000Y331000*
X321100Y363000D02*
Y367100D01*
X372500Y341900D02*
Y342300D01*
X375200Y345000*
X376800*
X379500Y347700*
Y348100*
X372500D02*
X365500D01*
Y352650*
X367000Y354150*
Y358000*
X314900Y356000D02*
X315300D01*
X317800Y353500*
X323414*
X324000Y354086*
Y372394*
X325606Y374000*
X328330*
X328806Y374476*
X331142*
X328900Y348500D02*
X329000D01*
Y345000*
X338500Y341500D02*
X335100D01*
Y338400*
X335500Y338000*
Y334100*
X328900Y341500D02*
X329000D01*
Y338500*
X321100Y349000D02*
X324000D01*
X327000Y352000*
X336894*
X343500Y358606*
Y359714*
X348286Y364500*
X349200*
X349500Y364800*
Y367100*
X314900Y356000D02*
Y349000D01*
Y345600*
X315441Y345059*
Y342000*
X356500Y360900D02*
Y361300D01*
X360176Y364976*
X361476*
X364500Y368000*
X367000*
X356500Y367100D02*
Y368000D01*
X360500*
X356400Y353000D02*
Y357400D01*
X356500Y357500*
Y360900*
X328500Y327900D02*
X335500D01*
X328500Y334100D02*
X329000D01*
Y338500*
X369831Y334650D02*
X373650D01*
X374000Y335000*
X375728*
X393500Y334000D02*
Y334059D01*
X451000Y352500D02*
X452000Y351500D01*
Y346000*
X392700Y323994D02*
Y321795D01*
X393124Y321371*
X393485Y320600*
Y317750*
X392700Y323994D02*
X394706Y326000D01*
X402123*
X404000Y327877*
Y330200*
X407500Y333700*
Y334100*
X384000Y345786D02*
X384786Y345000D01*
X395214*
X396500Y343714*
Y341086*
X398586Y339000*
X405000*
X407500Y341500*
Y341900*
X384000Y345786D02*
Y351000D01*
X384300Y351300*
Y375800*
X386500Y378000*
X389000*
X402300Y310900D02*
Y312800D01*
X420500Y331000*
X440400*
X444600Y335200*
Y335400*
X446100Y336900*
X402300Y310900D02*
X402935Y310265D01*
X407250*
X420200Y318300D02*
X426300Y324400D01*
X455100*
X474700Y344000*
X480161*
X397000Y334000D02*
X400500D01*
Y334059*
X393500Y337500D02*
Y341900D01*
X383000Y342000D02*
X386500D01*
Y341900*
X402000Y302400D02*
X404400Y302415D01*
X407250*
X402000Y297700D02*
X404400Y297705D01*
X407250*
X390000Y329000D02*
X393500D01*
Y328941*
X397000Y329000D02*
X400500D01*
Y328941*
X407500Y324500D02*
Y327900D01*
X396600Y312500D02*
X396625Y314900D01*
Y317750*
X402000Y293000D02*
X404400Y292995D01*
X407250*
X393500Y334059D02*
Y337500D01*
X413500Y306469D02*
X414000D01*
Y309000*
X418000Y306469D02*
Y309000D01*
X421969Y298500D02*
Y299000D01*
X425000*
X421969Y294500D02*
Y295000D01*
X425000*
X395055Y317750D02*
Y320600D01*
X395100Y323000*
X399765Y317750D02*
Y320600D01*
X400000Y323000*
X407250Y311835D02*
X410100D01*
X412500Y311800*
X407250Y303985D02*
X412046D01*
X413500Y302531*
X407250Y300845D02*
X407305Y300900D01*
X407856*
X407250Y294565D02*
X409235D01*
X409300Y294500*
X407250Y291425D02*
X410100D01*
X412500Y291400*
X411500Y368000D02*
Y372506D01*
X393500Y348100D02*
Y354000D01*
X394000Y354500*
X393500Y348100D02*
X395400D01*
X398717Y344783*
Y344083*
X400500Y342300*
Y341900*
Y348100D02*
Y348500D01*
X404000Y352000*
Y357272*
X386500Y348100D02*
Y352150D01*
X389000Y354650*
Y358000*
X407500Y348100D02*
X416600D01*
X419000Y350500*
Y357272*
X407500Y341900D02*
X426100D01*
X428500Y339500*
X462394*
X475000Y352106*
Y359400*
X407500Y334100D02*
X438200D01*
X440100Y336000*
X442000*
X431000Y359500D02*
Y358000D01*
X450500*
Y369000*
X389000Y363000D02*
X391500D01*
X394000Y360500*
Y354500*
X389000Y363000D02*
X391500D01*
X484000Y337300D02*
Y340063D01*
X483900Y350900D02*
Y347937D01*
X484000*
X483500Y359500D02*
X486500D01*
Y359350*
X487839Y344000D02*
Y343900D01*
X490800*
X468000Y372260D02*
Y365600D01*
X475000*
X486500Y365650D02*
Y373900D01*
X320700Y370000D02*
X321100D01*
X355800Y412300D02*
Y416100D01*
X356550Y416850*
Y420822*
X355800Y412300D02*
X356600D01*
X358400Y411800*
X345965Y406400D02*
X347332Y407768D01*
X347600Y407500*
X345965Y406400D02*
X346890Y405475D01*
Y396524*
X336969Y373715D02*
Y374476D01*
X337047*
X336969Y373715D02*
X337530Y373000D01*
X338530Y372000*
X340047*
X341047Y371000*
X343000*
X341450Y408185D02*
Y412550D01*
X343600Y414700*
Y417100*
X341450Y408185D02*
X342335Y407300D01*
X345065*
X345965Y406400*
X328000Y398703D02*
Y401791D01*
X330650Y404441*
X331000*
X328000Y398703D02*
X330179Y396524D01*
X331142*
X334000Y400000D02*
X333806Y399806D01*
X335079Y398533*
Y396524*
X326500Y371500D02*
X327936Y370064D01*
Y369369*
X330806Y366500*
X343400*
X345600Y368700*
Y372206*
X346394Y373000*
X346890Y373776*
Y374476*
X311000Y392500D02*
Y403900D01*
X326000Y376500D02*
X328276Y376642D01*
X328976*
X326000Y392500D02*
X328866D01*
X328976Y392390*
X316000Y397000D02*
X318941D01*
X329000Y413000D02*
X329916Y409559D01*
X331000*
X325600Y380100D02*
X328276Y378610D01*
X328976*
X312000Y377500D02*
X315441D01*
X311000Y370000D02*
X314900D01*
X332000Y393400D02*
X340000Y386127D01*
Y385500*
X302000Y398000D02*
Y375500D01*
X314500Y363000*
X314900*
X353000Y415600D02*
X354400Y414200D01*
X330400Y399800D02*
X330423Y399829D01*
X331840Y398700*
X331877*
X332600Y397977*
Y397975*
X332600D02*
X333160Y397263D01*
X330500Y370200D02*
X333110Y372810D01*
Y374476*
X338600Y417100D02*
X339400Y413800D01*
X338600Y422100D02*
X340700Y424200D01*
X343600Y422100D02*
X346200Y424700D01*
X354652*
X358800Y420552*
Y415400*
X348600Y422100D02*
X351239D01*
X351739Y422600*
X354772*
X356550Y420822*
X364850Y408500D02*
Y411850D01*
X373000Y420000*
X364850Y408500D02*
X367800Y405550D01*
Y404400*
X370700Y401500*
X371100*
X371150Y408500D02*
X378900D01*
X311000Y410100D02*
Y409700D01*
X313700Y407000*
X315091*
X317650Y404441*
X318000*
Y409559D02*
Y412500D01*
Y404441D02*
Y404400D01*
X321300*
X320559Y377500D02*
X323500D01*
X324500Y376500*
X326000*
X318941Y397000D02*
Y397500D01*
X324059Y397000D02*
Y399905D01*
X325000Y400845*
Y403900*
X324059Y397000D02*
Y396650D01*
X326000Y394709*
Y392500*
X344000Y410150D02*
X347850D01*
X347900Y410100*
X351000*
X337000Y403850D02*
Y400036D01*
X337047Y399988*
Y396524*
X328976Y384516D02*
X329676D01*
X331600Y384500*
X328976Y394358D02*
X329676D01*
X332000Y393400*
X333110Y396524D02*
X333160D01*
Y397263*
X339016Y396524D02*
Y398866D01*
X344000Y403850*
X348858Y396524D02*
X351918D01*
X354400Y399006*
Y414200*
X351024Y394358D02*
X351724D01*
X352424Y395059*
X352424D02*
X352433D01*
X355800Y398426*
Y412300*
X351024Y392390D02*
Y392340D01*
X351763*
X352475Y392900*
X352475D02*
X361000Y401425D01*
X361000D02*
Y412379D01*
X351024Y390421D02*
X352624D01*
X352818Y390227*
X354227*
X355500Y391500*
X351024Y388453D02*
X354138D01*
X354185Y388500*
X357500*
X351024Y386484D02*
X351724D01*
X352516Y386000*
X358394*
X361500Y389106*
Y390000*
X364500Y393000*
X367000*
X351024Y384516D02*
X356984D01*
X357000Y384500*
X361000*
X364500Y388000*
X367000*
X351024Y378610D02*
X352700D01*
X353700Y379610*
Y379700*
X356000Y382000*
X351024Y376642D02*
X354642D01*
X360000Y382000*
X335079Y374476D02*
Y373776D01*
X335539Y372961*
X339500Y369000*
X351000Y403900D02*
X352000D01*
Y400000*
X325000Y410100D02*
Y409700D01*
X327700Y407000*
X333850*
X337000Y410150*
X371100Y401500D02*
X371500D01*
X374000Y399000*
Y393000*
X364900Y401500D02*
Y398100D01*
X367000Y396000*
Y393000*
X378900Y401500D02*
X379000D01*
Y398500*
X367000Y378000D02*
X373000D01*
X367000Y383000D02*
X369500D01*
X382000Y395500*
Y403500*
X385100Y406600*
Y408500*
X411500Y372506D02*
Y380500D01*
X431000*
X385000Y398500D02*
X385100Y401500D01*
X443000Y379728D02*
Y377000D01*
X445000Y375000*
X459000*
X462000Y372000*
Y365800*
X468000Y359800*
Y359400*
X458000Y379728D02*
X461864D01*
X461876Y379740*
X465362*
X389000Y393000D02*
Y396500D01*
Y388000D02*
X391500D01*
X398142Y381358*
X402648*
X411500Y372506*
X389000Y373000D02*
X395000D01*
X453000Y395000D02*
Y398000D01*
X475000Y420000*
X479000Y374350D02*
Y375100D01*
X484000Y380100*
X486500*
X465362Y379740D02*
Y380140D01*
X467722Y382500*
X473500*
X475350Y380650*
X479000*
X470638Y379740D02*
Y379340D01*
X472478Y377500*
X476600*
X479000Y375100*
Y374350*
G54D55*
X427500Y229000D02*
X428000Y228500D01*
Y213000*
X445500Y229000D02*
Y227500D01*
X453000*
X460000*
X461500Y229000*
X467900*
G54D56*
X295000Y130000D02*
X311500D01*
G54D58*
X201000Y109500D03*
X227500Y106000D03*
X224500Y115000D03*
X261000Y122000D03*
X151500Y208500D03*
X158500Y161500D03*
X151500Y158500D03*
X152000Y141000D03*
X166000D03*
X162000Y154500D03*
X183500Y151000D03*
X173000Y155000D03*
Y172000D03*
X183500Y201000D03*
X173000Y205000D03*
X165500Y191000D03*
X152000Y190500D03*
X162500Y203500D03*
X150571Y147000D03*
X147036Y150536D03*
X143500Y154071D03*
Y147000D03*
X150571Y197000D03*
X147036Y200536D03*
X143500Y204071D03*
Y197000D03*
X173500Y147000D03*
X180000Y178000D03*
X173500Y197000D03*
X214000Y135500D03*
X250000Y183500D03*
Y179500D03*
X273500Y178000D03*
X252500Y167500D03*
X269500Y188000D03*
X265500Y190000D03*
X238000Y163000D03*
X269500Y144000D03*
X251500Y193000D03*
X257500Y169000D03*
X267000Y160500D03*
X272000Y165000D03*
X299000Y178500D03*
X277000Y183400D03*
X275500Y173500D03*
X268500Y171500D03*
X319500Y178500D03*
X324500Y201500D03*
X318500Y150500D03*
X315500Y157500D03*
X329500Y178500D03*
X305000Y171000D03*
X340000Y154000D03*
X323000Y161000D03*
X316000Y179000D03*
X322000Y171000D03*
X337000Y164000D03*
X326571Y149571D03*
Y142500D03*
X323036Y146036D03*
X319500Y142500D03*
X329000Y172000D03*
X388000Y209500D03*
X441000Y166500D03*
X434000Y163500D03*
X430500Y170500D03*
X412500Y178000D03*
X427000Y184000D03*
X440500D03*
X419500Y153000D03*
X412500Y164000D03*
X419500Y170000D03*
X447071Y177228D03*
Y170157D03*
X443536Y173692D03*
X419500Y178000D03*
X412500Y147000D03*
X385500Y184000D03*
X395000D03*
X128000Y278000D03*
X158500Y280500D03*
X151500Y277500D03*
X158500Y211500D03*
X173000Y222000D03*
Y274000D03*
X183000Y270000D03*
X152000Y260000D03*
X162000Y273000D03*
X166000Y260000D03*
X150571Y266000D03*
X147036Y269536D03*
X143500Y273071D03*
Y266000D03*
X180000Y228000D03*
Y266000D03*
X286000Y240000D03*
X227000Y249500D03*
X288000Y268000D03*
X266500Y250000D03*
X357500Y262500D03*
X353000Y274000D03*
X353500Y266500D03*
X331000Y248500D03*
X352000Y280500D03*
X370000Y262500D03*
X355000Y221000D03*
X343500D03*
X359000Y227000D03*
X363000Y230000D03*
X352500Y218000D03*
X346000D03*
X368400Y252300D03*
X359000Y288000D03*
Y284000D03*
X353500Y270500D03*
X321000Y284000D03*
X330000Y271000D03*
X329500Y288500D03*
X361500Y240000D03*
X366000Y239500D03*
X376500Y241000D03*
X371500D03*
X352000Y285500D03*
X334500Y283500D03*
X378000Y263000D03*
X366795Y264000D03*
X303000Y269000D03*
X302000Y281000D03*
X341000Y271000D03*
X372000Y252000D03*
X341500Y287000D03*
X376200Y252000D03*
X365225Y250500D03*
X363655Y262500D03*
X362085Y252000D03*
X380500Y244500D03*
X391500Y215000D03*
X383000Y247500D03*
X381000Y241000D03*
X385000Y240000D03*
X414900Y288200D03*
X414500Y250500D03*
X387000Y263000D03*
X399500Y267500D03*
X395000Y267000D03*
X414500Y240000D03*
X391000Y263000D03*
X427000Y251000D03*
X453000Y213000D03*
X442000D03*
X399500Y245500D03*
X390500Y240000D03*
X425500Y273000D03*
X426000Y282000D03*
X459500Y237500D03*
Y250500D03*
X402000Y286700D03*
X452000Y233500D03*
X446000Y248000D03*
X418000Y255000D03*
X412500Y285100D03*
Y272600D03*
X395100Y252000D03*
X391900D03*
X421000Y286000D03*
X427500Y229000D03*
X430500D03*
X433500D03*
X436500D03*
X439500D03*
X442500D03*
X445500D03*
X464000Y222000D03*
X486000Y238000D03*
X466500Y237500D03*
X463000D03*
X466500Y250500D03*
X463000D03*
X467000Y262500D03*
X202000Y312500D03*
X211000Y325000D03*
X173000Y291000D03*
X196500Y322000D03*
X206000Y317000D03*
X207000Y339000D03*
Y346000D03*
X184000Y301000D03*
X248000Y346000D03*
X232000Y313000D03*
X275500Y366500D03*
X274900Y323700D03*
X285100Y313900D03*
X285400Y321000D03*
X266000Y317500D03*
X237000Y317000D03*
X271700Y326400D03*
X260000Y324500D03*
X242000Y325000D03*
X356000Y291000D03*
X358000Y294000D03*
X354000Y296000D03*
X358500Y312000D03*
X301900Y316000D03*
X355500Y310000D03*
X301700Y311700D03*
X339500Y369000D03*
X320000Y335500D03*
X339000Y319000D03*
X340500Y315500D03*
X324500Y339500D03*
X326500Y366500D03*
X300500Y361000D03*
X339000Y331000D03*
X310000Y348500D03*
X338500Y341500D03*
X362000Y342000D03*
X355500Y340500D03*
Y343500D03*
Y346500D03*
X345500Y340500D03*
Y343500D03*
Y346500D03*
X320500Y344500D03*
X321000Y359000D03*
X329000Y345000D03*
Y338500D03*
X337500Y356000D03*
X379500Y329500D03*
X377500Y312500D03*
X347000Y333000D03*
X356000Y335500D03*
X330000Y305500D03*
X373000Y323500D03*
X307500Y330500D03*
X346500Y327000D03*
X344000Y335000D03*
X360500Y368000D03*
X318100Y366500D03*
X352500Y300500D03*
X369500Y305000D03*
X364000D03*
X350000Y323000D03*
X379500D03*
X341000Y305000D03*
X362100Y312500D03*
X420200Y318300D03*
X446100Y336900D03*
X400000Y323000D03*
X397000Y334000D03*
X393500Y337500D03*
X383000Y342000D03*
X382000Y335000D03*
X412500Y311800D03*
X402000Y302400D03*
Y297700D03*
X414000Y309000D03*
X399000Y358000D03*
X411000Y353000D03*
X407000D03*
X399000Y354000D03*
X427000D03*
X431000D03*
X435000D03*
X442000Y336000D03*
X390000Y329000D03*
X397000D03*
X407500Y324500D03*
X395100Y323000D03*
X396600Y312500D03*
X402000Y293000D03*
X412500Y291400D03*
X418000Y309000D03*
X425000Y295000D03*
Y299000D03*
X484000Y337300D03*
X490800Y343900D03*
X483900Y350900D03*
X483500Y359500D03*
X260000Y419500D03*
X255000D03*
X250000D03*
X245000D03*
X240000D03*
X234500D03*
X264000Y391000D03*
X249000D03*
X254000D03*
X259000D03*
X244000D03*
X356000Y382000D03*
X360000D03*
X355500Y391500D03*
X326500Y371500D03*
X339400Y413800D03*
X334000Y400000D03*
X343000Y371000D03*
X357500Y388500D03*
X374000Y393000D03*
X358500Y393500D03*
X311000Y392500D03*
X352000Y400000D03*
X326000Y376500D03*
Y392500D03*
X340700Y424200D03*
X318000Y412500D03*
X316000Y397000D03*
X379000Y398500D03*
X329000Y413000D03*
X325600Y380100D03*
X331600Y384500D03*
X312000Y377500D03*
X311000Y370000D03*
X373000Y378000D03*
X332000Y393400D03*
X302000Y398000D03*
X321300Y404400D03*
X358400Y411800D03*
X358800Y415400D03*
X353000Y415600D03*
X347600Y407500D03*
X330400Y399800D03*
X330500Y370200D03*
X395000Y373000D03*
X385000Y398500D03*
X389000Y396500D03*
G54D60*
X446000Y248000D02*
X449200Y246500D01*
X451700*
X440500Y251000D02*
X446000Y248000D01*
X435500Y240858D02*
Y241500D01*
X451700*
X335100Y348500D02*
X339500D01*
X341500Y350500*
X344600Y351792*
Y353000*
X349500Y367100D02*
X356500D01*
X344600Y353000D02*
Y356500D01*
X349050Y360950*
Y360900*
X349500*
G54D106*
X361169Y328350D03*
X369831D03*
Y334650D03*
X361169D03*
G54D107*
X356400Y353000D03*
X344600D03*
G54D108*
X470638Y379740D03*
X465362D03*
X468000Y372260D03*
G54D109*
X233000Y342500D03*
X212000D03*
G54D110*
X451146Y269701D03*
Y332299D03*
G54D111*
X466500Y278500D03*
Y323500D03*
G54D112*
X482681Y276098D03*
Y286098D03*
Y315902D03*
Y325902D03*
G54D113*
X331142Y374476D03*
X333110D03*
X335079D03*
X337047D03*
X339016D03*
X340984D03*
X342953D03*
X344921D03*
X346890D03*
X348858D03*
Y396524D03*
X346890D03*
X344921D03*
X342953D03*
X340984D03*
X339016D03*
X337047D03*
X335079D03*
X333110D03*
X331142D03*
X256079Y171913D03*
X258047D03*
X260016D03*
X261984D03*
X263953D03*
X265921D03*
Y186087D03*
X263953D03*
X261984D03*
X260016D03*
X258047D03*
X256079D03*
G54D114*
X351024Y376642D03*
Y378610D03*
Y380579D03*
Y382547D03*
Y384516D03*
Y386484D03*
Y388453D03*
Y390421D03*
Y392390D03*
Y394358D03*
X328976D03*
Y392390D03*
Y390421D03*
Y388453D03*
Y386484D03*
Y384516D03*
Y382547D03*
Y380579D03*
Y378610D03*
Y376642D03*
X268087Y174079D03*
Y176047D03*
Y178016D03*
Y179984D03*
Y181953D03*
Y183921D03*
X253913D03*
Y181953D03*
Y179984D03*
Y178016D03*
Y176047D03*
Y174079D03*
G54D115*
X340000Y385500D03*
G54D116*
X352665Y257250D03*
X354235D03*
X355805D03*
X357375D03*
X358945D03*
X360515D03*
X362085D03*
X363655D03*
X365225D03*
X366795D03*
X368365D03*
X369935D03*
X371505D03*
X373075D03*
X374645D03*
X376215D03*
X377785D03*
X379355D03*
X380925D03*
X382495D03*
X384065D03*
X385635D03*
X387205D03*
X388775D03*
X390345D03*
X391915D03*
X393485D03*
X395055D03*
X396625D03*
X398195D03*
X399765D03*
X401335D03*
Y317750D03*
X399765D03*
X398195D03*
X396625D03*
X395055D03*
X393485D03*
X391915D03*
X390345D03*
X388775D03*
X387205D03*
X385635D03*
X384065D03*
X382495D03*
X380925D03*
X379355D03*
X377785D03*
X376215D03*
X374645D03*
X373075D03*
X371505D03*
X369935D03*
X368365D03*
X366795D03*
X365225D03*
X363655D03*
X362085D03*
X360515D03*
X358945D03*
X357375D03*
X355805D03*
X354235D03*
X352665D03*
G54D117*
X407250Y263165D03*
Y264735D03*
Y266305D03*
Y267875D03*
Y269445D03*
Y271015D03*
Y272585D03*
Y274155D03*
Y275725D03*
Y277295D03*
Y278865D03*
Y280435D03*
Y282005D03*
Y283575D03*
Y285145D03*
Y286715D03*
Y288285D03*
Y289855D03*
Y291425D03*
Y292995D03*
Y294565D03*
Y296135D03*
Y297705D03*
Y299275D03*
Y300845D03*
Y302415D03*
Y303985D03*
Y305555D03*
Y307125D03*
Y308695D03*
Y310265D03*
Y311835D03*
X346750D03*
Y310265D03*
Y308695D03*
Y307125D03*
Y305555D03*
Y303985D03*
Y302415D03*
Y300845D03*
Y299275D03*
Y297705D03*
Y296135D03*
Y294565D03*
Y292995D03*
Y291425D03*
Y289855D03*
Y288285D03*
Y286715D03*
Y285145D03*
Y283575D03*
Y282005D03*
Y280435D03*
Y278865D03*
Y277295D03*
Y275725D03*
Y274155D03*
Y272585D03*
Y271015D03*
Y269445D03*
Y267875D03*
Y266305D03*
Y264735D03*
Y263165D03*
G54D118*
X418000Y286031D03*
Y289969D03*
X421969Y294500D03*
X418031D03*
X421969Y298500D03*
X418031D03*
X418000Y306469D03*
Y302531D03*
X413500D03*
Y306469D03*
X358531Y323500D03*
X362469D03*
G54D119*
X366728D03*
X370272D03*
X340772Y283500D03*
X337228D03*
X375728Y335000D03*
X379272D03*
G54D120*
X329441Y356000D03*
X334559D03*
X259559Y193000D03*
X254441D03*
X205059Y325000D03*
X199941D03*
X324059Y397000D03*
X318941D03*
X320559Y377500D03*
X315441D03*
X338059Y271000D03*
X332941D03*
X338059Y288500D03*
X332941D03*
X416441Y273500D03*
X421559D03*
X417441Y282000D03*
X422559D03*
X338059Y305500D03*
X332941D03*
X325559Y288000D03*
X320441D03*
G54D121*
X331000Y404441D03*
Y409559D03*
X366000Y247559D03*
Y242441D03*
X371500Y249059D03*
Y243941D03*
X267000Y168559D03*
Y163441D03*
X272000Y173559D03*
Y168441D03*
X198000Y317559D03*
Y312441D03*
X232000Y316441D03*
Y321559D03*
X391000Y248559D03*
Y243441D03*
X396000Y248559D03*
Y243441D03*
X383000Y324441D03*
Y329559D03*
X393500Y328941D03*
Y334059D03*
X400500Y328941D03*
Y334059D03*
X376500Y249059D03*
Y243941D03*
X361000Y248559D03*
Y243441D03*
X350500Y326441D03*
Y331559D03*
X318000Y404441D03*
Y409559D03*
G54D122*
X115500Y373819D03*
Y326181D03*
G54D123*
X314500Y320000D03*
G54D124*
X319500D03*
X314500Y315000D03*
X319500D03*
X314500Y310000D03*
X319500D03*
X314500Y305000D03*
X319500D03*
X314500Y300000D03*
X319500D03*
G54D125*
X211079Y320740D03*
Y317000D03*
Y313260D03*
X220921D03*
Y317000D03*
Y320740D03*
X242079D03*
Y317000D03*
Y313260D03*
X251921D03*
Y317000D03*
Y320740D03*
G54D126*
X261000Y179000D03*
G54D127*
X266240Y142941D03*
Y145500D03*
Y148059D03*
X258760D03*
Y145500D03*
Y142941D03*
G54D128*
X248701Y128531D03*
X251850D03*
X255000D03*
X258150D03*
X261299D03*
G54D129*
X237480Y128039D03*
X272520D03*
X237480Y106583D03*
X272520D03*
G54D130*
X246339Y118000D03*
X263661D03*
G54D131*
X355500Y328728D03*
Y332272D03*
G54D132*
X480161Y344000D03*
X487839D03*
G54D133*
X484000Y347937D03*
Y340063D03*
G54D134*
X254325Y119898D02*
Y122825D01*
X255000Y123500*
Y128531*
X254325Y119898D02*
X260323Y113900D01*
X266627*
X270100Y117373*
Y118627*
X251850Y128531D02*
Y123500D01*
X252525Y122825*
Y119152*
X259578Y112100*
X267373*
X271900Y116627*
Y119373*
X258866Y142941D02*
X260600Y143643D01*
X261600Y144643*
Y157700*
X258866Y142941D02*
X259160D01*
X261600Y140501*
Y135341*
X265101Y131840*
Y121626*
X267627Y119100*
X269627*
X270100Y118627*
X266134Y142941D02*
X266240D01*
X263400Y140501D02*
X265840Y142941D01*
X266134*
X263400Y140501D02*
Y136087D01*
X266901Y132586*
Y122372*
X268373Y120900*
X270373*
X271900Y119373*
X261900Y169916D02*
X261984Y170000D01*
Y171913*
X261900Y169916D02*
Y160473D01*
X263400Y158973*
Y144643*
X264400Y143643*
X266134Y142941*
X258760D02*
X258866D01*
X260016Y171913D02*
Y170000D01*
X260100Y169916*
Y159727*
X261600Y158227*
Y157700*
G54D163*
X315441Y342000D03*
X320559D03*
G54D164*
X311488Y158921D03*
Y156953D03*
Y154984D03*
Y153016D03*
Y151047D03*
Y149079D03*
X322512D03*
Y151047D03*
Y153016D03*
Y154984D03*
Y156953D03*
Y158921D03*
X147520Y281953D03*
Y279984D03*
Y278016D03*
Y276047D03*
X162480D03*
Y278016D03*
Y279984D03*
Y281953D03*
X147520Y162953D03*
Y160984D03*
Y159016D03*
Y157047D03*
X162480D03*
Y159016D03*
Y160984D03*
Y162953D03*
X147520Y212953D03*
Y210984D03*
Y209016D03*
Y207047D03*
X162480D03*
Y209016D03*
Y210984D03*
Y212953D03*
X444980Y162047D03*
Y164016D03*
Y165984D03*
Y167953D03*
X430020D03*
Y165984D03*
Y164016D03*
Y162047D03*
G54D165*
X314047Y146520D03*
X316016D03*
X317984D03*
X319953D03*
Y161480D03*
X317984D03*
X316016D03*
X314047D03*
X159921Y284512D03*
X157953D03*
X155984D03*
X154016D03*
X152047D03*
X150079D03*
Y273488D03*
X152047D03*
X154016D03*
X155984D03*
X157953D03*
X159921D03*
Y165512D03*
X157953D03*
X155984D03*
X154016D03*
X152047D03*
X150079D03*
Y154488D03*
X152047D03*
X154016D03*
X155984D03*
X157953D03*
X159921D03*
Y215512D03*
X157953D03*
X155984D03*
X154016D03*
X152047D03*
X150079D03*
Y204488D03*
X152047D03*
X154016D03*
X155984D03*
X157953D03*
X159921D03*
X432579Y159488D03*
X434547D03*
X436516D03*
X438484D03*
X440453D03*
X442421D03*
Y170512D03*
X440453D03*
X438484D03*
X436516D03*
X434547D03*
X432579D03*
G54D166*
X317000Y154000D03*
G54D167*
X155000Y279000D03*
Y160000D03*
Y210000D03*
X437500Y165000D03*
G54D168*
X353600Y419600D03*
X333600Y415600D03*
Y423600D03*
G54D169*
X348600Y422100D03*
X343600D03*
X338600D03*
X348600Y417100D03*
X343600D03*
X338600D03*
G54D170*
X431500Y251000D03*
X440500D03*
X437000Y213000D03*
X428000D03*
G54D171*
X453000Y218500D03*
Y227500D03*
G54D172*
X361000Y412379D02*
X361100Y412479D01*
Y420090*
X330750Y422419D02*
Y424781D01*
X332469Y426500*
X354690*
X361100Y420090*
X330750Y422419D02*
X333769Y419400D01*
X334100*
X336400Y417100*
X338600*
G74*
X0Y0D02*
M02*
