*
*
G04 PADS9.1 Build Number: 384028 generated Gerber (RS-274-X) file*
G04 PC Version=2.1*
*
%IN "ASPS_DAQv5p2.pcb"*%
*
%MOIN*%
*
%FSLAX35Y35*%
*
*
*
*
G04 PC Standard Apertures*
*
*
G04 Thermal Relief Aperture macro.*
%AMTER*
1,1,$1,0,0*
1,0,$1-$2,0,0*
21,0,$3,$4,0,0,45*
21,0,$3,$4,0,0,135*
%
*
*
G04 Annular Aperture macro.*
%AMANN*
1,1,$1,0,0*
1,0,$2,0,0*
%
*
*
G04 Odd Aperture macro.*
%AMODD*
1,1,$1,0,0*
1,0,$1-0.005,0,0*
%
*
*
G04 PC Custom Aperture Macros*
*
*
*
*
*
*
G04 PC Aperture Table*
*
%ADD010C,0.001*%
%ADD011R,0.093X0.093*%
%ADD012C,0.093*%
%ADD020R,0.065X0.065*%
%ADD021C,0.065*%
%ADD023C,0.15*%
%ADD033C,0.183*%
%ADD037C,0.015*%
%ADD044R,0.083X0.083*%
%ADD045C,0.083*%
%ADD048R,0.06X0.06*%
%ADD049C,0.06*%
%ADD053C,0.01*%
%ADD054C,0.008*%
%ADD058C,0.028*%
%ADD110C,0.08917*%
%ADD111C,0.12598*%
%ADD112C,0.06512*%
%ADD122C,0.12205*%
%ADD123R,0.04X0.04*%
%ADD124C,0.04*%
%ADD130C,0.03543*%
%ADD168C,0.039*%
*
*
*
*
G04 PC Circuitry*
G04 Layer Name ASPS_DAQv5p2.pcb - circuitry*
%LPD*%
*
*
G04 PC Custom Flashes*
G04 Layer Name ASPS_DAQv5p2.pcb - flashes*
%LPD*%
*
*
G04 PC Circuitry*
G04 Layer Name ASPS_DAQv5p2.pcb - circuitry*
%LPD*%
*
G54D10*
G54D11*
G01X129500Y168000D03*
Y218000D03*
X463000Y157000D03*
X130000Y302000D03*
X453000Y395000D03*
X295000Y130000D03*
G54D12*
X129500Y151500D03*
X107800Y168000D03*
Y151500D03*
X129500Y201500D03*
X107800Y218000D03*
Y201500D03*
X463000Y173500D03*
X484700Y157000D03*
Y173500D03*
X130000Y285500D03*
Y269000D03*
Y252500D03*
X108300Y302000D03*
Y285500D03*
Y269000D03*
Y252500D03*
X436500Y395000D03*
X420000D03*
X403500D03*
X453000Y416700D03*
X436500D03*
X420000D03*
X403500D03*
X311500Y130000D03*
X328000D03*
X344500D03*
X295000Y108300D03*
X311500D03*
X328000D03*
X344500D03*
G54D20*
X233000Y392500D03*
X213000Y362500D03*
G54D21*
X223000Y392500D03*
X213000D03*
X223000Y362500D03*
X233000D03*
G54D23*
X273000Y377500D03*
X173000D03*
G54D33*
X116500Y400000D03*
Y120000D03*
X476500D03*
X478500Y400000D03*
G54D37*
X104234Y256566D02*
X105012Y255788D01*
X104234Y248434D02*
X105012Y249212D01*
X112366Y248434D02*
X111588Y249212D01*
X112366Y256566D02*
X111588Y255788D01*
X119212Y339398D02*
X118434Y340176D01*
X119212Y346823D02*
X118434Y346045D01*
X111788Y346823D02*
X112566Y346045D01*
X111788Y339398D02*
X112566Y340176D01*
G54D44*
X115500Y356890D03*
G54D45*
Y343110D03*
G54D48*
X242000Y293000D03*
X373000Y420000D03*
X475000D03*
X452000Y346000D03*
X150000Y120000D03*
X398000Y218000D03*
X271000Y308000D03*
X128000Y420000D03*
X145000Y320000D03*
X222000Y303000D03*
G54D49*
X441500Y283480D03*
X431500Y288480D03*
X441500Y293480D03*
X431500Y298480D03*
X441500Y303480D03*
X431500Y308480D03*
X441500Y313480D03*
X431500Y318480D03*
X232000Y293000D03*
X383000Y420000D03*
X485000D03*
X462000Y346000D03*
X160000Y120000D03*
X408000Y218000D03*
X271000Y298000D03*
Y288000D03*
Y278000D03*
X118000Y420000D03*
X108000D03*
X155000Y320000D03*
X165000D03*
X175000D03*
X212000Y303000D03*
G54D53*
X200500Y321000D02*
X207500D01*
Y315500*
X200500*
Y321000*
X235500Y319500D02*
X238500D01*
Y315500*
X235500*
Y319500*
X200500Y320899D02*
X207500D01*
X200500Y319999D02*
X207500D01*
X200500Y319099D02*
X207500D01*
X200500Y318199D02*
X207500D01*
X200500Y317299D02*
X207500D01*
X200500Y316399D02*
X207500D01*
X235500Y319099D02*
X238500D01*
X235500Y318199D02*
X238500D01*
X235500Y317299D02*
X238500D01*
X235500Y316399D02*
X238500D01*
X120750Y343110D02*
G75*
G03X120750I-5250J0D01*
G01X208500Y317000D02*
G03X208500I-2500J0D01*
G01X114050Y252500D02*
G03X114050I-5750J0D01*
G01X240500Y317011D02*
Y322764D01*
G03X240333Y323137I-500J-0*
G01X240068Y326587D02*
G03X240333Y323137I1932J-1587D01*
G01X240068Y326587D02*
G03X240035Y327258I-386J317D01*
G01X232939Y334354*
G03X232586Y334500I-353J-354*
G01X171793*
X141939Y364354*
G03X141586Y364500I-353J-354*
G01X109000*
G03X108500Y364000I0J-500*
G01Y337000*
G03X109000Y336500I500J0*
G01X152207*
X163061Y325646*
G03X163414Y325500I353J354*
G01X208172*
G03X208643Y325833I-0J500*
G01X210987Y327500D02*
G03X208643Y325833I13J-2500D01*
G01X210987Y327500D02*
G03X211000I-3J500D01*
X211013I16J500*
G01X213357Y325833D02*
G03X211013Y327500I-2357J-833D01*
G01X213357Y325833D02*
G03X213828Y325500I471J167D01*
G01X224207*
X227500Y322207*
Y309000*
G03X228000Y308500I500J0*
G01X240000*
G03X240500Y309000I0J500*
G01Y316989*
G03Y317000I-500J-0*
Y317011I-500J11*
G01X213500Y309000D02*
Y321000D01*
G03X213000Y321500I-500J-0*
G01X212993D02*
G03X213000I7J1500D01*
G01X212993D02*
X212991D01*
X200000*
G03X199500Y321000I0J-500*
G01Y316500*
X177272*
G03X177025Y316435I-0J-500*
G01X172975D02*
G03X177025I2025J3565D01*
G01X172975D02*
G03X172728Y316500I-247J-435D01*
G01X167272*
G03X167025Y316435I-0J-500*
G01X162975D02*
G03X167025I2025J3565D01*
G01X162975D02*
G03X162728Y316500I-247J-435D01*
G01X157272*
G03X157025Y316435I-0J-500*
G01X152975D02*
G03X157025I2025J3565D01*
G01X152975D02*
G03X152728Y316500I-247J-435D01*
G01X149249*
G03X148859Y316312I0J-500*
G01X148000Y315900D02*
G03X148859Y316312I0J1100D01*
G01X148000Y315900D02*
X142000D01*
X141141Y316312D02*
G03X142000Y315900I859J688D01*
G01X141141Y316312D02*
G03X140751Y316500I-390J-312D01*
G01X122414*
G03X122061Y316354I0J-500*
G01X114646Y308939*
G03X114500Y308586I354J-353*
G01Y264793*
X111207Y261500*
X101600*
G03X101100Y261000I0J-500*
G01Y245500*
G03X101600Y245000I500J0*
G01X137000*
G03X137500Y245500I0J500*
G01Y260000*
G03X137000Y260500I-500J0*
G01X127793*
X123500Y264793*
Y306207*
X124243Y306950*
G03X124346Y307100I-353J354*
G01X124900Y307654D02*
G03X124346Y307100I450J-1004D01*
G01X124900Y307654D02*
G03X125050Y307757I-204J456D01*
G01X125793Y308500*
X213000*
G03X213500Y309000I0J500*
G01X230333Y314863D02*
G03X233667I1667J-1863D01*
G01X230333D02*
G03X230500Y315236I-333J373D01*
G01Y324172*
G03X230354Y324525I-500J-0*
G01X226525Y328354*
G03X226172Y328500I-353J-354*
G01X211016*
G03X211000I-0J-500*
X210984I-16J-500*
G01X165890*
X164829Y328939D02*
G03X165890Y328500I1061J1061D01*
G01X164829Y328939D02*
X138525Y355243D01*
G03X138172Y355390I-353J-353*
G01X121250*
G03X120750Y354890I0J-500*
G01Y352740*
X119650Y351640D02*
G03X120750Y352740I0J1100D01*
G01X119650Y351640D02*
X111350D01*
X110250Y352740D02*
G03X111350Y351640I1100J-0D01*
G01X110250Y352740D02*
Y361040D01*
X111350Y362140D02*
G03X110250Y361040I0J-1100D01*
G01X111350Y362140D02*
X119650D01*
X120750Y361040D02*
G03X119650Y362140I-1100J-0D01*
G01X120750Y361040D02*
Y358890D01*
G03X121250Y358390I500J-0*
G01X139000*
X140061Y357950D02*
G03X139000Y358390I-1061J-1060D01*
G01X140061Y357950D02*
X166365Y331646D01*
G03X166718Y331500I353J354*
G01X227000*
X228061Y331061D02*
G03X227000Y331500I-1061J-1061D01*
G01X228061Y331061D02*
X233061Y326061D01*
X233500Y325000D02*
G03X233061Y326061I-1500J0D01*
G01X233500Y325000D02*
Y317016D01*
G03Y317000I500J-0*
Y316984I500J-16*
G01Y315236*
G03X233667Y314863I500J0*
G01X239500Y317000D02*
G03Y316991I500J-11D01*
G01X234500Y316987D02*
G03X239500Y316991I2500J13D01*
G01X234500Y316987D02*
G03Y317000I-500J-3D01*
Y317013I-500J16*
G01X239500Y317009D02*
G03X234500Y317013I-2500J-9D01*
G01X239500Y317009D02*
G03Y317000I500J2D01*
G01X120750Y343110D02*
G03X120750I-5250J0D01*
G01X199835Y311250D02*
G03X200618Y314583I2165J1250D01*
G01X199835Y311250D02*
G03X199402Y311500I-433J-250D01*
G01X125828*
G03X125475Y311354I0J-500*
G01X120646Y306525*
G03X120500Y306172I354J-353*
G01Y264328*
G03X120646Y263975I500J0*
G01X126874Y257748*
G03X127449Y257653I353J353*
G01X124847Y255051D02*
G03X127449Y257653I5153J-2551D01*
G01X124847Y255051D02*
G03X124752Y255626I-448J222D01*
G01X117939Y262439*
X117500Y263500D02*
G03X117939Y262439I1500J0D01*
G01X117500Y263500D02*
Y307000D01*
X117939Y308061D02*
G03X117500Y307000I1061J-1061D01*
G01X117939Y308061D02*
X123939Y314061D01*
X125000Y314500D02*
G03X123939Y314061I0J-1500D01*
G01X125000Y314500D02*
X200342D01*
G03X200618Y314583I-0J500*
G01X208500Y317000D02*
G03X208500I-2500J0D01*
G01X114050Y252500D02*
G03X114050I-5750J0D01*
G01X233500Y321999D02*
X240500D01*
X233500Y321099D02*
X240500D01*
X233500Y320199D02*
X240500D01*
X237983Y319299D02*
X240500D01*
X239072Y318399D02*
X240500D01*
X239450Y317499D02*
X240500D01*
X239468Y316599D02*
X240500D01*
X239135Y315699D02*
X240500D01*
X238185Y314799D02*
X240500D01*
X234333Y313899D02*
X240500D01*
X234500Y312999D02*
X240500D01*
X234332Y312099D02*
X240500D01*
X233734Y311199D02*
X240500D01*
X227500Y310299D02*
X240500D01*
X227500Y309399D02*
X240500D01*
X233500Y322899D02*
X240481D01*
X232623Y326499D02*
X239999D01*
X231723Y327399D02*
X239894D01*
X233500Y323799D02*
X239808D01*
X233375Y325599D02*
X239573D01*
X233500Y324699D02*
X239518D01*
X230823Y328299D02*
X238994D01*
X229923Y329199D02*
X238094D01*
X229023Y330099D02*
X237194D01*
X228123Y330999D02*
X236294D01*
X233500Y319299D02*
X236017D01*
X233736Y314799D02*
X235815D01*
X166112Y331899D02*
X235394D01*
X233500Y318399D02*
X234928D01*
X233500Y315699D02*
X234865D01*
X233500Y317499D02*
X234550D01*
X233500Y316599D02*
X234532D01*
X165212Y332799D02*
X234494D01*
X164312Y333699D02*
X233594D01*
X225908Y323799D02*
X230500D01*
X226808Y322899D02*
X230500D01*
X227500Y321999D02*
X230500D01*
X227500Y321099D02*
X230500D01*
X227500Y320199D02*
X230500D01*
X227500Y319299D02*
X230500D01*
X227500Y318399D02*
X230500D01*
X227500Y317499D02*
X230500D01*
X227500Y316599D02*
X230500D01*
X227500Y315699D02*
X230500D01*
X227500Y311199D02*
X230266D01*
X227500Y314799D02*
X230264D01*
X225008Y324699D02*
X230180D01*
X227500Y312099D02*
X229668D01*
X227500Y313899D02*
X229667D01*
X227500Y312999D02*
X229500D01*
X213530Y325599D02*
X229280D01*
X213001Y326499D02*
X228380D01*
X211705Y327399D02*
X227480D01*
X160408Y328299D02*
X226580D01*
X161308Y327399D02*
X210295D01*
X162208Y326499D02*
X208999D01*
X163116Y325599D02*
X208470D01*
X163412Y334599D02*
X171694D01*
X162512Y335499D02*
X170794D01*
X161612Y336399D02*
X169894D01*
X160712Y337299D02*
X168994D01*
X159812Y338199D02*
X168094D01*
X158912Y339099D02*
X167194D01*
X158012Y339999D02*
X166294D01*
X157112Y340899D02*
X165394D01*
X159508Y329199D02*
X164570D01*
X156212Y341799D02*
X164494D01*
X158608Y330099D02*
X163670D01*
X155312Y342699D02*
X163594D01*
X157708Y330999D02*
X162770D01*
X154412Y343599D02*
X162694D01*
X156808Y331899D02*
X161870D01*
X153512Y344499D02*
X161794D01*
X155908Y332799D02*
X160970D01*
X152612Y345399D02*
X160894D01*
X155008Y333699D02*
X160070D01*
X151712Y346299D02*
X159994D01*
X154108Y334599D02*
X159170D01*
X150812Y347199D02*
X159094D01*
X153208Y335499D02*
X158270D01*
X149912Y348099D02*
X158194D01*
X152308Y336399D02*
X157370D01*
X149012Y348999D02*
X157294D01*
X108500Y337299D02*
X156470D01*
X148112Y349899D02*
X156394D01*
X117355Y338199D02*
X155570D01*
X147212Y350799D02*
X155494D01*
X118887Y339099D02*
X154670D01*
X146312Y351699D02*
X154594D01*
X119729Y339999D02*
X153770D01*
X145412Y352599D02*
X153694D01*
X120261Y340899D02*
X152870D01*
X144512Y353499D02*
X152794D01*
X120584Y341799D02*
X151970D01*
X143612Y354399D02*
X151894D01*
X120734Y342699D02*
X151070D01*
X142712Y355299D02*
X150994D01*
X120727Y343599D02*
X150170D01*
X141812Y356199D02*
X150094D01*
X120563Y344499D02*
X149270D01*
X140912Y357099D02*
X149194D01*
X120225Y345399D02*
X148370D01*
X140010Y357999D02*
X148294D01*
X119671Y346299D02*
X147470D01*
X120750Y358899D02*
X147394D01*
X118794Y347199D02*
X146570D01*
X120750Y359799D02*
X146494D01*
X117136Y348099D02*
X145670D01*
X120750Y360699D02*
X145594D01*
X108500Y348999D02*
X144770D01*
X120597Y361599D02*
X144694D01*
X108500Y349899D02*
X143870D01*
X108500Y362499D02*
X143794D01*
X108500Y350799D02*
X142970D01*
X108500Y363399D02*
X142894D01*
X120005Y351699D02*
X142070D01*
X108599Y364299D02*
X141994D01*
X120741Y352599D02*
X141170D01*
X120750Y353499D02*
X140270D01*
X120750Y354399D02*
X139370D01*
X120962Y355299D02*
X138459D01*
X108500Y348099D02*
X113864D01*
X108500Y338199D02*
X113645D01*
X108500Y347199D02*
X112206D01*
X108500Y339099D02*
X112113D01*
X108500Y346299D02*
X111329D01*
X108500Y339999D02*
X111271D01*
X108500Y351699D02*
X110995D01*
X108500Y345399D02*
X110775D01*
X108500Y340899D02*
X110739D01*
X108500Y344499D02*
X110437D01*
X108500Y341799D02*
X110416D01*
X108500Y361599D02*
X110403D01*
X108500Y343599D02*
X110273D01*
X108500Y342699D02*
X110266D01*
X108500Y352599D02*
X110259D01*
X108500Y360699D02*
X110250D01*
X108500Y359799D02*
X110250D01*
X108500Y358899D02*
X110250D01*
X108500Y357999D02*
X110250D01*
X108500Y357099D02*
X110250D01*
X108500Y356199D02*
X110250D01*
X108500Y355299D02*
X110250D01*
X108500Y354399D02*
X110250D01*
X108500Y353499D02*
X110250D01*
X199500Y320599D02*
X213500D01*
X199500Y319699D02*
X213500D01*
X207736Y318799D02*
X213500D01*
X208333Y317899D02*
X213500D01*
X208500Y316999D02*
X213500D01*
X208332Y316099D02*
X213500D01*
X207734Y315199D02*
X213500D01*
X203736Y314299D02*
X213500D01*
X204333Y313399D02*
X213500D01*
X204500Y312499D02*
X213500D01*
X204332Y311599D02*
X213500D01*
X203734Y310699D02*
X213500D01*
X123920Y309799D02*
X213500D01*
X123020Y308899D02*
X213490D01*
X199964Y321499D02*
X213036D01*
X120906Y315199D02*
X204266D01*
X199500Y318799D02*
X204264D01*
X176261Y316099D02*
X203668D01*
X199500Y317899D02*
X203667D01*
X199500Y316999D02*
X203500D01*
X124820Y310699D02*
X200266D01*
X166261Y316099D02*
X173739D01*
X156261D02*
X163739D01*
X148631D02*
X153739D01*
X121806D02*
X141369D01*
X125223Y259399D02*
X137500D01*
X126123Y258499D02*
X137500D01*
X132658Y257599D02*
X137500D01*
X133929Y256699D02*
X137500D01*
X134710Y255799D02*
X137500D01*
X135226Y254899D02*
X137500D01*
X135551Y253999D02*
X137500D01*
X135719Y253099D02*
X137500D01*
X135742Y252199D02*
X137500D01*
X135623Y251299D02*
X137500D01*
X135352Y250399D02*
X137500D01*
X134905Y249499D02*
X137500D01*
X134224Y248599D02*
X137500D01*
X133164Y247699D02*
X137500D01*
X130747Y246799D02*
X137500D01*
X101100Y245899D02*
X137500D01*
X124323Y260299D02*
X137401D01*
X109047Y246799D02*
X129253D01*
X123423Y261199D02*
X127094D01*
X111464Y247699D02*
X126836D01*
X122523Y262099D02*
X126194D01*
X112524Y248599D02*
X125776D01*
X121623Y262999D02*
X125294D01*
X122120Y307999D02*
X125292D01*
X113205Y249499D02*
X125095D01*
X113526Y254899D02*
X124774D01*
X113652Y250399D02*
X124648D01*
X113010Y255799D02*
X124580D01*
X113851Y253999D02*
X124449D01*
X120723Y263899D02*
X124394D01*
X113923Y251299D02*
X124377D01*
X121220Y307099D02*
X124346D01*
X114019Y253099D02*
X124281D01*
X114042Y252199D02*
X124258D01*
X120006Y314299D02*
X124249D01*
X112229Y256699D02*
X123680D01*
X120501Y306199D02*
X123500D01*
X120500Y305299D02*
X123500D01*
X120500Y304399D02*
X123500D01*
X120500Y303499D02*
X123500D01*
X120500Y302599D02*
X123500D01*
X120500Y301699D02*
X123500D01*
X120500Y300799D02*
X123500D01*
X120500Y299899D02*
X123500D01*
X120500Y298999D02*
X123500D01*
X120500Y298099D02*
X123500D01*
X120500Y297199D02*
X123500D01*
X120500Y296299D02*
X123500D01*
X120500Y295399D02*
X123500D01*
X120500Y294499D02*
X123500D01*
X120500Y293599D02*
X123500D01*
X120500Y292699D02*
X123500D01*
X120500Y291799D02*
X123500D01*
X120500Y290899D02*
X123500D01*
X120500Y289999D02*
X123500D01*
X120500Y289099D02*
X123500D01*
X120500Y288199D02*
X123500D01*
X120500Y287299D02*
X123500D01*
X120500Y286399D02*
X123500D01*
X120500Y285499D02*
X123500D01*
X120500Y284599D02*
X123500D01*
X120500Y283699D02*
X123500D01*
X120500Y282799D02*
X123500D01*
X120500Y281899D02*
X123500D01*
X120500Y280999D02*
X123500D01*
X120500Y280099D02*
X123500D01*
X120500Y279199D02*
X123500D01*
X120500Y278299D02*
X123500D01*
X120500Y277399D02*
X123500D01*
X120500Y276499D02*
X123500D01*
X120500Y275599D02*
X123500D01*
X120500Y274699D02*
X123500D01*
X120500Y273799D02*
X123500D01*
X120500Y272899D02*
X123500D01*
X120500Y271999D02*
X123500D01*
X120500Y271099D02*
X123500D01*
X120500Y270199D02*
X123500D01*
X120500Y269299D02*
X123500D01*
X120500Y268399D02*
X123500D01*
X120500Y267499D02*
X123500D01*
X120500Y266599D02*
X123500D01*
X120500Y265699D02*
X123500D01*
X120500Y264799D02*
X123500D01*
X119106Y313399D02*
X123277D01*
X110958Y257599D02*
X122780D01*
X118206Y312499D02*
X122377D01*
X101100Y258499D02*
X121880D01*
X117306Y311599D02*
X121477D01*
X101100Y259399D02*
X120980D01*
X116406Y310699D02*
X120577D01*
X101100Y260299D02*
X120080D01*
X115506Y309799D02*
X119677D01*
X101141Y261199D02*
X119180D01*
X114610Y308899D02*
X118777D01*
X111806Y262099D02*
X118280D01*
X114500Y307999D02*
X117881D01*
X112706Y262999D02*
X117586D01*
X114500Y307099D02*
X117503D01*
X114500Y306199D02*
X117500D01*
X114500Y305299D02*
X117500D01*
X114500Y304399D02*
X117500D01*
X114500Y303499D02*
X117500D01*
X114500Y302599D02*
X117500D01*
X114500Y301699D02*
X117500D01*
X114500Y300799D02*
X117500D01*
X114500Y299899D02*
X117500D01*
X114500Y298999D02*
X117500D01*
X114500Y298099D02*
X117500D01*
X114500Y297199D02*
X117500D01*
X114500Y296299D02*
X117500D01*
X114500Y295399D02*
X117500D01*
X114500Y294499D02*
X117500D01*
X114500Y293599D02*
X117500D01*
X114500Y292699D02*
X117500D01*
X114500Y291799D02*
X117500D01*
X114500Y290899D02*
X117500D01*
X114500Y289999D02*
X117500D01*
X114500Y289099D02*
X117500D01*
X114500Y288199D02*
X117500D01*
X114500Y287299D02*
X117500D01*
X114500Y286399D02*
X117500D01*
X114500Y285499D02*
X117500D01*
X114500Y284599D02*
X117500D01*
X114500Y283699D02*
X117500D01*
X114500Y282799D02*
X117500D01*
X114500Y281899D02*
X117500D01*
X114500Y280999D02*
X117500D01*
X114500Y280099D02*
X117500D01*
X114500Y279199D02*
X117500D01*
X114500Y278299D02*
X117500D01*
X114500Y277399D02*
X117500D01*
X114500Y276499D02*
X117500D01*
X114500Y275599D02*
X117500D01*
X114500Y274699D02*
X117500D01*
X114500Y273799D02*
X117500D01*
X114500Y272899D02*
X117500D01*
X114500Y271999D02*
X117500D01*
X114500Y271099D02*
X117500D01*
X114500Y270199D02*
X117500D01*
X114500Y269299D02*
X117500D01*
X114500Y268399D02*
X117500D01*
X114500Y267499D02*
X117500D01*
X114500Y266599D02*
X117500D01*
X114500Y265699D02*
X117500D01*
X114500Y264799D02*
X117500D01*
X113606Y263899D02*
X117500D01*
X101100Y246799D02*
X107553D01*
X101100Y257599D02*
X105642D01*
X101100Y247699D02*
X105136D01*
X101100Y256699D02*
X104371D01*
X101100Y248599D02*
X104076D01*
X101100Y255799D02*
X103590D01*
X101100Y249499D02*
X103395D01*
X101100Y254899D02*
X103074D01*
X101100Y250399D02*
X102948D01*
X101100Y253999D02*
X102749D01*
X101100Y251299D02*
X102677D01*
X101100Y253099D02*
X102581D01*
X101100Y252199D02*
X102558D01*
X100000Y100000D02*
X493000D01*
Y427500*
X100000*
Y100000*
G54D54*
X201000Y109500D02*
X204394D01*
X240500Y145606*
Y165000*
X265500Y190000*
X227500Y106000D02*
X244500Y123000D01*
Y163000*
X269500Y188000*
X328000Y108300D02*
X336000Y116300D01*
Y144250*
X385000Y193250*
Y240000*
X249100Y193994D02*
X259106Y204000D01*
X273593*
X296593Y227000*
X359000*
X249100Y193994D02*
Y189103D01*
X250000Y188203*
Y183500*
X247600Y181900D02*
Y194233D01*
X247741Y194374*
Y194615*
X258526Y205400*
X265400*
X292000Y232000*
X340797*
X342797Y230000*
X363000*
X247600Y181900D02*
X250000Y179500D01*
X252500Y167500D02*
X254953D01*
X255953Y166500*
X259250*
X268064Y175314*
X270814*
X273500Y178000*
X319500Y178500D02*
X336104Y195104D01*
Y196604*
X355500Y216000*
X361000*
X374000Y229000*
Y242500*
X378600Y247100*
X324500Y201500D02*
Y205394D01*
X343106Y224000*
X360394*
X368400Y232006*
Y252300*
X328000Y130000D02*
X334000Y136000D01*
Y152750*
X381000Y199750*
Y241000*
X385500Y184000D02*
X395000D01*
X108300Y246000D02*
X136000D01*
Y259000*
X122000Y264000D02*
Y307000D01*
X125000Y310000*
X206500*
Y312500*
X122000Y264000D02*
X127000Y259000D01*
X136000*
X128000Y278000D02*
X139548D01*
X141548Y280000*
X154000*
X156000Y278000*
X184000*
X199000Y263000*
X231000*
X233000Y265000*
X340000*
X359000Y284000*
X130000Y285500D02*
X211750D01*
X223250Y274000*
X334750*
X348750Y288000*
X359000*
X286000Y240000D02*
X290000Y244000D01*
X336000*
X352000Y260000*
Y260500*
X354000Y262500*
X357500*
X227000Y249500D02*
X239000Y261500D01*
X340500*
X353000Y274000*
X288000Y268000D02*
X295203D01*
X296703Y266500*
X331168*
X345168Y280500*
X352000*
X266500Y250000D02*
X274500Y258000D01*
X341000*
X353500Y270500*
X271000Y288000D02*
X275000Y292000D01*
X316000*
X317000Y291000*
X356000*
X331000Y248500D02*
X335500D01*
X353500Y266500*
X370000Y262500D02*
X378600Y253900D01*
Y247100*
X343500Y221000D02*
X355000D01*
X346000Y218000D02*
X352500D01*
X380500Y244500D02*
X383894D01*
X388000Y240394*
Y209500*
X391500Y215000D02*
Y225500D01*
X392000Y226000*
Y231000*
X392900Y231900*
Y240994*
X383000Y247500D02*
X386394D01*
X392900Y240994*
X414900Y288200D02*
X420400Y293700D01*
X399500Y267500D02*
X408500Y276500D01*
Y313432*
X442400Y347332*
Y375791*
X395000Y267000D02*
X407000Y279000D01*
Y316150*
X441000Y350150*
X119000Y307000D02*
X125000Y313000D01*
X201500*
X202000Y312500*
X119000Y307000D02*
Y263500D01*
X130000Y252500*
X115500Y356890D02*
X139000D01*
X165890Y330000*
X227000*
X232000Y325000*
Y313000*
X201500Y317500D02*
Y316000D01*
X203000*
X206500Y312500*
X211000Y325000D02*
X213000Y323000D01*
X215500*
X224000Y314500*
Y310000*
X228500Y305500*
X229000Y306000*
X243000*
X257000Y320000*
X260500*
X273500Y333000*
X294500*
X310000Y348500*
X213000Y362500D02*
X217500Y367000D01*
X254000*
X254500Y366500*
X275500*
X229000Y318000D02*
Y310000D01*
X234500*
Y316000*
X248000Y346000D02*
X268563D01*
X295063Y372500*
X321149*
X322149Y371500*
X326500*
X274900Y323700D02*
X295680D01*
X303500Y331520*
Y334906*
X334300Y365706*
Y387228*
X334400Y387328*
Y396097*
X271700Y326400D02*
X296400D01*
X302000Y332000*
Y336000*
X332900Y366900*
Y375500*
X271000Y298000D02*
X276710D01*
X280710Y294000*
X316000*
X317000Y293000*
X354500*
X355500Y294000*
X358000*
X271000Y308000D02*
X283000Y296000D01*
X354000*
X341500Y331000D02*
Y351750D01*
X343000Y353250*
Y371000*
X341500Y331000D02*
Y327000D01*
X349000Y319500*
X358494*
X365000Y312994*
X361600Y307300D02*
X365000Y310700D01*
Y312994*
X361600Y307300D02*
Y276006D01*
X397606Y240000*
X414500*
X353100Y333506D02*
Y384100D01*
X357500Y388500*
X353100Y333506D02*
X382606Y304000D01*
X383950*
X391000Y296950*
Y263000*
X358500Y312000D02*
X358750Y312250D01*
X301900Y316000D02*
Y318100D01*
X312200Y328400*
X337600*
X351100Y314900*
X356100*
X358750Y312250*
X301700Y311700D02*
X305400Y315400D01*
Y318600*
X313800Y327000*
X337000*
X352500Y311500*
X354000*
X355500Y310000*
X320000Y335500D02*
X329394D01*
X333000Y339106*
Y355326*
X339500Y361826*
Y369000*
X324500Y339500D02*
Y349226D01*
X337100Y361826*
Y376328*
X339400Y378628*
Y413800*
X300500Y361000D02*
X302953D01*
X303453Y360500*
X312500*
X315314Y363314*
X323314*
X326500Y366500*
X339000Y331000D02*
X341500D01*
X307500Y330500D02*
X309894D01*
X323000Y343606*
Y351066*
X335700Y363766*
Y383242*
X336400Y383942*
Y408700*
X346500Y327000D02*
X349400Y329900D01*
Y405200*
X353000Y408800*
Y415600*
X344000Y335000D02*
X347900Y338900D01*
X318100Y366500D02*
X321500D01*
X324000Y369000*
X327400*
X328600Y370200*
X330500*
X364000Y305000D02*
X369500D01*
X319500Y300000D02*
X336000D01*
X336500Y300500*
X352500*
X319500Y305000D02*
X330000Y315500D01*
X340500*
X319500Y310000D02*
X328500Y319000D01*
X339000*
X410000Y312694D02*
X425306Y328000D01*
X437394*
X444614Y335219*
Y335414*
X446100Y336900*
X410000Y312694D02*
Y255000D01*
X414500Y250500*
X420200Y318300D02*
Y313300D01*
X420400Y313100*
Y293700*
X442000Y336000D02*
Y341376D01*
X443800Y343176*
Y417390*
X118000Y420000D02*
X122000Y416000D01*
X210000*
X218000Y424000*
X308400*
X313800Y418600*
X335000*
X335100Y418500*
X335400*
X337000Y420100*
X347900*
X347924Y420076*
X351848Y424000*
X355574*
X362600Y416974*
X128000Y420000D02*
X208000D01*
X214000Y426000*
X309000*
X314000Y421000*
X323400*
X323800Y420600*
X335146*
X336146Y421600*
X344481*
X348281Y425400*
X356154*
X364000Y417554*
Y397594*
X336400Y408700D02*
Y414194D01*
X340878Y418672*
X348500*
X352428Y422600*
X354994*
X361200Y416394*
X329000Y395000D02*
X330400Y396400D01*
Y399800*
X329000Y395000D02*
Y379400D01*
X332900Y375500*
X355500Y391500D02*
X351700Y387700D01*
Y332514*
X387000Y297214*
Y263000*
X356000Y382000D02*
X360900Y386900D01*
Y396474*
X362600Y398174*
Y416974*
X360000Y382000D02*
X363400Y385400D01*
Y396994*
X364000Y397594*
X334000Y400000D02*
Y396497D01*
X334400Y396097*
X352000Y400000D02*
X358500Y393500D01*
X321300Y404400D02*
X325600Y408700D01*
X336400*
X358400Y411800D02*
X358527Y411673D01*
X361200Y414346*
Y416394*
X353000Y415600D02*
X355800D01*
X356000Y415400*
X358800*
X347600Y407500D02*
X347800Y407100D01*
Y404600*
X347900Y404500*
Y338900*
X430850Y377102D02*
Y401670D01*
X436500Y407320*
Y416700*
X430850Y377102D02*
X441000Y366952D01*
Y350150*
X420000Y416700D02*
X427200Y423900D01*
X439300*
X446100Y417100*
Y336900*
X420000Y395000D02*
Y408190D01*
X434310Y422500*
X438690*
X443800Y417390*
X436500Y395000D02*
Y381691D01*
X442400Y375791*
G54D58*
X201000Y109500D03*
X227500Y106000D03*
X224500Y115000D03*
X261000Y122000D03*
X151500Y208500D03*
X158500Y161500D03*
X151500Y158500D03*
X152000Y141000D03*
X166000D03*
X162000Y154500D03*
X183500Y151000D03*
X173000Y155000D03*
Y172000D03*
X183500Y201000D03*
X173000Y205000D03*
X165500Y191000D03*
X152000Y190500D03*
X162500Y203500D03*
X150571Y147000D03*
X147036Y150536D03*
X143500Y154071D03*
Y147000D03*
X150571Y197000D03*
X147036Y200536D03*
X143500Y204071D03*
Y197000D03*
X173500Y147000D03*
X180000Y178000D03*
X173500Y197000D03*
X214000Y135500D03*
X250000Y183500D03*
Y179500D03*
X273500Y178000D03*
X252500Y167500D03*
X269500Y188000D03*
X265500Y190000D03*
X238000Y163000D03*
X269500Y144000D03*
X251500Y193000D03*
X257500Y169000D03*
X267000Y160500D03*
X272000Y165000D03*
X299000Y178500D03*
X277000Y183400D03*
X275500Y173500D03*
X268500Y171500D03*
X319500Y178500D03*
X324500Y201500D03*
X318500Y150500D03*
X315500Y157500D03*
X329500Y178500D03*
X305000Y171000D03*
X340000Y154000D03*
X323000Y161000D03*
X316000Y179000D03*
X322000Y171000D03*
X337000Y164000D03*
X326571Y149571D03*
Y142500D03*
X323036Y146036D03*
X319500Y142500D03*
X329000Y172000D03*
X388000Y209500D03*
X441000Y166500D03*
X434000Y163500D03*
X430500Y170500D03*
X412500Y178000D03*
X427000Y184000D03*
X440500D03*
X419500Y153000D03*
X412500Y164000D03*
X419500Y170000D03*
X447071Y177228D03*
Y170157D03*
X443536Y173692D03*
X419500Y178000D03*
X412500Y147000D03*
X385500Y184000D03*
X395000D03*
X128000Y278000D03*
X158500Y280500D03*
X151500Y277500D03*
X158500Y211500D03*
X173000Y222000D03*
Y274000D03*
X183000Y270000D03*
X152000Y260000D03*
X162000Y273000D03*
X166000Y260000D03*
X150571Y266000D03*
X147036Y269536D03*
X143500Y273071D03*
Y266000D03*
X180000Y228000D03*
Y266000D03*
X286000Y240000D03*
X227000Y249500D03*
X288000Y268000D03*
X266500Y250000D03*
X357500Y262500D03*
X353000Y274000D03*
X353500Y266500D03*
X331000Y248500D03*
X352000Y280500D03*
X370000Y262500D03*
X355000Y221000D03*
X343500D03*
X359000Y227000D03*
X363000Y230000D03*
X352500Y218000D03*
X346000D03*
X368400Y252300D03*
X359000Y288000D03*
Y284000D03*
X353500Y270500D03*
X321000Y284000D03*
X330000Y271000D03*
X329500Y288500D03*
X361500Y240000D03*
X366000Y239500D03*
X376500Y241000D03*
X371500D03*
X352000Y285500D03*
X334500Y283500D03*
X378000Y263000D03*
X366795Y264000D03*
X303000Y269000D03*
X302000Y281000D03*
X341000Y271000D03*
X372000Y252000D03*
X341500Y287000D03*
X376200Y252000D03*
X365225Y250500D03*
X363655Y262500D03*
X362085Y252000D03*
X380500Y244500D03*
X391500Y215000D03*
X383000Y247500D03*
X381000Y241000D03*
X385000Y240000D03*
X414900Y288200D03*
X414500Y250500D03*
X387000Y263000D03*
X399500Y267500D03*
X395000Y267000D03*
X414500Y240000D03*
X391000Y263000D03*
X427000Y251000D03*
X453000Y213000D03*
X442000D03*
X399500Y245500D03*
X390500Y240000D03*
X425500Y273000D03*
X426000Y282000D03*
X459500Y237500D03*
Y250500D03*
X402000Y286700D03*
X452000Y233500D03*
X446000Y248000D03*
X418000Y255000D03*
X412500Y285100D03*
Y272600D03*
X395100Y252000D03*
X391900D03*
X421000Y286000D03*
X427500Y229000D03*
X430500D03*
X433500D03*
X436500D03*
X439500D03*
X442500D03*
X445500D03*
X464000Y222000D03*
X486000Y238000D03*
X466500Y237500D03*
X463000D03*
X466500Y250500D03*
X463000D03*
X467000Y262500D03*
X202000Y312500D03*
X211000Y325000D03*
X173000Y291000D03*
X196500Y322000D03*
X206000Y317000D03*
X207000Y339000D03*
Y346000D03*
X184000Y301000D03*
X248000Y346000D03*
X232000Y313000D03*
X275500Y366500D03*
X274900Y323700D03*
X285100Y313900D03*
X285400Y321000D03*
X266000Y317500D03*
X237000Y317000D03*
X271700Y326400D03*
X260000Y324500D03*
X242000Y325000D03*
X356000Y291000D03*
X358000Y294000D03*
X354000Y296000D03*
X358500Y312000D03*
X301900Y316000D03*
X355500Y310000D03*
X301700Y311700D03*
X339500Y369000D03*
X320000Y335500D03*
X339000Y319000D03*
X340500Y315500D03*
X324500Y339500D03*
X326500Y366500D03*
X300500Y361000D03*
X339000Y331000D03*
X310000Y348500D03*
X338500Y341500D03*
X362000Y342000D03*
X355500Y340500D03*
Y343500D03*
Y346500D03*
X345500Y340500D03*
Y343500D03*
Y346500D03*
X320500Y344500D03*
X321000Y359000D03*
X329000Y345000D03*
Y338500D03*
X337500Y356000D03*
X379500Y329500D03*
X377500Y312500D03*
X347000Y333000D03*
X356000Y335500D03*
X330000Y305500D03*
X373000Y323500D03*
X307500Y330500D03*
X346500Y327000D03*
X344000Y335000D03*
X360500Y368000D03*
X318100Y366500D03*
X352500Y300500D03*
X369500Y305000D03*
X364000D03*
X350000Y323000D03*
X379500D03*
X341000Y305000D03*
X362100Y312500D03*
X420200Y318300D03*
X446100Y336900D03*
X400000Y323000D03*
X397000Y334000D03*
X393500Y337500D03*
X383000Y342000D03*
X382000Y335000D03*
X412500Y311800D03*
X402000Y302400D03*
Y297700D03*
X414000Y309000D03*
X399000Y358000D03*
X411000Y353000D03*
X407000D03*
X399000Y354000D03*
X427000D03*
X431000D03*
X435000D03*
X442000Y336000D03*
X390000Y329000D03*
X397000D03*
X407500Y324500D03*
X395100Y323000D03*
X396600Y312500D03*
X402000Y293000D03*
X412500Y291400D03*
X418000Y309000D03*
X425000Y295000D03*
Y299000D03*
X484000Y337300D03*
X490800Y343900D03*
X483900Y350900D03*
X483500Y359500D03*
X260000Y419500D03*
X255000D03*
X250000D03*
X245000D03*
X240000D03*
X234500D03*
X264000Y391000D03*
X249000D03*
X254000D03*
X259000D03*
X244000D03*
X356000Y382000D03*
X360000D03*
X355500Y391500D03*
X326500Y371500D03*
X339400Y413800D03*
X334000Y400000D03*
X343000Y371000D03*
X357500Y388500D03*
X374000Y393000D03*
X358500Y393500D03*
X311000Y392500D03*
X352000Y400000D03*
X326000Y376500D03*
Y392500D03*
X340700Y424200D03*
X318000Y412500D03*
X316000Y397000D03*
X379000Y398500D03*
X329000Y413000D03*
X325600Y380100D03*
X331600Y384500D03*
X312000Y377500D03*
X311000Y370000D03*
X373000Y378000D03*
X332000Y393400D03*
X302000Y398000D03*
X321300Y404400D03*
X358400Y411800D03*
X358800Y415400D03*
X353000Y415600D03*
X347600Y407500D03*
X330400Y399800D03*
X330500Y370200D03*
X395000Y373000D03*
X385000Y398500D03*
X389000Y396500D03*
G54D110*
X451146Y269701D03*
Y332299D03*
G54D111*
X466500Y278500D03*
Y323500D03*
G54D112*
X482681Y276098D03*
Y286098D03*
Y315902D03*
Y325902D03*
G54D122*
X115500Y373819D03*
Y326181D03*
G54D123*
X314500Y320000D03*
G54D124*
X319500D03*
X314500Y315000D03*
X319500D03*
X314500Y310000D03*
X319500D03*
X314500Y305000D03*
X319500D03*
X314500Y300000D03*
X319500D03*
G54D130*
X246339Y118000D03*
X263661D03*
G54D168*
X353600Y419600D03*
X333600Y415600D03*
Y423600D03*
G74*
X0Y0D02*
M02*
