*
*
G04 PADS9.1 Build Number: 384028 generated Gerber (RS-274-X) file*
G04 PC Version=2.1*
*
%IN "ASPS_DAQv5p2.pcb"*%
*
%MOIN*%
*
%FSLAX35Y35*%
*
*
*
*
G04 PC Standard Apertures*
*
*
G04 Thermal Relief Aperture macro.*
%AMTER*
1,1,$1,0,0*
1,0,$1-$2,0,0*
21,0,$3,$4,0,0,45*
21,0,$3,$4,0,0,135*
%
*
*
G04 Annular Aperture macro.*
%AMANN*
1,1,$1,0,0*
1,0,$2,0,0*
%
*
*
G04 Odd Aperture macro.*
%AMODD*
1,1,$1,0,0*
1,0,$1-0.005,0,0*
%
*
*
G04 PC Custom Aperture Macros*
*
*
*
*
*
*
G04 PC Aperture Table*
*
%ADD010C,0.001*%
%ADD053C,0.01*%
%ADD057C,0.007*%
*
*
*
*
G04 PC Circuitry*
G04 Layer Name ASPS_DAQv5p2.pcb - circuitry*
%LPD*%
*
*
G04 PC Custom Flashes*
G04 Layer Name ASPS_DAQv5p2.pcb - flashes*
%LPD*%
*
*
G04 PC Circuitry*
G04 Layer Name ASPS_DAQv5p2.pcb - circuitry*
%LPD*%
*
G54D10*
G54D53*
G01X100000Y100000D02*
X493000D01*
Y427500*
X100000*
Y100000*
X305500Y390500D02*
X325000D01*
Y381000*
X305500*
Y390500*
X313500Y391000D02*
Y398000D01*
X317500Y402000*
X316000*
X317500Y400500*
Y402000*
G54D57*
X457000Y388625D02*
Y386000D01*
Y388625D02*
X456182D01*
X455909Y388500*
X455818Y388375*
X455727Y388125*
Y387750*
X455818Y387500*
X455909Y387375*
X456182Y387250*
X457000*
X454909Y388625D02*
X454455Y386000D01*
X454000Y388625D02*
X454455Y386000D01*
X454000Y388625D02*
X453545Y386000D01*
X453091Y388625D02*
X453545Y386000D01*
X452273Y388625D02*
Y386000D01*
Y388625D02*
X451455D01*
X451182Y388500*
X451091Y388375*
X451000Y388125*
Y387875*
X451091Y387625*
X451182Y387500*
X451455Y387375*
X452273*
X451636D02*
X451000Y386000D01*
X454636Y409000D02*
X454727Y409250D01*
X454909Y409500*
X455091Y409625*
X455455*
X455636Y409500*
X455818Y409250*
X455909Y409000*
X456000Y408625*
Y408000*
X455909Y407625*
X455818Y407375*
X455636Y407125*
X455455Y407000*
X455091*
X454909Y407125*
X454727Y407375*
X454636Y407625*
Y408000*
X455091D02*
X454636D01*
X453818Y409625D02*
Y407000D01*
Y409625D02*
X452545Y407000D01*
Y409625D02*
Y407000D01*
X451727Y409625D02*
Y407000D01*
Y409625D02*
X451091D01*
X450818Y409500*
X450636Y409250*
X450545Y409000*
X450455Y408625*
Y408000*
X450545Y407625*
X450636Y407375*
X450818Y407125*
X451091Y407000*
X451727*
X440000Y388625D02*
Y386000D01*
Y388625D02*
X438818D01*
X440000Y387375D02*
X439273D01*
X438000Y388625D02*
Y386000D01*
Y388625D02*
X437182D01*
X436909Y388500*
X436818Y388375*
X436727Y388125*
Y387875*
X436818Y387625*
X436909Y387500*
X437182Y387375*
X438000*
X437364D02*
X436727Y386000D01*
X435364Y388625D02*
X435545Y388500D01*
X435727Y388250*
X435818Y388000*
X435909Y387625*
Y387000*
X435818Y386625*
X435727Y386375*
X435545Y386125*
X435364Y386000*
X435000*
X434818Y386125*
X434636Y386375*
X434545Y386625*
X434455Y387000*
Y387625*
X434545Y388000*
X434636Y388250*
X434818Y388500*
X435000Y388625*
X435364*
X433636D02*
Y386000D01*
Y388625D02*
X432909Y386000D01*
X432182Y388625D02*
X432909Y386000D01*
X432182Y388625D02*
Y386000D01*
X437364Y409625D02*
Y407000D01*
X438000Y409625D02*
X436727D01*
X435364D02*
X435545Y409500D01*
X435727Y409250*
X435818Y409000*
X435909Y408625*
Y408000*
X435818Y407625*
X435727Y407375*
X435545Y407125*
X435364Y407000*
X435000*
X434818Y407125*
X434636Y407375*
X434545Y407625*
X434455Y408000*
Y408625*
X434545Y409000*
X434636Y409250*
X434818Y409500*
X435000Y409625*
X435364*
X426000Y388625D02*
Y386000D01*
Y388625D02*
X425182D01*
X424909Y388500*
X424818Y388375*
X424727Y388125*
Y387875*
X424818Y387625*
X424909Y387500*
X425182Y387375*
X426000*
X425364D02*
X424727Y386000D01*
X422636Y388250D02*
X422818Y388500D01*
X423091Y388625*
X423455*
X423727Y388500*
X423909Y388250*
Y388000*
X423818Y387750*
X423727Y387625*
X423545Y387500*
X423000Y387250*
X422818Y387125*
X422727Y387000*
X422636Y386750*
Y386375*
X422818Y386125*
X423091Y386000*
X423455*
X423727Y386125*
X423909Y386375*
X421182Y388625D02*
Y386000D01*
X421818Y388625D02*
X420545D01*
X417636D02*
Y386000D01*
X416818Y388625D02*
Y386000D01*
Y388625D02*
X415545Y386000D01*
Y388625D02*
Y386000D01*
X427000Y409625D02*
Y407000D01*
Y409625D02*
X426182D01*
X425909Y409500*
X425818Y409375*
X425727Y409125*
Y408875*
X425818Y408625*
X425909Y408500*
X426182Y408375*
X427000*
X426364D02*
X425727Y407000D01*
X423636Y409250D02*
X423818Y409500D01*
X424091Y409625*
X424455*
X424727Y409500*
X424909Y409250*
Y409000*
X424818Y408750*
X424727Y408625*
X424545Y408500*
X424000Y408250*
X423818Y408125*
X423727Y408000*
X423636Y407750*
Y407375*
X423818Y407125*
X424091Y407000*
X424455*
X424727Y407125*
X424909Y407375*
X422182Y409625D02*
Y407000D01*
X422818Y409625D02*
X421545D01*
X418091D02*
X418273Y409500D01*
X418455Y409250*
X418545Y409000*
X418636Y408625*
Y408000*
X418545Y407625*
X418455Y407375*
X418273Y407125*
X418091Y407000*
X417727*
X417545Y407125*
X417364Y407375*
X417273Y407625*
X417182Y408000*
Y408625*
X417273Y409000*
X417364Y409250*
X417545Y409500*
X417727Y409625*
X418091*
X416364D02*
Y407750D01*
X416273Y407375*
X416091Y407125*
X415818Y407000*
X415636*
X415364Y407125*
X415182Y407375*
X415091Y407750*
Y409625*
X413636D02*
Y407000D01*
X414273Y409625D02*
X413000D01*
X407000Y388625D02*
Y386000D01*
Y388625D02*
X406182D01*
X405909Y388500*
X405818Y388375*
X405727Y388125*
Y387750*
X405818Y387500*
X405909Y387375*
X406182Y387250*
X407000*
X404909Y388625D02*
X404455Y386000D01*
X404000Y388625D02*
X404455Y386000D01*
X404000Y388625D02*
X403545Y386000D01*
X403091Y388625D02*
X403545Y386000D01*
X402273Y388625D02*
Y386000D01*
Y388625D02*
X401455D01*
X401182Y388500*
X401091Y388375*
X401000Y388125*
Y387875*
X401091Y387625*
X401182Y387500*
X401455Y387375*
X402273*
X401636D02*
X401000Y386000D01*
X405636Y409000D02*
X405727Y409250D01*
X405909Y409500*
X406091Y409625*
X406455*
X406636Y409500*
X406818Y409250*
X406909Y409000*
X407000Y408625*
Y408000*
X406909Y407625*
X406818Y407375*
X406636Y407125*
X406455Y407000*
X406091*
X405909Y407125*
X405727Y407375*
X405636Y407625*
Y408000*
X406091D02*
X405636D01*
X404818Y409625D02*
Y407000D01*
Y409625D02*
X403545Y407000D01*
Y409625D02*
Y407000D01*
X402727Y409625D02*
Y407000D01*
Y409625D02*
X402091D01*
X401818Y409500*
X401636Y409250*
X401545Y409000*
X401455Y408625*
Y408000*
X401545Y407625*
X401636Y407375*
X401818Y407125*
X402091Y407000*
X402727*
X358636Y409000D02*
X358727Y409250D01*
X358909Y409500*
X359091Y409625*
X359455*
X359636Y409500*
X359818Y409250*
X359909Y409000*
X360000Y408625*
Y408000*
X359909Y407625*
X359818Y407375*
X359636Y407125*
X359455Y407000*
X359091*
X358909Y407125*
X358727Y407375*
X358636Y407625*
Y408000*
X359091D02*
X358636D01*
X357818Y409625D02*
Y407000D01*
Y409625D02*
X356545Y407000D01*
Y409625D02*
Y407000D01*
X355727Y409625D02*
Y407000D01*
Y409625D02*
X355091D01*
X354818Y409500*
X354636Y409250*
X354545Y409000*
X354455Y408625*
Y408000*
X354545Y407625*
X354636Y407375*
X354818Y407125*
X355091Y407000*
X355727*
X352000Y409625D02*
Y407000D01*
Y409625D02*
X351182D01*
X350909Y409500*
X350818Y409375*
X350727Y409125*
Y408875*
X350818Y408625*
X350909Y408500*
X351182Y408375*
X352000D02*
X351182D01*
X350909Y408250*
X350818Y408125*
X350727Y407875*
Y407500*
X350818Y407250*
X350909Y407125*
X351182Y407000*
X352000*
X348636Y409250D02*
X348818Y409500D01*
X349091Y409625*
X349455*
X349727Y409500*
X349909Y409250*
Y409000*
X349818Y408750*
X349727Y408625*
X349545Y408500*
X349000Y408250*
X348818Y408125*
X348727Y408000*
X348636Y407750*
Y407375*
X348818Y407125*
X349091Y407000*
X349455*
X349727Y407125*
X349909Y407375*
X347818Y409625D02*
Y407000D01*
X346727*
X345273Y409625D02*
Y407000D01*
X345909Y409625D02*
X344636D01*
X343818D02*
X342545Y407000D01*
Y409625D02*
X343818Y407000D01*
X341000Y409625D02*
Y407000D01*
Y409625D02*
X340182D01*
X339909Y409500*
X339818Y409375*
X339727Y409125*
Y408875*
X339818Y408625*
X339909Y408500*
X340182Y408375*
X341000D02*
X340182D01*
X339909Y408250*
X339818Y408125*
X339727Y407875*
Y407500*
X339818Y407250*
X339909Y407125*
X340182Y407000*
X341000*
X337636Y409250D02*
X337818Y409500D01*
X338091Y409625*
X338455*
X338727Y409500*
X338909Y409250*
Y409000*
X338818Y408750*
X338727Y408625*
X338545Y408500*
X338000Y408250*
X337818Y408125*
X337727Y408000*
X337636Y407750*
Y407375*
X337818Y407125*
X338091Y407000*
X338455*
X338727Y407125*
X338909Y407375*
X336818Y409625D02*
Y407000D01*
X335727*
X334909Y409625D02*
Y407000D01*
Y409625D02*
X334091D01*
X333818Y409500*
X333727Y409375*
X333636Y409125*
Y408875*
X333727Y408625*
X333818Y408500*
X334091Y408375*
X334909*
X334273D02*
X333636Y407000D01*
X332818Y409625D02*
X331545Y407000D01*
Y409625D02*
X332818Y407000D01*
X330364Y409625D02*
Y407000D01*
X331000Y409625D02*
X329727D01*
X328909D02*
Y407000D01*
Y409625D02*
X327727D01*
X328909Y408375D02*
X328182D01*
X328909Y407000D02*
X327727D01*
X325636Y409250D02*
X325818Y409500D01*
X326091Y409625*
X326455*
X326727Y409500*
X326909Y409250*
Y409000*
X326818Y408750*
X326727Y408625*
X326545Y408500*
X326000Y408250*
X325818Y408125*
X325727Y408000*
X325636Y407750*
Y407375*
X325818Y407125*
X326091Y407000*
X326455*
X326727Y407125*
X326909Y407375*
X324182Y409625D02*
Y407000D01*
X324818Y409625D02*
X323545D01*
X320000D02*
Y407000D01*
Y409625D02*
X319182D01*
X318909Y409500*
X318818Y409375*
X318727Y409125*
Y408875*
X318818Y408625*
X318909Y408500*
X319182Y408375*
X320000*
X319364D02*
X318727Y407000D01*
X316636Y409250D02*
X316818Y409500D01*
X317091Y409625*
X317455*
X317727Y409500*
X317909Y409250*
Y409000*
X317818Y408750*
X317727Y408625*
X317545Y408500*
X317000Y408250*
X316818Y408125*
X316727Y408000*
X316636Y407750*
Y407375*
X316818Y407125*
X317091Y407000*
X317455*
X317727Y407125*
X317909Y407375*
X315182Y409625D02*
Y407000D01*
X315818Y409625D02*
X314545D01*
X131000Y413625D02*
Y411000D01*
Y413625D02*
X130182D01*
X129909Y413500*
X129818Y413375*
X129727Y413125*
Y412750*
X129818Y412500*
X129909Y412375*
X130182Y412250*
X131000*
X128000Y413625D02*
Y411625D01*
X128091Y411250*
X128182Y411125*
X128364Y411000*
X128545*
X128727Y411125*
X128818Y411250*
X128909Y411625*
Y411875*
X127091Y411250D02*
X127182Y411125D01*
X127091Y411000*
X127000Y411125*
X127091Y411250*
X125636Y413625D02*
X125909Y413500D01*
X126091Y413125*
X126182Y412500*
Y412125*
X126091Y411500*
X125909Y411125*
X125636Y411000*
X125455*
X125182Y411125*
X125000Y411500*
X124909Y412125*
Y412500*
X125000Y413125*
X125182Y413500*
X125455Y413625*
X125636*
X121000D02*
Y411000D01*
Y413625D02*
X120182D01*
X119909Y413500*
X119818Y413375*
X119727Y413125*
Y412750*
X119818Y412500*
X119909Y412375*
X120182Y412250*
X121000*
X118000Y413625D02*
Y411625D01*
X118091Y411250*
X118182Y411125*
X118364Y411000*
X118545*
X118727Y411125*
X118818Y411250*
X118909Y411625*
Y411875*
X117091Y411250D02*
X117182Y411125D01*
X117091Y411000*
X117000Y411125*
X117091Y411250*
X116182Y413125D02*
X116000Y413250D01*
X115727Y413625*
Y411000*
X109636Y413000D02*
X109727Y413250D01*
X109909Y413500*
X110091Y413625*
X110455*
X110636Y413500*
X110818Y413250*
X110909Y413000*
X111000Y412625*
Y412000*
X110909Y411625*
X110818Y411375*
X110636Y411125*
X110455Y411000*
X110091*
X109909Y411125*
X109727Y411375*
X109636Y411625*
Y412000*
X110091D02*
X109636D01*
X108818Y413625D02*
Y411000D01*
Y413625D02*
X107545Y411000D01*
Y413625D02*
Y411000D01*
X106727Y413625D02*
Y411000D01*
Y413625D02*
X106091D01*
X105818Y413500*
X105636Y413250*
X105545Y413000*
X105455Y412625*
Y412000*
X105545Y411625*
X105636Y411375*
X105818Y411125*
X106091Y411000*
X106727*
X328500Y301625D02*
Y299000D01*
Y301625D02*
X327682D01*
X327409Y301500*
X327318Y301375*
X327227Y301125*
Y300875*
X327318Y300625*
X327409Y300500*
X327682Y300375*
X328500*
X327864D02*
X327227Y299000D01*
X325136Y301250D02*
X325318Y301500D01*
X325591Y301625*
X325955*
X326227Y301500*
X326409Y301250*
Y301000*
X326318Y300750*
X326227Y300625*
X326045Y300500*
X325500Y300250*
X325318Y300125*
X325227Y300000*
X325136Y299750*
Y299375*
X325318Y299125*
X325591Y299000*
X325955*
X326227Y299125*
X326409Y299375*
X323682Y301625D02*
Y299000D01*
X324318Y301625D02*
X323045D01*
X327364Y306625D02*
Y304000D01*
X328000Y306625D02*
X326727D01*
X325909D02*
Y304000D01*
Y306625D02*
X325273D01*
X325000Y306500*
X324818Y306250*
X324727Y306000*
X324636Y305625*
Y305000*
X324727Y304625*
X324818Y304375*
X325000Y304125*
X325273Y304000*
X325909*
X323818Y306625D02*
Y304000D01*
X328364Y311625D02*
Y309000D01*
X329000Y311625D02*
X327727D01*
X326909D02*
Y309000D01*
Y311625D02*
X326273D01*
X326000Y311500*
X325818Y311250*
X325727Y311000*
X325636Y310625*
Y310000*
X325727Y309625*
X325818Y309375*
X326000Y309125*
X326273Y309000*
X326909*
X324273Y311625D02*
X324455Y311500D01*
X324636Y311250*
X324727Y311000*
X324818Y310625*
Y310000*
X324727Y309625*
X324636Y309375*
X324455Y309125*
X324273Y309000*
X323909*
X323727Y309125*
X323545Y309375*
X323455Y309625*
X323364Y310000*
Y310625*
X323455Y311000*
X323545Y311250*
X323727Y311500*
X323909Y311625*
X324273*
X328364Y321125D02*
Y318500D01*
X329000Y321125D02*
X327727D01*
X326909D02*
Y318500D01*
Y321125D02*
X326182Y318500D01*
X325455Y321125D02*
X326182Y318500D01*
X325455Y321125D02*
Y318500D01*
X323364Y320750D02*
X323545Y321000D01*
X323818Y321125*
X324182*
X324455Y321000*
X324636Y320750*
Y320500*
X324545Y320250*
X324455Y320125*
X324273Y320000*
X323727Y319750*
X323545Y319625*
X323455Y319500*
X323364Y319250*
Y318875*
X323545Y318625*
X323818Y318500*
X324182*
X324455Y318625*
X324636Y318875*
X328364Y316125D02*
Y313500D01*
X329000Y316125D02*
X327727D01*
X325545Y315500D02*
X325636Y315750D01*
X325818Y316000*
X326000Y316125*
X326364*
X326545Y316000*
X326727Y315750*
X326818Y315500*
X326909Y315125*
Y314500*
X326818Y314125*
X326727Y313875*
X326545Y313625*
X326364Y313500*
X326000*
X325818Y313625*
X325636Y313875*
X325545Y314125*
X324727Y316125D02*
Y313500D01*
X323455Y316125D02*
X324727Y314375D01*
X324273Y315000D02*
X323455Y313500D01*
X309636Y321000D02*
X309727Y321250D01*
X309909Y321500*
X310091Y321625*
X310455*
X310636Y321500*
X310818Y321250*
X310909Y321000*
X311000Y320625*
Y320000*
X310909Y319625*
X310818Y319375*
X310636Y319125*
X310455Y319000*
X310091*
X309909Y319125*
X309727Y319375*
X309636Y319625*
Y320000*
X310091D02*
X309636D01*
X308818Y321625D02*
Y319000D01*
Y321625D02*
X307545Y319000D01*
Y321625D02*
Y319000D01*
X306727Y321625D02*
Y319000D01*
Y321625D02*
X306091D01*
X305818Y321500*
X305636Y321250*
X305545Y321000*
X305455Y320625*
Y320000*
X305545Y319625*
X305636Y319375*
X305818Y319125*
X306091Y319000*
X306727*
X309636Y311000D02*
X309727Y311250D01*
X309909Y311500*
X310091Y311625*
X310455*
X310636Y311500*
X310818Y311250*
X310909Y311000*
X311000Y310625*
Y310000*
X310909Y309625*
X310818Y309375*
X310636Y309125*
X310455Y309000*
X310091*
X309909Y309125*
X309727Y309375*
X309636Y309625*
Y310000*
X310091D02*
X309636D01*
X308818Y311625D02*
Y309000D01*
Y311625D02*
X307545Y309000D01*
Y311625D02*
Y309000D01*
X306727Y311625D02*
Y309000D01*
Y311625D02*
X306091D01*
X305818Y311500*
X305636Y311250*
X305545Y311000*
X305455Y310625*
Y310000*
X305545Y309625*
X305636Y309375*
X305818Y309125*
X306091Y309000*
X306727*
X309636Y306000D02*
X309727Y306250D01*
X309909Y306500*
X310091Y306625*
X310455*
X310636Y306500*
X310818Y306250*
X310909Y306000*
X311000Y305625*
Y305000*
X310909Y304625*
X310818Y304375*
X310636Y304125*
X310455Y304000*
X310091*
X309909Y304125*
X309727Y304375*
X309636Y304625*
Y305000*
X310091D02*
X309636D01*
X308818Y306625D02*
Y304000D01*
Y306625D02*
X307545Y304000D01*
Y306625D02*
Y304000D01*
X306727Y306625D02*
Y304000D01*
Y306625D02*
X306091D01*
X305818Y306500*
X305636Y306250*
X305545Y306000*
X305455Y305625*
Y305000*
X305545Y304625*
X305636Y304375*
X305818Y304125*
X306091Y304000*
X306727*
X310818Y301625D02*
X309818D01*
X310364Y300625*
X310091*
X309909Y300500*
X309818Y300375*
X309727Y300000*
Y299750*
X309818Y299375*
X310000Y299125*
X310273Y299000*
X310545*
X310818Y299125*
X310909Y299250*
X311000Y299500*
X308909Y301625D02*
X308182Y299000D01*
X307455Y301625D02*
X308182Y299000D01*
X306455Y301625D02*
X305455D01*
X306000Y300625*
X305727*
X305545Y300500*
X305455Y300375*
X305364Y300000*
Y299750*
X305455Y299375*
X305636Y299125*
X305909Y299000*
X306182*
X306455Y299125*
X306545Y299250*
X306636Y299500*
X281000Y309625D02*
Y307000D01*
Y309625D02*
X280182D01*
X279909Y309500*
X279818Y309375*
X279727Y309125*
Y308750*
X279818Y308500*
X279909Y308375*
X280182Y308250*
X281000*
X278909Y309625D02*
Y307000D01*
Y309625D02*
X277636Y307000D01*
Y309625D02*
Y307000D01*
X276273Y309625D02*
X276545Y309500D01*
X276727Y309125*
X276818Y308500*
Y308125*
X276727Y307500*
X276545Y307125*
X276273Y307000*
X276091*
X275818Y307125*
X275636Y307500*
X275545Y308125*
Y308500*
X275636Y309125*
X275818Y309500*
X276091Y309625*
X276273*
X281000Y299625D02*
Y297000D01*
Y299625D02*
X280182D01*
X279909Y299500*
X279818Y299375*
X279727Y299125*
Y298750*
X279818Y298500*
X279909Y298375*
X280182Y298250*
X281000*
X278909Y299625D02*
Y297000D01*
Y299625D02*
X277636Y297000D01*
Y299625D02*
Y297000D01*
X276818Y299125D02*
X276636Y299250D01*
X276364Y299625*
Y297000*
X281000Y289625D02*
Y287000D01*
Y289625D02*
X280182D01*
X279909Y289500*
X279818Y289375*
X279727Y289125*
Y288750*
X279818Y288500*
X279909Y288375*
X280182Y288250*
X281000*
X278909Y289625D02*
Y287000D01*
Y289625D02*
X277636Y287000D01*
Y289625D02*
Y287000D01*
X276727Y289000D02*
Y289125D01*
X276636Y289375*
X276545Y289500*
X276364Y289625*
X276000*
X275818Y289500*
X275727Y289375*
X275636Y289125*
Y288875*
X275727Y288625*
X275909Y288250*
X276818Y287000*
X275545*
X279636Y279000D02*
X279727Y279250D01*
X279909Y279500*
X280091Y279625*
X280455*
X280636Y279500*
X280818Y279250*
X280909Y279000*
X281000Y278625*
Y278000*
X280909Y277625*
X280818Y277375*
X280636Y277125*
X280455Y277000*
X280091*
X279909Y277125*
X279727Y277375*
X279636Y277625*
Y278000*
X280091D02*
X279636D01*
X278818Y279625D02*
Y277000D01*
Y279625D02*
X277545Y277000D01*
Y279625D02*
Y277000D01*
X276727Y279625D02*
Y277000D01*
Y279625D02*
X276091D01*
X275818Y279500*
X275636Y279250*
X275545Y279000*
X275455Y278625*
Y278000*
X275545Y277625*
X275636Y277375*
X275818Y277125*
X276091Y277000*
X276727*
X233227Y285750D02*
X233409Y286000D01*
X233682Y286125*
X234045*
X234318Y286000*
X234500Y285750*
Y285500*
X234409Y285250*
X234318Y285125*
X234136Y285000*
X233591Y284750*
X233409Y284625*
X233318Y284500*
X233227Y284250*
Y283875*
X233409Y283625*
X233682Y283500*
X234045*
X234318Y283625*
X234500Y283875*
X231045Y285500D02*
X231136Y285750D01*
X231318Y286000*
X231500Y286125*
X231864*
X232045Y286000*
X232227Y285750*
X232318Y285500*
X232409Y285125*
Y284500*
X232318Y284125*
X232227Y283875*
X232045Y283625*
X231864Y283500*
X231500*
X231318Y283625*
X231136Y283875*
X231045Y284125*
X230227Y286125D02*
Y283500D01*
X229136*
X243227Y285750D02*
X243409Y286000D01*
X243682Y286125*
X244045*
X244318Y286000*
X244500Y285750*
Y285500*
X244409Y285250*
X244318Y285125*
X244136Y285000*
X243591Y284750*
X243409Y284625*
X243318Y284500*
X243227Y284250*
Y283875*
X243409Y283625*
X243682Y283500*
X244045*
X244318Y283625*
X244500Y283875*
X242409Y286125D02*
Y283500D01*
Y286125D02*
X241773D01*
X241500Y286000*
X241318Y285750*
X241227Y285500*
X241136Y285125*
Y284500*
X241227Y284125*
X241318Y283875*
X241500Y283625*
X241773Y283500*
X242409*
X239591Y286125D02*
X240318Y283500D01*
X239591Y286125D02*
X238864Y283500D01*
X240045Y284375D02*
X239136D01*
X124182Y358250D02*
Y356000D01*
X125000Y357125D02*
X123364D01*
X125000Y343125D02*
X123364D01*
X134364Y245625D02*
Y243000D01*
X135000Y245625D02*
X133727D01*
X132909D02*
Y243000D01*
Y245625D02*
X131727D01*
X132909Y244375D02*
X132182D01*
X132909Y243000D02*
X131727D01*
X130909Y245625D02*
Y243000D01*
Y245625D02*
X130182Y243000D01*
X129455Y245625D02*
X130182Y243000D01*
X129455Y245625D02*
Y243000D01*
X128636Y245625D02*
Y243000D01*
Y245625D02*
X127818D01*
X127545Y245500*
X127455Y245375*
X127364Y245125*
Y244750*
X127455Y244500*
X127545Y244375*
X127818Y244250*
X128636*
X125727Y245250D02*
Y243000D01*
X126545Y244125D02*
X124909D01*
X112364Y245625D02*
Y243000D01*
X113000Y245625D02*
X111727D01*
X110909D02*
Y243000D01*
Y245625D02*
X109727D01*
X110909Y244375D02*
X110182D01*
X110909Y243000D02*
X109727D01*
X108909Y245625D02*
Y243000D01*
Y245625D02*
X108182Y243000D01*
X107455Y245625D02*
X108182Y243000D01*
X107455Y245625D02*
Y243000D01*
X106636Y245625D02*
Y243000D01*
Y245625D02*
X105818D01*
X105545Y245500*
X105455Y245375*
X105364Y245125*
Y244750*
X105455Y244500*
X105545Y244375*
X105818Y244250*
X106636*
X104545Y244125D02*
X102909D01*
X133000Y262625D02*
Y260000D01*
Y262625D02*
X132182D01*
X131909Y262500*
X131818Y262375*
X131727Y262125*
Y261750*
X131818Y261500*
X131909Y261375*
X132182Y261250*
X133000*
X130909Y262625D02*
X130455Y260000D01*
X130000Y262625D02*
X130455Y260000D01*
X130000Y262625D02*
X129545Y260000D01*
X129091Y262625D02*
X129545Y260000D01*
X128273Y262625D02*
Y260000D01*
Y262625D02*
X127455D01*
X127182Y262500*
X127091Y262375*
X127000Y262125*
Y261875*
X127091Y261625*
X127182Y261500*
X127455Y261375*
X128273*
X127636D02*
X127000Y260000D01*
X133000Y295625D02*
Y293000D01*
Y295625D02*
X132182D01*
X131909Y295500*
X131818Y295375*
X131727Y295125*
Y294750*
X131818Y294500*
X131909Y294375*
X132182Y294250*
X133000*
X130909Y295625D02*
X130455Y293000D01*
X130000Y295625D02*
X130455Y293000D01*
X130000Y295625D02*
X129545Y293000D01*
X129091Y295625D02*
X129545Y293000D01*
X128273Y295625D02*
Y293000D01*
Y295625D02*
X127455D01*
X127182Y295500*
X127091Y295375*
X127000Y295125*
Y294875*
X127091Y294625*
X127182Y294500*
X127455Y294375*
X128273*
X127636D02*
X127000Y293000D01*
X109636Y295000D02*
X109727Y295250D01*
X109909Y295500*
X110091Y295625*
X110455*
X110636Y295500*
X110818Y295250*
X110909Y295000*
X111000Y294625*
Y294000*
X110909Y293625*
X110818Y293375*
X110636Y293125*
X110455Y293000*
X110091*
X109909Y293125*
X109727Y293375*
X109636Y293625*
Y294000*
X110091D02*
X109636D01*
X108818Y295625D02*
Y293000D01*
Y295625D02*
X107545Y293000D01*
Y295625D02*
Y293000D01*
X106727Y295625D02*
Y293000D01*
Y295625D02*
X106091D01*
X105818Y295500*
X105636Y295250*
X105545Y295000*
X105455Y294625*
Y294000*
X105545Y293625*
X105636Y293375*
X105818Y293125*
X106091Y293000*
X106727*
X109636Y262000D02*
X109727Y262250D01*
X109909Y262500*
X110091Y262625*
X110455*
X110636Y262500*
X110818Y262250*
X110909Y262000*
X111000Y261625*
Y261000*
X110909Y260625*
X110818Y260375*
X110636Y260125*
X110455Y260000*
X110091*
X109909Y260125*
X109727Y260375*
X109636Y260625*
Y261000*
X110091D02*
X109636D01*
X108818Y262625D02*
Y260000D01*
Y262625D02*
X107545Y260000D01*
Y262625D02*
Y260000D01*
X106727Y262625D02*
Y260000D01*
Y262625D02*
X106091D01*
X105818Y262500*
X105636Y262250*
X105545Y262000*
X105455Y261625*
Y261000*
X105545Y260625*
X105636Y260375*
X105818Y260125*
X106091Y260000*
X106727*
X142000Y278625D02*
Y276000D01*
Y278625D02*
X140818D01*
X142000Y277375D02*
X141273D01*
X139273Y278625D02*
X140000Y276000D01*
X139273Y278625D02*
X138545Y276000D01*
X139727Y276875D02*
X138818D01*
X137727Y278625D02*
Y276750D01*
X137636Y276375*
X137455Y276125*
X137182Y276000*
X137000*
X136727Y276125*
X136545Y276375*
X136455Y276750*
Y278625*
X135636D02*
Y276000D01*
X134545*
X133091Y278625D02*
Y276000D01*
X133727Y278625D02*
X132455D01*
X130000Y279125D02*
X131636Y275125D01*
X127909Y278250D02*
X128091Y278500D01*
X128364Y278625*
X128727*
X129000Y278500*
X129182Y278250*
Y278000*
X129091Y277750*
X129000Y277625*
X128818Y277500*
X128273Y277250*
X128091Y277125*
X128000Y277000*
X127909Y276750*
Y276375*
X128091Y276125*
X128364Y276000*
X128727*
X129000Y276125*
X129182Y276375*
X127091Y278625D02*
Y276000D01*
Y278625D02*
X126455D01*
X126182Y278500*
X126000Y278250*
X125909Y278000*
X125818Y277625*
Y277000*
X125909Y276625*
X126000Y276375*
X126182Y276125*
X126455Y276000*
X127091*
X124273Y278625D02*
X125000Y276000D01*
X124273Y278625D02*
X123545Y276000D01*
X124727Y276875D02*
X123818D01*
X116000Y278625D02*
Y276000D01*
Y278625D02*
X115182D01*
X114909Y278500*
X114818Y278375*
X114727Y278125*
Y277875*
X114818Y277625*
X114909Y277500*
X115182Y277375*
X116000*
X115364D02*
X114727Y276000D01*
X113909Y278625D02*
Y276000D01*
Y278625D02*
X112727D01*
X113909Y277375D02*
X113182D01*
X113909Y276000D02*
X112727D01*
X111273Y278625D02*
Y276000D01*
X111909Y278625D02*
X110636D01*
X108182Y279125D02*
X109818Y275125D01*
X106091Y278250D02*
X106273Y278500D01*
X106545Y278625*
X106909*
X107182Y278500*
X107364Y278250*
Y278000*
X107273Y277750*
X107182Y277625*
X107000Y277500*
X106455Y277250*
X106273Y277125*
X106182Y277000*
X106091Y276750*
Y276375*
X106273Y276125*
X106545Y276000*
X106909*
X107182Y276125*
X107364Y276375*
X103909Y278000D02*
X104000Y278250D01*
X104182Y278500*
X104364Y278625*
X104727*
X104909Y278500*
X105091Y278250*
X105182Y278000*
X105273Y277625*
Y277000*
X105182Y276625*
X105091Y276375*
X104909Y276125*
X104727Y276000*
X104364*
X104182Y276125*
X104000Y276375*
X103909Y276625*
X103091Y278625D02*
Y276000D01*
X102000*
X132000Y211625D02*
Y209000D01*
Y211625D02*
X131182D01*
X130909Y211500*
X130818Y211375*
X130727Y211125*
Y210750*
X130818Y210500*
X130909Y210375*
X131182Y210250*
X132000*
X129909Y211625D02*
X129455Y209000D01*
X129000Y211625D02*
X129455Y209000D01*
X129000Y211625D02*
X128545Y209000D01*
X128091Y211625D02*
X128545Y209000D01*
X127273Y211625D02*
Y209000D01*
Y211625D02*
X126455D01*
X126182Y211500*
X126091Y211375*
X126000Y211125*
Y210875*
X126091Y210625*
X126182Y210500*
X126455Y210375*
X127273*
X126636D02*
X126000Y209000D01*
X108636Y211000D02*
X108727Y211250D01*
X108909Y211500*
X109091Y211625*
X109455*
X109636Y211500*
X109818Y211250*
X109909Y211000*
X110000Y210625*
Y210000*
X109909Y209625*
X109818Y209375*
X109636Y209125*
X109455Y209000*
X109091*
X108909Y209125*
X108727Y209375*
X108636Y209625*
Y210000*
X109091D02*
X108636D01*
X107818Y211625D02*
Y209000D01*
Y211625D02*
X106545Y209000D01*
Y211625D02*
Y209000D01*
X105727Y211625D02*
Y209000D01*
Y211625D02*
X105091D01*
X104818Y211500*
X104636Y211250*
X104545Y211000*
X104455Y210625*
Y210000*
X104545Y209625*
X104636Y209375*
X104818Y209125*
X105091Y209000*
X105727*
X132000Y194625D02*
Y192000D01*
Y194625D02*
X131182D01*
X130909Y194500*
X130818Y194375*
X130727Y194125*
Y193750*
X130818Y193500*
X130909Y193375*
X131182Y193250*
X132000*
X129909Y194625D02*
X129455Y192000D01*
X129000Y194625D02*
X129455Y192000D01*
X129000Y194625D02*
X128545Y192000D01*
X128091Y194625D02*
X128545Y192000D01*
X127273Y194625D02*
Y192000D01*
Y194625D02*
X126455D01*
X126182Y194500*
X126091Y194375*
X126000Y194125*
Y193875*
X126091Y193625*
X126182Y193500*
X126455Y193375*
X127273*
X126636D02*
X126000Y192000D01*
X108636Y194000D02*
X108727Y194250D01*
X108909Y194500*
X109091Y194625*
X109455*
X109636Y194500*
X109818Y194250*
X109909Y194000*
X110000Y193625*
Y193000*
X109909Y192625*
X109818Y192375*
X109636Y192125*
X109455Y192000*
X109091*
X108909Y192125*
X108727Y192375*
X108636Y192625*
Y193000*
X109091D02*
X108636D01*
X107818Y194625D02*
Y192000D01*
Y194625D02*
X106545Y192000D01*
Y194625D02*
Y192000D01*
X105727Y194625D02*
Y192000D01*
Y194625D02*
X105091D01*
X104818Y194500*
X104636Y194250*
X104545Y194000*
X104455Y193625*
Y193000*
X104545Y192625*
X104636Y192375*
X104818Y192125*
X105091Y192000*
X105727*
X132000Y161625D02*
Y159000D01*
Y161625D02*
X131182D01*
X130909Y161500*
X130818Y161375*
X130727Y161125*
Y160750*
X130818Y160500*
X130909Y160375*
X131182Y160250*
X132000*
X129909Y161625D02*
X129455Y159000D01*
X129000Y161625D02*
X129455Y159000D01*
X129000Y161625D02*
X128545Y159000D01*
X128091Y161625D02*
X128545Y159000D01*
X127273Y161625D02*
Y159000D01*
Y161625D02*
X126455D01*
X126182Y161500*
X126091Y161375*
X126000Y161125*
Y160875*
X126091Y160625*
X126182Y160500*
X126455Y160375*
X127273*
X126636D02*
X126000Y159000D01*
X108636Y161000D02*
X108727Y161250D01*
X108909Y161500*
X109091Y161625*
X109455*
X109636Y161500*
X109818Y161250*
X109909Y161000*
X110000Y160625*
Y160000*
X109909Y159625*
X109818Y159375*
X109636Y159125*
X109455Y159000*
X109091*
X108909Y159125*
X108727Y159375*
X108636Y159625*
Y160000*
X109091D02*
X108636D01*
X107818Y161625D02*
Y159000D01*
Y161625D02*
X106545Y159000D01*
Y161625D02*
Y159000D01*
X105727Y161625D02*
Y159000D01*
Y161625D02*
X105091D01*
X104818Y161500*
X104636Y161250*
X104545Y161000*
X104455Y160625*
Y160000*
X104545Y159625*
X104636Y159375*
X104818Y159125*
X105091Y159000*
X105727*
X132000Y144625D02*
Y142000D01*
Y144625D02*
X131182D01*
X130909Y144500*
X130818Y144375*
X130727Y144125*
Y143750*
X130818Y143500*
X130909Y143375*
X131182Y143250*
X132000*
X129909Y144625D02*
X129455Y142000D01*
X129000Y144625D02*
X129455Y142000D01*
X129000Y144625D02*
X128545Y142000D01*
X128091Y144625D02*
X128545Y142000D01*
X127273Y144625D02*
Y142000D01*
Y144625D02*
X126455D01*
X126182Y144500*
X126091Y144375*
X126000Y144125*
Y143875*
X126091Y143625*
X126182Y143500*
X126455Y143375*
X127273*
X126636D02*
X126000Y142000D01*
X108636Y144000D02*
X108727Y144250D01*
X108909Y144500*
X109091Y144625*
X109455*
X109636Y144500*
X109818Y144250*
X109909Y144000*
X110000Y143625*
Y143000*
X109909Y142625*
X109818Y142375*
X109636Y142125*
X109455Y142000*
X109091*
X108909Y142125*
X108727Y142375*
X108636Y142625*
Y143000*
X109091D02*
X108636D01*
X107818Y144625D02*
Y142000D01*
Y144625D02*
X106545Y142000D01*
Y144625D02*
Y142000D01*
X105727Y144625D02*
Y142000D01*
Y144625D02*
X105091D01*
X104818Y144500*
X104636Y144250*
X104545Y144000*
X104455Y143625*
Y143000*
X104545Y142625*
X104636Y142375*
X104818Y142125*
X105091Y142000*
X105727*
X466000Y166625D02*
Y164000D01*
Y166625D02*
X465182D01*
X464909Y166500*
X464818Y166375*
X464727Y166125*
Y165750*
X464818Y165500*
X464909Y165375*
X465182Y165250*
X466000*
X463909Y166625D02*
X463455Y164000D01*
X463000Y166625D02*
X463455Y164000D01*
X463000Y166625D02*
X462545Y164000D01*
X462091Y166625D02*
X462545Y164000D01*
X461273Y166625D02*
Y164000D01*
Y166625D02*
X460455D01*
X460182Y166500*
X460091Y166375*
X460000Y166125*
Y165875*
X460091Y165625*
X460182Y165500*
X460455Y165375*
X461273*
X460636D02*
X460000Y164000D01*
X485636Y166000D02*
X485727Y166250D01*
X485909Y166500*
X486091Y166625*
X486455*
X486636Y166500*
X486818Y166250*
X486909Y166000*
X487000Y165625*
Y165000*
X486909Y164625*
X486818Y164375*
X486636Y164125*
X486455Y164000*
X486091*
X485909Y164125*
X485727Y164375*
X485636Y164625*
Y165000*
X486091D02*
X485636D01*
X484818Y166625D02*
Y164000D01*
Y166625D02*
X483545Y164000D01*
Y166625D02*
Y164000D01*
X482727Y166625D02*
Y164000D01*
Y166625D02*
X482091D01*
X481818Y166500*
X481636Y166250*
X481545Y166000*
X481455Y165625*
Y165000*
X481545Y164625*
X481636Y164375*
X481818Y164125*
X482091Y164000*
X482727*
X466000Y149625D02*
Y147000D01*
Y149625D02*
X465182D01*
X464909Y149500*
X464818Y149375*
X464727Y149125*
Y148750*
X464818Y148500*
X464909Y148375*
X465182Y148250*
X466000*
X463909Y149625D02*
X463455Y147000D01*
X463000Y149625D02*
X463455Y147000D01*
X463000Y149625D02*
X462545Y147000D01*
X462091Y149625D02*
X462545Y147000D01*
X461273Y149625D02*
Y147000D01*
Y149625D02*
X460455D01*
X460182Y149500*
X460091Y149375*
X460000Y149125*
Y148875*
X460091Y148625*
X460182Y148500*
X460455Y148375*
X461273*
X460636D02*
X460000Y147000D01*
X485636Y149000D02*
X485727Y149250D01*
X485909Y149500*
X486091Y149625*
X486455*
X486636Y149500*
X486818Y149250*
X486909Y149000*
X487000Y148625*
Y148000*
X486909Y147625*
X486818Y147375*
X486636Y147125*
X486455Y147000*
X486091*
X485909Y147125*
X485727Y147375*
X485636Y147625*
Y148000*
X486091D02*
X485636D01*
X484818Y149625D02*
Y147000D01*
Y149625D02*
X483545Y147000D01*
Y149625D02*
Y147000D01*
X482727Y149625D02*
Y147000D01*
Y149625D02*
X482091D01*
X481818Y149500*
X481636Y149250*
X481545Y149000*
X481455Y148625*
Y148000*
X481545Y147625*
X481636Y147375*
X481818Y147125*
X482091Y147000*
X482727*
X329364Y140625D02*
Y138000D01*
X330000Y140625D02*
X328727D01*
X327364D02*
X327545Y140500D01*
X327727Y140250*
X327818Y140000*
X327909Y139625*
Y139000*
X327818Y138625*
X327727Y138375*
X327545Y138125*
X327364Y138000*
X327000*
X326818Y138125*
X326636Y138375*
X326545Y138625*
X326455Y139000*
Y139625*
X326545Y140000*
X326636Y140250*
X326818Y140500*
X327000Y140625*
X327364*
X332000Y117625D02*
Y115000D01*
Y117625D02*
X330818D01*
X332000Y116375D02*
X331273D01*
X330000Y117625D02*
Y115000D01*
Y117625D02*
X329182D01*
X328909Y117500*
X328818Y117375*
X328727Y117125*
Y116875*
X328818Y116625*
X328909Y116500*
X329182Y116375*
X330000*
X329364D02*
X328727Y115000D01*
X327364Y117625D02*
X327545Y117500D01*
X327727Y117250*
X327818Y117000*
X327909Y116625*
Y116000*
X327818Y115625*
X327727Y115375*
X327545Y115125*
X327364Y115000*
X327000*
X326818Y115125*
X326636Y115375*
X326545Y115625*
X326455Y116000*
Y116625*
X326545Y117000*
X326636Y117250*
X326818Y117500*
X327000Y117625*
X327364*
X325636D02*
Y115000D01*
Y117625D02*
X324909Y115000D01*
X324182Y117625D02*
X324909Y115000D01*
X324182Y117625D02*
Y115000D01*
X345636Y140000D02*
X345727Y140250D01*
X345909Y140500*
X346091Y140625*
X346455*
X346636Y140500*
X346818Y140250*
X346909Y140000*
X347000Y139625*
Y139000*
X346909Y138625*
X346818Y138375*
X346636Y138125*
X346455Y138000*
X346091*
X345909Y138125*
X345727Y138375*
X345636Y138625*
Y139000*
X346091D02*
X345636D01*
X344818Y140625D02*
Y138000D01*
Y140625D02*
X343545Y138000D01*
Y140625D02*
Y138000D01*
X342727Y140625D02*
Y138000D01*
Y140625D02*
X342091D01*
X341818Y140500*
X341636Y140250*
X341545Y140000*
X341455Y139625*
Y139000*
X341545Y138625*
X341636Y138375*
X341818Y138125*
X342091Y138000*
X342727*
X345636Y117000D02*
X345727Y117250D01*
X345909Y117500*
X346091Y117625*
X346455*
X346636Y117500*
X346818Y117250*
X346909Y117000*
X347000Y116625*
Y116000*
X346909Y115625*
X346818Y115375*
X346636Y115125*
X346455Y115000*
X346091*
X345909Y115125*
X345727Y115375*
X345636Y115625*
Y116000*
X346091D02*
X345636D01*
X344818Y117625D02*
Y115000D01*
Y117625D02*
X343545Y115000D01*
Y117625D02*
Y115000D01*
X342727Y117625D02*
Y115000D01*
Y117625D02*
X342091D01*
X341818Y117500*
X341636Y117250*
X341545Y117000*
X341455Y116625*
Y116000*
X341545Y115625*
X341636Y115375*
X341818Y115125*
X342091Y115000*
X342727*
X298000Y140625D02*
Y138000D01*
Y140625D02*
X297182D01*
X296909Y140500*
X296818Y140375*
X296727Y140125*
Y139750*
X296818Y139500*
X296909Y139375*
X297182Y139250*
X298000*
X295909Y140625D02*
X295455Y138000D01*
X295000Y140625D02*
X295455Y138000D01*
X295000Y140625D02*
X294545Y138000D01*
X294091Y140625D02*
X294545Y138000D01*
X293273Y140625D02*
Y138000D01*
Y140625D02*
X292455D01*
X292182Y140500*
X292091Y140375*
X292000Y140125*
Y139875*
X292091Y139625*
X292182Y139500*
X292455Y139375*
X293273*
X292636D02*
X292000Y138000D01*
X314000Y140625D02*
Y138000D01*
Y140625D02*
X313182D01*
X312909Y140500*
X312818Y140375*
X312727Y140125*
Y139750*
X312818Y139500*
X312909Y139375*
X313182Y139250*
X314000*
X311909Y140625D02*
X311455Y138000D01*
X311000Y140625D02*
X311455Y138000D01*
X311000Y140625D02*
X310545Y138000D01*
X310091Y140625D02*
X310545Y138000D01*
X309273Y140625D02*
Y138000D01*
Y140625D02*
X308455D01*
X308182Y140500*
X308091Y140375*
X308000Y140125*
Y139875*
X308091Y139625*
X308182Y139500*
X308455Y139375*
X309273*
X308636D02*
X308000Y138000D01*
X296636Y117000D02*
X296727Y117250D01*
X296909Y117500*
X297091Y117625*
X297455*
X297636Y117500*
X297818Y117250*
X297909Y117000*
X298000Y116625*
Y116000*
X297909Y115625*
X297818Y115375*
X297636Y115125*
X297455Y115000*
X297091*
X296909Y115125*
X296727Y115375*
X296636Y115625*
Y116000*
X297091D02*
X296636D01*
X295818Y117625D02*
Y115000D01*
Y117625D02*
X294545Y115000D01*
Y117625D02*
Y115000D01*
X293727Y117625D02*
Y115000D01*
Y117625D02*
X293091D01*
X292818Y117500*
X292636Y117250*
X292545Y117000*
X292455Y116625*
Y116000*
X292545Y115625*
X292636Y115375*
X292818Y115125*
X293091Y115000*
X293727*
X312636Y117000D02*
X312727Y117250D01*
X312909Y117500*
X313091Y117625*
X313455*
X313636Y117500*
X313818Y117250*
X313909Y117000*
X314000Y116625*
Y116000*
X313909Y115625*
X313818Y115375*
X313636Y115125*
X313455Y115000*
X313091*
X312909Y115125*
X312727Y115375*
X312636Y115625*
Y116000*
X313091D02*
X312636D01*
X311818Y117625D02*
Y115000D01*
Y117625D02*
X310545Y115000D01*
Y117625D02*
Y115000D01*
X309727Y117625D02*
Y115000D01*
Y117625D02*
X309091D01*
X308818Y117500*
X308636Y117250*
X308545Y117000*
X308455Y116625*
Y116000*
X308545Y115625*
X308636Y115375*
X308818Y115125*
X309091Y115000*
X309727*
X409636Y210000D02*
X409727Y210250D01*
X409909Y210500*
X410091Y210625*
X410455*
X410636Y210500*
X410818Y210250*
X410909Y210000*
X411000Y209625*
Y209000*
X410909Y208625*
X410818Y208375*
X410636Y208125*
X410455Y208000*
X410091*
X409909Y208125*
X409727Y208375*
X409636Y208625*
Y209000*
X410091D02*
X409636D01*
X408818Y210625D02*
Y208000D01*
Y210625D02*
X407545Y208000D01*
Y210625D02*
Y208000D01*
X406727Y210625D02*
Y208000D01*
Y210625D02*
X406091D01*
X405818Y210500*
X405636Y210250*
X405545Y210000*
X405455Y209625*
Y209000*
X405545Y208625*
X405636Y208375*
X405818Y208125*
X406091Y208000*
X406727*
X401727Y210250D02*
Y208000D01*
X402545Y209125D02*
X400909D01*
X399909Y210625D02*
X398909D01*
X399455Y209625*
X399182*
X399000Y209500*
X398909Y209375*
X398818Y209000*
Y208750*
X398909Y208375*
X399091Y208125*
X399364Y208000*
X399636*
X399909Y208125*
X400000Y208250*
X400091Y208500*
X397909Y208250D02*
X398000Y208125D01*
X397909Y208000*
X397818Y208125*
X397909Y208250*
X396818Y210625D02*
X395818D01*
X396364Y209625*
X396091*
X395909Y209500*
X395818Y209375*
X395727Y209000*
Y208750*
X395818Y208375*
X396000Y208125*
X396273Y208000*
X396545*
X396818Y208125*
X396909Y208250*
X397000Y208500*
X394909Y210625D02*
X394182Y208000D01*
X393455Y210625D02*
X394182Y208000D01*
X384636Y413000D02*
X384727Y413250D01*
X384909Y413500*
X385091Y413625*
X385455*
X385636Y413500*
X385818Y413250*
X385909Y413000*
X386000Y412625*
Y412000*
X385909Y411625*
X385818Y411375*
X385636Y411125*
X385455Y411000*
X385091*
X384909Y411125*
X384727Y411375*
X384636Y411625*
Y412000*
X385091D02*
X384636D01*
X383818Y413625D02*
Y411000D01*
Y413625D02*
X382545Y411000D01*
Y413625D02*
Y411000D01*
X381727Y413625D02*
Y411000D01*
Y413625D02*
X381091D01*
X380818Y413500*
X380636Y413250*
X380545Y413000*
X380455Y412625*
Y412000*
X380545Y411625*
X380636Y411375*
X380818Y411125*
X381091Y411000*
X381727*
X377818Y413625D02*
X376818D01*
X377364Y412625*
X377091*
X376909Y412500*
X376818Y412375*
X376727Y412000*
Y411750*
X376818Y411375*
X377000Y411125*
X377273Y411000*
X377545*
X377818Y411125*
X377909Y411250*
X378000Y411500*
X375818Y411250D02*
X375909Y411125D01*
X375818Y411000*
X375727Y411125*
X375818Y411250*
X374727Y413625D02*
X373727D01*
X374273Y412625*
X374000*
X373818Y412500*
X373727Y412375*
X373636Y412000*
Y411750*
X373727Y411375*
X373909Y411125*
X374182Y411000*
X374455*
X374727Y411125*
X374818Y411250*
X374909Y411500*
X372818Y413625D02*
X372091Y411000D01*
X371364Y413625D02*
X372091Y411000D01*
X369273Y413250D02*
X369455Y413500D01*
X369727Y413625*
X370091*
X370364Y413500*
X370545Y413250*
Y413000*
X370455Y412750*
X370364Y412625*
X370182Y412500*
X369636Y412250*
X369455Y412125*
X369364Y412000*
X369273Y411750*
Y411375*
X369455Y411125*
X369727Y411000*
X370091*
X370364Y411125*
X370545Y411375*
X368455Y413625D02*
Y411000D01*
Y413625D02*
X367636D01*
X367364Y413500*
X367273Y413375*
X367182Y413125*
Y412875*
X367273Y412625*
X367364Y412500*
X367636Y412375*
X368455D02*
X367636D01*
X367364Y412250*
X367273Y412125*
X367182Y411875*
Y411500*
X367273Y411250*
X367364Y411125*
X367636Y411000*
X368455*
X485636Y413000D02*
X485727Y413250D01*
X485909Y413500*
X486091Y413625*
X486455*
X486636Y413500*
X486818Y413250*
X486909Y413000*
X487000Y412625*
Y412000*
X486909Y411625*
X486818Y411375*
X486636Y411125*
X486455Y411000*
X486091*
X485909Y411125*
X485727Y411375*
X485636Y411625*
Y412000*
X486091D02*
X485636D01*
X484818Y413625D02*
Y411000D01*
Y413625D02*
X483545Y411000D01*
Y413625D02*
Y411000D01*
X482727Y413625D02*
Y411000D01*
Y413625D02*
X482091D01*
X481818Y413500*
X481636Y413250*
X481545Y413000*
X481455Y412625*
Y412000*
X481545Y411625*
X481636Y411375*
X481818Y411125*
X482091Y411000*
X482727*
X478545Y413625D02*
X477818Y411000D01*
X477091Y413625D02*
X477818Y411000D01*
X476273Y413625D02*
Y411000D01*
X475455Y413625D02*
Y411000D01*
Y413625D02*
X474182Y411000D01*
Y413625D02*
Y411000D01*
X463636Y339000D02*
X463727Y339250D01*
X463909Y339500*
X464091Y339625*
X464455*
X464636Y339500*
X464818Y339250*
X464909Y339000*
X465000Y338625*
Y338000*
X464909Y337625*
X464818Y337375*
X464636Y337125*
X464455Y337000*
X464091*
X463909Y337125*
X463727Y337375*
X463636Y337625*
Y338000*
X464091D02*
X463636D01*
X462818Y339625D02*
Y337000D01*
Y339625D02*
X461545Y337000D01*
Y339625D02*
Y337000D01*
X460727Y339625D02*
Y337000D01*
Y339625D02*
X460091D01*
X459818Y339500*
X459636Y339250*
X459545Y339000*
X459455Y338625*
Y338000*
X459545Y337625*
X459636Y337375*
X459818Y337125*
X460091Y337000*
X460727*
X456545Y339125D02*
X456364Y339250D01*
X456091Y339625*
Y337000*
X454091Y339625D02*
X455000D01*
X455091Y338500*
X455000Y338625*
X454727Y338750*
X454455*
X454182Y338625*
X454000Y338375*
X453909Y338000*
X454000Y337750*
X454091Y337375*
X454273Y337125*
X454545Y337000*
X454818*
X455091Y337125*
X455182Y337250*
X455273Y337500*
X453091Y339625D02*
X452364Y337000D01*
X451636Y339625D02*
X452364Y337000D01*
X450818Y339625D02*
Y337000D01*
X450000Y339625D02*
Y337000D01*
Y339625D02*
X448727Y337000D01*
Y339625D02*
Y337000D01*
X160636Y113000D02*
X160727Y113250D01*
X160909Y113500*
X161091Y113625*
X161455*
X161636Y113500*
X161818Y113250*
X161909Y113000*
X162000Y112625*
Y112000*
X161909Y111625*
X161818Y111375*
X161636Y111125*
X161455Y111000*
X161091*
X160909Y111125*
X160727Y111375*
X160636Y111625*
Y112000*
X161091D02*
X160636D01*
X159818Y113625D02*
Y111000D01*
Y113625D02*
X158545Y111000D01*
Y113625D02*
Y111000D01*
X157727Y113625D02*
Y111000D01*
Y113625D02*
X157091D01*
X156818Y113500*
X156636Y113250*
X156545Y113000*
X156455Y112625*
Y112000*
X156545Y111625*
X156636Y111375*
X156818Y111125*
X157091Y111000*
X157727*
X152727Y113250D02*
Y111000D01*
X153545Y112125D02*
X151909D01*
X151091Y113125D02*
X150909Y113250D01*
X150636Y113625*
Y111000*
X148636Y113625D02*
X149545D01*
X149636Y112500*
X149545Y112625*
X149273Y112750*
X149000*
X148727Y112625*
X148545Y112375*
X148455Y112000*
X148545Y111750*
X148636Y111375*
X148818Y111125*
X149091Y111000*
X149364*
X149636Y111125*
X149727Y111250*
X149818Y111500*
X147636Y113625D02*
X146909Y111000D01*
X146182Y113625D02*
X146909Y111000D01*
X176636Y329000D02*
X176727Y329250D01*
X176909Y329500*
X177091Y329625*
X177455*
X177636Y329500*
X177818Y329250*
X177909Y329000*
X178000Y328625*
Y328000*
X177909Y327625*
X177818Y327375*
X177636Y327125*
X177455Y327000*
X177091*
X176909Y327125*
X176727Y327375*
X176636Y327625*
Y328000*
X177091D02*
X176636D01*
X175818Y329625D02*
Y327000D01*
Y329625D02*
X174545Y327000D01*
Y329625D02*
Y327000D01*
X173727Y329625D02*
Y327000D01*
Y329625D02*
X173091D01*
X172818Y329500*
X172636Y329250*
X172545Y329000*
X172455Y328625*
Y328000*
X172545Y327625*
X172636Y327375*
X172818Y327125*
X173091Y327000*
X173727*
X168273Y329250D02*
X168455Y329500D01*
X168727Y329625*
X169091*
X169364Y329500*
X169545Y329250*
Y329000*
X169455Y328750*
X169364Y328625*
X169182Y328500*
X168636Y328250*
X168455Y328125*
X168364Y328000*
X168273Y327750*
Y327375*
X168455Y327125*
X168727Y327000*
X169091*
X169364Y327125*
X169545Y327375*
X167455Y329625D02*
Y327000D01*
Y329625D02*
X166273D01*
X167455Y328375D02*
X166727D01*
X167455Y327000D02*
X166273D01*
X165455Y329625D02*
Y327000D01*
Y329625D02*
X164182Y327000D01*
Y329625D02*
Y327000D01*
X162091Y329250D02*
X162273Y329500D01*
X162545Y329625*
X162909*
X163182Y329500*
X163364Y329250*
Y329000*
X163273Y328750*
X163182Y328625*
X163000Y328500*
X162455Y328250*
X162273Y328125*
X162182Y328000*
X162091Y327750*
Y327375*
X162273Y327125*
X162545Y327000*
X162909*
X163182Y327125*
X163364Y327375*
X161273Y329625D02*
Y327000D01*
Y329625D02*
X160091D01*
X161273Y328375D02*
X160545D01*
X161273Y327000D02*
X160091D01*
X155818Y329000D02*
X155909Y329250D01*
X156091Y329500*
X156273Y329625*
X156636*
X156818Y329500*
X157000Y329250*
X157091Y329000*
X157182Y328625*
Y328000*
X157091Y327625*
X157000Y327375*
X156818Y327125*
X156636Y327000*
X156273*
X156091Y327125*
X155909Y327375*
X155818Y327625*
Y328000*
X156273D02*
X155818D01*
X154273Y329625D02*
X155000Y327000D01*
X154273Y329625D02*
X153545Y327000D01*
X154727Y327875D02*
X153818D01*
X152091Y329625D02*
Y327000D01*
X152727Y329625D02*
X151455D01*
X150636D02*
Y327000D01*
Y329625D02*
X149455D01*
X150636Y328375D02*
X149909D01*
X150636Y327000D02*
X149455D01*
X146545Y329125D02*
X146364Y329250D01*
X146091Y329625*
Y327000*
X144091Y329625D02*
X145000D01*
X145091Y328500*
X145000Y328625*
X144727Y328750*
X144455*
X144182Y328625*
X144000Y328375*
X143909Y328000*
X144000Y327750*
X144091Y327375*
X144273Y327125*
X144545Y327000*
X144818*
X145091Y327125*
X145182Y327250*
X145273Y327500*
X143091Y329625D02*
X142364Y327000D01*
X141636Y329625D02*
X142364Y327000D01*
X214227Y296250D02*
X214409Y296500D01*
X214682Y296625*
X215045*
X215318Y296500*
X215500Y296250*
Y296000*
X215409Y295750*
X215318Y295625*
X215136Y295500*
X214591Y295250*
X214409Y295125*
X214318Y295000*
X214227Y294750*
Y294375*
X214409Y294125*
X214682Y294000*
X215045*
X215318Y294125*
X215500Y294375*
X213409Y296625D02*
Y294000D01*
Y296625D02*
X212773D01*
X212500Y296500*
X212318Y296250*
X212227Y296000*
X212136Y295625*
Y295000*
X212227Y294625*
X212318Y294375*
X212500Y294125*
X212773Y294000*
X213409*
X210591Y296625D02*
X211318Y294000D01*
X210591Y296625D02*
X209864Y294000D01*
X211045Y294875D02*
X210136D01*
X224227Y296250D02*
X224409Y296500D01*
X224682Y296625*
X225045*
X225318Y296500*
X225500Y296250*
Y296000*
X225409Y295750*
X225318Y295625*
X225136Y295500*
X224591Y295250*
X224409Y295125*
X224318Y295000*
X224227Y294750*
Y294375*
X224409Y294125*
X224682Y294000*
X225045*
X225318Y294125*
X225500Y294375*
X222045Y296000D02*
X222136Y296250D01*
X222318Y296500*
X222500Y296625*
X222864*
X223045Y296500*
X223227Y296250*
X223318Y296000*
X223409Y295625*
Y295000*
X223318Y294625*
X223227Y294375*
X223045Y294125*
X222864Y294000*
X222500*
X222318Y294125*
X222136Y294375*
X222045Y294625*
X221227Y296625D02*
Y294000D01*
X220136*
X234500Y307125D02*
Y304500D01*
Y307125D02*
X233773Y304500D01*
X233045Y307125D02*
X233773Y304500D01*
X233045Y307125D02*
Y304500D01*
X230955Y306750D02*
X231136Y307000D01*
X231409Y307125*
X231773*
X232045Y307000*
X232227Y306750*
Y306500*
X232136Y306250*
X232045Y306125*
X231864Y306000*
X231318Y305750*
X231136Y305625*
X231045Y305500*
X230955Y305250*
Y304875*
X231136Y304625*
X231409Y304500*
X231773*
X232045Y304625*
X232227Y304875*
X230136Y307125D02*
Y304500D01*
Y307125D02*
X229318D01*
X229045Y307000*
X228955Y306875*
X228864Y306625*
Y306250*
X228955Y306000*
X229045Y305875*
X229318Y305750*
X230136*
X233000Y303125D02*
Y300500D01*
X232091Y302500D02*
Y302625D01*
X232000Y302875*
X231909Y303000*
X231727Y303125*
X231364*
X231182Y303000*
X231091Y302875*
X231000Y302625*
Y302375*
X231091Y302125*
X231273Y301750*
X232182Y300500*
X230909*
X228727Y302500D02*
X228818Y302750D01*
X229000Y303000*
X229182Y303125*
X229545*
X229727Y303000*
X229909Y302750*
X230000Y302500*
X230091Y302125*
Y301500*
X230000Y301125*
X229909Y300875*
X229727Y300625*
X229545Y300500*
X229182*
X229000Y300625*
X228818Y300875*
X228727Y301125*
X255364Y296125D02*
Y293500D01*
X256000Y296125D02*
X254727D01*
X253909D02*
Y293500D01*
X253091Y296125D02*
X252364Y293500D01*
X251636Y296125D02*
X252364Y293500D01*
X250091Y296125D02*
X250818Y293500D01*
X250091Y296125D02*
X249364Y293500D01*
X250545Y294375D02*
X249636D01*
X254000Y292125D02*
Y289500D01*
X253091Y291500D02*
Y291625D01*
X253000Y291875*
X252909Y292000*
X252727Y292125*
X252364*
X252182Y292000*
X252091Y291875*
X252000Y291625*
Y291375*
X252091Y291125*
X252273Y290750*
X253182Y289500*
X251909*
X249727Y291500D02*
X249818Y291750D01*
X250000Y292000*
X250182Y292125*
X250545*
X250727Y292000*
X250909Y291750*
X251000Y291500*
X251091Y291125*
Y290500*
X251000Y290125*
X250909Y289875*
X250727Y289625*
X250545Y289500*
X250182*
X250000Y289625*
X249818Y289875*
X249727Y290125*
X0Y0D02*
M02*
