%
T1C.012F095S300
X015200Y014100
X015057Y014700
X014350Y014700
X014704Y015054
X014350Y015407
X015150Y015850
X015200Y019050
X015057Y019700
X014350Y019700
X014704Y020054
X014350Y020407
X015150Y020850
X015200Y026000
X015057Y026600
X014350Y026600
X014704Y026954
X014350Y027307
X015150Y027750
X012800Y027800
X017300Y029100
X015850Y028050
X017300Y027400
X016200Y027300
X018000Y026600
X016600Y026000
X018000Y022800
X017300Y022200
X015850Y021150
X017300Y020500
X016250Y020350
X017350Y019700
X016550Y019100
X018000Y017800
X017300Y017200
X015850Y016150
X017300Y015500
X016200Y015450
X017350Y014700
X016600Y014100
X022750Y010600
X020100Y010950
X022450Y011500
X021400Y013550
X018350Y015100
X018350Y020100
X022700Y024950
X018300Y027000
X018400Y030100
X020200Y031250
X023200Y031300
X020600Y031700
X019650Y032200
X021100Y032500
X020700Y033900
X020700Y034600
X025500Y041950
X025000Y041950
X024500Y041950
X024000Y041950
X023450Y041950
X024900Y039100
X025400Y039100
X024400Y039100
X024800Y034600
X024200Y032500
X023700Y031700
X025150Y019300
X025000Y018350
X025000Y017950
X025750Y016900
X025250Y016750
X023800Y016300
X026100Y012200
X026950Y014400
X026700Y016050
X027200Y016500
X026850Y017150
X027550Y017350
X027350Y017800
X027700Y018340
X026950Y018800
X026550Y019000
X026650Y025000
X026600Y031750
X027490Y032370
X026000Y032450
X027170Y032640
X027550Y036650
X026400Y039100
X025900Y039100
X026000Y041950
X030200Y039800
X030050Y036100
X030750Y033050
X028540Y032100
X030190Y031600
X028510Y031390
X030170Y031170
X030200Y028100
X030300Y026900
X028800Y026800
X028600Y024000
X029900Y017850
X030500Y017100
X031950Y014250
X032657Y014250
X032304Y014604
X032657Y014957
X031850Y015050
X031550Y015750
X032300Y016100
X032200Y017100
X032900Y017200
X032950Y017850
X031950Y017850
X031600Y017900
X032450Y020150
X033100Y024850
X033000Y027100
X032100Y028400
X032950Y028850
X033000Y030550
X032000Y033550
X032900Y033850
X032450Y033950
X032050Y034450
X032900Y034500
X031000Y034850
X032100Y035900
X032650Y036650
X031810Y036650
X031100Y037000
X033050Y037020
X032650Y037150
X032600Y037650
X031200Y037750
X032560Y038010
X033160Y038450
X032600Y039250
X031100Y039250
X033200Y039340
X031600Y039700
X033040Y039980
X032130Y040440
X031800Y041250
X032900Y041300
X034070Y042420
X035300Y041560
X033940Y041380
X034760Y040750
X033400Y040000
X035200Y040000
X035550Y039150
X035750Y038850
X035600Y038200
X034300Y037100
X033950Y036900
X033750Y035600
X035550Y034650
X034550Y034650
X035550Y034350
X034550Y034350
X033850Y034150
X035550Y034050
X034550Y034050
X035600Y033550
X034400Y033500
X034700Y033300
X033900Y033100
X034650Y032700
X035000Y032300
X033900Y031900
X034050Y031550
X035550Y031000
X034100Y030500
X035250Y030050
X035400Y029600
X035600Y029100
X034150Y028700
X035200Y028550
X033450Y028350
X035200Y028050
X035300Y027400
X034100Y027100
X035350Y027050
X035350Y026650
X035750Y026250
X034350Y022100
X035500Y022100
X035250Y021800
X034600Y021800
X033700Y016400
X034000Y015400
X035900Y022700
X036300Y023000
X036600Y023950
X036150Y024000
X037650Y024100
X037150Y024100
X038100Y024100
X038050Y024450
X036523Y025050
X037200Y025200
X037620Y025200
X036209Y025200
X036840Y025230
X037000Y026250
X036366Y026250
X037800Y026300
X036680Y026400
X035900Y028400
X035900Y028800
X035800Y029400
X036950Y030500
X036400Y030500
X035850Y031200
X036210Y031250
X037750Y031250
X037950Y032300
X037300Y032350
X037950Y032950
X038200Y033500
X036200Y034200
X036050Y036800
X037300Y037800
X036000Y038200
X037400Y039300
X035850Y039350
X037900Y039850
X035840Y041180
X035880Y041540
X038500Y039850
X038900Y039650
X039500Y037300
X039900Y035800
X039900Y035400
X040700Y035300
X038300Y034200
X039350Y033750
X039700Y033400
X039000Y032900
X039700Y032900
X040750Y032450
X039510Y032300
X040000Y032300
X039660Y031250
X040200Y030240
X040200Y029770
X040200Y029300
X040200Y028670
X039950Y026750
X039500Y026700
X038700Y026300
X039100Y026300
X039190Y025200
X039510Y025200
X038300Y024750
X039950Y024550
X039050Y024000
X038500Y024000
X039150Y021500
X038800Y020950
X039500Y018400
X038550Y018400
X041250Y014700
X041950Y015300
X041250Y016400
X041950Y017000
X043050Y017050
X041950Y017800
X041250Y017800
X042700Y018400
X042750Y022900
X043050Y022900
X041450Y024000
X041450Y025050
X042700Y025100
X041800Y025500
X041250Y027260
X042550Y027300
X042600Y028200
X041250Y028510
X042100Y028600
X041490Y028820
X041250Y029140
X042500Y029500
X042500Y029900
X041800Y030900
X041400Y030900
X041250Y031180
X042020Y031830
X041100Y035300
X042700Y035400
X043100Y035400
X043500Y035400
X044610Y033690
X044200Y033600
X044600Y024800
X045200Y023350
X043950Y022900
X044250Y022900
X043650Y022900
X044550Y022900
X043350Y022900
X044200Y021300
X045300Y021300
X044050Y018400
X044707Y017723
X044354Y017369
X044707Y017016
X044100Y016650
X043400Y016350
X046400Y022200
X045950Y023750
X046300Y023750
X046650Y023750
X048600Y023800
X045950Y025050
X046650Y025050
X046300Y025050
X046700Y026250
X048400Y033730
X049080Y034390
X048390Y035090
X048350Y035950
T2C.026F197S550
X031450Y030000
X031950Y030000
X031450Y030500
X031950Y030500
X031450Y031000
X031950Y031000
X031450Y031500
X031950Y031500
X031450Y032000
X031950Y032000
T3C.035F197S550
X015000Y012000
X016000Y012000
X014500Y032000
X015500Y032000
X016500Y032000
X017500Y032000
X011800Y042000
X010800Y042000
X012800Y042000
X027100Y030800
X022200Y030300
X021200Y030300
X027100Y029800
X023200Y029300
X024200Y029300
X027100Y028800
X027100Y027800
X039800Y021800
X037300Y042000
X038300Y042000
X045200Y034600
X043150Y031848
X044150Y031348
X043150Y030848
X044150Y030348
X043150Y029848
X044150Y029348
X043150Y028848
X044150Y028348
X040800Y021800
X046200Y034600
X047500Y042000
X048500Y042000
T4C.03543F197S550
X024634Y011800
X026366Y011800
T5C.039F197S550
X033360Y041560
X035360Y041960
X033360Y042360
T6C.04016F139S550
X048268Y027610
X048268Y028610
X048268Y031590
X048268Y032590
T7C.041F139S550
X021300Y036250
X022300Y036250
X022300Y039250
X021300Y039250
X023300Y039250
X023300Y036250
T8C.055F107S550
X012950Y015150
X010780Y015150
X010780Y016800
X012950Y016800
X012950Y020150
X010780Y020150
X010780Y021800
X012950Y021800
X013000Y025250
X010830Y025250
X013000Y026900
X010830Y026900
X010830Y028550
X013000Y028550
X013000Y030200
X010830Y030200
X011550Y034311
X011550Y035689
X029500Y013000
X029500Y010830
X031150Y010830
X032800Y010830
X034450Y010830
X032800Y013000
X034450Y013000
X031150Y013000
X040350Y041670
X042000Y041670
X045300Y041670
X043650Y041670
X043650Y039500
X042000Y039500
X045300Y039500
X040350Y039500
X046300Y015700
X048470Y015700
X048470Y017350
X046300Y017350
T9C.06417F089S550
X045115Y026970
X045115Y033230
T10C.09449F066S550
X011550Y032618
X011550Y037382
T11C.105F069S658
X017300Y037750
X027300Y037750
T12C.12598F035S794
X046650Y027850
X046650Y032350
T13C.1285F035S794
X011650Y012000
X011650Y040000
X047850Y040000
X047650Y012000
M30
