*
*
G04 PADS9.1 Build Number: 384028 generated Gerber (RS-274-X) file*
G04 PC Version=2.1*
*
%IN "ASPS_DAQv5p2.pcb"*%
*
%MOIN*%
*
%FSLAX35Y35*%
*
*
*
*
G04 PC Standard Apertures*
*
*
G04 Thermal Relief Aperture macro.*
%AMTER*
1,1,$1,0,0*
1,0,$1-$2,0,0*
21,0,$3,$4,0,0,45*
21,0,$3,$4,0,0,135*
%
*
*
G04 Annular Aperture macro.*
%AMANN*
1,1,$1,0,0*
1,0,$2,0,0*
%
*
*
G04 Odd Aperture macro.*
%AMODD*
1,1,$1,0,0*
1,0,$1-0.005,0,0*
%
*
*
G04 PC Custom Aperture Macros*
*
*
*
*
*
*
G04 PC Aperture Table*
*
%ADD010C,0.001*%
%ADD020R,0.065X0.065*%
%ADD021C,0.065*%
%ADD053C,0.01*%
%ADD060C,0.02*%
%ADD067R,0.098X0.098*%
%ADD068C,0.098*%
%ADD074R,0.043X0.035*%
%ADD075R,0.035X0.043*%
%ADD076R,0.07X0.07*%
%ADD077C,0.07*%
%ADD078R,0.036X0.036*%
%ADD079C,0.155*%
%ADD089C,0.188*%
%ADD090R,0.03256X0.05028*%
%ADD091R,0.04437X0.04437*%
%ADD093O,0.079X0.029*%
%ADD095R,0.105X0.065*%
%ADD097R,0.029X0.044*%
%ADD099R,0.088X0.088*%
%ADD100C,0.088*%
%ADD102R,0.105X0.105*%
%ADD105R,0.22941X0.07193*%
%ADD135R,0.06012X0.05224*%
%ADD136R,0.039X0.055*%
%ADD137R,0.025X0.033*%
%ADD138R,0.065X0.105*%
%ADD139C,0.09417*%
%ADD140C,0.13098*%
%ADD141C,0.07012*%
%ADD142O,0.015X0.029*%
%ADD143O,0.029X0.015*%
%ADD144R,0.151X0.151*%
%ADD145O,0.013X0.07*%
%ADD146O,0.07X0.013*%
%ADD147R,0.02469X0.02469*%
%ADD148R,0.025X0.029*%
%ADD149R,0.033X0.04*%
%ADD150R,0.04X0.033*%
%ADD151C,0.12705*%
%ADD152R,0.045X0.045*%
%ADD153C,0.045*%
%ADD154R,0.06X0.029*%
%ADD155R,0.072X0.072*%
%ADD156R,0.029X0.021*%
%ADD157R,0.02469X0.09358*%
%ADD158R,0.08374X0.10343*%
%ADD159C,0.04043*%
%ADD160R,0.029X0.025*%
%ADD161R,0.03059X0.02469*%
%ADD162R,0.06406X0.02862*%
%ADD173R,0.036X0.025*%
%ADD174R,0.02862X0.01287*%
%ADD175R,0.01287X0.02862*%
%ADD176R,0.06799X0.10736*%
%ADD177R,0.10736X0.06799*%
%ADD178C,0.044*%
%ADD179C,0.036*%
%ADD180R,0.065X0.055*%
%ADD181R,0.055X0.065*%
*
*
*
*
G04 PC Circuitry*
G04 Layer Name ASPS_DAQv5p2.pcb - circuitry*
%LPD*%
*
*
G04 PC Custom Flashes*
G04 Layer Name ASPS_DAQv5p2.pcb - flashes*
%LPD*%
*
*
G04 PC Circuitry*
G04 Layer Name ASPS_DAQv5p2.pcb - circuitry*
%LPD*%
*
G54D10*
G54D20*
G01X242000Y293000D03*
X373000Y420000D03*
X475000D03*
X452000Y346000D03*
X150000Y120000D03*
X398000Y218000D03*
X271000Y308000D03*
X128000Y420000D03*
X145000Y320000D03*
X222000Y303000D03*
X213250Y409500D03*
X226750D03*
X213250Y419500D03*
X226750D03*
G54D21*
X441500Y283480D03*
X431500Y288480D03*
X441500Y293480D03*
X431500Y298480D03*
X441500Y303480D03*
X431500Y308480D03*
X441500Y313480D03*
X431500Y318480D03*
X232000Y293000D03*
X383000Y420000D03*
X485000D03*
X462000Y346000D03*
X160000Y120000D03*
X408000Y218000D03*
X271000Y298000D03*
Y288000D03*
Y278000D03*
X118000Y420000D03*
X108000D03*
X155000Y320000D03*
X165000D03*
X175000D03*
X212000Y303000D03*
G54D53*
X347400Y337950D02*
X353600D01*
Y347950*
X352096*
X351950Y348096*
Y355250*
X349050*
Y348096*
X348904Y347950*
X347400*
Y337950*
X347500D02*
Y347950D01*
X348000Y337950D02*
Y347950D01*
X348500Y337950D02*
Y347950D01*
X349000Y337950D02*
Y348046D01*
X349500Y337950D02*
Y355250D01*
X350000Y337950D02*
Y355250D01*
X350500Y337950D02*
Y355250D01*
X351000Y337950D02*
Y355250D01*
X351500Y337950D02*
Y355250D01*
X352000Y337950D02*
Y348046D01*
X352500Y337950D02*
Y347950D01*
X353000Y337950D02*
Y347950D01*
X353500Y337950D02*
Y347950D01*
X420502Y381530D02*
X402498D01*
Y376124*
X403336*
X403482Y375978*
Y363919*
X419518*
Y375978*
X419664Y376124*
X420502*
Y381530*
X402500Y376124D02*
Y381530D01*
X403000Y376124D02*
Y381530D01*
X403500Y363919D02*
Y381530D01*
X404000Y363919D02*
Y381530D01*
X404500Y363919D02*
Y381530D01*
X405000Y363919D02*
Y381530D01*
X405500Y363919D02*
Y381530D01*
X406000Y363919D02*
Y381530D01*
X406500Y363919D02*
Y381530D01*
X407000Y363919D02*
Y381530D01*
X407500Y363919D02*
Y381530D01*
X408000Y363919D02*
Y381530D01*
X408500Y363919D02*
Y381530D01*
X409000Y363919D02*
Y381530D01*
X409500Y363919D02*
Y381530D01*
X410000Y363919D02*
Y381530D01*
X410500Y363919D02*
Y381530D01*
X411000Y363919D02*
Y381530D01*
X411500Y363919D02*
Y381530D01*
X412000Y363919D02*
Y381530D01*
X412500Y363919D02*
Y381530D01*
X413000Y363919D02*
Y381530D01*
X413500Y363919D02*
Y381530D01*
X414000Y363919D02*
Y381530D01*
X414500Y363919D02*
Y381530D01*
X415000Y363919D02*
Y381530D01*
X415500Y363919D02*
Y381530D01*
X416000Y363919D02*
Y381530D01*
X416500Y363919D02*
Y381530D01*
X417000Y363919D02*
Y381530D01*
X417500Y363919D02*
Y381530D01*
X418000Y363919D02*
Y381530D01*
X418500Y363919D02*
Y381530D01*
X419000Y363919D02*
Y381530D01*
X419500Y363919D02*
Y381530D01*
X420000Y376124D02*
Y381530D01*
X420500Y376124D02*
Y381530D01*
X441498Y355470D02*
X459502D01*
Y360876*
X458664*
X458518Y361022*
Y373081*
X442482*
Y361022*
X442336Y360876*
X441498*
Y355470*
X441500D02*
Y360876D01*
X442000Y355470D02*
Y360876D01*
X442500Y355470D02*
Y373081D01*
X443000Y355470D02*
Y373081D01*
X443500Y355470D02*
Y373081D01*
X444000Y355470D02*
Y373081D01*
X444500Y355470D02*
Y373081D01*
X445000Y355470D02*
Y373081D01*
X445500Y355470D02*
Y373081D01*
X446000Y355470D02*
Y373081D01*
X446500Y355470D02*
Y373081D01*
X447000Y355470D02*
Y373081D01*
X447500Y355470D02*
Y373081D01*
X448000Y355470D02*
Y373081D01*
X448500Y355470D02*
Y373081D01*
X449000Y355470D02*
Y373081D01*
X449500Y355470D02*
Y373081D01*
X450000Y355470D02*
Y373081D01*
X450500Y355470D02*
Y373081D01*
X451000Y355470D02*
Y373081D01*
X451500Y355470D02*
Y373081D01*
X452000Y355470D02*
Y373081D01*
X452500Y355470D02*
Y373081D01*
X453000Y355470D02*
Y373081D01*
X453500Y355470D02*
Y373081D01*
X454000Y355470D02*
Y373081D01*
X454500Y355470D02*
Y373081D01*
X455000Y355470D02*
Y373081D01*
X455500Y355470D02*
Y373081D01*
X456000Y355470D02*
Y373081D01*
X456500Y355470D02*
Y373081D01*
X457000Y355470D02*
Y373081D01*
X457500Y355470D02*
Y373081D01*
X458000Y355470D02*
Y373081D01*
X458500Y355470D02*
Y373081D01*
X459000Y355470D02*
Y360876D01*
X459500Y355470D02*
Y360876D01*
X100000Y100000D02*
X493000D01*
Y427500*
X100000*
Y100000*
G54D60*
X350500Y341350D03*
G54D67*
X129500Y168000D03*
Y218000D03*
X463000Y157000D03*
X130000Y302000D03*
X453000Y395000D03*
X295000Y130000D03*
G54D68*
X129500Y151500D03*
X107800Y168000D03*
Y151500D03*
X129500Y201500D03*
X107800Y218000D03*
Y201500D03*
X463000Y173500D03*
X484700Y157000D03*
Y173500D03*
X130000Y285500D03*
Y269000D03*
Y252500D03*
X108300Y302000D03*
Y285500D03*
Y269000D03*
Y252500D03*
X436500Y395000D03*
X420000D03*
X403500D03*
X453000Y416700D03*
X436500D03*
X420000D03*
X403500D03*
X311500Y130000D03*
X328000D03*
X344500D03*
X295000Y108300D03*
X311500D03*
X328000D03*
X344500D03*
G54D74*
X298900Y175000D03*
X305100D03*
X314900Y349000D03*
X321100D03*
X328900Y341500D03*
X335100D03*
X328900Y348500D03*
X335100D03*
X452900Y259000D03*
X459100D03*
X474100Y229000D03*
X467900D03*
Y222000D03*
X474100D03*
X321100Y356000D03*
X314900D03*
X378900Y401500D03*
X385100D03*
X266200Y321000D03*
X260000D03*
X466900Y259000D03*
X473100D03*
X364900Y401500D03*
X371100D03*
X321100Y363000D03*
X314900D03*
X329900Y175000D03*
X336100D03*
X315900Y168000D03*
X322100D03*
X329900Y182000D03*
X336100D03*
Y154000D03*
X329900D03*
Y161000D03*
X336100D03*
X321100Y370000D03*
X314900D03*
X335100Y363000D03*
X328900D03*
X207900Y130000D03*
X214100D03*
X207900Y123000D03*
X214100D03*
X244900Y156000D03*
X251100D03*
Y163000D03*
X244900D03*
X299100Y269000D03*
X292900D03*
X306900Y281000D03*
X313100D03*
X327100D03*
X320900D03*
X306900Y269000D03*
X313100D03*
X306900Y262000D03*
X313100D03*
X288900Y321000D03*
X295100D03*
X288900Y314000D03*
X295100D03*
X329900Y168000D03*
X336100D03*
X322100Y182000D03*
X315900D03*
Y175000D03*
X322100D03*
X298900Y161000D03*
X305100D03*
X298900Y168000D03*
X305100D03*
X385100Y408500D03*
X378900D03*
G54D75*
X176500Y297100D03*
Y290900D03*
Y228100D03*
Y221900D03*
X416000Y146900D03*
Y153100D03*
X176500Y178100D03*
Y171900D03*
X328500Y334100D03*
Y327900D03*
X349500Y367100D03*
Y360900D03*
X356500Y367100D03*
Y360900D03*
X486500Y373900D03*
Y380100D03*
X475000Y365600D03*
Y359400D03*
X489500Y238400D03*
Y244600D03*
X482500D03*
Y238400D03*
X407500Y327900D03*
Y334100D03*
X468000Y365600D03*
Y359400D03*
X407500Y341900D03*
Y348100D03*
X386500D03*
Y341900D03*
X400500D03*
Y348100D03*
X365500Y341900D03*
Y348100D03*
X372500Y341900D03*
Y348100D03*
X176500Y161100D03*
Y154900D03*
X162500Y147100D03*
Y140900D03*
X176500Y147100D03*
Y140900D03*
X169500Y161100D03*
Y154900D03*
X325000Y403900D03*
Y410100D03*
X351000Y403900D03*
Y410100D03*
X335500Y327900D03*
Y334100D03*
X183500Y147100D03*
Y140900D03*
X155500D03*
Y147100D03*
X183500Y161100D03*
Y154900D03*
X155500Y190900D03*
Y197100D03*
Y259900D03*
Y266100D03*
X176500Y211100D03*
Y204900D03*
X162500Y197100D03*
Y190900D03*
X176500Y197100D03*
Y190900D03*
X183500Y197100D03*
Y190900D03*
X169500Y211100D03*
Y204900D03*
X176500Y280100D03*
Y273900D03*
X162500Y266100D03*
Y259900D03*
X176500Y266100D03*
Y259900D03*
X183500Y266100D03*
Y259900D03*
X169500Y280100D03*
Y273900D03*
X183500Y211100D03*
Y204900D03*
Y280100D03*
Y273900D03*
X393500Y341900D03*
Y348100D03*
X416000Y177900D03*
Y184100D03*
X430000Y177900D03*
Y184100D03*
X416000Y163900D03*
Y170100D03*
X423000Y163900D03*
Y170100D03*
X437000Y184100D03*
Y177900D03*
X409000D03*
Y184100D03*
Y170100D03*
Y163900D03*
X243000Y339400D03*
Y345600D03*
X281000Y183100D03*
Y176900D03*
X419000Y266100D03*
Y259900D03*
X228000Y114900D03*
Y121100D03*
X311000Y403900D03*
Y410100D03*
X169500Y266100D03*
Y259900D03*
X162500Y297100D03*
Y290900D03*
X169500Y297100D03*
Y290900D03*
Y147100D03*
Y140900D03*
X162500Y178100D03*
Y171900D03*
X169500Y178100D03*
Y171900D03*
Y197100D03*
Y190900D03*
X162500Y228100D03*
Y221900D03*
X169500Y228100D03*
Y221900D03*
X423000Y177900D03*
Y184100D03*
X430000Y146900D03*
Y153100D03*
X423000Y146900D03*
Y153100D03*
X379500Y341900D03*
Y348100D03*
G54D76*
X233000Y392500D03*
X213000Y362500D03*
G54D77*
X223000Y392500D03*
X213000D03*
X223000Y362500D03*
X233000D03*
G54D78*
X305150Y182000D03*
X298850D03*
X183500Y290850D03*
Y297150D03*
Y171850D03*
Y178150D03*
Y221850D03*
Y228150D03*
X409000Y153150D03*
Y146850D03*
X337000Y403850D03*
Y410150D03*
X344000Y403850D03*
Y410150D03*
X200850Y106000D03*
X207150D03*
X221150D03*
X214850D03*
X326150Y269000D03*
X319850D03*
X326150Y262000D03*
X319850D03*
X371150Y408500D03*
X364850D03*
G54D79*
X273000Y377500D03*
X173000D03*
G54D89*
X116500Y400000D03*
Y120000D03*
X476500D03*
X478500Y400000D03*
G54D90*
X404000Y357272D03*
X409000D03*
X414000D03*
X419000D03*
X458000Y379728D03*
X453000D03*
X448000D03*
X443000D03*
G54D91*
X411500Y368000D03*
X450500Y369000D03*
G54D93*
X389000Y358000D03*
Y363000D03*
Y368000D03*
Y373000D03*
Y378000D03*
Y383000D03*
Y388000D03*
Y393000D03*
X367000D03*
Y388000D03*
Y383000D03*
Y378000D03*
Y373000D03*
Y368000D03*
Y363000D03*
Y358000D03*
X451700Y251500D03*
Y246500D03*
Y241500D03*
Y236500D03*
X474300D03*
Y241500D03*
Y246500D03*
Y251500D03*
G54D95*
X431000Y380500D03*
Y359500D03*
G54D97*
X479000Y374350D03*
Y380650D03*
X486500Y365650D03*
Y359350D03*
G54D99*
X115500Y356890D03*
G54D100*
Y343110D03*
G54D102*
X463000Y244000D03*
G54D105*
X435500Y240858D03*
Y223142D03*
G54D135*
X361169Y328350D03*
X369831D03*
Y334650D03*
X361169D03*
G54D136*
X356400Y353000D03*
X344600D03*
G54D137*
X470638Y379740D03*
X465362D03*
X468000Y372260D03*
G54D138*
X233000Y342500D03*
X212000D03*
G54D139*
X451146Y269701D03*
Y332299D03*
G54D140*
X466500Y278500D03*
Y323500D03*
G54D141*
X482681Y276098D03*
Y286098D03*
Y315902D03*
Y325902D03*
G54D142*
X331142Y374476D03*
X333110D03*
X335079D03*
X337047D03*
X339016D03*
X340984D03*
X342953D03*
X344921D03*
X346890D03*
X348858D03*
Y396524D03*
X346890D03*
X344921D03*
X342953D03*
X340984D03*
X339016D03*
X337047D03*
X335079D03*
X333110D03*
X331142D03*
X256079Y171913D03*
X258047D03*
X260016D03*
X261984D03*
X263953D03*
X265921D03*
Y186087D03*
X263953D03*
X261984D03*
X260016D03*
X258047D03*
X256079D03*
G54D143*
X351024Y376642D03*
Y378610D03*
Y380579D03*
Y382547D03*
Y384516D03*
Y386484D03*
Y388453D03*
Y390421D03*
Y392390D03*
Y394358D03*
X328976D03*
Y392390D03*
Y390421D03*
Y388453D03*
Y386484D03*
Y384516D03*
Y382547D03*
Y380579D03*
Y378610D03*
Y376642D03*
X268087Y174079D03*
Y176047D03*
Y178016D03*
Y179984D03*
Y181953D03*
Y183921D03*
X253913D03*
Y181953D03*
Y179984D03*
Y178016D03*
Y176047D03*
Y174079D03*
G54D144*
X340000Y385500D03*
G54D145*
X352665Y257250D03*
X354235D03*
X355805D03*
X357375D03*
X358945D03*
X360515D03*
X362085D03*
X363655D03*
X365225D03*
X366795D03*
X368365D03*
X369935D03*
X371505D03*
X373075D03*
X374645D03*
X376215D03*
X377785D03*
X379355D03*
X380925D03*
X382495D03*
X384065D03*
X385635D03*
X387205D03*
X388775D03*
X390345D03*
X391915D03*
X393485D03*
X395055D03*
X396625D03*
X398195D03*
X399765D03*
X401335D03*
Y317750D03*
X399765D03*
X398195D03*
X396625D03*
X395055D03*
X393485D03*
X391915D03*
X390345D03*
X388775D03*
X387205D03*
X385635D03*
X384065D03*
X382495D03*
X380925D03*
X379355D03*
X377785D03*
X376215D03*
X374645D03*
X373075D03*
X371505D03*
X369935D03*
X368365D03*
X366795D03*
X365225D03*
X363655D03*
X362085D03*
X360515D03*
X358945D03*
X357375D03*
X355805D03*
X354235D03*
X352665D03*
G54D146*
X407250Y263165D03*
Y264735D03*
Y266305D03*
Y267875D03*
Y269445D03*
Y271015D03*
Y272585D03*
Y274155D03*
Y275725D03*
Y277295D03*
Y278865D03*
Y280435D03*
Y282005D03*
Y283575D03*
Y285145D03*
Y286715D03*
Y288285D03*
Y289855D03*
Y291425D03*
Y292995D03*
Y294565D03*
Y296135D03*
Y297705D03*
Y299275D03*
Y300845D03*
Y302415D03*
Y303985D03*
Y305555D03*
Y307125D03*
Y308695D03*
Y310265D03*
Y311835D03*
X346750D03*
Y310265D03*
Y308695D03*
Y307125D03*
Y305555D03*
Y303985D03*
Y302415D03*
Y300845D03*
Y299275D03*
Y297705D03*
Y296135D03*
Y294565D03*
Y292995D03*
Y291425D03*
Y289855D03*
Y288285D03*
Y286715D03*
Y285145D03*
Y283575D03*
Y282005D03*
Y280435D03*
Y278865D03*
Y277295D03*
Y275725D03*
Y274155D03*
Y272585D03*
Y271015D03*
Y269445D03*
Y267875D03*
Y266305D03*
Y264735D03*
Y263165D03*
G54D147*
X418000Y286031D03*
Y289969D03*
X421969Y294500D03*
X418031D03*
X421969Y298500D03*
X418031D03*
X418000Y306469D03*
Y302531D03*
X413500D03*
Y306469D03*
X358531Y323500D03*
X362469D03*
G54D148*
X366728D03*
X370272D03*
X340772Y283500D03*
X337228D03*
X375728Y335000D03*
X379272D03*
G54D149*
X329441Y356000D03*
X334559D03*
X259559Y193000D03*
X254441D03*
X205059Y325000D03*
X199941D03*
X324059Y397000D03*
X318941D03*
X320559Y377500D03*
X315441D03*
X338059Y271000D03*
X332941D03*
X338059Y288500D03*
X332941D03*
X416441Y273500D03*
X421559D03*
X417441Y282000D03*
X422559D03*
X338059Y305500D03*
X332941D03*
X325559Y288000D03*
X320441D03*
G54D150*
X331000Y404441D03*
Y409559D03*
X366000Y247559D03*
Y242441D03*
X371500Y249059D03*
Y243941D03*
X267000Y168559D03*
Y163441D03*
X272000Y173559D03*
Y168441D03*
X198000Y317559D03*
Y312441D03*
X232000Y316441D03*
Y321559D03*
X391000Y248559D03*
Y243441D03*
X396000Y248559D03*
Y243441D03*
X383000Y324441D03*
Y329559D03*
X393500Y328941D03*
Y334059D03*
X400500Y328941D03*
Y334059D03*
X376500Y249059D03*
Y243941D03*
X361000Y248559D03*
Y243441D03*
X350500Y326441D03*
Y331559D03*
X318000Y404441D03*
Y409559D03*
G54D151*
X115500Y373819D03*
Y326181D03*
G54D152*
X314500Y320000D03*
G54D153*
X319500D03*
X314500Y315000D03*
X319500D03*
X314500Y310000D03*
X319500D03*
X314500Y305000D03*
X319500D03*
X314500Y300000D03*
X319500D03*
G54D154*
X211079Y320740D03*
Y317000D03*
Y313260D03*
X220921D03*
Y317000D03*
Y320740D03*
X242079D03*
Y317000D03*
Y313260D03*
X251921D03*
Y317000D03*
Y320740D03*
G54D155*
X261000Y179000D03*
G54D156*
X266240Y142941D03*
Y145500D03*
Y148059D03*
X258760D03*
Y145500D03*
Y142941D03*
G54D157*
X248701Y128531D03*
X251850D03*
X255000D03*
X258150D03*
X261299D03*
G54D158*
X237480Y128039D03*
X272520D03*
X237480Y106583D03*
X272520D03*
G54D159*
X246339Y118000D03*
X263661D03*
G54D160*
X355500Y328728D03*
Y332272D03*
G54D161*
X480161Y344000D03*
X487839D03*
G54D162*
X484000Y347937D03*
Y340063D03*
G54D173*
X315441Y342000D03*
X320559D03*
G54D174*
X311488Y158921D03*
Y156953D03*
Y154984D03*
Y153016D03*
Y151047D03*
Y149079D03*
X322512D03*
Y151047D03*
Y153016D03*
Y154984D03*
Y156953D03*
Y158921D03*
X147520Y281953D03*
Y279984D03*
Y278016D03*
Y276047D03*
X162480D03*
Y278016D03*
Y279984D03*
Y281953D03*
X147520Y162953D03*
Y160984D03*
Y159016D03*
Y157047D03*
X162480D03*
Y159016D03*
Y160984D03*
Y162953D03*
X147520Y212953D03*
Y210984D03*
Y209016D03*
Y207047D03*
X162480D03*
Y209016D03*
Y210984D03*
Y212953D03*
X444980Y162047D03*
Y164016D03*
Y165984D03*
Y167953D03*
X430020D03*
Y165984D03*
Y164016D03*
Y162047D03*
G54D175*
X314047Y146520D03*
X316016D03*
X317984D03*
X319953D03*
Y161480D03*
X317984D03*
X316016D03*
X314047D03*
X159921Y284512D03*
X157953D03*
X155984D03*
X154016D03*
X152047D03*
X150079D03*
Y273488D03*
X152047D03*
X154016D03*
X155984D03*
X157953D03*
X159921D03*
Y165512D03*
X157953D03*
X155984D03*
X154016D03*
X152047D03*
X150079D03*
Y154488D03*
X152047D03*
X154016D03*
X155984D03*
X157953D03*
X159921D03*
Y215512D03*
X157953D03*
X155984D03*
X154016D03*
X152047D03*
X150079D03*
Y204488D03*
X152047D03*
X154016D03*
X155984D03*
X157953D03*
X159921D03*
X432579Y159488D03*
X434547D03*
X436516D03*
X438484D03*
X440453D03*
X442421D03*
Y170512D03*
X440453D03*
X438484D03*
X436516D03*
X434547D03*
X432579D03*
G54D176*
X317000Y154000D03*
G54D177*
X155000Y279000D03*
Y160000D03*
Y210000D03*
X437500Y165000D03*
G54D178*
X353600Y419600D03*
X333600Y415600D03*
Y423600D03*
G54D179*
X348600Y422100D03*
X343600D03*
X338600D03*
X348600Y417100D03*
X343600D03*
X338600D03*
G54D180*
X431500Y251000D03*
X440500D03*
X437000Y213000D03*
X428000D03*
G54D181*
X453000Y218500D03*
Y227500D03*
X0Y0D02*
M02*
