*
*
G04 PADS9.1 Build Number: 384028 generated Gerber (RS-274-X) file*
G04 PC Version=2.1*
*
%IN "ASPS_DAQv5p2.pcb"*%
*
%MOIN*%
*
%FSLAX35Y35*%
*
*
*
*
G04 PC Standard Apertures*
*
*
G04 Thermal Relief Aperture macro.*
%AMTER*
1,1,$1,0,0*
1,0,$1-$2,0,0*
21,0,$3,$4,0,0,45*
21,0,$3,$4,0,0,135*
%
*
*
G04 Annular Aperture macro.*
%AMANN*
1,1,$1,0,0*
1,0,$2,0,0*
%
*
*
G04 Odd Aperture macro.*
%AMODD*
1,1,$1,0,0*
1,0,$1-0.005,0,0*
%
*
*
G04 PC Custom Aperture Macros*
*
*
*
*
*
*
G04 PC Aperture Table*
*
%ADD010C,0.001*%
%ADD037C,0.015*%
%ADD049C,0.06*%
%ADD053C,0.01*%
%ADD058C,0.028*%
%ADD124C,0.04*%
*
*
*
*
G04 PC Circuitry*
G04 Layer Name ASPS_DAQv5p2.pcb - circuitry*
%LPD*%
*
*
G04 PC Custom Flashes*
G04 Layer Name ASPS_DAQv5p2.pcb - flashes*
%LPD*%
*
*
G04 PC Circuitry*
G04 Layer Name ASPS_DAQv5p2.pcb - circuitry*
%LPD*%
*
G54D10*
G54D37*
G01X152899Y122899D02*
X152121Y122121D01*
X147101Y122899D02*
X147879Y122121D01*
X147101Y117101D02*
X147879Y117879D01*
X152899Y117101D02*
X152121Y117879D01*
X147899Y322899D02*
X147121Y322121D01*
X142101Y322899D02*
X142879Y322121D01*
X142101Y317101D02*
X142879Y317879D01*
X147899Y317101D02*
X147121Y317879D01*
X400899Y220899D02*
X400121Y220121D01*
X395101Y220899D02*
X395879Y220121D01*
X395101Y215101D02*
X395879Y215879D01*
X400899Y215101D02*
X400121Y215879D01*
X316692Y317808D02*
X315914Y318586D01*
X316692Y322192D02*
X315914Y321414D01*
X312308Y322192D02*
X313086Y321414D01*
X312308Y317808D02*
X313086Y318586D01*
X428601Y301379D02*
X429379Y300602D01*
X428601Y295581D02*
X429379Y296359D01*
X434399Y295581D02*
X433621Y296359D01*
X434399Y301379D02*
X433621Y300602D01*
G54D49*
X431500Y298480D03*
X150000Y120000D03*
X398000Y218000D03*
X145000Y320000D03*
G54D53*
X340000Y356000D02*
G75*
G03X340000I-2500J0D01*
G01X331500Y345000D02*
G03X331500I-2500J0D01*
G01X334100Y384500D02*
G03X334100I-2500J0D01*
G01X323000Y344500D02*
G03X323000I-2500J0D01*
G01X323500Y359000D02*
G03X323500I-2500J0D01*
G01X328100Y380100D02*
G03X328100I-2500J0D01*
G01X320600Y366500D02*
G03X320600I-2500J0D01*
G01X382000Y329500D02*
G03X382000I-2500J0D01*
G01X384500Y335000D02*
G03X384500I-2500J0D01*
G01X385500Y342000D02*
G03X385500I-2500J0D01*
G01X341500Y331000D02*
G03X341500I-2500J0D01*
G01X310000Y330500D02*
G03X310000I-2500J0D01*
G01X303000Y361000D02*
G03X303000I-2500J0D01*
G01X278000Y366500D02*
G03X278000I-2500J0D01*
G01X281600Y377500D02*
G03X281600I-8600J0D01*
G01X250500Y346000D02*
G03X250500I-2500J0D01*
G01X454500Y233500D02*
G03X454500I-2500J0D01*
G01X429500Y251000D02*
G03X429500I-2500J0D01*
G01X428000Y273000D02*
G03X428000I-2500J0D01*
G01X428500Y282000D02*
G03X428500I-2500J0D01*
G01X435600Y288480D02*
G03X435600I-4100J0D01*
G01Y298480D02*
G03X435600I-4100J0D01*
G01Y308480D02*
G03X435600I-4100J0D01*
G01Y318480D02*
G03X435600I-4100J0D01*
G01X422700Y318300D02*
G03X422700I-2500J0D01*
G01X412100Y218000D02*
G03X412100I-4100J0D01*
G01X417000Y240000D02*
G03X417000I-2500J0D01*
G01Y250500D02*
G03X417000I-2500J0D01*
G01X417400Y288200D02*
G03X417400I-2500J0D01*
G01X388000Y184000D02*
G03X388000I-2500J0D01*
G01X394000Y215000D02*
G03X394000I-2500J0D01*
G01X402100Y218000D02*
G03X402100I-4100J0D01*
G01X402000Y245500D02*
G03X402000I-2500J0D01*
G01X393000Y240000D02*
G03X393000I-2500J0D01*
G01X404500Y286700D02*
G03X404500I-2500J0D01*
G01X402500Y323000D02*
G03X402500I-2500J0D01*
G01X380500Y263000D02*
G03X380500I-2500J0D01*
G01X380000Y312500D02*
G03X380000I-2500J0D01*
G01X370900Y252300D02*
G03X370900I-2500J0D01*
G01X372000Y305000D02*
G03X372000I-2500J0D01*
G01X360000Y262500D02*
G03X360000I-2500J0D01*
G01X366500Y305000D02*
G03X366500I-2500J0D01*
G01X332000Y288500D02*
G03X332000I-2500J0D01*
G01X332500Y305500D02*
G03X332500I-2500J0D01*
G01X323500Y284000D02*
G03X323500I-2500J0D01*
G01X288500Y240000D02*
G03X288500I-2500J0D01*
G01X290500Y268000D02*
G03X290500I-2500J0D01*
G01X287600Y313900D02*
G03X287600I-2500J0D01*
G01X287900Y321000D02*
G03X287900I-2500J0D01*
G01X272000Y144000D02*
G03X272000I-2500J0D01*
G01X269500Y160500D02*
G03X269500I-2500J0D01*
G01X274500Y165000D02*
G03X274500I-2500J0D01*
G01X276000Y178000D02*
G03X276000I-2500J0D01*
G01X269000Y250000D02*
G03X269000I-2500J0D01*
G01X275100Y278000D02*
G03X275100I-4100J0D01*
G01Y288000D02*
G03X275100I-4100J0D01*
G01Y298000D02*
G03X275100I-4100J0D01*
G01Y308000D02*
G03X275100I-4100J0D01*
G01X268500Y317500D02*
G03X268500I-2500J0D01*
G01X255000Y167500D02*
G03X255000I-2500J0D01*
G01X260000Y169000D02*
G03X260000I-2500J0D01*
G01X254000Y193000D02*
G03X254000I-2500J0D01*
G01X240500Y163000D02*
G03X240500I-2500J0D01*
G01X246100Y293000D02*
G03X246100I-4100J0D01*
G01X229500Y249500D02*
G03X229500I-2500J0D01*
G01X236100Y293000D02*
G03X236100I-4100J0D01*
G01X234500Y313000D02*
G03X234500I-2500J0D01*
G01X239500Y317000D02*
G03X239500I-2500J0D01*
G01X226100Y303000D02*
G03X226100I-4100J0D01*
G01X216100D02*
G03X216100I-4100J0D01*
G01X333500Y248500D02*
G03X333500I-2500J0D01*
G01X332500Y271000D02*
G03X332500I-2500J0D01*
G01X337000Y283500D02*
G03X337000I-2500J0D01*
G01X486750Y120000D02*
G03X486750I-10250J0D01*
G01X489700Y157000D02*
G03X489700I-5000J0D01*
G01Y173500D02*
G03X489700I-5000J0D01*
G01X488500Y238000D02*
G03X488500I-2500J0D01*
G01X487037Y276098D02*
G03X487037I-4356J0D01*
G01Y286098D02*
G03X487037I-4356J0D01*
G01Y315902D02*
G03X487037I-4356J0D01*
G01Y325902D02*
G03X487037I-4356J0D01*
G01X486500Y337300D02*
G03X486500I-2500J0D01*
G01X486400Y350900D02*
G03X486400I-2500J0D01*
G01X486000Y359500D02*
G03X486000I-2500J0D01*
G01X468000Y157000D02*
G03X468000I-5000J0D01*
G01Y173500D02*
G03X468000I-5000J0D01*
G01X466500Y222000D02*
G03X466500I-2500J0D01*
G01X443500Y166500D02*
G03X443500I-2500J0D01*
G01X443000Y184000D02*
G03X443000I-2500J0D01*
G01X436500Y163500D02*
G03X436500I-2500J0D01*
G01X433000Y170500D02*
G03X433000I-2500J0D01*
G01X429500Y184000D02*
G03X429500I-2500J0D01*
G01X422000Y153000D02*
G03X422000I-2500J0D01*
G01Y170000D02*
G03X422000I-2500J0D01*
G01X415000Y164000D02*
G03X415000I-2500J0D01*
G01Y178000D02*
G03X415000I-2500J0D01*
G01X397500Y184000D02*
G03X397500I-2500J0D01*
G01X349500Y108300D02*
G03X349500I-5000J0D01*
G01Y130000D02*
G03X349500I-5000J0D01*
G01X469500Y262500D02*
G03X469500I-2500J0D01*
G01X473899Y278500D02*
G03X473899I-7399J0D01*
G01Y323500D02*
G03X473899I-7399J0D01*
G01X488750Y400000D02*
G03X488750I-10250J0D01*
G01X489100Y420000D02*
G03X489100I-4100J0D01*
G01X479100D02*
G03X479100I-4100J0D01*
G01X466100Y346000D02*
G03X466100I-4100J0D01*
G01X456704Y269701D02*
G03X456704I-5558J0D01*
G01X456100Y346000D02*
G03X456100I-4100J0D01*
G01X458000Y395000D02*
G03X458000I-5000J0D01*
G01Y416700D02*
G03X458000I-5000J0D01*
G01X441500Y395000D02*
G03X441500I-5000J0D01*
G01Y416700D02*
G03X441500I-5000J0D01*
G01X425000Y395000D02*
G03X425000I-5000J0D01*
G01Y416700D02*
G03X425000I-5000J0D01*
G01X408500Y395000D02*
G03X408500I-5000J0D01*
G01Y416700D02*
G03X408500I-5000J0D01*
G01X387100Y420000D02*
G03X387100I-4100J0D01*
G01X377100D02*
G03X377100I-4100J0D01*
G01X354500Y400000D02*
G03X354500I-2500J0D01*
G01X350100Y407500D02*
G03X350100I-2500J0D01*
G01X341900Y413800D02*
G03X341900I-2500J0D01*
G01X323800Y404400D02*
G03X323800I-2500J0D01*
G01X320500Y412500D02*
G03X320500I-2500J0D01*
G01X237350Y362500D02*
G03X237350I-4350J0D01*
G01X227350D02*
G03X227350I-4350J0D01*
G01Y392500D02*
G03X227350I-4350J0D01*
G01X209500Y339000D02*
G03X209500I-2500J0D01*
G01Y346000D02*
G03X209500I-2500J0D01*
G01X217350Y392500D02*
G03X217350I-4350J0D01*
G01X199000Y322000D02*
G03X199000I-2500J0D01*
G01X186000Y151000D02*
G03X186000I-2500J0D01*
G01Y201000D02*
G03X186000I-2500J0D01*
G01X185500Y270000D02*
G03X185500I-2500J0D01*
G01X175500Y155000D02*
G03X175500I-2500J0D01*
G01Y172000D02*
G03X175500I-2500J0D01*
G01Y205000D02*
G03X175500I-2500J0D01*
G01Y222000D02*
G03X175500I-2500J0D01*
G01Y274000D02*
G03X175500I-2500J0D01*
G01Y291000D02*
G03X175500I-2500J0D01*
G01X179100Y320000D02*
G03X179100I-4100J0D01*
G01X164100Y120000D02*
G03X164100I-4100J0D01*
G01X168500Y141000D02*
G03X168500I-2500J0D01*
G01X164500Y154500D02*
G03X164500I-2500J0D01*
G01X168000Y191000D02*
G03X168000I-2500J0D01*
G01X161000Y161500D02*
G03X161000I-2500J0D01*
G01X165000Y203500D02*
G03X165000I-2500J0D01*
G01X168500Y260000D02*
G03X168500I-2500J0D01*
G01X161000Y211500D02*
G03X161000I-2500J0D01*
G01X164500Y273000D02*
G03X164500I-2500J0D01*
G01X161000Y280500D02*
G03X161000I-2500J0D01*
G01X169100Y320000D02*
G03X169100I-4100J0D01*
G01X181600Y377500D02*
G03X181600I-8600J0D01*
G01X154100Y120000D02*
G03X154100I-4100J0D01*
G01X154500Y141000D02*
G03X154500I-2500J0D01*
G01X154000Y158500D02*
G03X154000I-2500J0D01*
G01X154500Y190500D02*
G03X154500I-2500J0D01*
G01X154000Y208500D02*
G03X154000I-2500J0D01*
G01X154500Y260000D02*
G03X154500I-2500J0D01*
G01X154000Y277500D02*
G03X154000I-2500J0D01*
G01X159100Y320000D02*
G03X159100I-4100J0D01*
G01X149100D02*
G03X149100I-4100J0D01*
G01X126750Y120000D02*
G03X126750I-10250J0D01*
G01X134500Y151500D02*
G03X134500I-5000J0D01*
G01Y168000D02*
G03X134500I-5000J0D01*
G01Y201500D02*
G03X134500I-5000J0D01*
G01Y218000D02*
G03X134500I-5000J0D01*
G01X135000Y252500D02*
G03X135000I-5000J0D01*
G01Y269000D02*
G03X135000I-5000J0D01*
G01X130500Y278000D02*
G03X130500I-2500J0D01*
G01X135000Y285500D02*
G03X135000I-5000J0D01*
G01Y302000D02*
G03X135000I-5000J0D01*
G01X112800Y151500D02*
G03X112800I-5000J0D01*
G01Y168000D02*
G03X112800I-5000J0D01*
G01Y201500D02*
G03X112800I-5000J0D01*
G01Y218000D02*
G03X112800I-5000J0D01*
G01X113300Y252500D02*
G03X113300I-5000J0D01*
G01Y269000D02*
G03X113300I-5000J0D01*
G01Y285500D02*
G03X113300I-5000J0D01*
G01Y302000D02*
G03X113300I-5000J0D01*
G01X122702Y326181D02*
G03X122702I-7202J0D01*
G01X120750Y343110D02*
G03X120750I-5250J0D01*
G01Y356890D02*
G03X120750I-5250J0D01*
G01X122702Y373819D02*
G03X122702I-7202J0D01*
G01X126750Y400000D02*
G03X126750I-10250J0D01*
G01X132100Y420000D02*
G03X132100I-4100J0D01*
G01X122100D02*
G03X122100I-4100J0D01*
G01X112100D02*
G03X112100I-4100J0D01*
G01X203500Y109500D02*
G03X203500I-2500J0D01*
G01X204500Y312500D02*
G03X204500I-2500J0D01*
G01X342500Y154000D02*
G03X342500I-2500J0D01*
G01X339500Y164000D02*
G03X339500I-2500J0D01*
G01X333000Y108300D02*
G03X333000I-5000J0D01*
G01Y130000D02*
G03X333000I-5000J0D01*
G01X332000Y178500D02*
G03X332000I-2500J0D01*
G01X316500Y108300D02*
G03X316500I-5000J0D01*
G01Y130000D02*
G03X316500I-5000J0D01*
G01X321000Y150500D02*
G03X321000I-2500J0D01*
G01X325500Y161000D02*
G03X325500I-2500J0D01*
G01X324500Y171000D02*
G03X324500I-2500J0D01*
G01X318000Y157500D02*
G03X318000I-2500J0D01*
G01X327000Y201500D02*
G03X327000I-2500J0D01*
G01X307500Y171000D02*
G03X307500I-2500J0D01*
G01X300000Y108300D02*
G03X300000I-5000J0D01*
G01Y130000D02*
G03X300000I-5000J0D01*
G01X249210Y118000D02*
G03X249210I-2871J0D01*
G01X230000Y106000D02*
G03X230000I-2500J0D01*
G01X227000Y115000D02*
G03X227000I-2500J0D01*
G01X373900Y380332D02*
Y394500D01*
X334245*
X329755D02*
G03X334245I2245J-1100D01*
G01X329755D02*
X316010D01*
X315990D02*
G03X316010I10J2500D01*
G01X315990D02*
X309600D01*
Y378200*
Y376800D02*
G03Y378200I2400J700D01*
G01Y376800D02*
Y372071D01*
Y367929D02*
G03Y372071I1400J2071D01*
G01Y367929D02*
Y341100D01*
X322579*
X326421D02*
G03X322579I-1921J-1600D01*
G01X326421D02*
X361900D01*
Y351900*
X354500*
X352900Y353500D02*
G03X354500Y351900I1600J0D01*
G01X352900Y353500D02*
Y370000D01*
X354500Y371600D02*
G03X352900Y370000I0J-1600D01*
G01X354500Y371600D02*
X373900D01*
Y375668*
Y380332D02*
G03Y375668I-900J-2332D01*
G01X438500Y326100D02*
Y356000D01*
X424500*
Y350000*
X393000*
Y371500*
Y374500D02*
G03Y371500I2000J-1500D01*
G01Y374500D02*
Y398500D01*
X381500*
X376500D02*
G03X381500I2500J0D01*
G01X376500D02*
X375500D01*
Y396100*
X377100Y394500D02*
G03X375500Y396100I-1600J0D01*
G01X377100Y394500D02*
Y370000D01*
X375500Y368400D02*
G03X377100Y370000I0J1600D01*
G01X375500Y368400D02*
X356100D01*
Y355100*
X363500*
X365100Y353500D02*
G03X363500Y355100I-1600J0D01*
G01X365100Y353500D02*
Y339500D01*
X363500Y337900D02*
G03X365100Y339500I0J1600D01*
G01X363500Y337900D02*
X356700D01*
X355300D02*
G03X356700I700J-2400D01*
G01X355300D02*
X331427D01*
X326573D02*
G03X331427I2427J600D01*
G01X326573D02*
X326421D01*
X322579D02*
G03X326421I1921J1600D01*
G01X322579D02*
X320700D01*
X319300D02*
G03X320700I700J-2400D01*
G01X319300D02*
X308500D01*
X306900Y339500D02*
G03X308500Y337900I1600J0D01*
G01X306900Y339500D02*
Y394500D01*
X240500*
Y327000*
X243921Y326600D02*
G03X240500Y327000I-1921J-1600D01*
G01X243921Y326600D02*
X258644D01*
X261356D02*
G03X258644I-1356J-2100D01*
G01X261356D02*
X269208D01*
X274192D02*
G03X269208I-2492J-200D01*
G01X274192D02*
X344032D01*
X348968D02*
G03X344032I-2468J400D01*
G01X348968D02*
X386900D01*
Y331000*
X388500Y332600D02*
G03X386900Y331000I0J-1600D01*
G01X388500Y332600D02*
X394929D01*
X395000Y335500D02*
G03X394929Y332600I2000J-1500D01*
G01X395500Y336000D02*
G03X395000Y335500I-2000J1500D01*
G01X399071Y332600D02*
G03X395500Y336000I-2071J1400D01*
G01X399071Y332600D02*
X403585D01*
X405185Y331000D02*
G03X403585Y332600I-1600J0D01*
G01X405185Y331000D02*
X405185D01*
Y326100*
X405579*
X409421D02*
G03X405579I-1921J-1600D01*
G01X409421D02*
X438500D01*
X459500Y210500D02*
Y235000D01*
X458000Y239500D02*
G03X459500Y235000I1500J-2000D01*
G01X458000Y239500D02*
X439500D01*
Y279901*
Y287059D02*
G03Y279901I2000J-3579D01*
G01Y287059D02*
Y289901D01*
Y297059D02*
G03Y289901I2000J-3579D01*
G01Y297059D02*
Y299901D01*
Y307059D02*
G03Y299901I2000J-3579D01*
G01Y307059D02*
Y309901D01*
Y317059D02*
G03Y309901I2000J-3579D01*
G01Y317059D02*
Y324251D01*
X438500Y323900D02*
G03X439500Y324251I0J1600D01*
G01X438500Y323900D02*
X404000D01*
X402400Y325500D02*
G03X404000Y323900I1600J0D01*
G01X402400Y325500D02*
Y330400D01*
X389100*
Y325500*
X387500Y323900D02*
G03X389100Y325500I0J1600D01*
G01X387500Y323900D02*
X375468D01*
X370532D02*
G03X375468I2468J-400D01*
G01X370532D02*
X277392D01*
X272408D02*
G03X277392I2492J-200D01*
G01X272408D02*
X240500D01*
X238980Y325000D02*
G03X240500Y323900I1520J500D01*
G01X238980Y325000D02*
X215500D01*
Y322500*
X211010*
X210990D02*
G03X211010I10J2500D01*
G01X210990D02*
X206500D01*
Y319450*
Y314550D02*
G03Y319450I-500J2450D01*
G01Y314550D02*
Y130500D01*
X279500*
Y210500*
X350500*
Y170500*
X389500*
Y207500*
X390291Y210500D02*
G03X389500Y207500I-2291J-1000D01*
G01X390291Y210500D02*
X441990D01*
X442010D02*
G03X441990I-10J2500D01*
G01X442010D02*
X452990D01*
X453010D02*
G03X452990I-10J2500D01*
G01X453010D02*
X459500D01*
X317667Y317500D02*
G03X317000Y316833I1833J-2500D01*
G01Y318167D02*
G03X317667Y317500I2500J1833D01*
G01X316333D02*
G03X317000Y318167I-1833J2500D01*
G01Y316833D02*
G03X316333Y317500I-2500J-1833D01*
G01X491900Y346145D02*
Y426400D01*
X341888*
X339512D02*
G03X341888I1188J-2200D01*
G01X339512D02*
X334809D01*
X332391D02*
G03X334809I1209J-2800D01*
G01X332391D02*
X101100D01*
Y101100*
X491900*
Y341655*
Y346145D02*
G03Y341655I-1100J-2245D01*
G01X358000Y380500D02*
G03Y383500I2000J1500D01*
Y380500I-2000J-1500*
G01X355059Y389039D02*
G03X357941Y390961I2441J-539D01*
X355059Y389039I-2441J539*
G01X340000Y356000D02*
G03X340000I-2500J0D01*
G01X341984Y368716D02*
G03X340516Y371284I1016J2284D01*
X341984Y368716I-1016J-2284*
G01X331500Y345000D02*
G03X331500I-2500J0D01*
G01X328082Y369564D02*
G03X328918Y372136I2418J636D01*
G01X326510Y369000D02*
G03X328082Y369564I-10J2500D01*
G01X326490Y369000D02*
G03X326510I10J-2500D01*
G01X328918Y372136D02*
G03X326490Y369000I-2418J-636D01*
G01X334100Y384500D02*
G03X334100I-2500J0D01*
G01X323000Y344500D02*
G03X323000I-2500J0D01*
G01X323500Y359000D02*
G03X323500I-2500J0D01*
G01X328100Y380100D02*
G03X328100I-2500J0D01*
G01X320600Y366500D02*
G03X320600I-2500J0D01*
G01X382000Y329500D02*
G03X382000I-2500J0D01*
G01X384500Y335000D02*
G03X384500I-2500J0D01*
G01X385500Y342000D02*
G03X385500I-2500J0D01*
G01X341500Y331000D02*
G03X341500I-2500J0D01*
G01X344539Y332559D02*
G03X346461Y335441I2461J441D01*
X344539Y332559I-2461J-441*
G01X310000Y330500D02*
G03X310000I-2500J0D01*
G01X303000Y361000D02*
G03X303000I-2500J0D01*
G01X278000Y366500D02*
G03X278000I-2500J0D01*
G01X281600Y377500D02*
G03X281600I-8600J0D01*
G01X250500Y346000D02*
G03X250500I-2500J0D01*
G01X454500Y233500D02*
G03X454500I-2500J0D01*
G01X429500Y251000D02*
G03X429500I-2500J0D01*
G01X428000Y273000D02*
G03X428000I-2500J0D01*
G01X428500Y282000D02*
G03X428500I-2500J0D01*
G01X435600Y288480D02*
G03X435600I-4100J0D01*
G01Y298480D02*
G03X435600I-4100J0D01*
G01Y308480D02*
G03X435600I-4100J0D01*
G01Y318480D02*
G03X435600I-4100J0D01*
G01X422700Y318300D02*
G03X422700I-2500J0D01*
G01X412100Y218000D02*
G03X412100I-4100J0D01*
G01X417000Y240000D02*
G03X417000I-2500J0D01*
G01Y250500D02*
G03X417000I-2500J0D01*
G01X417400Y288200D02*
G03X417400I-2500J0D01*
G01X411548Y309488D02*
G03X414952Y311312I2452J-488D01*
X411548Y309488I-2452J488*
G01X388000Y184000D02*
G03X388000I-2500J0D01*
G01X394000Y215000D02*
G03X394000I-2500J0D01*
G01X402100Y218000D02*
G03X402100I-4100J0D01*
G01X402000Y245500D02*
G03X402000I-2500J0D01*
G01X393000Y240000D02*
G03X393000I-2500J0D01*
G01X382657Y239128D02*
G03X383343Y241872I2343J872D01*
G01X378750Y239910D02*
G03X382657Y239128I2250J1090D01*
G01X374000Y240990D02*
G03X378750Y239910I2500J10D01*
G01X374000Y241010D02*
G03Y240990I-2500J-10D01*
G01X378750Y242090D02*
G03X374000Y241010I-2250J-1090D01*
G01X379000Y242500D02*
G03X378750Y242090I2000J-1500D01*
G01X380551Y247000D02*
G03X379000Y242500I-51J-2500D01*
G01X382949Y245000D02*
G03X380551Y247000I51J2500D01*
G01X382500Y243000D02*
G03X382949Y245000I-2000J1500D01*
G01X383343Y241872D02*
G03X382500Y243000I-2343J-872D01*
G01X389000Y261500D02*
G03Y264500I2000J1500D01*
Y261500I-2000J-1500*
G01X397367Y266196D02*
G03X397133Y268304I2133J1304D01*
X397367Y266196I-2133J-1304*
G01X404500Y286700D02*
G03X404500I-2500J0D01*
G01X402853Y300050D02*
G03X401147I-853J2350D01*
X402853I853J-2350*
G01X402500Y323000D02*
G03X402500I-2500J0D01*
G01X380500Y263000D02*
G03X380500I-2500J0D01*
G01X380000Y312500D02*
G03X380000I-2500J0D01*
G01X354949Y218500D02*
G03X352551Y220500I51J2500D01*
X354949Y218500I-51J-2500*
G01X361006Y228492D02*
G03X360994Y228508I1994J1508D01*
X361006Y228492I-1994J-1508*
G01X363633Y238696D02*
G03X363867Y240804I2367J804D01*
X363633Y238696I-2367J-804*
G01X370900Y252300D02*
G03X370900I-2500J0D01*
G01X367649Y261650D02*
G03X369146Y264850I2351J850D01*
X367649Y261650I-2351J-850*
G01X372000Y305000D02*
G03X372000I-2500J0D01*
G01X360000Y262500D02*
G03X360000I-2500J0D01*
G01X360500Y286000D02*
G03X358435Y290435I-1500J2000D01*
G01X357500Y286000D02*
G03X360500I1500J-2000D01*
G01X356565Y288565D02*
G03X357500Y286000I2435J-565D01*
G01X355559Y293461D02*
G03X356565Y288565I441J-2461D01*
G01X355500Y294000D02*
G03X355559Y293461I2500J0D01*
G01X352500Y298000D02*
G03X355500Y294000I1500J-2000D01*
G01X354000Y298500D02*
G03X352500Y298000I-1500J2000D01*
G01X356500Y296000D02*
G03X354000Y298500I-2500J0D01*
G01X358441Y291539D02*
G03X356500Y296000I-441J2461D01*
G01X358435Y290435D02*
G03X358441Y291539I-2435J565D01*
G01X366500Y305000D02*
G03X366500I-2500J0D01*
G01X357961Y309559D02*
G03X356039Y312441I539J2441D01*
X357961Y309559I-539J-2441*
G01X343551Y218500D02*
G03X345949Y220500I2449J-500D01*
X343551Y218500I-2449J500*
G01X338261Y316612D02*
G03X341239Y317888I2239J-1112D01*
X338261Y316612I-2239J1112*
G01X332000Y288500D02*
G03X332000I-2500J0D01*
G01X332500Y305500D02*
G03X332500I-2500J0D01*
G01X323500Y284000D02*
G03X323500I-2500J0D01*
G01X321333Y317500D02*
G03X317000Y321833I-1833J2500D01*
G01X321333Y312500D02*
G03Y317500I-1833J2500D01*
G01Y307500D02*
G03Y312500I-1833J2500D01*
G01Y302500D02*
G03Y307500I-1833J2500D01*
G01X317000Y298167D02*
G03X321333Y302500I2500J1833D01*
G01X312667D02*
G03X317000Y298167I1833J-2500D01*
G01X312667Y307500D02*
G03Y302500I1833J-2500D01*
G01Y312500D02*
G03Y307500I1833J-2500D01*
G01Y317500D02*
G03Y312500I1833J-2500D01*
G01X317000Y321833D02*
G03X312667Y317500I-2500J-1833D01*
G01X303070Y313791D02*
G03X300530Y313909I-1170J2209D01*
X303070Y313791I1170J-2209*
G01X288500Y240000D02*
G03X288500I-2500J0D01*
G01X290500Y268000D02*
G03X290500I-2500J0D01*
G01X287600Y313900D02*
G03X287600I-2500J0D01*
G01X287900Y321000D02*
G03X287900I-2500J0D01*
G01X272000Y144000D02*
G03X272000I-2500J0D01*
G01X269500Y160500D02*
G03X269500I-2500J0D01*
G01X274500Y165000D02*
G03X274500I-2500J0D01*
G01X276000Y178000D02*
G03X276000I-2500J0D01*
G01X267000Y188000D02*
G03X268000Y190000I2500J0D01*
X267000Y188000I-2500J0*
G01X269000Y250000D02*
G03X269000I-2500J0D01*
G01X275100Y278000D02*
G03X275100I-4100J0D01*
G01Y288000D02*
G03X275100I-4100J0D01*
G01Y298000D02*
G03X275100I-4100J0D01*
G01Y308000D02*
G03X275100I-4100J0D01*
G01X268500Y317500D02*
G03X268500I-2500J0D01*
G01X255000Y167500D02*
G03X255000I-2500J0D01*
G01X260000Y169000D02*
G03X260000I-2500J0D01*
G01X251500Y181500D02*
G03X248500I-1500J2000D01*
X251500I1500J-2000*
G01X254000Y193000D02*
G03X254000I-2500J0D01*
G01X240500Y163000D02*
G03X240500I-2500J0D01*
G01X246100Y293000D02*
G03X246100I-4100J0D01*
G01X229500Y249500D02*
G03X229500I-2500J0D01*
G01X236100Y293000D02*
G03X236100I-4100J0D01*
G01X234500Y313000D02*
G03X234500I-2500J0D01*
G01X239500Y317000D02*
G03X239500I-2500J0D01*
G01X226100Y303000D02*
G03X226100I-4100J0D01*
G01X216100D02*
G03X216100I-4100J0D01*
G01X333500Y248500D02*
G03X333500I-2500J0D01*
G01X332500Y271000D02*
G03X332500I-2500J0D01*
G01X337000Y283500D02*
G03X337000I-2500J0D01*
G01X355000Y268500D02*
G03Y272500I-1500J2000D01*
G01X352000Y268500D02*
G03X355000I1500J-2000D01*
G01X351500Y272000D02*
G03X352000Y268500I2000J-1500D01*
G01X355000Y272500D02*
G03X351500Y272000I-2000J1500D01*
G01X352010Y283000D02*
G03X351990I-10J2500D01*
X352010I10J-2500*
G01X486750Y120000D02*
G03X486750I-10250J0D01*
G01X489700Y157000D02*
G03X489700I-5000J0D01*
G01Y173500D02*
G03X489700I-5000J0D01*
G01X488500Y238000D02*
G03X488500I-2500J0D01*
G01X487037Y276098D02*
G03X487037I-4356J0D01*
G01Y286098D02*
G03X487037I-4356J0D01*
G01Y315902D02*
G03X487037I-4356J0D01*
G01Y325902D02*
G03X487037I-4356J0D01*
G01X486500Y337300D02*
G03X486500I-2500J0D01*
G01X486400Y350900D02*
G03X486400I-2500J0D01*
G01X486000Y359500D02*
G03X486000I-2500J0D01*
G01X468000Y157000D02*
G03X468000I-5000J0D01*
G01Y173500D02*
G03X468000I-5000J0D01*
G01X466500Y222000D02*
G03X466500I-2500J0D01*
G01X443500Y166500D02*
G03X443500I-2500J0D01*
G01X443000Y184000D02*
G03X443000I-2500J0D01*
G01X436500Y163500D02*
G03X436500I-2500J0D01*
G01X433000Y170500D02*
G03X433000I-2500J0D01*
G01X429500Y184000D02*
G03X429500I-2500J0D01*
G01X422000Y153000D02*
G03X422000I-2500J0D01*
G01Y170000D02*
G03X422000I-2500J0D01*
G01X415000Y164000D02*
G03X415000I-2500J0D01*
G01Y178000D02*
G03X415000I-2500J0D01*
G01X397500Y184000D02*
G03X397500I-2500J0D01*
G01X349500Y108300D02*
G03X349500I-5000J0D01*
G01Y130000D02*
G03X349500I-5000J0D01*
G01X464750Y235715D02*
G03Y239285I1750J1785D01*
G01X461250Y235715D02*
G03X464750I1750J1785D01*
G01X461100Y235579D02*
G03X461250Y235715I-1600J1921D01*
G01X461100Y235579D02*
Y210500D01*
X459500Y208900D02*
G03X461100Y210500I0J1600D01*
G01X459500Y208900D02*
X391100D01*
Y170500*
X389500Y168900D02*
G03X391100Y170500I0J1600D01*
G01X389500Y168900D02*
X350500D01*
X348900Y170500D02*
G03X350500Y168900I1600J0D01*
G01X348900Y170500D02*
Y208900D01*
X281100*
Y130500*
X279500Y128900D02*
G03X281100Y130500I0J1600D01*
G01X279500Y128900D02*
X206500D01*
X204900Y130500D02*
G03X206500Y128900I1600J0D01*
G01X204900Y130500D02*
Y314755D01*
Y319245D02*
G03Y314755I1100J-2245D01*
G01Y319245D02*
Y322500D01*
X206500Y324100D02*
G03X204900Y322500I0J-1600D01*
G01X206500Y324100D02*
X208668D01*
X213332D02*
G03X208668I-2332J900D01*
G01X213332D02*
X213900D01*
Y325000*
X215500Y326600D02*
G03X213900Y325000I0J-1600D01*
G01X215500Y326600D02*
X238900D01*
Y394500*
X240500Y396100D02*
G03X238900Y394500I0J-1600D01*
G01X240500Y396100D02*
X308000D01*
X308250Y396080D02*
G03X308000Y396100I-250J-1580D01*
G01X308500D02*
G03X308250Y396080I0J-1600D01*
G01X308500Y396100D02*
X313668D01*
X318332D02*
G03X313668I-2332J900D01*
G01X318332D02*
X373900D01*
Y398500*
X375500Y400100D02*
G03X373900Y398500I0J-1600D01*
G01X375500Y400100D02*
X377079D01*
X380921D02*
G03X377079I-1921J-1600D01*
G01X380921D02*
X383079D01*
X386921D02*
G03X383079I-1921J-1600D01*
G01X386921D02*
X393000D01*
X394600Y398500D02*
G03X393000Y400100I-1600J0D01*
G01X394600Y398500D02*
Y351600D01*
X422900*
Y356000*
X424500Y357600D02*
G03X422900Y356000I0J-1600D01*
G01X424500Y357600D02*
X438500D01*
X440100Y356000D02*
G03X438500Y357600I-1600J0D01*
G01X440100Y356000D02*
Y337625D01*
X443759Y337777D02*
G03X440100Y337625I-1759J-1777D01*
G01X448578Y337229D02*
G03X443759Y337777I-2478J-329D01*
G01X446000Y334402D02*
G03X448578Y337229I5146J-2103D01*
G01X444341Y335123D02*
G03X446000Y334402I1759J1777D01*
G01X440100Y334375D02*
G03X444341Y335123I1900J1625D01*
G01X440100Y334375D02*
Y325983D01*
X441100Y324500D02*
G03X440100Y325983I-1600J0D01*
G01X441100Y324500D02*
Y317561D01*
Y309400D02*
G03Y317561I400J4080D01*
G01Y309400D02*
Y307561D01*
Y299400D02*
G03Y307561I400J4080D01*
G01Y299400D02*
Y297561D01*
Y289400D02*
G03Y297561I400J4080D01*
G01Y289400D02*
Y287561D01*
Y279400D02*
G03Y287561I400J4080D01*
G01Y279400D02*
Y241100D01*
X459500*
X461100Y239500D02*
G03X459500Y241100I-1600J0D01*
G01X461100Y239500D02*
Y239421D01*
X461250Y239285D02*
G03X461100Y239421I-1750J-1785D01*
G01X464750Y239285D02*
G03X461250I-1750J-1785D01*
G01X464750Y248715D02*
G03Y252285I1750J1785D01*
G01X461250Y248715D02*
G03X464750I1750J1785D01*
G01X461250Y252285D02*
G03Y248715I-1750J-1785D01*
G01X464750Y252285D02*
G03X461250I-1750J-1785D01*
G01X469500Y262500D02*
G03X469500I-2500J0D01*
G01X473899Y278500D02*
G03X473899I-7399J0D01*
G01Y323500D02*
G03X473899I-7399J0D01*
G01X488750Y400000D02*
G03X488750I-10250J0D01*
G01X489100Y420000D02*
G03X489100I-4100J0D01*
G01X479100D02*
G03X479100I-4100J0D01*
G01X466100Y346000D02*
G03X466100I-4100J0D01*
G01X456704Y269701D02*
G03X456704I-5558J0D01*
G01X456100Y346000D02*
G03X456100I-4100J0D01*
G01X458000Y395000D02*
G03X458000I-5000J0D01*
G01Y416700D02*
G03X458000I-5000J0D01*
G01X441500Y395000D02*
G03X441500I-5000J0D01*
G01Y416700D02*
G03X441500I-5000J0D01*
G01X425000Y395000D02*
G03X425000I-5000J0D01*
G01Y416700D02*
G03X425000I-5000J0D01*
G01X408500Y395000D02*
G03X408500I-5000J0D01*
G01Y416700D02*
G03X408500I-5000J0D01*
G01X387100Y420000D02*
G03X387100I-4100J0D01*
G01X377100D02*
G03X377100I-4100J0D01*
G01X360313Y413410D02*
G03X356887Y413790I-1513J1990D01*
X360313Y413410I1513J-1990*
G01X354500Y400000D02*
G03X354500I-2500J0D01*
G01X355106Y416948D02*
G03X351382Y417506I-1506J2652D01*
X355106Y416948I1618J-1906*
G01X350100Y407500D02*
G03X350100I-2500J0D01*
G01X341900Y413800D02*
G03X341900I-2500J0D01*
G01X332296Y398171D02*
G03X332104Y401629I1704J1829D01*
X332296Y398171I-1704J-1829*
G01X331464Y413423D02*
G03X330633Y414893I2136J2177D01*
X331464Y413423I-1633J-1893*
G01X323800Y404400D02*
G03X323800I-2500J0D01*
G01X320500Y412500D02*
G03X320500I-2500J0D01*
G01X237350Y362500D02*
G03X237350I-4350J0D01*
G01Y396350D02*
Y388650D01*
X236850Y388150D02*
G03X237350Y388650I0J500D01*
G01X236850Y388150D02*
X229150D01*
X228650Y388650D02*
G03X229150Y388150I500J0D01*
G01X228650Y388650D02*
Y396350D01*
X229150Y396850D02*
G03X228650Y396350I0J-500D01*
G01X229150Y396850D02*
X236850D01*
X237350Y396350D02*
G03X236850Y396850I-500J0D01*
G01X227350Y362500D02*
G03X227350I-4350J0D01*
G01Y392500D02*
G03X227350I-4350J0D01*
G01X209500Y339000D02*
G03X209500I-2500J0D01*
G01Y346000D02*
G03X209500I-2500J0D01*
G01X217350Y366350D02*
Y358650D01*
X216850Y358150D02*
G03X217350Y358650I0J500D01*
G01X216850Y358150D02*
X209150D01*
X208650Y358650D02*
G03X209150Y358150I500J0D01*
G01X208650Y358650D02*
Y366350D01*
X209150Y366850D02*
G03X208650Y366350I0J-500D01*
G01X209150Y366850D02*
X216850D01*
X217350Y366350D02*
G03X216850Y366850I-500J0D01*
G01X217350Y392500D02*
G03X217350I-4350J0D01*
G01X199000Y322000D02*
G03X199000I-2500J0D01*
G01X186000Y151000D02*
G03X186000I-2500J0D01*
G01Y201000D02*
G03X186000I-2500J0D01*
G01X185500Y270000D02*
G03X185500I-2500J0D01*
G01X175500Y155000D02*
G03X175500I-2500J0D01*
G01Y172000D02*
G03X175500I-2500J0D01*
G01Y205000D02*
G03X175500I-2500J0D01*
G01Y222000D02*
G03X175500I-2500J0D01*
G01Y274000D02*
G03X175500I-2500J0D01*
G01Y291000D02*
G03X175500I-2500J0D01*
G01X179100Y320000D02*
G03X179100I-4100J0D01*
G01X164100Y120000D02*
G03X164100I-4100J0D01*
G01X168500Y141000D02*
G03X168500I-2500J0D01*
G01X164500Y154500D02*
G03X164500I-2500J0D01*
G01X168000Y191000D02*
G03X168000I-2500J0D01*
G01X161000Y161500D02*
G03X161000I-2500J0D01*
G01X165000Y203500D02*
G03X165000I-2500J0D01*
G01X168500Y260000D02*
G03X168500I-2500J0D01*
G01X161000Y211500D02*
G03X161000I-2500J0D01*
G01X164500Y273000D02*
G03X164500I-2500J0D01*
G01X161000Y280500D02*
G03X161000I-2500J0D01*
G01X169100Y320000D02*
G03X169100I-4100J0D01*
G01X181600Y377500D02*
G03X181600I-8600J0D01*
G01X154100Y120000D02*
G03X154100I-4100J0D01*
G01X154500Y141000D02*
G03X154500I-2500J0D01*
G01X154000Y158500D02*
G03X154000I-2500J0D01*
G01X154500Y190500D02*
G03X154500I-2500J0D01*
G01X154000Y208500D02*
G03X154000I-2500J0D01*
G01X154500Y260000D02*
G03X154500I-2500J0D01*
G01X154000Y277500D02*
G03X154000I-2500J0D01*
G01X159100Y320000D02*
G03X159100I-4100J0D01*
G01X149100D02*
G03X149100I-4100J0D01*
G01X126750Y120000D02*
G03X126750I-10250J0D01*
G01X134500Y151500D02*
G03X134500I-5000J0D01*
G01Y168000D02*
G03X134500I-5000J0D01*
G01Y201500D02*
G03X134500I-5000J0D01*
G01Y218000D02*
G03X134500I-5000J0D01*
G01X135000Y252500D02*
G03X135000I-5000J0D01*
G01Y269000D02*
G03X135000I-5000J0D01*
G01X130500Y278000D02*
G03X130500I-2500J0D01*
G01X135000Y285500D02*
G03X135000I-5000J0D01*
G01Y302000D02*
G03X135000I-5000J0D01*
G01X112800Y151500D02*
G03X112800I-5000J0D01*
G01Y168000D02*
G03X112800I-5000J0D01*
G01Y201500D02*
G03X112800I-5000J0D01*
G01Y218000D02*
G03X112800I-5000J0D01*
G01X113300Y252500D02*
G03X113300I-5000J0D01*
G01Y269000D02*
G03X113300I-5000J0D01*
G01Y285500D02*
G03X113300I-5000J0D01*
G01Y302000D02*
G03X113300I-5000J0D01*
G01X122702Y326181D02*
G03X122702I-7202J0D01*
G01X120750Y343110D02*
G03X120750I-5250J0D01*
G01Y356890D02*
G03X120750I-5250J0D01*
G01X122702Y373819D02*
G03X122702I-7202J0D01*
G01X126750Y400000D02*
G03X126750I-10250J0D01*
G01X132100Y420000D02*
G03X132100I-4100J0D01*
G01X122100D02*
G03X122100I-4100J0D01*
G01X112100D02*
G03X112100I-4100J0D01*
G01X203500Y109500D02*
G03X203500I-2500J0D01*
G01X204500Y312500D02*
G03X204500I-2500J0D01*
G01X342500Y154000D02*
G03X342500I-2500J0D01*
G01X339500Y164000D02*
G03X339500I-2500J0D01*
G01X333000Y108300D02*
G03X333000I-5000J0D01*
G01Y130000D02*
G03X333000I-5000J0D01*
G01X332000Y178500D02*
G03X332000I-2500J0D01*
G01X316500Y108300D02*
G03X316500I-5000J0D01*
G01Y130000D02*
G03X316500I-5000J0D01*
G01X321000Y150500D02*
G03X321000I-2500J0D01*
G01X325500Y161000D02*
G03X325500I-2500J0D01*
G01X324500Y171000D02*
G03X324500I-2500J0D01*
G01X318000Y157500D02*
G03X318000I-2500J0D01*
G01X317500Y177000D02*
G03X318000Y180500I2000J1500D01*
X317500Y177000I-2000J-1500*
G01X327000Y201500D02*
G03X327000I-2500J0D01*
G01X307500Y171000D02*
G03X307500I-2500J0D01*
G01X300000Y108300D02*
G03X300000I-5000J0D01*
G01Y130000D02*
G03X300000I-5000J0D01*
G01X261219Y119510D02*
G03X263213Y120836I2442J-1510D01*
X261219Y119510I-2213J1164*
G01X249210Y118000D02*
G03X249210I-2871J0D01*
G01X230000Y106000D02*
G03X230000I-2500J0D01*
G01X227000Y115000D02*
G03X227000I-2500J0D01*
G01X334292Y394399D02*
X373900D01*
X357002Y393499D02*
X373900D01*
X357746Y392599D02*
X373900D01*
X357992Y391699D02*
X373900D01*
X358483Y390799D02*
X373900D01*
X359572Y389899D02*
X373900D01*
X359950Y388999D02*
X373900D01*
X359968Y388099D02*
X373900D01*
X359635Y387199D02*
X373900D01*
X358685Y386299D02*
X373900D01*
X333933Y385399D02*
X373900D01*
X360082Y384499D02*
X373900D01*
X361922Y383599D02*
X373900D01*
X362400Y382699D02*
X373900D01*
X362492Y381799D02*
X373900D01*
X362244Y380899D02*
X373900D01*
X313498Y375499D02*
X373900D01*
X309600Y374599D02*
X373900D01*
X327690Y373699D02*
X373900D01*
X344736Y372799D02*
X373900D01*
X345333Y371899D02*
X373900D01*
X361498Y379999D02*
X371498D01*
X314244Y376399D02*
X371080D01*
X327891Y379099D02*
X370754D01*
X314492Y377299D02*
X370600D01*
X327223Y378199D02*
X370508D01*
X309600Y351199D02*
X361900D01*
X309600Y350299D02*
X361900D01*
X309600Y349399D02*
X361900D01*
X309600Y348499D02*
X361900D01*
X309600Y347599D02*
X361900D01*
X330834Y346699D02*
X361900D01*
X331369Y345799D02*
X361900D01*
X331498Y344899D02*
X361900D01*
X331291Y343999D02*
X361900D01*
X330623Y343099D02*
X361900D01*
X321477Y342199D02*
X361900D01*
X326236Y341299D02*
X361900D01*
X356082Y384499D02*
X359918D01*
X357498Y379999D02*
X358502D01*
X357922Y383599D02*
X358078D01*
X333336Y386299D02*
X356315D01*
X334100Y384499D02*
X355918D01*
X309600Y387199D02*
X355365D01*
X309600Y388999D02*
X355050D01*
X309600Y388099D02*
X355032D01*
X328098Y379999D02*
X354502D01*
X333932Y383599D02*
X354078D01*
X334498Y393499D02*
X353998D01*
X327969Y380899D02*
X353756D01*
X309600Y352099D02*
X353728D01*
X333334Y382699D02*
X353600D01*
X309600Y389899D02*
X353580D01*
X327434Y381799D02*
X353508D01*
X334368Y392599D02*
X353254D01*
X345500Y370999D02*
X353250D01*
X309600Y390799D02*
X353100D01*
X333832Y391699D02*
X353008D01*
X309600Y352999D02*
X352981D01*
X345332Y370099D02*
X352903D01*
X344734Y369199D02*
X352900D01*
X341900Y368299D02*
X352900D01*
X341420Y367399D02*
X352900D01*
X329000Y366499D02*
X352900D01*
X328832Y365599D02*
X352900D01*
X328234Y364699D02*
X352900D01*
X309600Y363799D02*
X352900D01*
X309600Y362899D02*
X352900D01*
X309600Y361999D02*
X352900D01*
X322359Y361099D02*
X352900D01*
X323194Y360199D02*
X352900D01*
X323482Y359299D02*
X352900D01*
X338205Y358399D02*
X352900D01*
X339501Y357499D02*
X352900D01*
X339927Y356599D02*
X352900D01*
X339982Y355699D02*
X352900D01*
X339692Y354799D02*
X352900D01*
X338854Y353899D02*
X352900D01*
X328636Y372799D02*
X341264D01*
X332334Y371899D02*
X340667D01*
X332869Y370999D02*
X337998D01*
X328833Y367399D02*
X337580D01*
X332998Y370099D02*
X337254D01*
X332123Y368299D02*
X337100D01*
X332791Y369199D02*
X337008D01*
X323427Y358399D02*
X336795D01*
X309600Y353899D02*
X336146D01*
X322999Y357499D02*
X335499D01*
X309600Y354799D02*
X335308D01*
X321696Y356599D02*
X335073D01*
X309600Y355699D02*
X335018D01*
X309600Y391699D02*
X330168D01*
X309600Y382699D02*
X329866D01*
X309600Y386299D02*
X329864D01*
X309600Y394399D02*
X329708D01*
X309600Y392599D02*
X329632D01*
X309600Y393499D02*
X329502D01*
X309600Y383599D02*
X329268D01*
X309600Y385399D02*
X329267D01*
X309600Y384499D02*
X329100D01*
X328236Y368299D02*
X328877D01*
X327477Y369199D02*
X328209D01*
X322570Y343099D02*
X327377D01*
X321690Y346699D02*
X327166D01*
X322949Y343999D02*
X326709D01*
X322636Y345799D02*
X326631D01*
X322968Y344899D02*
X326502D01*
X313368Y369199D02*
X325523D01*
X309600Y373699D02*
X325310D01*
X319834Y364699D02*
X324766D01*
X319836Y368299D02*
X324764D01*
X313498Y370099D02*
X324430D01*
X309600Y372799D02*
X324364D01*
X320432Y365599D02*
X324168D01*
X320433Y367399D02*
X324167D01*
X313292Y370999D02*
X324051D01*
X312626Y371899D02*
X324032D01*
X320600Y366499D02*
X324000D01*
X314400Y378199D02*
X323977D01*
X309600Y381799D02*
X323766D01*
X313922Y379099D02*
X323309D01*
X309600Y380899D02*
X323231D01*
X312082Y379999D02*
X323102D01*
X309600Y341299D02*
X322764D01*
X309600Y356599D02*
X320304D01*
X309600Y361099D02*
X319641D01*
X309600Y342199D02*
X319523D01*
X309600Y346699D02*
X319310D01*
X309600Y357499D02*
X319001D01*
X309600Y360199D02*
X318806D01*
X309600Y358399D02*
X318573D01*
X309600Y359299D02*
X318518D01*
X309600Y343099D02*
X318430D01*
X309600Y345799D02*
X318364D01*
X309600Y343999D02*
X318051D01*
X309600Y344899D02*
X318032D01*
X309600Y364699D02*
X316366D01*
X312832Y368299D02*
X316364D01*
X309600Y365599D02*
X315768D01*
X309600Y367399D02*
X315767D01*
X309600Y366499D02*
X315600D01*
X309600Y379999D02*
X311918D01*
X309600Y375499D02*
X310502D01*
X309600Y379099D02*
X310078D01*
X309600Y376399D02*
X309756D01*
X424500Y355199D02*
X438500D01*
X424500Y354299D02*
X438500D01*
X424500Y353399D02*
X438500D01*
X424500Y352499D02*
X438500D01*
X424500Y351599D02*
X438500D01*
X424500Y350699D02*
X438500D01*
X365100Y349799D02*
X438500D01*
X365100Y348899D02*
X438500D01*
X365100Y347999D02*
X438500D01*
X365100Y347099D02*
X438500D01*
X365100Y346199D02*
X438500D01*
X365100Y345299D02*
X438500D01*
X383705Y344399D02*
X438500D01*
X385001Y343499D02*
X438500D01*
X385427Y342599D02*
X438500D01*
X385482Y341699D02*
X438500D01*
X385192Y340799D02*
X438500D01*
X394205Y339899D02*
X438500D01*
X395501Y338999D02*
X438500D01*
X395927Y338099D02*
X438500D01*
X395982Y337199D02*
X438500D01*
X397983Y336299D02*
X438500D01*
X399072Y335399D02*
X438500D01*
X399450Y334499D02*
X438500D01*
X399468Y333599D02*
X438500D01*
X399135Y332699D02*
X438500D01*
X404972Y331799D02*
X438500D01*
X405185Y330899D02*
X438500D01*
X405185Y329999D02*
X438500D01*
X405185Y329099D02*
X438500D01*
X405185Y328199D02*
X438500D01*
X405185Y327299D02*
X438500D01*
X409126Y326399D02*
X438500D01*
X405185D02*
X405874D01*
X395692Y336299D02*
X396017D01*
X394854Y335399D02*
X394928D01*
X382977Y332699D02*
X394865D01*
X384449Y334499D02*
X394550D01*
X384070Y333599D02*
X394532D01*
X381498Y398399D02*
X393000D01*
X381291Y397499D02*
X393000D01*
X380623Y396599D02*
X393000D01*
X376560Y395699D02*
X393000D01*
X377072Y394799D02*
X393000D01*
X377100Y393899D02*
X393000D01*
X377100Y392999D02*
X393000D01*
X377100Y392099D02*
X393000D01*
X377100Y391199D02*
X393000D01*
X377100Y390299D02*
X393000D01*
X377100Y389399D02*
X393000D01*
X377100Y388499D02*
X393000D01*
X377100Y387599D02*
X393000D01*
X377100Y386699D02*
X393000D01*
X377100Y385799D02*
X393000D01*
X377100Y384899D02*
X393000D01*
X377100Y383999D02*
X393000D01*
X377100Y383099D02*
X393000D01*
X377100Y382199D02*
X393000D01*
X377100Y381299D02*
X393000D01*
X377100Y380399D02*
X393000D01*
X377100Y379499D02*
X393000D01*
X377100Y378599D02*
X393000D01*
X377100Y377699D02*
X393000D01*
X377100Y376799D02*
X393000D01*
X377100Y375899D02*
X393000D01*
X377100Y374999D02*
X393000D01*
X377100Y371399D02*
X393000D01*
X377100Y370499D02*
X393000D01*
X377049Y369599D02*
X393000D01*
X376431Y368699D02*
X393000D01*
X356100Y367799D02*
X393000D01*
X356100Y366899D02*
X393000D01*
X356100Y365999D02*
X393000D01*
X356100Y365099D02*
X393000D01*
X356100Y364199D02*
X393000D01*
X356100Y363299D02*
X393000D01*
X356100Y362399D02*
X393000D01*
X356100Y361499D02*
X393000D01*
X356100Y360599D02*
X393000D01*
X356100Y359699D02*
X393000D01*
X356100Y358799D02*
X393000D01*
X356100Y357899D02*
X393000D01*
X356100Y356999D02*
X393000D01*
X356100Y356099D02*
X393000D01*
X356100Y355199D02*
X393000D01*
X364886Y354299D02*
X393000D01*
X365100Y353399D02*
X393000D01*
X365100Y352499D02*
X393000D01*
X365100Y351599D02*
X393000D01*
X365100Y350699D02*
X393000D01*
X384354Y339899D02*
X392795D01*
X377100Y374099D02*
X392754D01*
X377100Y372299D02*
X392600D01*
X377100Y373199D02*
X392508D01*
X384468Y335399D02*
X392146D01*
X365019Y338999D02*
X391499D01*
X384136Y336299D02*
X391308D01*
X364272Y338099D02*
X391073D01*
X383190Y337199D02*
X391018D01*
X380483Y331799D02*
X387114D01*
X381572Y330899D02*
X386900D01*
X381950Y329999D02*
X386900D01*
X381968Y329099D02*
X386900D01*
X381635Y328199D02*
X386900D01*
X380685Y327299D02*
X386900D01*
X365100Y344399D02*
X382295D01*
X365100Y339899D02*
X381646D01*
X349482Y332699D02*
X381023D01*
X365100Y343499D02*
X380999D01*
X357834Y337199D02*
X380810D01*
X365100Y340799D02*
X380808D01*
X365100Y342599D02*
X380573D01*
X365100Y341699D02*
X380518D01*
X357623Y333599D02*
X379930D01*
X358369Y336299D02*
X379864D01*
X358291Y334499D02*
X379551D01*
X358498Y335399D02*
X379532D01*
X349192Y331799D02*
X378517D01*
X348982Y327299D02*
X378315D01*
X348354Y330899D02*
X377428D01*
X375500Y396599D02*
X377377D01*
X348694Y328199D02*
X377365D01*
X341291Y329999D02*
X377050D01*
X347859Y329099D02*
X377032D01*
X375500Y397499D02*
X376709D01*
X375500Y398399D02*
X376502D01*
X349427Y333599D02*
X354377D01*
X345190Y337199D02*
X354166D01*
X349001Y334499D02*
X353709D01*
X346136Y336299D02*
X353631D01*
X347705Y335399D02*
X353502D01*
X341498Y330899D02*
X345646D01*
X340623Y329099D02*
X345141D01*
X341369Y331799D02*
X344808D01*
X308477Y328199D02*
X344306D01*
X274033Y327299D02*
X344018D01*
X340834Y332699D02*
X343023D01*
X331135Y337199D02*
X342810D01*
X321623Y333599D02*
X341930D01*
X330185Y336299D02*
X341864D01*
X322291Y334499D02*
X341551D01*
X322498Y335399D02*
X341532D01*
X309570Y329099D02*
X337377D01*
X308690Y332699D02*
X337166D01*
X309949Y329999D02*
X336709D01*
X309636Y331799D02*
X336631D01*
X309968Y330899D02*
X336502D01*
X322369Y336299D02*
X327815D01*
X325477Y337199D02*
X326865D01*
X321834D02*
X323523D01*
X240500Y333599D02*
X318377D01*
X240500Y337199D02*
X318166D01*
X240500Y334499D02*
X317709D01*
X240500Y336299D02*
X317631D01*
X240500Y335399D02*
X317502D01*
X240500Y338099D02*
X307728D01*
X240500Y338999D02*
X306981D01*
X240500Y393899D02*
X306900D01*
X240500Y392999D02*
X306900D01*
X240500Y392099D02*
X306900D01*
X240500Y391199D02*
X306900D01*
X240500Y390299D02*
X306900D01*
X240500Y389399D02*
X306900D01*
X240500Y388499D02*
X306900D01*
X240500Y387599D02*
X306900D01*
X240500Y386699D02*
X306900D01*
X275257Y385799D02*
X306900D01*
X277384Y384899D02*
X306900D01*
X278633Y383999D02*
X306900D01*
X279528Y383099D02*
X306900D01*
X280203Y382199D02*
X306900D01*
X280716Y381299D02*
X306900D01*
X281097Y380399D02*
X306900D01*
X281365Y379499D02*
X306900D01*
X281530Y378599D02*
X306900D01*
X281598Y377699D02*
X306900D01*
X281571Y376799D02*
X306900D01*
X281450Y375899D02*
X306900D01*
X281228Y374999D02*
X306900D01*
X280899Y374099D02*
X306900D01*
X280447Y373199D02*
X306900D01*
X279849Y372299D02*
X306900D01*
X279061Y371399D02*
X306900D01*
X277994Y370499D02*
X306900D01*
X276396Y369599D02*
X306900D01*
X276690Y368699D02*
X306900D01*
X277636Y367799D02*
X306900D01*
X277968Y366899D02*
X306900D01*
X277949Y365999D02*
X306900D01*
X277570Y365099D02*
X306900D01*
X276477Y364199D02*
X306900D01*
X301483Y363299D02*
X306900D01*
X302572Y362399D02*
X306900D01*
X302950Y361499D02*
X306900D01*
X302968Y360599D02*
X306900D01*
X302635Y359699D02*
X306900D01*
X301685Y358799D02*
X306900D01*
X240500Y357899D02*
X306900D01*
X240500Y356999D02*
X306900D01*
X240500Y356099D02*
X306900D01*
X240500Y355199D02*
X306900D01*
X240500Y354299D02*
X306900D01*
X240500Y353399D02*
X306900D01*
X240500Y352499D02*
X306900D01*
X240500Y351599D02*
X306900D01*
X240500Y350699D02*
X306900D01*
X240500Y349799D02*
X306900D01*
X240500Y348899D02*
X306900D01*
X249502Y347999D02*
X306900D01*
X250246Y347099D02*
X306900D01*
X250492Y346199D02*
X306900D01*
X250400Y345299D02*
X306900D01*
X249920Y344399D02*
X306900D01*
X240500Y343499D02*
X306900D01*
X240500Y342599D02*
X306900D01*
X240500Y341699D02*
X306900D01*
X240500Y340799D02*
X306900D01*
X240500Y339899D02*
X306900D01*
X273436Y328199D02*
X306523D01*
X240500Y332699D02*
X306310D01*
X240500Y329099D02*
X305430D01*
X240500Y331799D02*
X305364D01*
X240500Y329999D02*
X305051D01*
X240500Y330899D02*
X305032D01*
X240500Y363299D02*
X299517D01*
X240500Y358799D02*
X299315D01*
X240500Y362399D02*
X298428D01*
X240500Y359699D02*
X298365D01*
X240500Y361499D02*
X298050D01*
X240500Y360599D02*
X298032D01*
X240500Y364199D02*
X274523D01*
X240500Y368699D02*
X274310D01*
X240500Y365099D02*
X273430D01*
X240500Y367799D02*
X273364D01*
X240500Y365999D02*
X273051D01*
X240500Y366899D02*
X273032D01*
X240500Y385799D02*
X270743D01*
X240500Y328199D02*
X269964D01*
X240500Y369599D02*
X269604D01*
X242983Y327299D02*
X269367D01*
X240500Y384899D02*
X268616D01*
X240500Y370499D02*
X268006D01*
X240500Y383999D02*
X267367D01*
X240500Y371399D02*
X266939D01*
X240500Y383099D02*
X266472D01*
X240500Y372299D02*
X266151D01*
X240500Y382199D02*
X265797D01*
X240500Y373199D02*
X265553D01*
X240500Y381299D02*
X265284D01*
X240500Y374099D02*
X265101D01*
X240500Y380399D02*
X264903D01*
X240500Y374999D02*
X264772D01*
X240500Y379499D02*
X264635D01*
X240500Y375899D02*
X264550D01*
X240500Y378599D02*
X264470D01*
X240500Y376799D02*
X264429D01*
X240500Y377699D02*
X264402D01*
X240500Y347999D02*
X246498D01*
X240500Y344399D02*
X246080D01*
X240500Y347099D02*
X245754D01*
X240500Y345299D02*
X245600D01*
X240500Y346199D02*
X245508D01*
X240500Y327299D02*
X241017D01*
X316577Y317699D02*
X317423D01*
X454072Y234899D02*
X459500D01*
X454450Y233999D02*
X459500D01*
X454468Y233099D02*
X459500D01*
X454135Y232199D02*
X459500D01*
X453185Y231299D02*
X459500D01*
X365468Y230399D02*
X459500D01*
X365449Y229499D02*
X459500D01*
X365070Y228599D02*
X459500D01*
X363977Y227699D02*
X459500D01*
X361492Y226799D02*
X459500D01*
X361244Y225899D02*
X459500D01*
X360498Y224999D02*
X459500D01*
X206500Y224099D02*
X459500D01*
X356190Y223199D02*
X459500D01*
X357136Y222299D02*
X459500D01*
X410293Y221399D02*
X459500D01*
X411251Y220499D02*
X459500D01*
X411775Y219599D02*
X459500D01*
X412040Y218699D02*
X459500D01*
X412095Y217799D02*
X459500D01*
X411949Y216899D02*
X459500D01*
X411578Y215999D02*
X459500D01*
X454359Y215099D02*
X459500D01*
X455194Y214199D02*
X459500D01*
X455482Y213299D02*
X459500D01*
X455427Y212399D02*
X459500D01*
X454999Y211499D02*
X459500D01*
X453696Y210599D02*
X459500D01*
X416927Y239399D02*
X457874D01*
X452983Y235799D02*
X457668D01*
X416499Y238499D02*
X457208D01*
X206500Y236699D02*
X457132D01*
X415196Y237599D02*
X457002D01*
X442696Y210599D02*
X452304D01*
X443359Y215099D02*
X451641D01*
X206500Y235799D02*
X451017D01*
X443999Y211499D02*
X451001D01*
X365136Y231299D02*
X450815D01*
X444194Y214199D02*
X450806D01*
X444427Y212399D02*
X450573D01*
X444482Y213299D02*
X450518D01*
X206500Y234899D02*
X449928D01*
X364190Y232199D02*
X449865D01*
X206500Y233999D02*
X449550D01*
X206500Y233099D02*
X449532D01*
X390246Y210599D02*
X441304D01*
X410897Y215099D02*
X440641D01*
X389502Y211499D02*
X440001D01*
X409536Y214199D02*
X439806D01*
X206500Y212399D02*
X439573D01*
X393332Y213299D02*
X439518D01*
X439053Y323999D02*
X439500D01*
X402498Y323099D02*
X439500D01*
X433227Y322199D02*
X439500D01*
X434478Y321299D02*
X439500D01*
X435124Y320399D02*
X439500D01*
X435472Y319499D02*
X439500D01*
X435598Y318599D02*
X439500D01*
X435525Y317699D02*
X439500D01*
X435445Y309599D02*
X439500D01*
X435594Y308699D02*
X439500D01*
X435543Y307799D02*
X439500D01*
X435415Y299699D02*
X439500D01*
X435588Y298799D02*
X439500D01*
X435559Y297899D02*
X439500D01*
X435382Y289799D02*
X439500D01*
X435579Y288899D02*
X439500D01*
X435572Y287999D02*
X439500D01*
X435360Y287099D02*
X439500D01*
X427354Y279899D02*
X439500D01*
X353999Y278999D02*
X439500D01*
X352696Y278099D02*
X439500D01*
X275021Y277199D02*
X439500D01*
X353983Y276299D02*
X439500D01*
X426205Y275399D02*
X439500D01*
X427501Y274499D02*
X439500D01*
X427927Y273599D02*
X439500D01*
X427982Y272699D02*
X439500D01*
X427692Y271799D02*
X439500D01*
X426854Y270899D02*
X439500D01*
X399582Y269999D02*
X439500D01*
X401422Y269099D02*
X439500D01*
X401900Y268199D02*
X439500D01*
X401992Y267299D02*
X439500D01*
X401744Y266399D02*
X439500D01*
X400998Y265499D02*
X439500D01*
X395696Y264599D02*
X439500D01*
X393400Y263699D02*
X439500D01*
X393492Y262799D02*
X439500D01*
X393244Y261899D02*
X439500D01*
X392498Y260999D02*
X439500D01*
X370696Y260099D02*
X439500D01*
X206500Y259199D02*
X439500D01*
X206500Y258299D02*
X439500D01*
X206500Y257399D02*
X439500D01*
X206500Y256499D02*
X439500D01*
X206500Y255599D02*
X439500D01*
X369105Y254699D02*
X439500D01*
X370401Y253799D02*
X439500D01*
X428626Y252899D02*
X439500D01*
X429292Y251999D02*
X439500D01*
X429498Y251099D02*
X439500D01*
X429368Y250199D02*
X439500D01*
X428832Y249299D02*
X439500D01*
X415854Y248399D02*
X439500D01*
X401002Y247499D02*
X439500D01*
X401746Y246599D02*
X439500D01*
X401992Y245699D02*
X439500D01*
X401900Y244799D02*
X439500D01*
X401420Y243899D02*
X439500D01*
X382502Y242999D02*
X439500D01*
X415859Y242099D02*
X439500D01*
X416694Y241199D02*
X439500D01*
X416982Y240299D02*
X439500D01*
X435323Y296999D02*
X439395D01*
X435283Y306899D02*
X439236D01*
X435239Y316799D02*
X439092D01*
X435069Y310499D02*
X438686D01*
X435010Y300599D02*
X438583D01*
X434948Y290699D02*
X438488D01*
X434907Y286199D02*
X438431D01*
X428192Y280799D02*
X438399D01*
X434837Y296099D02*
X438345D01*
X434764Y305999D02*
X438265D01*
X434685Y315899D02*
X438189D01*
X434380Y311399D02*
X437968D01*
X434275Y301499D02*
X437911D01*
X434162Y291599D02*
X437857D01*
X434086Y285299D02*
X437825D01*
X428482Y281699D02*
X437807D01*
X433958Y295199D02*
X437777D01*
X433818Y305099D02*
X437733D01*
X433665Y314999D02*
X437691D01*
X432993Y312299D02*
X437574D01*
X432707Y302399D02*
X437545D01*
X432314Y292499D02*
X437519D01*
X431888Y284399D02*
X437504D01*
X428427Y282599D02*
X437496D01*
X360482Y294299D02*
X437482D01*
X403736Y304199D02*
X437463D01*
X413483Y314099D02*
X437447D01*
X414572Y313199D02*
X437410D01*
X404333Y303299D02*
X437404D01*
X360427Y293399D02*
X437401D01*
X428001Y283499D02*
X437400D01*
X426705Y284399D02*
X431112D01*
X359999Y292499D02*
X430686D01*
X404500Y302399D02*
X430293D01*
X414950Y312299D02*
X430007D01*
X402368Y322199D02*
X429773D01*
X377582Y314999D02*
X429335D01*
X371998Y305099D02*
X429182D01*
X360194Y295199D02*
X429042D01*
X404070Y285299D02*
X428914D01*
X358696Y291599D02*
X428838D01*
X404332Y301499D02*
X428725D01*
X414968Y311399D02*
X428620D01*
X401832Y321299D02*
X428522D01*
X420896Y315899D02*
X428315D01*
X371792Y305999D02*
X428236D01*
X403920Y296099D02*
X428163D01*
X416398Y286199D02*
X428093D01*
X414982Y290699D02*
X428052D01*
X403734Y300599D02*
X427990D01*
X416001Y310499D02*
X427931D01*
X421559Y320399D02*
X427876D01*
X422199Y316799D02*
X427761D01*
X415354Y306899D02*
X427717D01*
X404400Y296999D02*
X427677D01*
X417144Y287099D02*
X427640D01*
X416822Y289799D02*
X427618D01*
X403502Y299699D02*
X427585D01*
X416427Y309599D02*
X427555D01*
X422394Y319499D02*
X427528D01*
X422627Y317699D02*
X427475D01*
X416192Y307799D02*
X427457D01*
X404492Y297899D02*
X427441D01*
X417392Y287999D02*
X427428D01*
X417300Y288899D02*
X427421D01*
X404246Y298799D02*
X427412D01*
X416482Y308699D02*
X427406D01*
X422682Y318599D02*
X427402D01*
X415205Y252899D02*
X425374D01*
X402977Y284399D02*
X425295D01*
X416692Y249299D02*
X425168D01*
X355072Y275399D02*
X424795D01*
X416501Y251999D02*
X424708D01*
X354427Y279899D02*
X424646D01*
X416982Y250199D02*
X424632D01*
X416927Y251099D02*
X424502D01*
X355968Y270899D02*
X424146D01*
X361449Y283499D02*
X423999D01*
X354482Y280799D02*
X423808D01*
X361070Y282599D02*
X423573D01*
X359977Y281699D02*
X423518D01*
X355450Y274499D02*
X423499D01*
X355636Y271799D02*
X423308D01*
X355468Y273599D02*
X423073D01*
X355135Y272699D02*
X423018D01*
X342968Y315899D02*
X419504D01*
X341072Y320399D02*
X418841D01*
X342636Y316799D02*
X418201D01*
X341450Y319499D02*
X418006D01*
X341690Y317699D02*
X417773D01*
X341468Y318599D02*
X417718D01*
X358482Y290699D02*
X414818D01*
X391196Y237599D02*
X413804D01*
X370827Y252899D02*
X413795D01*
X404449Y286199D02*
X413402D01*
X385333Y248399D02*
X413146D01*
X391859Y242099D02*
X413141D01*
X360736Y289799D02*
X412978D01*
X404468Y287099D02*
X412656D01*
X371126Y306899D02*
X412646D01*
X392499Y238499D02*
X412501D01*
X403190Y288899D02*
X412500D01*
X370882Y251999D02*
X412499D01*
X404136Y287999D02*
X412408D01*
X384736Y249299D02*
X412308D01*
X392694Y241199D02*
X412306D01*
X392927Y239399D02*
X412073D01*
X370592Y251099D02*
X412073D01*
X369754Y250199D02*
X412018D01*
X392982Y240299D02*
X412018D01*
X356685Y307799D02*
X411808D01*
X357635Y308699D02*
X411518D01*
X379422Y314099D02*
X411517D01*
X359196Y309599D02*
X411315D01*
X379900Y313199D02*
X410428D01*
X378998Y310499D02*
X410365D01*
X379992Y312299D02*
X410050D01*
X379744Y311399D02*
X410032D01*
X399536Y214199D02*
X406464D01*
X400293Y221399D02*
X405707D01*
X400897Y215099D02*
X405103D01*
X401251Y220499D02*
X404749D01*
X401578Y215999D02*
X404422D01*
X401775Y219599D02*
X404225D01*
X401949Y216899D02*
X404051D01*
X402040Y218699D02*
X403960D01*
X402095Y217799D02*
X403905D01*
X402292Y323999D02*
X403447D01*
X401626Y324899D02*
X402517D01*
X389100Y330299D02*
X402400D01*
X389100Y329399D02*
X402400D01*
X389100Y328499D02*
X402400D01*
X389100Y327599D02*
X402400D01*
X389100Y326699D02*
X402400D01*
X389100Y325799D02*
X402400D01*
X361468Y284399D02*
X401023D01*
X361333Y288899D02*
X400810D01*
X354868Y299699D02*
X400498D01*
X354998Y300599D02*
X400266D01*
X371868Y304199D02*
X400264D01*
X359359Y296099D02*
X400080D01*
X361136Y285299D02*
X399930D01*
X361500Y287999D02*
X399864D01*
X354332Y298799D02*
X399754D01*
X354792Y301499D02*
X399668D01*
X371332Y303299D02*
X399667D01*
X356292Y296999D02*
X399600D01*
X360734Y286199D02*
X399551D01*
X361332Y287099D02*
X399532D01*
X355626Y297899D02*
X399508D01*
X354126Y302399D02*
X399500D01*
X355949Y269999D02*
X399418D01*
X388983Y324899D02*
X398374D01*
X374185Y321299D02*
X398168D01*
X396999Y265499D02*
X398002D01*
X385500Y247499D02*
X397998D01*
X388053Y323999D02*
X397708D01*
X375135Y322199D02*
X397632D01*
X382927Y243899D02*
X397580D01*
X396359Y269099D02*
X397578D01*
X375468Y323099D02*
X397502D01*
X385332Y246599D02*
X397254D01*
X382982Y244799D02*
X397100D01*
X384734Y245699D02*
X397008D01*
X393868Y214199D02*
X396464D01*
X357468Y221399D02*
X395707D01*
X393998Y215099D02*
X395103D01*
X357449Y220499D02*
X394749D01*
X393792Y215999D02*
X394422D01*
X392922Y264599D02*
X394304D01*
X357070Y219599D02*
X394225D01*
X393126Y216899D02*
X394051D01*
X355977Y218699D02*
X393960D01*
X354992Y217799D02*
X393905D01*
X355570Y269099D02*
X393641D01*
X391082Y265499D02*
X393001D01*
X355334Y268199D02*
X392806D01*
X367500Y266399D02*
X392573D01*
X355869Y267299D02*
X392518D01*
X387082Y265499D02*
X390918D01*
X354744Y216899D02*
X389874D01*
X385696Y237599D02*
X389804D01*
X206500Y213299D02*
X389668D01*
X388498Y260999D02*
X389502D01*
X350500Y206999D02*
X389500D01*
X350500Y206099D02*
X389500D01*
X350500Y205199D02*
X389500D01*
X350500Y204299D02*
X389500D01*
X350500Y203399D02*
X389500D01*
X350500Y202499D02*
X389500D01*
X350500Y201599D02*
X389500D01*
X350500Y200699D02*
X389500D01*
X350500Y199799D02*
X389500D01*
X350500Y198899D02*
X389500D01*
X350500Y197999D02*
X389500D01*
X350500Y197099D02*
X389500D01*
X350500Y196199D02*
X389500D01*
X350500Y195299D02*
X389500D01*
X350500Y194399D02*
X389500D01*
X350500Y193499D02*
X389500D01*
X350500Y192599D02*
X389500D01*
X350500Y191699D02*
X389500D01*
X350500Y190799D02*
X389500D01*
X350500Y189899D02*
X389500D01*
X350500Y188999D02*
X389500D01*
X350500Y188099D02*
X389500D01*
X350500Y187199D02*
X389500D01*
X386483Y186299D02*
X389500D01*
X387572Y185399D02*
X389500D01*
X387950Y184499D02*
X389500D01*
X387968Y183599D02*
X389500D01*
X387635Y182699D02*
X389500D01*
X386685Y181799D02*
X389500D01*
X350500Y180899D02*
X389500D01*
X350500Y179999D02*
X389500D01*
X350500Y179099D02*
X389500D01*
X350500Y178199D02*
X389500D01*
X350500Y177299D02*
X389500D01*
X350500Y176399D02*
X389500D01*
X350500Y175499D02*
X389500D01*
X350500Y174599D02*
X389500D01*
X350500Y173699D02*
X389500D01*
X350500Y172799D02*
X389500D01*
X350500Y171899D02*
X389500D01*
X350500Y170999D02*
X389500D01*
X353998Y215999D02*
X389208D01*
X386359Y242099D02*
X389141D01*
X206500Y214199D02*
X389132D01*
X388922Y264599D02*
X389078D01*
X206500Y215099D02*
X389002D01*
X386999Y238499D02*
X388501D01*
X387194Y241199D02*
X388306D01*
X387427Y239399D02*
X388073D01*
X387482Y240299D02*
X388018D01*
X378082Y265499D02*
X386918D01*
X206500Y211499D02*
X386498D01*
X350500Y207899D02*
X386080D01*
X206500Y210599D02*
X385754D01*
X350500Y208799D02*
X385600D01*
X350500Y209699D02*
X385508D01*
X379498Y260999D02*
X385502D01*
X379922Y264599D02*
X385078D01*
X380244Y261899D02*
X384756D01*
X380400Y263699D02*
X384600D01*
X350500Y186299D02*
X384517D01*
X380492Y262799D02*
X384508D01*
X350500Y181799D02*
X384315D01*
X367623Y237599D02*
X384304D01*
X383246Y242099D02*
X383641D01*
X350500Y185399D02*
X383428D01*
X350500Y182699D02*
X383365D01*
X350500Y184499D02*
X383050D01*
X350500Y183599D02*
X383032D01*
X368291Y238499D02*
X383001D01*
X333369Y249299D02*
X381264D01*
X333498Y248399D02*
X380667D01*
X333291Y247499D02*
X380500D01*
X332623Y246599D02*
X379141D01*
X378420Y239399D02*
X379080D01*
X378746Y242099D02*
X378754D01*
X378002Y242999D02*
X378501D01*
X206500Y245699D02*
X378306D01*
X206500Y243899D02*
X378073D01*
X206500Y244799D02*
X378018D01*
X368796Y265499D02*
X377918D01*
X342949Y314999D02*
X377418D01*
X371999Y260999D02*
X376502D01*
X371359Y264599D02*
X376078D01*
X360499Y310499D02*
X376002D01*
X372427Y261899D02*
X375756D01*
X372194Y263699D02*
X375600D01*
X359859Y314099D02*
X375578D01*
X372482Y262799D02*
X375508D01*
X360927Y311399D02*
X375256D01*
X360694Y313199D02*
X375100D01*
X360982Y312299D02*
X375008D01*
X373002Y242999D02*
X374998D01*
X373420Y239399D02*
X374580D01*
X373746Y242099D02*
X374254D01*
X373900Y240299D02*
X374100D01*
X373992Y241199D02*
X374008D01*
X339983Y321299D02*
X371815D01*
X321685Y322199D02*
X370865D01*
X319591Y323099D02*
X370532D01*
X206500Y242999D02*
X369998D01*
X368498Y239399D02*
X369580D01*
X358196Y260099D02*
X369304D01*
X362859Y242099D02*
X369254D01*
X368369Y240299D02*
X369100D01*
X367834Y241199D02*
X369008D01*
X359499Y260999D02*
X368001D01*
X365626Y306899D02*
X367874D01*
X206500Y254699D02*
X367695D01*
X365832Y303299D02*
X367668D01*
X366292Y305999D02*
X367208D01*
X366368Y304199D02*
X367132D01*
X332834Y250199D02*
X367046D01*
X366498Y305099D02*
X367002D01*
X206500Y253799D02*
X366399D01*
X268746Y251099D02*
X366208D01*
X355998Y266399D02*
X366090D01*
X206500Y252899D02*
X365973D01*
X268002Y251999D02*
X365918D01*
X359927Y261899D02*
X365441D01*
X355791Y265499D02*
X364794D01*
X359982Y262799D02*
X364603D01*
X362196Y237599D02*
X364377D01*
X358859Y264599D02*
X364368D01*
X359694Y263699D02*
X364313D01*
X363694Y241199D02*
X364166D01*
X363499Y238499D02*
X363709D01*
X332072Y306899D02*
X362374D01*
X331185Y303299D02*
X362168D01*
X361400Y227699D02*
X362023D01*
X206500Y232199D02*
X361810D01*
X332450Y305999D02*
X361708D01*
X332135Y304199D02*
X361632D01*
X332468Y305099D02*
X361502D01*
X360922Y228599D02*
X360930D01*
X206500Y231299D02*
X360864D01*
X286696Y237599D02*
X360804D01*
X359082Y229499D02*
X360551D01*
X206500Y230399D02*
X360532D01*
X287359Y242099D02*
X360141D01*
X287999Y238499D02*
X359501D01*
X288194Y241199D02*
X359306D01*
X288427Y239399D02*
X359073D01*
X288482Y240299D02*
X359018D01*
X206500Y229499D02*
X358918D01*
X354194Y281699D02*
X358023D01*
X206500Y224999D02*
X357502D01*
X354400Y286199D02*
X357266D01*
X342570Y314099D02*
X357141D01*
X206500Y228599D02*
X357078D01*
X353359Y282599D02*
X356930D01*
X354492Y285299D02*
X356864D01*
X206500Y260099D02*
X356804D01*
X206500Y225899D02*
X356756D01*
X353922Y287099D02*
X356668D01*
X356498Y296099D02*
X356641D01*
X206500Y227699D02*
X356600D01*
X353498Y283499D02*
X356551D01*
X354244Y284399D02*
X356532D01*
X206500Y226799D02*
X356508D01*
X352082Y287999D02*
X356500D01*
X341477Y313199D02*
X356306D01*
X355123Y264599D02*
X356141D01*
X206500Y260999D02*
X355501D01*
X206500Y263699D02*
X355306D01*
X246081Y293399D02*
X355295D01*
X206500Y261899D02*
X355073D01*
X206500Y262799D02*
X355018D01*
X331968Y288899D02*
X354646D01*
X321580Y312299D02*
X354517D01*
X330983Y307799D02*
X354315D01*
X246069Y292499D02*
X353999D01*
X344690Y223199D02*
X353810D01*
X331636Y289799D02*
X353808D01*
X272965Y291599D02*
X353573D01*
X330690Y290699D02*
X353518D01*
X322267Y311399D02*
X353428D01*
X322314Y308699D02*
X353365D01*
X322560Y310499D02*
X353050D01*
X322574Y309599D02*
X353032D01*
X345636Y222299D02*
X352864D01*
X345968Y221399D02*
X352532D01*
X346082Y220499D02*
X352418D01*
X321779Y297899D02*
X352374D01*
X272764Y294299D02*
X352168D01*
X274730Y276299D02*
X352017D01*
X331949Y287999D02*
X351918D01*
X206500Y264599D02*
X351877D01*
X320276Y296999D02*
X351708D01*
X290492Y268199D02*
X351666D01*
X273994Y295199D02*
X351632D01*
X274633Y296099D02*
X351502D01*
X331623Y269099D02*
X351430D01*
X332369Y271799D02*
X351364D01*
X275099Y278099D02*
X351304D01*
X206500Y265499D02*
X351209D01*
X290400Y267299D02*
X351131D01*
X332291Y269999D02*
X351051D01*
X332498Y270899D02*
X351032D01*
X289920Y266399D02*
X351002D01*
X347498Y215999D02*
X351002D01*
X274169Y275399D02*
X350928D01*
X321464Y302399D02*
X350874D01*
X331834Y272699D02*
X350865D01*
X322358Y298799D02*
X350668D01*
X336832Y282599D02*
X350641D01*
X347922Y219599D02*
X350578D01*
X273133Y274499D02*
X350550D01*
X206500Y273599D02*
X350532D01*
X337000Y283499D02*
X350502D01*
X348244Y216899D02*
X350256D01*
X322214Y301499D02*
X350208D01*
X322585Y299699D02*
X350132D01*
X348400Y218699D02*
X350100D01*
X331570Y287099D02*
X350078D01*
X348492Y217799D02*
X350008D01*
X322542Y300599D02*
X350002D01*
X274977Y278999D02*
X350001D01*
X336234Y281699D02*
X349806D01*
X336833Y284399D02*
X349756D01*
X330477Y286199D02*
X349600D01*
X274634Y279899D02*
X349573D01*
X273996Y280799D02*
X349518D01*
X336236Y285299D02*
X349508D01*
X206500Y215999D02*
X344502D01*
X206500Y216899D02*
X343756D01*
X206500Y217799D02*
X343508D01*
X206500Y218699D02*
X342523D01*
X206500Y223199D02*
X342310D01*
X206500Y219599D02*
X341430D01*
X206500Y222299D02*
X341364D01*
X206500Y220499D02*
X341051D01*
X206500Y221399D02*
X341032D01*
X322023Y313199D02*
X339523D01*
X322466Y314099D02*
X338430D01*
X322600Y314999D02*
X338051D01*
X322467Y315899D02*
X338032D01*
X322315Y321299D02*
X338017D01*
X322025Y316799D02*
X337815D01*
X322574Y320399D02*
X336928D01*
X321577Y317699D02*
X336865D01*
X322559Y319499D02*
X336550D01*
X322265Y318599D02*
X336532D01*
X321977Y281699D02*
X332766D01*
X323136Y285299D02*
X332764D01*
X323070Y282599D02*
X332168D01*
X323468Y284399D02*
X332167D01*
X323449Y283499D02*
X332000D01*
X206500Y246599D02*
X329377D01*
X268992Y250199D02*
X329166D01*
X321683Y307799D02*
X329017D01*
X322091Y303299D02*
X328815D01*
X228498Y247499D02*
X328709D01*
X268900Y249299D02*
X328631D01*
X322190Y286199D02*
X328523D01*
X268420Y248399D02*
X328502D01*
X290246Y269099D02*
X328377D01*
X274087Y290699D02*
X328310D01*
X206500Y272699D02*
X328166D01*
X321951Y306899D02*
X327928D01*
X322495Y304199D02*
X327865D01*
X289502Y269999D02*
X327709D01*
X206500Y271799D02*
X327631D01*
X322435Y305999D02*
X327550D01*
X322598Y305099D02*
X327532D01*
X206500Y270899D02*
X327502D01*
X275000Y287099D02*
X327430D01*
X274684Y289799D02*
X327364D01*
X275100Y287999D02*
X327051D01*
X275000Y288899D02*
X327032D01*
X272769Y281699D02*
X320023D01*
X274683Y286199D02*
X319810D01*
X314591Y323099D02*
X319409D01*
X206500Y282599D02*
X318930D01*
X274084Y285299D02*
X318864D01*
X315276Y296999D02*
X318724D01*
X206500Y283499D02*
X318551D01*
X272960Y284399D02*
X318532D01*
X316685Y322199D02*
X317315D01*
X316779Y297899D02*
X317221D01*
X286759Y323099D02*
X314409D01*
X274976Y296999D02*
X313724D01*
X226056Y302399D02*
X312536D01*
X303734Y317699D02*
X312423D01*
X304127Y312299D02*
X312420D01*
X275095Y307799D02*
X312317D01*
X287594Y322199D02*
X312315D01*
X275099Y297899D02*
X312221D01*
X274949Y306899D02*
X312049D01*
X303701Y313199D02*
X311977D01*
X304269Y316799D02*
X311975D01*
X226089Y303299D02*
X311909D01*
X273138Y301499D02*
X311786D01*
X286096Y318599D02*
X311735D01*
X304182Y311399D02*
X311733D01*
X275040Y308699D02*
X311686D01*
X287882Y321299D02*
X311685D01*
X275021Y298799D02*
X311642D01*
X274578Y305999D02*
X311565D01*
X303523Y314099D02*
X311534D01*
X304398Y315899D02*
X311533D01*
X272536Y304199D02*
X311505D01*
X274171Y300599D02*
X311458D01*
X287399Y319499D02*
X311441D01*
X303892Y310499D02*
X311440D01*
X303054Y309599D02*
X311426D01*
X287827Y320399D02*
X311426D01*
X274732Y299699D02*
X311415D01*
X273897Y305099D02*
X311402D01*
X304191Y314999D02*
X311400D01*
X274775Y309599D02*
X300346D01*
X287592Y314099D02*
X300277D01*
X268492Y317699D02*
X300066D01*
X287500Y313199D02*
X299699D01*
X287346Y314999D02*
X299609D01*
X268400Y316799D02*
X299531D01*
X274251Y310499D02*
X299508D01*
X286602Y315899D02*
X299402D01*
X287020Y312299D02*
X299273D01*
X273293Y311399D02*
X299218D01*
X206500Y269999D02*
X286498D01*
X206500Y266399D02*
X286080D01*
X206500Y269099D02*
X285754D01*
X206500Y267299D02*
X285600D01*
X206500Y268199D02*
X285508D01*
X206500Y237599D02*
X285304D01*
X268246Y318599D02*
X284704D01*
X206500Y242099D02*
X284641D01*
X277327Y323099D02*
X284041D01*
X206500Y238499D02*
X284001D01*
X206500Y241199D02*
X283806D01*
X267920Y315899D02*
X283598D01*
X206500Y239399D02*
X283573D01*
X206500Y240299D02*
X283518D01*
X267502Y319499D02*
X283401D01*
X276899Y322199D02*
X283206D01*
X234400Y312299D02*
X283180D01*
X206500Y320399D02*
X282973D01*
X275596Y321299D02*
X282918D01*
X238498Y314999D02*
X282854D01*
X234492Y313199D02*
X282700D01*
X234246Y314099D02*
X282608D01*
X206500Y209699D02*
X279500D01*
X206500Y208799D02*
X279500D01*
X206500Y207899D02*
X279500D01*
X206500Y206999D02*
X279500D01*
X206500Y206099D02*
X279500D01*
X206500Y205199D02*
X279500D01*
X206500Y204299D02*
X279500D01*
X206500Y203399D02*
X279500D01*
X206500Y202499D02*
X279500D01*
X206500Y201599D02*
X279500D01*
X206500Y200699D02*
X279500D01*
X206500Y199799D02*
X279500D01*
X206500Y198899D02*
X279500D01*
X206500Y197999D02*
X279500D01*
X206500Y197099D02*
X279500D01*
X206500Y196199D02*
X279500D01*
X252483Y195299D02*
X279500D01*
X253572Y194399D02*
X279500D01*
X253950Y193499D02*
X279500D01*
X253968Y192599D02*
X279500D01*
X267334Y191699D02*
X279500D01*
X267869Y190799D02*
X279500D01*
X271126Y189899D02*
X279500D01*
X271792Y188999D02*
X279500D01*
X271998Y188099D02*
X279500D01*
X271868Y187199D02*
X279500D01*
X271332Y186299D02*
X279500D01*
X251626Y185399D02*
X279500D01*
X252292Y184499D02*
X279500D01*
X252498Y183599D02*
X279500D01*
X252368Y182699D02*
X279500D01*
X251832Y181799D02*
X279500D01*
X252072Y180899D02*
X279500D01*
X275002Y179999D02*
X279500D01*
X275746Y179099D02*
X279500D01*
X275992Y178199D02*
X279500D01*
X275900Y177299D02*
X279500D01*
X275420Y176399D02*
X279500D01*
X206500Y175499D02*
X279500D01*
X206500Y174599D02*
X279500D01*
X206500Y173699D02*
X279500D01*
X206500Y172799D02*
X279500D01*
X206500Y171899D02*
X279500D01*
X259002Y170999D02*
X279500D01*
X259746Y170099D02*
X279500D01*
X259992Y169199D02*
X279500D01*
X259900Y168299D02*
X279500D01*
X272705Y167399D02*
X279500D01*
X274001Y166499D02*
X279500D01*
X274427Y165599D02*
X279500D01*
X274482Y164699D02*
X279500D01*
X274192Y163799D02*
X279500D01*
X273354Y162899D02*
X279500D01*
X269001Y161999D02*
X279500D01*
X269427Y161099D02*
X279500D01*
X269482Y160199D02*
X279500D01*
X269192Y159299D02*
X279500D01*
X268354Y158399D02*
X279500D01*
X206500Y157499D02*
X279500D01*
X206500Y156599D02*
X279500D01*
X206500Y155699D02*
X279500D01*
X206500Y154799D02*
X279500D01*
X206500Y153899D02*
X279500D01*
X206500Y152999D02*
X279500D01*
X206500Y152099D02*
X279500D01*
X206500Y151199D02*
X279500D01*
X206500Y150299D02*
X279500D01*
X206500Y149399D02*
X279500D01*
X206500Y148499D02*
X279500D01*
X206500Y147599D02*
X279500D01*
X206500Y146699D02*
X279500D01*
X271236Y145799D02*
X279500D01*
X271833Y144899D02*
X279500D01*
X272000Y143999D02*
X279500D01*
X271832Y143099D02*
X279500D01*
X271234Y142199D02*
X279500D01*
X206500Y141299D02*
X279500D01*
X206500Y140399D02*
X279500D01*
X206500Y139499D02*
X279500D01*
X206500Y138599D02*
X279500D01*
X206500Y137699D02*
X279500D01*
X206500Y136799D02*
X279500D01*
X206500Y135899D02*
X279500D01*
X206500Y134999D02*
X279500D01*
X206500Y134099D02*
X279500D01*
X206500Y133199D02*
X279500D01*
X206500Y132299D02*
X279500D01*
X206500Y131399D02*
X279500D01*
X206500Y321299D02*
X274204D01*
X206500Y322199D02*
X272901D01*
X215500Y323099D02*
X272473D01*
X252450Y179999D02*
X271998D01*
X206500Y176399D02*
X271580D01*
X259420Y167399D02*
X271295D01*
X252468Y179099D02*
X271254D01*
X251185Y177299D02*
X271100D01*
X252135Y178199D02*
X271008D01*
X267705Y162899D02*
X270646D01*
X254791Y166499D02*
X269999D01*
X240369Y163799D02*
X269808D01*
X254123Y165599D02*
X269573D01*
X239834Y164699D02*
X269518D01*
X225921Y304199D02*
X269464D01*
X245889Y294299D02*
X269236D01*
X206500Y281699D02*
X269231D01*
X206500Y284399D02*
X269040D01*
X245853Y291599D02*
X269035D01*
X206500Y274499D02*
X268867D01*
X225815Y301499D02*
X268862D01*
X233920Y311399D02*
X268707D01*
X225522Y305099D02*
X268103D01*
X245461Y295199D02*
X268006D01*
X206500Y280799D02*
X268004D01*
X206500Y285299D02*
X267916D01*
X245393Y290699D02*
X267913D01*
X206500Y275399D02*
X267831D01*
X225323Y300599D02*
X267829D01*
X206500Y142199D02*
X267766D01*
X206500Y145799D02*
X267764D01*
X206500Y310499D02*
X267749D01*
X206500Y186299D02*
X267668D01*
X224796Y305999D02*
X267422D01*
X244685Y296099D02*
X267367D01*
X206500Y279899D02*
X267366D01*
X206500Y286199D02*
X267317D01*
X244562Y289799D02*
X267316D01*
X206500Y276299D02*
X267270D01*
X224431Y299699D02*
X267268D01*
X206500Y309599D02*
X267225D01*
X206500Y143099D02*
X267168D01*
X206500Y144899D02*
X267167D01*
X206500Y187199D02*
X267132D01*
X223269Y306899D02*
X267051D01*
X242906Y296999D02*
X267024D01*
X206500Y278999D02*
X267023D01*
X206500Y287099D02*
X267000D01*
X206500Y143999D02*
X267000D01*
X206500Y288899D02*
X267000D01*
X206500Y277199D02*
X266979D01*
X206500Y298799D02*
X266979D01*
X206500Y308699D02*
X266960D01*
X206500Y307799D02*
X266905D01*
X206500Y297899D02*
X266901D01*
X206500Y278099D02*
X266901D01*
X206500Y287999D02*
X266900D01*
X240498Y162899D02*
X266295D01*
X206500Y158399D02*
X265646D01*
X240291Y161999D02*
X264999D01*
X227082Y251999D02*
X264998D01*
X206500Y159299D02*
X264808D01*
X229244Y248399D02*
X264580D01*
X239623Y161099D02*
X264573D01*
X206500Y160199D02*
X264518D01*
X237082Y319499D02*
X264498D01*
X228922Y251099D02*
X264254D01*
X229492Y249299D02*
X264100D01*
X239244Y315899D02*
X264080D01*
X229400Y250199D02*
X264008D01*
X206500Y188099D02*
X263877D01*
X238922Y318599D02*
X263754D01*
X253635Y191699D02*
X263666D01*
X239492Y316799D02*
X263600D01*
X239400Y317699D02*
X263508D01*
X206500Y188999D02*
X263209D01*
X252685Y190799D02*
X263131D01*
X206500Y189899D02*
X263002D01*
X206500Y170999D02*
X255998D01*
X254998Y167399D02*
X255580D01*
X206500Y170099D02*
X255254D01*
X254869Y168299D02*
X255100D01*
X254334Y169199D02*
X255008D01*
X206500Y165599D02*
X250877D01*
X206500Y169199D02*
X250666D01*
X206500Y195299D02*
X250517D01*
X206500Y190799D02*
X250315D01*
X206500Y166499D02*
X250209D01*
X206500Y168299D02*
X250131D01*
X206500Y167399D02*
X250002D01*
X206500Y194399D02*
X249428D01*
X206500Y191699D02*
X249365D01*
X206500Y193499D02*
X249050D01*
X206500Y192599D02*
X249032D01*
X206500Y177299D02*
X248815D01*
X206500Y185399D02*
X248374D01*
X206500Y181799D02*
X248168D01*
X206500Y180899D02*
X247928D01*
X206500Y178199D02*
X247865D01*
X206500Y184499D02*
X247708D01*
X206500Y182699D02*
X247632D01*
X206500Y179999D02*
X247550D01*
X206500Y179099D02*
X247532D01*
X206500Y183599D02*
X247502D01*
X232906Y296999D02*
X241094D01*
X215500Y323999D02*
X239947D01*
X234562Y289799D02*
X239438D01*
X234685Y296099D02*
X239315D01*
X215500Y324899D02*
X239017D01*
X235393Y290699D02*
X238607D01*
X235461Y295199D02*
X238539D01*
X235853Y291599D02*
X238147D01*
X235889Y294299D02*
X238111D01*
X236069Y292499D02*
X237931D01*
X236081Y293399D02*
X237919D01*
X206500Y319499D02*
X236918D01*
X206500Y161099D02*
X236377D01*
X206500Y164699D02*
X236166D01*
X206500Y161999D02*
X235709D01*
X206500Y163799D02*
X235631D01*
X206500Y162899D02*
X235502D01*
X233502Y314999D02*
X235502D01*
X207922Y318599D02*
X235078D01*
X208244Y315899D02*
X234756D01*
X208400Y317699D02*
X234600D01*
X208492Y316799D02*
X234508D01*
X206500Y296999D02*
X231094D01*
X207498Y314999D02*
X230498D01*
X206500Y311399D02*
X230080D01*
X206500Y314099D02*
X229754D01*
X206500Y312299D02*
X229600D01*
X206500Y313199D02*
X229508D01*
X206500Y289799D02*
X229438D01*
X206500Y296099D02*
X229315D01*
X206500Y290699D02*
X228607D01*
X206500Y295199D02*
X228539D01*
X206500Y291599D02*
X228147D01*
X206500Y294299D02*
X228111D01*
X206500Y292499D02*
X227931D01*
X206500Y293399D02*
X227919D01*
X206500Y251999D02*
X226918D01*
X206500Y247499D02*
X225502D01*
X206500Y251099D02*
X225078D01*
X206500Y248399D02*
X224756D01*
X206500Y250199D02*
X224600D01*
X206500Y249299D02*
X224508D01*
X213269Y306899D02*
X220731D01*
X214431Y299699D02*
X219569D01*
X214796Y305999D02*
X219204D01*
X215323Y300599D02*
X218677D01*
X215522Y305099D02*
X218478D01*
X215815Y301499D02*
X218185D01*
X215921Y304199D02*
X218079D01*
X216056Y302399D02*
X217944D01*
X216089Y303299D02*
X217911D01*
X206500Y306899D02*
X210731D01*
X206500Y299699D02*
X209569D01*
X206500Y305999D02*
X209204D01*
X206500Y300599D02*
X208677D01*
X206500Y305099D02*
X208478D01*
X206500Y301499D02*
X208185D01*
X206500Y304199D02*
X208079D01*
X206500Y302399D02*
X207944D01*
X206500Y303299D02*
X207911D01*
X342059Y426299D02*
X491900D01*
X342894Y425399D02*
X491900D01*
X343182Y424499D02*
X491900D01*
X486965Y423599D02*
X491900D01*
X488087Y422699D02*
X491900D01*
X488684Y421799D02*
X491900D01*
X489000Y420899D02*
X491900D01*
X489100Y419999D02*
X491900D01*
X489000Y419099D02*
X491900D01*
X488683Y418199D02*
X491900D01*
X488084Y417299D02*
X491900D01*
X486960Y416399D02*
X491900D01*
X457854Y415499D02*
X491900D01*
X457537Y414599D02*
X491900D01*
X456999Y413699D02*
X491900D01*
X456127Y412799D02*
X491900D01*
X454396Y411899D02*
X491900D01*
X360768Y410999D02*
X491900D01*
X480255Y410099D02*
X491900D01*
X483022Y409199D02*
X491900D01*
X484516Y408299D02*
X491900D01*
X485594Y407399D02*
X491900D01*
X486427Y406499D02*
X491900D01*
X487086Y405599D02*
X491900D01*
X487610Y404699D02*
X491900D01*
X488020Y403799D02*
X491900D01*
X488332Y402899D02*
X491900D01*
X488553Y401999D02*
X491900D01*
X488691Y401099D02*
X491900D01*
X488748Y400199D02*
X491900D01*
X488726Y399299D02*
X491900D01*
X488624Y398399D02*
X491900D01*
X488440Y397499D02*
X491900D01*
X488169Y396599D02*
X491900D01*
X487804Y395699D02*
X491900D01*
X487332Y394799D02*
X491900D01*
X486736Y393899D02*
X491900D01*
X485986Y392999D02*
X491900D01*
X485029Y392099D02*
X491900D01*
X483754Y391199D02*
X491900D01*
X481809Y390299D02*
X491900D01*
X394600Y389399D02*
X491900D01*
X394600Y388499D02*
X491900D01*
X394600Y387599D02*
X491900D01*
X394600Y386699D02*
X491900D01*
X394600Y385799D02*
X491900D01*
X394600Y384899D02*
X491900D01*
X394600Y383999D02*
X491900D01*
X394600Y383099D02*
X491900D01*
X394600Y382199D02*
X491900D01*
X394600Y381299D02*
X491900D01*
X394600Y380399D02*
X491900D01*
X394600Y379499D02*
X491900D01*
X394600Y378599D02*
X491900D01*
X394600Y377699D02*
X491900D01*
X394600Y376799D02*
X491900D01*
X394600Y375899D02*
X491900D01*
X394600Y374999D02*
X491900D01*
X394600Y374099D02*
X491900D01*
X394600Y373199D02*
X491900D01*
X394600Y372299D02*
X491900D01*
X394600Y371399D02*
X491900D01*
X394600Y370499D02*
X491900D01*
X394600Y369599D02*
X491900D01*
X394600Y368699D02*
X491900D01*
X394600Y367799D02*
X491900D01*
X394600Y366899D02*
X491900D01*
X394600Y365999D02*
X491900D01*
X394600Y365099D02*
X491900D01*
X394600Y364199D02*
X491900D01*
X394600Y363299D02*
X491900D01*
X394600Y362399D02*
X491900D01*
X485002Y361499D02*
X491900D01*
X485746Y360599D02*
X491900D01*
X485992Y359699D02*
X491900D01*
X485900Y358799D02*
X491900D01*
X485420Y357899D02*
X491900D01*
X439750Y356999D02*
X491900D01*
X440097Y356099D02*
X491900D01*
X440100Y355199D02*
X491900D01*
X440100Y354299D02*
X491900D01*
X483982Y353399D02*
X491900D01*
X485822Y352499D02*
X491900D01*
X486300Y351599D02*
X491900D01*
X486392Y350699D02*
X491900D01*
X486144Y349799D02*
X491900D01*
X485398Y348899D02*
X491900D01*
X465580Y347999D02*
X491900D01*
X465950Y347099D02*
X491900D01*
X491783Y346199D02*
X491900D01*
X440100Y340799D02*
X491900D01*
X440100Y339899D02*
X491900D01*
X485834Y338999D02*
X491900D01*
X486369Y338099D02*
X491900D01*
X486498Y337199D02*
X491900D01*
X486291Y336299D02*
X491900D01*
X485623Y335399D02*
X491900D01*
X456251Y334499D02*
X491900D01*
X456550Y333599D02*
X491900D01*
X456690Y332699D02*
X491900D01*
X456682Y331799D02*
X491900D01*
X466590Y330899D02*
X491900D01*
X484160Y329999D02*
X491900D01*
X485640Y329099D02*
X491900D01*
X486382Y328199D02*
X491900D01*
X486807Y327299D02*
X491900D01*
X487009Y326399D02*
X491900D01*
X487018Y325499D02*
X491900D01*
X486838Y324599D02*
X491900D01*
X486439Y323699D02*
X491900D01*
X485738Y322799D02*
X491900D01*
X484399Y321899D02*
X491900D01*
X473464Y320999D02*
X491900D01*
X483847Y320099D02*
X491900D01*
X485528Y319199D02*
X491900D01*
X486318Y318299D02*
X491900D01*
X486772Y317399D02*
X491900D01*
X486996Y316499D02*
X491900D01*
X487026Y315599D02*
X491900D01*
X486868Y314699D02*
X491900D01*
X486496Y313799D02*
X491900D01*
X485837Y312899D02*
X491900D01*
X484615Y311999D02*
X491900D01*
X444837Y311099D02*
X491900D01*
X443958Y310199D02*
X491900D01*
X441100Y309299D02*
X491900D01*
X441100Y308399D02*
X491900D01*
X442314Y307499D02*
X491900D01*
X444162Y306599D02*
X491900D01*
X444948Y305699D02*
X491900D01*
X445382Y304799D02*
X491900D01*
X445579Y303899D02*
X491900D01*
X445572Y302999D02*
X491900D01*
X445360Y302099D02*
X491900D01*
X444907Y301199D02*
X491900D01*
X444086Y300299D02*
X491900D01*
X441888Y299399D02*
X491900D01*
X441100Y298499D02*
X491900D01*
X441100Y297599D02*
X491900D01*
X444040Y296699D02*
X491900D01*
X444882Y295799D02*
X491900D01*
X445347Y294899D02*
X491900D01*
X445567Y293999D02*
X491900D01*
X445582Y293099D02*
X491900D01*
X445395Y292199D02*
X491900D01*
X444971Y291299D02*
X491900D01*
X483375Y290399D02*
X491900D01*
X485404Y289499D02*
X491900D01*
X486248Y288599D02*
X491900D01*
X486732Y287699D02*
X491900D01*
X486980Y286799D02*
X491900D01*
X487032Y285899D02*
X491900D01*
X486896Y284999D02*
X491900D01*
X486551Y284099D02*
X491900D01*
X485932Y283199D02*
X491900D01*
X484811Y282299D02*
X491900D01*
X473308Y281399D02*
X491900D01*
X473624Y280499D02*
X491900D01*
X485274Y279599D02*
X491900D01*
X486176Y278699D02*
X491900D01*
X486691Y277799D02*
X491900D01*
X486963Y276899D02*
X491900D01*
X487036Y275999D02*
X491900D01*
X486921Y275099D02*
X491900D01*
X486601Y274199D02*
X491900D01*
X486018Y273299D02*
X491900D01*
X484980Y272399D02*
X491900D01*
X468894Y271499D02*
X491900D01*
X456631Y270599D02*
X491900D01*
X456704Y269699D02*
X491900D01*
X456631Y268799D02*
X491900D01*
X456404Y267899D02*
X491900D01*
X456003Y266999D02*
X491900D01*
X455379Y266099D02*
X491900D01*
X454406Y265199D02*
X491900D01*
X468736Y264299D02*
X491900D01*
X469333Y263399D02*
X491900D01*
X469500Y262499D02*
X491900D01*
X469332Y261599D02*
X491900D01*
X468734Y260699D02*
X491900D01*
X441100Y259799D02*
X491900D01*
X441100Y258899D02*
X491900D01*
X441100Y257999D02*
X491900D01*
X441100Y257099D02*
X491900D01*
X441100Y256199D02*
X491900D01*
X441100Y255299D02*
X491900D01*
X441100Y254399D02*
X491900D01*
X441100Y253499D02*
X491900D01*
X467859Y252599D02*
X491900D01*
X468694Y251699D02*
X491900D01*
X468982Y250799D02*
X491900D01*
X468927Y249899D02*
X491900D01*
X468499Y248999D02*
X491900D01*
X467196Y248099D02*
X491900D01*
X441100Y247199D02*
X491900D01*
X441100Y246299D02*
X491900D01*
X441100Y245399D02*
X491900D01*
X441100Y244499D02*
X491900D01*
X441100Y243599D02*
X491900D01*
X441100Y242699D02*
X491900D01*
X441100Y241799D02*
X491900D01*
X460277Y240899D02*
X491900D01*
X487502Y239999D02*
X491900D01*
X488246Y239099D02*
X491900D01*
X488492Y238199D02*
X491900D01*
X488400Y237299D02*
X491900D01*
X487920Y236399D02*
X491900D01*
X467998Y235499D02*
X491900D01*
X461100Y234599D02*
X491900D01*
X461100Y233699D02*
X491900D01*
X461100Y232799D02*
X491900D01*
X461100Y231899D02*
X491900D01*
X461100Y230999D02*
X491900D01*
X461100Y230099D02*
X491900D01*
X461100Y229199D02*
X491900D01*
X461100Y228299D02*
X491900D01*
X461100Y227399D02*
X491900D01*
X461100Y226499D02*
X491900D01*
X461100Y225599D02*
X491900D01*
X461100Y224699D02*
X491900D01*
X465736Y223799D02*
X491900D01*
X466333Y222899D02*
X491900D01*
X466500Y221999D02*
X491900D01*
X466332Y221099D02*
X491900D01*
X465734Y220199D02*
X491900D01*
X461100Y219299D02*
X491900D01*
X461100Y218399D02*
X491900D01*
X461100Y217499D02*
X491900D01*
X461100Y216599D02*
X491900D01*
X461100Y215699D02*
X491900D01*
X461100Y214799D02*
X491900D01*
X461100Y213899D02*
X491900D01*
X461100Y212999D02*
X491900D01*
X461100Y212099D02*
X491900D01*
X461100Y211199D02*
X491900D01*
X461087Y210299D02*
X491900D01*
X460661Y209399D02*
X491900D01*
X391100Y208499D02*
X491900D01*
X391100Y207599D02*
X491900D01*
X391100Y206699D02*
X491900D01*
X391100Y205799D02*
X491900D01*
X391100Y204899D02*
X491900D01*
X391100Y203999D02*
X491900D01*
X391100Y203099D02*
X491900D01*
X391100Y202199D02*
X491900D01*
X391100Y201299D02*
X491900D01*
X391100Y200399D02*
X491900D01*
X391100Y199499D02*
X491900D01*
X391100Y198599D02*
X491900D01*
X391100Y197699D02*
X491900D01*
X391100Y196799D02*
X491900D01*
X391100Y195899D02*
X491900D01*
X391100Y194999D02*
X491900D01*
X391100Y194099D02*
X491900D01*
X391100Y193199D02*
X491900D01*
X391100Y192299D02*
X491900D01*
X391100Y191399D02*
X491900D01*
X391100Y190499D02*
X491900D01*
X391100Y189599D02*
X491900D01*
X391100Y188699D02*
X491900D01*
X391100Y187799D02*
X491900D01*
X391100Y186899D02*
X491900D01*
X442002Y185999D02*
X491900D01*
X442746Y185099D02*
X491900D01*
X442992Y184199D02*
X491900D01*
X442900Y183299D02*
X491900D01*
X442420Y182399D02*
X491900D01*
X391100Y181499D02*
X491900D01*
X391100Y180599D02*
X491900D01*
X414334Y179699D02*
X491900D01*
X414869Y178799D02*
X491900D01*
X487077Y177899D02*
X491900D01*
X488272Y176999D02*
X491900D01*
X488972Y176099D02*
X491900D01*
X489403Y175199D02*
X491900D01*
X489636Y174299D02*
X491900D01*
X489699Y173399D02*
X491900D01*
X489599Y172499D02*
X491900D01*
X489324Y171599D02*
X491900D01*
X488842Y170699D02*
X491900D01*
X488062Y169799D02*
X491900D01*
X486657Y168899D02*
X491900D01*
X443001Y167999D02*
X491900D01*
X443427Y167099D02*
X491900D01*
X443482Y166199D02*
X491900D01*
X443192Y165299D02*
X491900D01*
X442354Y164399D02*
X491900D01*
X436500Y163499D02*
X491900D01*
X436332Y162599D02*
X491900D01*
X486410Y161699D02*
X491900D01*
X487951Y160799D02*
X491900D01*
X488774Y159899D02*
X491900D01*
X489283Y158999D02*
X491900D01*
X489578Y158099D02*
X491900D01*
X489696Y157199D02*
X491900D01*
X489651Y156299D02*
X491900D01*
X489437Y155399D02*
X491900D01*
X489029Y154499D02*
X491900D01*
X488365Y153599D02*
X491900D01*
X487249Y152699D02*
X491900D01*
X421692Y151799D02*
X491900D01*
X420854Y150899D02*
X491900D01*
X320949Y149999D02*
X491900D01*
X320570Y149099D02*
X491900D01*
X319477Y148199D02*
X491900D01*
X281100Y147299D02*
X491900D01*
X281100Y146399D02*
X491900D01*
X281100Y145499D02*
X491900D01*
X281100Y144599D02*
X491900D01*
X281100Y143699D02*
X491900D01*
X281100Y142799D02*
X491900D01*
X281100Y141899D02*
X491900D01*
X281100Y140999D02*
X491900D01*
X281100Y140099D02*
X491900D01*
X281100Y139199D02*
X491900D01*
X281100Y138299D02*
X491900D01*
X281100Y137399D02*
X491900D01*
X281100Y136499D02*
X491900D01*
X281100Y135599D02*
X491900D01*
X346210Y134699D02*
X491900D01*
X347751Y133799D02*
X491900D01*
X348574Y132899D02*
X491900D01*
X349083Y131999D02*
X491900D01*
X349378Y131099D02*
X491900D01*
X477525Y130199D02*
X491900D01*
X480812Y129299D02*
X491900D01*
X482376Y128399D02*
X491900D01*
X483488Y127499D02*
X491900D01*
X484343Y126599D02*
X491900D01*
X485020Y125699D02*
X491900D01*
X485557Y124799D02*
X491900D01*
X485980Y123899D02*
X491900D01*
X486302Y122999D02*
X491900D01*
X486533Y122099D02*
X491900D01*
X486680Y121199D02*
X491900D01*
X486746Y120299D02*
X491900D01*
X486732Y119399D02*
X491900D01*
X486639Y118499D02*
X491900D01*
X486465Y117599D02*
X491900D01*
X486204Y116699D02*
X491900D01*
X485849Y115799D02*
X491900D01*
X485390Y114899D02*
X491900D01*
X484809Y113999D02*
X491900D01*
X484079Y113099D02*
X491900D01*
X483148Y112199D02*
X491900D01*
X481918Y111299D02*
X491900D01*
X480089Y110399D02*
X491900D01*
X349354Y109499D02*
X491900D01*
X349491Y108599D02*
X491900D01*
X349464Y107699D02*
X491900D01*
X349269Y106799D02*
X491900D01*
X348886Y105899D02*
X491900D01*
X348255Y104999D02*
X491900D01*
X347211Y104099D02*
X491900D01*
X101100Y103199D02*
X491900D01*
X101100Y102299D02*
X491900D01*
X101100Y101399D02*
X491900D01*
X466095Y346199D02*
X489817D01*
X440100Y341699D02*
X489615D01*
X466040Y345299D02*
X488728D01*
X464289Y342599D02*
X488665D01*
X465774Y344399D02*
X488350D01*
X465249Y343499D02*
X488332D01*
X466582Y239999D02*
X484498D01*
X468744Y236399D02*
X484080D01*
X440100Y353399D02*
X483818D01*
X468422Y239099D02*
X483754D01*
X468992Y237299D02*
X483600D01*
X468900Y238199D02*
X483508D01*
X476960Y416399D02*
X483040D01*
X476965Y423599D02*
X483035D01*
X464710Y161699D02*
X482990D01*
X464957Y168899D02*
X482743D01*
X464900Y348899D02*
X482402D01*
X455760Y335399D02*
X482377D01*
X465377Y177899D02*
X482323D01*
X447459Y338999D02*
X482166D01*
X465549Y152699D02*
X482151D01*
X394600Y361499D02*
X481998D01*
X444204Y290399D02*
X481987D01*
X440100Y352499D02*
X481978D01*
X478084Y417299D02*
X481916D01*
X478087Y422699D02*
X481913D01*
X455006Y336299D02*
X481709D01*
X463543Y349799D02*
X481656D01*
X448294Y338099D02*
X481631D01*
X394600Y357899D02*
X481580D01*
X473071Y320099D02*
X481516D01*
X453771Y337199D02*
X481502D01*
X440100Y351599D02*
X481500D01*
X466251Y160799D02*
X481449D01*
X440100Y350699D02*
X481408D01*
X466362Y169799D02*
X481338D01*
X478683Y418199D02*
X481317D01*
X478684Y421799D02*
X481316D01*
X394600Y360599D02*
X481254D01*
X470038Y329999D02*
X481202D01*
X466572Y176999D02*
X481128D01*
X394600Y358799D02*
X481100D01*
X466665Y153599D02*
X481035D01*
X394600Y359699D02*
X481008D01*
X479000Y419099D02*
X481000D01*
X479000Y420899D02*
X481000D01*
X473724Y321899D02*
X480963D01*
X479100Y419999D02*
X480900D01*
X445323Y311999D02*
X480747D01*
X467074Y159899D02*
X480626D01*
X467142Y170699D02*
X480558D01*
X472850Y282299D02*
X480551D01*
X467272Y176099D02*
X480428D01*
X470686Y272399D02*
X480382D01*
X467329Y154499D02*
X480371D01*
X467583Y158999D02*
X480117D01*
X473817Y279599D02*
X480088D01*
X467624Y171599D02*
X480076D01*
X467703Y175199D02*
X479997D01*
X467737Y155399D02*
X479963D01*
X442478Y289499D02*
X479959D01*
X472521Y319199D02*
X479835D01*
X467878Y158099D02*
X479822D01*
X467899Y172499D02*
X479801D01*
X467936Y174299D02*
X479764D01*
X467951Y156299D02*
X479749D01*
X471338Y329099D02*
X479723D01*
X467996Y157199D02*
X479704D01*
X467999Y173399D02*
X479701D01*
X473866Y322799D02*
X479624D01*
X445559Y312899D02*
X479526D01*
X472216Y283199D02*
X479431D01*
X471763Y273299D02*
X479344D01*
X473897Y278699D02*
X479186D01*
X441100Y288599D02*
X479114D01*
X471763Y318299D02*
X479044D01*
X472216Y328199D02*
X478980D01*
X473897Y323699D02*
X478923D01*
X445588Y313799D02*
X478866D01*
X471338Y284099D02*
X478811D01*
X472521Y274199D02*
X478761D01*
X473866Y277799D02*
X478671D01*
X441100Y287699D02*
X478630D01*
X470686Y317399D02*
X478591D01*
X472850Y327299D02*
X478555D01*
X473817Y324599D02*
X478525D01*
X445415Y314699D02*
X478495D01*
X470038Y284999D02*
X478466D01*
X473071Y275099D02*
X478441D01*
X473724Y276899D02*
X478399D01*
X443908Y286799D02*
X478382D01*
X468894Y316499D02*
X478366D01*
X473308Y326399D02*
X478354D01*
X473624Y325499D02*
X478344D01*
X445010Y315599D02*
X478336D01*
X466590Y285899D02*
X478330D01*
X473464Y275999D02*
X478326D01*
X360232Y410099D02*
X476745D01*
X349496Y130199D02*
X475475D01*
X454702Y390299D02*
X475191D01*
X349434Y409199D02*
X473978D01*
X456248Y391199D02*
X473246D01*
X457991Y416399D02*
X473040D01*
X384965Y423599D02*
X473035D01*
X349038Y110399D02*
X472911D01*
X349969Y408299D02*
X472484D01*
X349451Y129299D02*
X472188D01*
X457072Y392099D02*
X471971D01*
X457964Y417299D02*
X471916D01*
X386087Y422699D02*
X471913D01*
X350098Y407399D02*
X471406D01*
X457770Y418199D02*
X471317D01*
X386684Y421799D02*
X471316D01*
X348501Y111299D02*
X471082D01*
X457582Y392999D02*
X471014D01*
X457387Y419099D02*
X471000D01*
X455715Y420899D02*
X471000D01*
X456758Y419999D02*
X470900D01*
X349237Y128399D02*
X470624D01*
X349891Y406499D02*
X470573D01*
X457877Y393899D02*
X470264D01*
X349223Y405599D02*
X469914D01*
X347631Y112199D02*
X469852D01*
X457996Y394799D02*
X469668D01*
X348829Y127499D02*
X469512D01*
X323782Y404699D02*
X469390D01*
X457951Y395699D02*
X469196D01*
X323727Y403799D02*
X468980D01*
X345905Y113099D02*
X468921D01*
X457738Y396599D02*
X468831D01*
X323299Y402899D02*
X468668D01*
X348165Y126599D02*
X468657D01*
X457331Y397499D02*
X468560D01*
X353502Y401999D02*
X468447D01*
X456667Y398399D02*
X468376D01*
X354246Y401099D02*
X468309D01*
X455554Y399299D02*
X468274D01*
X386834Y400199D02*
X468252D01*
X226791Y113999D02*
X468191D01*
X347049Y125699D02*
X467980D01*
X226998Y114899D02*
X467610D01*
X125557Y124799D02*
X467443D01*
X265506Y115799D02*
X467151D01*
X262626Y123899D02*
X467020D01*
X266221Y116699D02*
X466796D01*
X263292Y122999D02*
X466698D01*
X266505Y117599D02*
X466535D01*
X263498Y122099D02*
X466467D01*
X463082Y239999D02*
X466418D01*
X456525Y330899D02*
X466410D01*
X444811Y285899D02*
X466410D01*
X266489Y118499D02*
X466361D01*
X263368Y121199D02*
X466320D01*
X266169Y119399D02*
X466268D01*
X265383Y120299D02*
X466254D01*
X463696Y248099D02*
X465804D01*
X441100Y260699D02*
X465266D01*
X452456Y264299D02*
X465264D01*
X464359Y252599D02*
X465141D01*
X464498Y235499D02*
X465002D01*
X441100Y261599D02*
X464668D01*
X441100Y263399D02*
X464667D01*
X441100Y262499D02*
X464500D01*
X444275Y316499D02*
X464106D01*
X456406Y271499D02*
X464106D01*
X456206Y329999D02*
X462962D01*
X445309Y284999D02*
X462962D01*
X461020Y239999D02*
X462918D01*
X442707Y317399D02*
X462314D01*
X456006Y272399D02*
X462314D01*
X460196Y248099D02*
X462304D01*
X461100Y220199D02*
X462266D01*
X461100Y223799D02*
X462264D01*
X461100Y221099D02*
X461668D01*
X461100Y222899D02*
X461667D01*
X455691Y329099D02*
X461662D01*
X445553Y284099D02*
X461662D01*
X460859Y252599D02*
X461641D01*
X461100Y235499D02*
X461502D01*
X461100Y221999D02*
X461500D01*
X435734Y161699D02*
X461290D01*
X441100Y318299D02*
X461237D01*
X455383Y273299D02*
X461237D01*
X441705Y168899D02*
X461043D01*
X454899Y328199D02*
X460784D01*
X445590Y283199D02*
X460784D01*
X414998Y177899D02*
X460623D01*
X441100Y319199D02*
X460479D01*
X454412Y274199D02*
X460479D01*
X453543Y349799D02*
X460457D01*
X421982Y152699D02*
X460451D01*
X453573Y327299D02*
X460150D01*
X445426Y282299D02*
X460150D01*
X441100Y320099D02*
X459929D01*
X452473Y275099D02*
X459929D01*
X325492Y160799D02*
X459749D01*
X454289Y342599D02*
X459711D01*
X440100Y326399D02*
X459692D01*
X445032Y281399D02*
X459692D01*
X432900Y169799D02*
X459638D01*
X441100Y320999D02*
X459536D01*
X441100Y275999D02*
X459536D01*
X414791Y176999D02*
X459428D01*
X440750Y325499D02*
X459376D01*
X444314Y280499D02*
X459376D01*
X421927Y153599D02*
X459335D01*
X441100Y321899D02*
X459276D01*
X441100Y276899D02*
X459276D01*
X441097Y324599D02*
X459183D01*
X442820Y279599D02*
X459183D01*
X441100Y322799D02*
X459134D01*
X441100Y277799D02*
X459134D01*
X441100Y323699D02*
X459103D01*
X441100Y278699D02*
X459103D01*
X454900Y348899D02*
X459100D01*
X325244Y159899D02*
X458926D01*
X432992Y170699D02*
X458858D01*
X441100Y248099D02*
X458804D01*
X455249Y343499D02*
X458751D01*
X414123Y176099D02*
X458728D01*
X421501Y154499D02*
X458671D01*
X455580Y347999D02*
X458420D01*
X324498Y158999D02*
X458417D01*
X432746Y171599D02*
X458376D01*
X391100Y175199D02*
X458297D01*
X420205Y155399D02*
X458263D01*
X455774Y344399D02*
X458226D01*
X441100Y252599D02*
X458141D01*
X317927Y158099D02*
X458122D01*
X432002Y172499D02*
X458101D01*
X391100Y174299D02*
X458064D01*
X455950Y347099D02*
X458050D01*
X340983Y156299D02*
X458049D01*
X317982Y157199D02*
X458004D01*
X391100Y173399D02*
X458001D01*
X456040Y345299D02*
X457960D01*
X456095Y346199D02*
X457905D01*
X441100Y248999D02*
X457501D01*
X441100Y251699D02*
X457306D01*
X441100Y249899D02*
X457073D01*
X441100Y250799D02*
X457018D01*
X437896Y411899D02*
X451604D01*
X438202Y390299D02*
X451298D01*
X440100Y349799D02*
X450457D01*
X439054Y399299D02*
X450446D01*
X439215Y420899D02*
X450285D01*
X439627Y412799D02*
X449873D01*
X441100Y264299D02*
X449836D01*
X441100Y275099D02*
X449818D01*
X439748Y391199D02*
X449752D01*
X440100Y342599D02*
X449711D01*
X440167Y398399D02*
X449333D01*
X440258Y419999D02*
X449242D01*
X440100Y348899D02*
X449100D01*
X440499Y413699D02*
X449001D01*
X440572Y392099D02*
X448928D01*
X440100Y343499D02*
X448751D01*
X440100Y327299D02*
X448718D01*
X440831Y397499D02*
X448669D01*
X440887Y419099D02*
X448613D01*
X441037Y414599D02*
X448463D01*
X440100Y347999D02*
X448420D01*
X441082Y392999D02*
X448418D01*
X441238Y396599D02*
X448262D01*
X441270Y418199D02*
X448230D01*
X440100Y344399D02*
X448226D01*
X441354Y415499D02*
X448146D01*
X441377Y393899D02*
X448123D01*
X440100Y347099D02*
X448050D01*
X441451Y395699D02*
X448049D01*
X441464Y417299D02*
X448036D01*
X441491Y416399D02*
X448009D01*
X441496Y394799D02*
X448004D01*
X440100Y345299D02*
X447960D01*
X440100Y346199D02*
X447905D01*
X441100Y265199D02*
X447885D01*
X441100Y274199D02*
X447880D01*
X440100Y328199D02*
X447393D01*
X441100Y266099D02*
X446912D01*
X441100Y273299D02*
X446908D01*
X440100Y329099D02*
X446601D01*
X441100Y266999D02*
X446288D01*
X441100Y272399D02*
X446286D01*
X440100Y329999D02*
X446085D01*
X441100Y267899D02*
X445887D01*
X441100Y271499D02*
X445886D01*
X440100Y330899D02*
X445766D01*
X442696Y333599D02*
X445741D01*
X441100Y268799D02*
X445661D01*
X441100Y270599D02*
X445660D01*
X440100Y331799D02*
X445610D01*
X440100Y332699D02*
X445601D01*
X441100Y269699D02*
X445587D01*
X443999Y334499D02*
X445404D01*
X440100Y338999D02*
X444741D01*
X443359Y338099D02*
X443906D01*
X440100Y333599D02*
X441304D01*
X441100Y299399D02*
X441112D01*
X440100Y338099D02*
X440641D01*
X432420Y168899D02*
X440295D01*
X436333Y164399D02*
X439646D01*
X420998Y167999D02*
X438999D01*
X428502Y185999D02*
X438998D01*
X435736Y165299D02*
X438808D01*
X428920Y182399D02*
X438580D01*
X281100Y167099D02*
X438573D01*
X413690Y166199D02*
X438518D01*
X429246Y185099D02*
X438254D01*
X429400Y183299D02*
X438100D01*
X429492Y184199D02*
X438008D01*
X421396Y411899D02*
X435104D01*
X421702Y390299D02*
X434798D01*
X422554Y399299D02*
X433946D01*
X422715Y420899D02*
X433785D01*
X423127Y412799D02*
X433373D01*
X423248Y391199D02*
X433252D01*
X423667Y398399D02*
X432833D01*
X423758Y419999D02*
X432742D01*
X423999Y413699D02*
X432501D01*
X424072Y392099D02*
X432428D01*
X413477Y161699D02*
X432266D01*
X414636Y165299D02*
X432264D01*
X424331Y397499D02*
X432169D01*
X424387Y419099D02*
X432113D01*
X424537Y414599D02*
X431963D01*
X424582Y392999D02*
X431918D01*
X424738Y396599D02*
X431762D01*
X424770Y418199D02*
X431730D01*
X414570Y162599D02*
X431668D01*
X414968Y164399D02*
X431667D01*
X424854Y415499D02*
X431646D01*
X424877Y393899D02*
X431623D01*
X424951Y395699D02*
X431549D01*
X424964Y417299D02*
X431536D01*
X424991Y416399D02*
X431509D01*
X424996Y394799D02*
X431504D01*
X414949Y163499D02*
X431500D01*
X419582Y172499D02*
X428998D01*
X421744Y168899D02*
X428580D01*
X421422Y171599D02*
X428254D01*
X421992Y169799D02*
X428100D01*
X421900Y170699D02*
X428008D01*
X396502Y185999D02*
X425498D01*
X396920Y182399D02*
X425080D01*
X397246Y185099D02*
X424754D01*
X397400Y183299D02*
X424600D01*
X397492Y184199D02*
X424508D01*
X394600Y356999D02*
X423250D01*
X394600Y356099D02*
X422903D01*
X394600Y355199D02*
X422900D01*
X394600Y354299D02*
X422900D01*
X394600Y353399D02*
X422900D01*
X394600Y352499D02*
X422900D01*
X391100Y172499D02*
X419418D01*
X342072Y155399D02*
X418795D01*
X404896Y411899D02*
X418604D01*
X405202Y390299D02*
X418298D01*
X320968Y150899D02*
X418146D01*
X281100Y167999D02*
X418002D01*
X391100Y171599D02*
X417578D01*
X342450Y154499D02*
X417499D01*
X406054Y399299D02*
X417446D01*
X341185Y151799D02*
X417308D01*
X406215Y420899D02*
X417285D01*
X323354Y168899D02*
X417256D01*
X391100Y170699D02*
X417100D01*
X342468Y153599D02*
X417073D01*
X342135Y152699D02*
X417018D01*
X390938Y169799D02*
X417008D01*
X406627Y412799D02*
X416873D01*
X406748Y391199D02*
X416752D01*
X407167Y398399D02*
X416333D01*
X407258Y419999D02*
X416242D01*
X407499Y413699D02*
X416001D01*
X407572Y392099D02*
X415928D01*
X407831Y397499D02*
X415669D01*
X407887Y419099D02*
X415613D01*
X408037Y414599D02*
X415463D01*
X408082Y392999D02*
X415418D01*
X408238Y396599D02*
X415262D01*
X408270Y418199D02*
X415230D01*
X408354Y415499D02*
X415146D01*
X408377Y393899D02*
X415123D01*
X408451Y395699D02*
X415049D01*
X408464Y417299D02*
X415036D01*
X408491Y416399D02*
X415009D01*
X408496Y394799D02*
X415004D01*
X337977Y161699D02*
X411523D01*
X338190Y166199D02*
X411310D01*
X391100Y176099D02*
X410877D01*
X391100Y179699D02*
X410666D01*
X339070Y162599D02*
X410430D01*
X339136Y165299D02*
X410364D01*
X391100Y176999D02*
X410209D01*
X391100Y178799D02*
X410131D01*
X339449Y163499D02*
X410051D01*
X339468Y164399D02*
X410032D01*
X391100Y177899D02*
X410002D01*
X360898Y411899D02*
X402104D01*
X394600Y390299D02*
X401798D01*
X394386Y399299D02*
X400946D01*
X387000Y420899D02*
X400785D01*
X360692Y412799D02*
X400373D01*
X394600Y391199D02*
X400252D01*
X394600Y398399D02*
X399833D01*
X387100Y419999D02*
X399742D01*
X360632Y413699D02*
X399501D01*
X394600Y392099D02*
X399428D01*
X394600Y397499D02*
X399169D01*
X387000Y419099D02*
X399113D01*
X361168Y414599D02*
X398963D01*
X394600Y392999D02*
X398918D01*
X394600Y396599D02*
X398762D01*
X386683Y418199D02*
X398730D01*
X361298Y415499D02*
X398646D01*
X394600Y393899D02*
X398623D01*
X394600Y395699D02*
X398549D01*
X386084Y417299D02*
X398536D01*
X384960Y416399D02*
X398509D01*
X394600Y394799D02*
X398504D01*
X391100Y185999D02*
X393498D01*
X391100Y182399D02*
X393080D01*
X391100Y185099D02*
X392754D01*
X391100Y183299D02*
X392600D01*
X391100Y184199D02*
X392508D01*
X380834Y400199D02*
X383166D01*
X374960Y416399D02*
X381040D01*
X374965Y423599D02*
X381035D01*
X376084Y417299D02*
X379916D01*
X376087Y422699D02*
X379913D01*
X376683Y418199D02*
X379317D01*
X376684Y421799D02*
X379316D01*
X377000Y419099D02*
X379000D01*
X377000Y420899D02*
X379000D01*
X377100Y419999D02*
X378900D01*
X354492Y400199D02*
X377166D01*
X354400Y399299D02*
X374114D01*
X353920Y398399D02*
X373900D01*
X331377Y397499D02*
X373900D01*
X318468Y396599D02*
X373900D01*
X361092Y416399D02*
X371040D01*
X343127Y423599D02*
X371035D01*
X360426Y417299D02*
X369916D01*
X342699Y422699D02*
X369913D01*
X356309Y418199D02*
X369317D01*
X355714Y421799D02*
X369316D01*
X356609Y419099D02*
X369000D01*
X356360Y420899D02*
X369000D01*
X356624Y419999D02*
X368900D01*
X355602Y417299D02*
X357174D01*
X354623Y413699D02*
X356774D01*
X318696Y410099D02*
X356568D01*
X355369Y416399D02*
X356508D01*
X355291Y414599D02*
X356432D01*
X355498Y415499D02*
X356302D01*
X341691Y412799D02*
X356108D01*
X330498Y410999D02*
X356032D01*
X341023Y411899D02*
X355902D01*
X341396Y421799D02*
X351486D01*
X341898Y413699D02*
X351377D01*
X336133Y417299D02*
X351166D01*
X335197Y418199D02*
X350891D01*
X335016Y420899D02*
X350840D01*
X341769Y414599D02*
X350709D01*
X336544Y416399D02*
X350631D01*
X132000Y419099D02*
X350591D01*
X132100Y419999D02*
X350576D01*
X341234Y415499D02*
X350502D01*
X335502Y401999D02*
X350498D01*
X335920Y398399D02*
X350080D01*
X336246Y401099D02*
X349754D01*
X336400Y399299D02*
X349600D01*
X336492Y400199D02*
X349508D01*
X324192Y169799D02*
X349062D01*
X281100Y208499D02*
X348900D01*
X281100Y207599D02*
X348900D01*
X281100Y206699D02*
X348900D01*
X281100Y205799D02*
X348900D01*
X281100Y204899D02*
X348900D01*
X324582Y203999D02*
X348900D01*
X326422Y203099D02*
X348900D01*
X326900Y202199D02*
X348900D01*
X326992Y201299D02*
X348900D01*
X326744Y200399D02*
X348900D01*
X325998Y199499D02*
X348900D01*
X281100Y198599D02*
X348900D01*
X281100Y197699D02*
X348900D01*
X281100Y196799D02*
X348900D01*
X281100Y195899D02*
X348900D01*
X281100Y194999D02*
X348900D01*
X281100Y194099D02*
X348900D01*
X281100Y193199D02*
X348900D01*
X281100Y192299D02*
X348900D01*
X281100Y191399D02*
X348900D01*
X281100Y190499D02*
X348900D01*
X281100Y189599D02*
X348900D01*
X281100Y188699D02*
X348900D01*
X281100Y187799D02*
X348900D01*
X281100Y186899D02*
X348900D01*
X281100Y185999D02*
X348900D01*
X281100Y185099D02*
X348900D01*
X281100Y184199D02*
X348900D01*
X281100Y183299D02*
X348900D01*
X281100Y182399D02*
X348900D01*
X316082Y181499D02*
X348900D01*
X330859Y180599D02*
X348900D01*
X331694Y179699D02*
X348900D01*
X331982Y178799D02*
X348900D01*
X331927Y177899D02*
X348900D01*
X331499Y176999D02*
X348900D01*
X330196Y176099D02*
X348900D01*
X281100Y175199D02*
X348900D01*
X281100Y174299D02*
X348900D01*
X322705Y173399D02*
X348900D01*
X324001Y172499D02*
X348900D01*
X324427Y171599D02*
X348900D01*
X324482Y170699D02*
X348900D01*
X323494Y405599D02*
X345977D01*
X121022Y409199D02*
X345766D01*
X322659Y406499D02*
X345309D01*
X122516Y408299D02*
X345231D01*
X123594Y407399D02*
X345102D01*
X329405Y113099D02*
X343095D01*
X329710Y134699D02*
X342790D01*
X330549Y125699D02*
X341951D01*
X330711Y104099D02*
X341789D01*
X331131Y112199D02*
X341369D01*
X331251Y133799D02*
X341249D01*
X331665Y126599D02*
X340835D01*
X331755Y104999D02*
X340745D01*
X332001Y111299D02*
X340499D01*
X332074Y132899D02*
X340426D01*
X332329Y127499D02*
X340171D01*
X332386Y105899D02*
X340114D01*
X336061Y421799D02*
X340004D01*
X332538Y110399D02*
X339962D01*
X332583Y131999D02*
X339917D01*
X332737Y128399D02*
X339763D01*
X332769Y106799D02*
X339731D01*
X332854Y109499D02*
X339646D01*
X332878Y131099D02*
X339622D01*
X332951Y129299D02*
X339549D01*
X332964Y107699D02*
X339536D01*
X332991Y108599D02*
X339509D01*
X332996Y130199D02*
X339504D01*
X335021Y426299D02*
X339341D01*
X317692Y156299D02*
X339017D01*
X320636Y151799D02*
X338815D01*
X336514Y422699D02*
X338701D01*
X336063Y425399D02*
X338506D01*
X336650Y423599D02*
X338273D01*
X336515Y424499D02*
X338218D01*
X316854Y155399D02*
X337928D01*
X319690Y152699D02*
X337865D01*
X331244Y411899D02*
X337777D01*
X336648Y415499D02*
X337566D01*
X281100Y154499D02*
X337550D01*
X281100Y153599D02*
X337532D01*
X334806Y412799D02*
X337109D01*
X336481Y414599D02*
X337031D01*
X335985Y413699D02*
X336902D01*
X325400Y161699D02*
X336023D01*
X281100Y166199D02*
X335810D01*
X324922Y162599D02*
X334930D01*
X281100Y165299D02*
X334864D01*
X323082Y163499D02*
X334551D01*
X281100Y164399D02*
X334532D01*
X331590Y401999D02*
X332498D01*
X331492Y412799D02*
X332394D01*
X132000Y420899D02*
X332184D01*
X101100Y426299D02*
X332179D01*
X131683Y418199D02*
X332003D01*
X131684Y421799D02*
X331139D01*
X101100Y425399D02*
X331137D01*
X131084Y417299D02*
X331067D01*
X131087Y422699D02*
X330686D01*
X101100Y424499D02*
X330685D01*
X129960Y416399D02*
X330656D01*
X329082Y415499D02*
X330552D01*
X129965Y423599D02*
X330550D01*
X318450Y397499D02*
X329423D01*
X321996Y401999D02*
X329210D01*
X101100Y415499D02*
X328918D01*
X320196Y176099D02*
X328804D01*
X318072Y398399D02*
X328330D01*
X126691Y401099D02*
X328264D01*
X320859Y180599D02*
X328141D01*
X316983Y399299D02*
X327951D01*
X126748Y400199D02*
X327932D01*
X319999Y410999D02*
X327502D01*
X321499Y176999D02*
X327501D01*
X321694Y179699D02*
X327306D01*
X319359Y414599D02*
X327078D01*
X321927Y177899D02*
X327073D01*
X321982Y178799D02*
X327018D01*
X320427Y411899D02*
X326756D01*
X320194Y413699D02*
X326600D01*
X312905Y113099D02*
X326595D01*
X320482Y412799D02*
X326508D01*
X313210Y134699D02*
X326290D01*
X314049Y125699D02*
X325451D01*
X314211Y104099D02*
X325289D01*
X314631Y112199D02*
X324869D01*
X314751Y133799D02*
X324749D01*
X281100Y203999D02*
X324418D01*
X315165Y126599D02*
X324335D01*
X315255Y104999D02*
X324245D01*
X315501Y111299D02*
X323999D01*
X315574Y132899D02*
X323926D01*
X315829Y127499D02*
X323671D01*
X315886Y105899D02*
X323614D01*
X316038Y110399D02*
X323462D01*
X316083Y131999D02*
X323417D01*
X316237Y128399D02*
X323263D01*
X316269Y106799D02*
X323231D01*
X316354Y109499D02*
X323146D01*
X316378Y131099D02*
X323122D01*
X316451Y129299D02*
X323049D01*
X316464Y107699D02*
X323036D01*
X316491Y108599D02*
X323009D01*
X316496Y130199D02*
X323004D01*
X281100Y199499D02*
X323002D01*
X281100Y163499D02*
X322918D01*
X281100Y203099D02*
X322578D01*
X281100Y200399D02*
X322256D01*
X281100Y202199D02*
X322100D01*
X281100Y201299D02*
X322008D01*
X317501Y158999D02*
X321502D01*
X305705Y173399D02*
X321295D01*
X281100Y162599D02*
X321078D01*
X316205Y159899D02*
X320756D01*
X306354Y168899D02*
X320646D01*
X126553Y401999D02*
X320604D01*
X281100Y161699D02*
X320600D01*
X281100Y160799D02*
X320508D01*
X307001Y172499D02*
X319999D01*
X124427Y406499D02*
X319941D01*
X307192Y169799D02*
X319808D01*
X307427Y171599D02*
X319573D01*
X307482Y170699D02*
X319518D01*
X126332Y402899D02*
X319301D01*
X125086Y405599D02*
X319106D01*
X126020Y403799D02*
X318873D01*
X125610Y404699D02*
X318818D01*
X281100Y176099D02*
X318804D01*
X317922Y180599D02*
X318141D01*
X281100Y148199D02*
X317523D01*
X317498Y176999D02*
X317501D01*
X281100Y152699D02*
X317310D01*
X118255Y410099D02*
X317304D01*
X101100Y414599D02*
X316641D01*
X281100Y149099D02*
X316430D01*
X281100Y151799D02*
X316364D01*
X281100Y149999D02*
X316051D01*
X281100Y150899D02*
X316032D01*
X101100Y410999D02*
X316001D01*
X281100Y181499D02*
X315918D01*
X101100Y413699D02*
X315806D01*
X101100Y411899D02*
X315573D01*
X101100Y412799D02*
X315518D01*
X126726Y399299D02*
X315017D01*
X281100Y159899D02*
X314795D01*
X281100Y176999D02*
X314502D01*
X281100Y155399D02*
X314146D01*
X281100Y180599D02*
X314078D01*
X126624Y398399D02*
X313928D01*
X281100Y177899D02*
X313756D01*
X281100Y179699D02*
X313600D01*
X126440Y397499D02*
X313550D01*
X237284Y396599D02*
X313532D01*
X281100Y178799D02*
X313508D01*
X281100Y158999D02*
X313499D01*
X281100Y156299D02*
X313308D01*
X281100Y158099D02*
X313073D01*
X281100Y157199D02*
X313018D01*
X296405Y113099D02*
X310095D01*
X296710Y134699D02*
X309790D01*
X297549Y125699D02*
X308951D01*
X297711Y104099D02*
X308789D01*
X298131Y112199D02*
X308369D01*
X298251Y133799D02*
X308249D01*
X298665Y126599D02*
X307835D01*
X298755Y104999D02*
X307745D01*
X299001Y111299D02*
X307499D01*
X299074Y132899D02*
X307426D01*
X299329Y127499D02*
X307171D01*
X299386Y105899D02*
X307114D01*
X299538Y110399D02*
X306962D01*
X299583Y131999D02*
X306917D01*
X299737Y128399D02*
X306763D01*
X299769Y106799D02*
X306731D01*
X299854Y109499D02*
X306646D01*
X299878Y131099D02*
X306622D01*
X299951Y129299D02*
X306549D01*
X299964Y107699D02*
X306536D01*
X299991Y108599D02*
X306509D01*
X299996Y130199D02*
X306504D01*
X281100Y173399D02*
X304295D01*
X281100Y168899D02*
X303646D01*
X281100Y172499D02*
X302999D01*
X281100Y169799D02*
X302808D01*
X281100Y171599D02*
X302573D01*
X281100Y170699D02*
X302518D01*
X226123Y113099D02*
X293595D01*
X281100Y134699D02*
X293290D01*
X125020Y125699D02*
X292451D01*
X229123Y104099D02*
X292289D01*
X123148Y112199D02*
X291869D01*
X281100Y133799D02*
X291749D01*
X124343Y126599D02*
X291335D01*
X229791Y104999D02*
X291245D01*
X202736Y111299D02*
X290999D01*
X281100Y132899D02*
X290926D01*
X123488Y127499D02*
X290671D01*
X229998Y105899D02*
X290614D01*
X203333Y110399D02*
X290462D01*
X281100Y131999D02*
X290417D01*
X122376Y128399D02*
X290263D01*
X229869Y106799D02*
X290231D01*
X203500Y109499D02*
X290146D01*
X281100Y131099D02*
X290122D01*
X280557Y129299D02*
X290049D01*
X229334Y107699D02*
X290036D01*
X203332Y108599D02*
X290009D01*
X281071Y130199D02*
X290004D01*
X248183Y115799D02*
X261817D01*
X248847Y119399D02*
X261153D01*
X248898Y116699D02*
X261102D01*
X249167Y118499D02*
X260833D01*
X249182Y117599D02*
X260818D01*
X161269Y123899D02*
X259374D01*
X248060Y120299D02*
X259168D01*
X162796Y122999D02*
X258708D01*
X163921Y121199D02*
X258632D01*
X163522Y122099D02*
X258502D01*
X164089Y120299D02*
X244617D01*
X226869Y115799D02*
X244494D01*
X164056Y119399D02*
X243831D01*
X226334Y116699D02*
X243779D01*
X163815Y118499D02*
X243511D01*
X163323Y117599D02*
X243495D01*
X237350Y395699D02*
X239440D01*
X237350Y394799D02*
X238928D01*
X237350Y393899D02*
X238900D01*
X237350Y392999D02*
X238900D01*
X237350Y392099D02*
X238900D01*
X237350Y391199D02*
X238900D01*
X237350Y390299D02*
X238900D01*
X237350Y389399D02*
X238900D01*
X237327Y388499D02*
X238900D01*
X101100Y387599D02*
X238900D01*
X101100Y386699D02*
X238900D01*
X175257Y385799D02*
X238900D01*
X177384Y384899D02*
X238900D01*
X178633Y383999D02*
X238900D01*
X179528Y383099D02*
X238900D01*
X180203Y382199D02*
X238900D01*
X180716Y381299D02*
X238900D01*
X181097Y380399D02*
X238900D01*
X181365Y379499D02*
X238900D01*
X181530Y378599D02*
X238900D01*
X181598Y377699D02*
X238900D01*
X181571Y376799D02*
X238900D01*
X181450Y375899D02*
X238900D01*
X181228Y374999D02*
X238900D01*
X180899Y374099D02*
X238900D01*
X180447Y373199D02*
X238900D01*
X179849Y372299D02*
X238900D01*
X179061Y371399D02*
X238900D01*
X177994Y370499D02*
X238900D01*
X176396Y369599D02*
X238900D01*
X120565Y368699D02*
X238900D01*
X119454Y367799D02*
X238900D01*
X117496Y366899D02*
X238900D01*
X235585Y365999D02*
X238900D01*
X236488Y365099D02*
X238900D01*
X237005Y364199D02*
X238900D01*
X237276Y363299D02*
X238900D01*
X237349Y362399D02*
X238900D01*
X237233Y361499D02*
X238900D01*
X236913Y360599D02*
X238900D01*
X236328Y359699D02*
X238900D01*
X235285Y358799D02*
X238900D01*
X120652Y357899D02*
X238900D01*
X120749Y356999D02*
X238900D01*
X120690Y356099D02*
X238900D01*
X120470Y355199D02*
X238900D01*
X120066Y354299D02*
X238900D01*
X119421Y353399D02*
X238900D01*
X118378Y352499D02*
X238900D01*
X101100Y351599D02*
X238900D01*
X101100Y350699D02*
X238900D01*
X101100Y349799D02*
X238900D01*
X101100Y348899D02*
X238900D01*
X208502Y347999D02*
X238900D01*
X209246Y347099D02*
X238900D01*
X209492Y346199D02*
X238900D01*
X209400Y345299D02*
X238900D01*
X208920Y344399D02*
X238900D01*
X120736Y343499D02*
X238900D01*
X120725Y342599D02*
X238900D01*
X120557Y341699D02*
X238900D01*
X208736Y340799D02*
X238900D01*
X209333Y339899D02*
X238900D01*
X209500Y338999D02*
X238900D01*
X209332Y338099D02*
X238900D01*
X208734Y337199D02*
X238900D01*
X101100Y336299D02*
X238900D01*
X101100Y335399D02*
X238900D01*
X101100Y334499D02*
X238900D01*
X101100Y333599D02*
X238900D01*
X118565Y332699D02*
X238900D01*
X120007Y331799D02*
X238900D01*
X120942Y330899D02*
X238900D01*
X121607Y329999D02*
X238900D01*
X122085Y329099D02*
X238900D01*
X122414Y328199D02*
X238900D01*
X211983Y327299D02*
X238900D01*
X225285Y358799D02*
X230715D01*
X225585Y365999D02*
X230415D01*
X226328Y359699D02*
X229672D01*
X226488Y365099D02*
X229512D01*
X226913Y360599D02*
X229087D01*
X227005Y364199D02*
X228995D01*
X227233Y361499D02*
X228767D01*
X227276Y363299D02*
X228724D01*
X224457Y396599D02*
X228716D01*
X224707Y388499D02*
X228673D01*
X227349Y362399D02*
X228651D01*
X225948Y395699D02*
X228650D01*
X226693Y394799D02*
X228650D01*
X227119Y393899D02*
X228650D01*
X227321Y392999D02*
X228650D01*
X227331Y392099D02*
X228650D01*
X227151Y391199D02*
X228650D01*
X226752Y390299D02*
X228650D01*
X226050Y389399D02*
X228650D01*
X101100Y104099D02*
X225877D01*
X202734Y107699D02*
X225666D01*
X101100Y104999D02*
X225209D01*
X101100Y106799D02*
X225131D01*
X101100Y105899D02*
X225002D01*
X124079Y113099D02*
X222877D01*
X162431Y116699D02*
X222666D01*
X124809Y113999D02*
X222209D01*
X125849Y115799D02*
X222131D01*
X125390Y114899D02*
X222002D01*
X214457Y396599D02*
X221543D01*
X214707Y388499D02*
X221293D01*
X217350Y358799D02*
X220715D01*
X217350Y365999D02*
X220415D01*
X215948Y395699D02*
X220052D01*
X216050Y389399D02*
X219950D01*
X217350Y359699D02*
X219672D01*
X217350Y365099D02*
X219512D01*
X216693Y394799D02*
X219307D01*
X216752Y390299D02*
X219248D01*
X217350Y360599D02*
X219087D01*
X217350Y364199D02*
X218995D01*
X217119Y393899D02*
X218881D01*
X217151Y391199D02*
X218849D01*
X217350Y361499D02*
X218767D01*
X217350Y363299D02*
X218724D01*
X217321Y392999D02*
X218679D01*
X217331Y392099D02*
X218669D01*
X217350Y362399D02*
X218651D01*
X213072Y326399D02*
X214723D01*
X213450Y325499D02*
X213980D01*
X213468Y324599D02*
X213900D01*
X126169Y396599D02*
X211543D01*
X101100Y388499D02*
X211293D01*
X125804Y395699D02*
X210052D01*
X122615Y327299D02*
X210017D01*
X101100Y389399D02*
X209950D01*
X125332Y394799D02*
X209307D01*
X119809Y390299D02*
X209248D01*
X122699Y326399D02*
X208928D01*
X124736Y393899D02*
X208881D01*
X121754Y391199D02*
X208849D01*
X123986Y392999D02*
X208679D01*
X123029Y392099D02*
X208669D01*
X101100Y365999D02*
X208650D01*
X101100Y365099D02*
X208650D01*
X101100Y364199D02*
X208650D01*
X101100Y363299D02*
X208650D01*
X101100Y362399D02*
X208650D01*
X118014Y361499D02*
X208650D01*
X119216Y360599D02*
X208650D01*
X119935Y359699D02*
X208650D01*
X120391Y358799D02*
X208650D01*
X122670Y325499D02*
X208550D01*
X122526Y324599D02*
X208532D01*
X117415Y347999D02*
X205498D01*
X120812Y129299D02*
X205443D01*
X198334Y323699D02*
X205440D01*
X101100Y337199D02*
X205266D01*
X120214Y340799D02*
X205264D01*
X120589Y344399D02*
X205080D01*
X117525Y130199D02*
X204929D01*
X198869Y322799D02*
X204928D01*
X198998Y321899D02*
X204900D01*
X198791Y320999D02*
X204900D01*
X198123Y320099D02*
X204900D01*
X203190Y314699D02*
X204900D01*
X204136Y313799D02*
X204900D01*
X204468Y312899D02*
X204900D01*
X204449Y311999D02*
X204900D01*
X204070Y311099D02*
X204900D01*
X202977Y310199D02*
X204900D01*
X101100Y309299D02*
X204900D01*
X101100Y308399D02*
X204900D01*
X101100Y307499D02*
X204900D01*
X131963Y306599D02*
X204900D01*
X133365Y305699D02*
X204900D01*
X134143Y304799D02*
X204900D01*
X134625Y303899D02*
X204900D01*
X134899Y302999D02*
X204900D01*
X134999Y302099D02*
X204900D01*
X134935Y301199D02*
X204900D01*
X134702Y300299D02*
X204900D01*
X134270Y299399D02*
X204900D01*
X133569Y298499D02*
X204900D01*
X132372Y297599D02*
X204900D01*
X101100Y296699D02*
X204900D01*
X101100Y295799D02*
X204900D01*
X101100Y294899D02*
X204900D01*
X101100Y293999D02*
X204900D01*
X174359Y293099D02*
X204900D01*
X175194Y292199D02*
X204900D01*
X175482Y291299D02*
X204900D01*
X175427Y290399D02*
X204900D01*
X174999Y289499D02*
X204900D01*
X173696Y288599D02*
X204900D01*
X134491Y287699D02*
X204900D01*
X134828Y286799D02*
X204900D01*
X134984Y285899D02*
X204900D01*
X134975Y284999D02*
X204900D01*
X134800Y284099D02*
X204900D01*
X134439Y283199D02*
X204900D01*
X160236Y282299D02*
X204900D01*
X160833Y281399D02*
X204900D01*
X161000Y280499D02*
X204900D01*
X160832Y279599D02*
X204900D01*
X160234Y278699D02*
X204900D01*
X153982Y277799D02*
X204900D01*
X153927Y276899D02*
X204900D01*
X174502Y275999D02*
X204900D01*
X175246Y275099D02*
X204900D01*
X175492Y274199D02*
X204900D01*
X175400Y273299D02*
X204900D01*
X183705Y272399D02*
X204900D01*
X185001Y271499D02*
X204900D01*
X185427Y270599D02*
X204900D01*
X185482Y269699D02*
X204900D01*
X185192Y268799D02*
X204900D01*
X184354Y267899D02*
X204900D01*
X134582Y266999D02*
X204900D01*
X134072Y266099D02*
X204900D01*
X133248Y265199D02*
X204900D01*
X131702Y264299D02*
X204900D01*
X101100Y263399D02*
X204900D01*
X166082Y262499D02*
X204900D01*
X167922Y261599D02*
X204900D01*
X168400Y260699D02*
X204900D01*
X168492Y259799D02*
X204900D01*
X168244Y258899D02*
X204900D01*
X167498Y257999D02*
X204900D01*
X131963Y257099D02*
X204900D01*
X133365Y256199D02*
X204900D01*
X134143Y255299D02*
X204900D01*
X134625Y254399D02*
X204900D01*
X134899Y253499D02*
X204900D01*
X134999Y252599D02*
X204900D01*
X134935Y251699D02*
X204900D01*
X134702Y250799D02*
X204900D01*
X134270Y249899D02*
X204900D01*
X133569Y248999D02*
X204900D01*
X132372Y248099D02*
X204900D01*
X101100Y247199D02*
X204900D01*
X101100Y246299D02*
X204900D01*
X101100Y245399D02*
X204900D01*
X101100Y244499D02*
X204900D01*
X101100Y243599D02*
X204900D01*
X101100Y242699D02*
X204900D01*
X101100Y241799D02*
X204900D01*
X101100Y240899D02*
X204900D01*
X101100Y239999D02*
X204900D01*
X101100Y239099D02*
X204900D01*
X101100Y238199D02*
X204900D01*
X101100Y237299D02*
X204900D01*
X101100Y236399D02*
X204900D01*
X101100Y235499D02*
X204900D01*
X101100Y234599D02*
X204900D01*
X101100Y233699D02*
X204900D01*
X101100Y232799D02*
X204900D01*
X101100Y231899D02*
X204900D01*
X101100Y230999D02*
X204900D01*
X101100Y230099D02*
X204900D01*
X101100Y229199D02*
X204900D01*
X101100Y228299D02*
X204900D01*
X101100Y227399D02*
X204900D01*
X101100Y226499D02*
X204900D01*
X101100Y225599D02*
X204900D01*
X101100Y224699D02*
X204900D01*
X174736Y223799D02*
X204900D01*
X175333Y222899D02*
X204900D01*
X175500Y221999D02*
X204900D01*
X175332Y221099D02*
X204900D01*
X174734Y220199D02*
X204900D01*
X134328Y219299D02*
X204900D01*
X134484Y218399D02*
X204900D01*
X134475Y217499D02*
X204900D01*
X134300Y216599D02*
X204900D01*
X133939Y215699D02*
X204900D01*
X133341Y214799D02*
X204900D01*
X159205Y213899D02*
X204900D01*
X160501Y212999D02*
X204900D01*
X160927Y212099D02*
X204900D01*
X160982Y211199D02*
X204900D01*
X160692Y210299D02*
X204900D01*
X159854Y209399D02*
X204900D01*
X154000Y208499D02*
X204900D01*
X153832Y207599D02*
X204900D01*
X174834Y206699D02*
X204900D01*
X175369Y205799D02*
X204900D01*
X175498Y204899D02*
X204900D01*
X175291Y203999D02*
X204900D01*
X184859Y203099D02*
X204900D01*
X185694Y202199D02*
X204900D01*
X185982Y201299D02*
X204900D01*
X185927Y200399D02*
X204900D01*
X185499Y199499D02*
X204900D01*
X184196Y198599D02*
X204900D01*
X132748Y197699D02*
X204900D01*
X131202Y196799D02*
X204900D01*
X101100Y195899D02*
X204900D01*
X101100Y194999D02*
X204900D01*
X101100Y194099D02*
X204900D01*
X166690Y193199D02*
X204900D01*
X167636Y192299D02*
X204900D01*
X167968Y191399D02*
X204900D01*
X167949Y190499D02*
X204900D01*
X167570Y189599D02*
X204900D01*
X166477Y188699D02*
X204900D01*
X101100Y187799D02*
X204900D01*
X101100Y186899D02*
X204900D01*
X101100Y185999D02*
X204900D01*
X101100Y185099D02*
X204900D01*
X101100Y184199D02*
X204900D01*
X101100Y183299D02*
X204900D01*
X101100Y182399D02*
X204900D01*
X101100Y181499D02*
X204900D01*
X101100Y180599D02*
X204900D01*
X101100Y179699D02*
X204900D01*
X101100Y178799D02*
X204900D01*
X101100Y177899D02*
X204900D01*
X101100Y176999D02*
X204900D01*
X101100Y176099D02*
X204900D01*
X101100Y175199D02*
X204900D01*
X173983Y174299D02*
X204900D01*
X175072Y173399D02*
X204900D01*
X175450Y172499D02*
X204900D01*
X175468Y171599D02*
X204900D01*
X175135Y170699D02*
X204900D01*
X174185Y169799D02*
X204900D01*
X134419Y168899D02*
X204900D01*
X134500Y167999D02*
X204900D01*
X134418Y167099D02*
X204900D01*
X134164Y166199D02*
X204900D01*
X133708Y165299D02*
X204900D01*
X132969Y164399D02*
X204900D01*
X160002Y163499D02*
X204900D01*
X160746Y162599D02*
X204900D01*
X160992Y161699D02*
X204900D01*
X160900Y160799D02*
X204900D01*
X160420Y159899D02*
X204900D01*
X153950Y158999D02*
X204900D01*
X153968Y158099D02*
X204900D01*
X174190Y157199D02*
X204900D01*
X175136Y156299D02*
X204900D01*
X175468Y155399D02*
X204900D01*
X175449Y154499D02*
X204900D01*
X175070Y153599D02*
X204900D01*
X185334Y152699D02*
X204900D01*
X185869Y151799D02*
X204900D01*
X185998Y150899D02*
X204900D01*
X185791Y149999D02*
X204900D01*
X185123Y149099D02*
X204900D01*
X133255Y148199D02*
X204900D01*
X132211Y147299D02*
X204900D01*
X101100Y146399D02*
X204900D01*
X101100Y145499D02*
X204900D01*
X101100Y144599D02*
X204900D01*
X101100Y143699D02*
X204900D01*
X167736Y142799D02*
X204900D01*
X168333Y141899D02*
X204900D01*
X168500Y140999D02*
X204900D01*
X168332Y140099D02*
X204900D01*
X167734Y139199D02*
X204900D01*
X101100Y138299D02*
X204900D01*
X101100Y137399D02*
X204900D01*
X101100Y136499D02*
X204900D01*
X101100Y135599D02*
X204900D01*
X101100Y134699D02*
X204900D01*
X101100Y133799D02*
X204900D01*
X101100Y132899D02*
X204900D01*
X101100Y131999D02*
X204900D01*
X101100Y131099D02*
X204900D01*
X179021Y319199D02*
X204810D01*
X118914Y347099D02*
X204754D01*
X117064Y338099D02*
X204668D01*
X119653Y339899D02*
X204667D01*
X120272Y345299D02*
X204600D01*
X119745Y346199D02*
X204508D01*
X118765Y338999D02*
X204500D01*
X101100Y315599D02*
X203930D01*
X178730Y318299D02*
X203864D01*
X177133Y316499D02*
X203551D01*
X178169Y317399D02*
X203532D01*
X101100Y310199D02*
X201023D01*
X101100Y314699D02*
X200810D01*
X101100Y311099D02*
X199930D01*
X101100Y313799D02*
X199864D01*
X101100Y311999D02*
X199551D01*
X101100Y312899D02*
X199532D01*
X101100Y107699D02*
X199266D01*
X121918Y111299D02*
X199264D01*
X101100Y108599D02*
X198668D01*
X120089Y110399D02*
X198667D01*
X101100Y109499D02*
X198500D01*
X179099Y320099D02*
X194877D01*
X176769Y323699D02*
X194666D01*
X178977Y320999D02*
X194209D01*
X177996Y322799D02*
X194131D01*
X178634Y321899D02*
X194002D01*
X133572Y198599D02*
X182804D01*
X174920Y272399D02*
X182295D01*
X174623Y203099D02*
X182141D01*
X133886Y149099D02*
X181877D01*
X173977Y152699D02*
X181666D01*
X134877Y267899D02*
X181646D01*
X134082Y199499D02*
X181501D01*
X164635Y202199D02*
X181306D01*
X134269Y149999D02*
X181209D01*
X134491Y151799D02*
X181131D01*
X134377Y200399D02*
X181073D01*
X163685Y201299D02*
X181018D01*
X134464Y150899D02*
X181002D01*
X163999Y271499D02*
X180999D01*
X134996Y268799D02*
X180808D01*
X162696Y270599D02*
X180573D01*
X134951Y269699D02*
X180518D01*
X166769Y323699D02*
X173231D01*
X167133Y316499D02*
X172867D01*
X133924Y288599D02*
X172304D01*
X163734Y152699D02*
X172023D01*
X101100Y174299D02*
X172017D01*
X167996Y322799D02*
X172004D01*
X168169Y317399D02*
X171831D01*
X134165Y169799D02*
X171815D01*
X153635Y157199D02*
X171810D01*
X101100Y293099D02*
X171641D01*
X153499Y275999D02*
X171498D01*
X164968Y203099D02*
X171377D01*
X168634Y321899D02*
X171366D01*
X168730Y318299D02*
X171270D01*
X133991Y220199D02*
X171266D01*
X101100Y223799D02*
X171264D01*
X153234Y206699D02*
X171166D01*
X164427Y272399D02*
X171080D01*
X168977Y320999D02*
X171023D01*
X133002Y289499D02*
X171001D01*
X169021Y319199D02*
X170979D01*
X164332Y153599D02*
X170930D01*
X101100Y173399D02*
X170928D01*
X169099Y320099D02*
X170901D01*
X133709Y170699D02*
X170865D01*
X163736Y156299D02*
X170864D01*
X101100Y292199D02*
X170806D01*
X163359Y275099D02*
X170754D01*
X101100Y385799D02*
X170743D01*
X164950Y203999D02*
X170709D01*
X133424Y221099D02*
X170668D01*
X130502Y222899D02*
X170667D01*
X163483Y205799D02*
X170631D01*
X164482Y273299D02*
X170600D01*
X131002Y290399D02*
X170573D01*
X164500Y154499D02*
X170551D01*
X131682Y172499D02*
X170550D01*
X132971Y171599D02*
X170532D01*
X164333Y155399D02*
X170532D01*
X101100Y291299D02*
X170518D01*
X164194Y274199D02*
X170508D01*
X164572Y204899D02*
X170502D01*
X132502Y221999D02*
X170500D01*
X121336Y369599D02*
X169604D01*
X101100Y384899D02*
X168616D01*
X121891Y370499D02*
X168006D01*
X101100Y383999D02*
X167367D01*
X122284Y371399D02*
X166939D01*
X101100Y383099D02*
X166472D01*
X122540Y372299D02*
X166151D01*
X152082Y262499D02*
X165918D01*
X101100Y382199D02*
X165797D01*
X122676Y373199D02*
X165553D01*
X101100Y381299D02*
X165284D01*
X122697Y374099D02*
X165101D01*
X118429Y380399D02*
X164903D01*
X122605Y374999D02*
X164772D01*
X119929Y379499D02*
X164635D01*
X122396Y375899D02*
X164550D01*
X153734Y188699D02*
X164523D01*
X153498Y257999D02*
X164502D01*
X120888Y378599D02*
X164470D01*
X122057Y376799D02*
X164429D01*
X121568Y377699D02*
X164402D01*
X101100Y193199D02*
X164310D01*
X153734Y139199D02*
X164266D01*
X153736Y142799D02*
X164264D01*
X153922Y261599D02*
X164078D01*
X154244Y258899D02*
X163756D01*
X154332Y140099D02*
X163668D01*
X154333Y141899D02*
X163667D01*
X154400Y260699D02*
X163600D01*
X154492Y259799D02*
X163508D01*
X154500Y140999D02*
X163500D01*
X154332Y189599D02*
X163430D01*
X153736Y192299D02*
X163364D01*
X156769Y323699D02*
X163231D01*
X154500Y190499D02*
X163051D01*
X154333Y191399D02*
X163032D01*
X157133Y316499D02*
X162867D01*
X157996Y322799D02*
X162004D01*
X158169Y317399D02*
X161831D01*
X132054Y205799D02*
X161517D01*
X158634Y321899D02*
X161366D01*
X134496Y201299D02*
X161315D01*
X134738Y270599D02*
X161304D01*
X158730Y318299D02*
X161270D01*
X158977Y320999D02*
X161023D01*
X159021Y319199D02*
X160979D01*
X159099Y320099D02*
X160901D01*
X152196Y275099D02*
X160641D01*
X133167Y204899D02*
X160428D01*
X134451Y202199D02*
X160365D01*
X134354Y152699D02*
X160266D01*
X152685Y156299D02*
X160264D01*
X133831Y203999D02*
X160050D01*
X134238Y203099D02*
X160032D01*
X134331Y271499D02*
X160001D01*
X101100Y274199D02*
X159806D01*
X134038Y153599D02*
X159668D01*
X132631Y155399D02*
X159667D01*
X133667Y272399D02*
X159573D01*
X132554Y273299D02*
X159518D01*
X133501Y154499D02*
X159500D01*
X151269Y123899D02*
X158731D01*
X132360Y213899D02*
X157795D01*
X152431Y116699D02*
X157569D01*
X152796Y122999D02*
X157204D01*
X153833Y209399D02*
X157146D01*
X131677Y163499D02*
X156998D01*
X153694Y278699D02*
X156766D01*
X133841Y282299D02*
X156764D01*
X153323Y117599D02*
X156677D01*
X153572Y159899D02*
X156580D01*
X101100Y212999D02*
X156499D01*
X153522Y122099D02*
X156478D01*
X153236Y210299D02*
X156308D01*
X101100Y162599D02*
X156254D01*
X153815Y118499D02*
X156185D01*
X152859Y279599D02*
X156168D01*
X132860Y281399D02*
X156167D01*
X152483Y160799D02*
X156100D01*
X153921Y121199D02*
X156079D01*
X101100Y212099D02*
X156073D01*
X101100Y211199D02*
X156018D01*
X101100Y161699D02*
X156008D01*
X128082Y280499D02*
X156000D01*
X154056Y119399D02*
X155944D01*
X154089Y120299D02*
X155911D01*
X146769Y323699D02*
X153231D01*
X147133Y316499D02*
X152867D01*
X147996Y322799D02*
X152004D01*
X101100Y262499D02*
X151918D01*
X148169Y317399D02*
X151831D01*
X148634Y321899D02*
X151366D01*
X148730Y318299D02*
X151270D01*
X148977Y320999D02*
X151023D01*
X149021Y319199D02*
X150979D01*
X149099Y320099D02*
X150901D01*
X101100Y275099D02*
X150804D01*
X101100Y160799D02*
X150517D01*
X101100Y257999D02*
X150502D01*
X130905Y156299D02*
X150315D01*
X101100Y188699D02*
X150266D01*
X101100Y139199D02*
X150266D01*
X101100Y192299D02*
X150264D01*
X101100Y142799D02*
X150264D01*
X129922Y279599D02*
X150141D01*
X101100Y261599D02*
X150078D01*
X101100Y206699D02*
X149766D01*
X101100Y210299D02*
X149764D01*
X101100Y258899D02*
X149756D01*
X101100Y189599D02*
X149668D01*
X101100Y140099D02*
X149668D01*
X101100Y191399D02*
X149667D01*
X101100Y141899D02*
X149667D01*
X101100Y260699D02*
X149600D01*
X101100Y259799D02*
X149508D01*
X129498Y275999D02*
X149501D01*
X101100Y190499D02*
X149500D01*
X101100Y140999D02*
X149500D01*
X101100Y159899D02*
X149428D01*
X101100Y157199D02*
X149365D01*
X130400Y278699D02*
X149306D01*
X101100Y207599D02*
X149168D01*
X101100Y209399D02*
X149167D01*
X130244Y276899D02*
X149073D01*
X101100Y158999D02*
X149050D01*
X101100Y158099D02*
X149032D01*
X130492Y277799D02*
X149018D01*
X101100Y208499D02*
X149000D01*
X125980Y123899D02*
X148731D01*
X126204Y116699D02*
X147569D01*
X126302Y122999D02*
X147204D01*
X126465Y117599D02*
X146677D01*
X126533Y122099D02*
X146478D01*
X126639Y118499D02*
X146185D01*
X126680Y121199D02*
X146079D01*
X126732Y119399D02*
X145944D01*
X126746Y120299D02*
X145911D01*
X122261Y323699D02*
X143231D01*
X101100Y316499D02*
X142867D01*
X121859Y322799D02*
X142004D01*
X101100Y317399D02*
X141831D01*
X121291Y321899D02*
X141366D01*
X101100Y318299D02*
X141270D01*
X120502Y320999D02*
X141023D01*
X117266Y319199D02*
X140979D01*
X119357Y320099D02*
X140901D01*
X109302Y290399D02*
X128998D01*
X108802Y222899D02*
X128498D01*
X110002Y264299D02*
X128298D01*
X109205Y156299D02*
X128095D01*
X110263Y306599D02*
X128037D01*
X110263Y257099D02*
X128037D01*
X101100Y280499D02*
X127918D01*
X109502Y196799D02*
X127798D01*
X110672Y297599D02*
X127628D01*
X110672Y248099D02*
X127628D01*
X110854Y273299D02*
X127446D01*
X109977Y163499D02*
X127323D01*
X109982Y172499D02*
X127318D01*
X111160Y281399D02*
X127140D01*
X111302Y289499D02*
X126998D01*
X110354Y205799D02*
X126946D01*
X110511Y147299D02*
X126789D01*
X111548Y265199D02*
X126752D01*
X110660Y213899D02*
X126640D01*
X111665Y305699D02*
X126635D01*
X111665Y256199D02*
X126635D01*
X101100Y275999D02*
X126502D01*
X110802Y221999D02*
X126498D01*
X111869Y298499D02*
X126431D01*
X111869Y248999D02*
X126431D01*
X110931Y155399D02*
X126369D01*
X111967Y272399D02*
X126333D01*
X111048Y197699D02*
X126252D01*
X112141Y282299D02*
X126159D01*
X101100Y279599D02*
X126078D01*
X112224Y288599D02*
X126076D01*
X119960Y416399D02*
X126040D01*
X119965Y423599D02*
X126035D01*
X111269Y164399D02*
X126031D01*
X111271Y171599D02*
X126029D01*
X112372Y266099D02*
X125928D01*
X112443Y304799D02*
X125857D01*
X112443Y255299D02*
X125857D01*
X111467Y204899D02*
X125833D01*
X101100Y276899D02*
X125756D01*
X111555Y148199D02*
X125745D01*
X112570Y299399D02*
X125730D01*
X112570Y249899D02*
X125730D01*
X112631Y271499D02*
X125669D01*
X111641Y214799D02*
X125659D01*
X101100Y278699D02*
X125600D01*
X111724Y221099D02*
X125576D01*
X112739Y283199D02*
X125561D01*
X112791Y287699D02*
X125509D01*
X101100Y277799D02*
X125508D01*
X111801Y154499D02*
X125499D01*
X111872Y198599D02*
X125428D01*
X112882Y266999D02*
X125418D01*
X112925Y303899D02*
X125375D01*
X112925Y254399D02*
X125375D01*
X113002Y300299D02*
X125298D01*
X113002Y250799D02*
X125298D01*
X112008Y165299D02*
X125292D01*
X112009Y170699D02*
X125291D01*
X113038Y270599D02*
X125262D01*
X113100Y284099D02*
X125200D01*
X113128Y286799D02*
X125172D01*
X112131Y203999D02*
X125169D01*
X113177Y267899D02*
X125123D01*
X112186Y149099D02*
X125114D01*
X113199Y302999D02*
X125101D01*
X113199Y253499D02*
X125101D01*
X113235Y301199D02*
X125065D01*
X113235Y251699D02*
X125065D01*
X112239Y215699D02*
X125061D01*
X113251Y269699D02*
X125049D01*
X113275Y284999D02*
X125025D01*
X113284Y285899D02*
X125016D01*
X112291Y220199D02*
X125009D01*
X113296Y268799D02*
X125004D01*
X113299Y302099D02*
X125001D01*
X113299Y252599D02*
X125001D01*
X112338Y153599D02*
X124962D01*
X112382Y199499D02*
X124918D01*
X121084Y417299D02*
X124916D01*
X121087Y422699D02*
X124913D01*
X112464Y166199D02*
X124836D01*
X112465Y169799D02*
X124835D01*
X112538Y203099D02*
X124762D01*
X112569Y149999D02*
X124731D01*
X112600Y216599D02*
X124700D01*
X112628Y219299D02*
X124672D01*
X112654Y152699D02*
X124646D01*
X112677Y200399D02*
X124623D01*
X112718Y167099D02*
X124582D01*
X112719Y168899D02*
X124581D01*
X112751Y202199D02*
X124549D01*
X112764Y150899D02*
X124536D01*
X112775Y217499D02*
X124525D01*
X112784Y218399D02*
X124516D01*
X112791Y151799D02*
X124509D01*
X112796Y201299D02*
X124504D01*
X112800Y167999D02*
X124500D01*
X121683Y418199D02*
X124317D01*
X121684Y421799D02*
X124316D01*
X122000Y419099D02*
X124000D01*
X122000Y420899D02*
X124000D01*
X122100Y419999D02*
X123900D01*
X109960Y416399D02*
X116040D01*
X109965Y423599D02*
X116035D01*
X101100Y130199D02*
X115475D01*
X111084Y417299D02*
X114916D01*
X111087Y422699D02*
X114913D01*
X101100Y410099D02*
X114745D01*
X111683Y418199D02*
X114317D01*
X111684Y421799D02*
X114316D01*
X112000Y419099D02*
X114000D01*
X112000Y420899D02*
X114000D01*
X101100Y338099D02*
X113936D01*
X112100Y419999D02*
X113900D01*
X101100Y319199D02*
X113734D01*
X101100Y347999D02*
X113585D01*
X101100Y366899D02*
X113504D01*
X101100Y390299D02*
X113191D01*
X101100Y361499D02*
X112986D01*
X101100Y110399D02*
X112911D01*
X101100Y352499D02*
X112622D01*
X101100Y380399D02*
X112571D01*
X101100Y332699D02*
X112435D01*
X101100Y338999D02*
X112235D01*
X101100Y129299D02*
X112188D01*
X101100Y347099D02*
X112086D01*
X101100Y409199D02*
X111978D01*
X101100Y360599D02*
X111784D01*
X101100Y320099D02*
X111643D01*
X101100Y353399D02*
X111579D01*
X101100Y367799D02*
X111546D01*
X101100Y339899D02*
X111347D01*
X101100Y346199D02*
X111255D01*
X101100Y391199D02*
X111246D01*
X101100Y111299D02*
X111082D01*
X101100Y379499D02*
X111071D01*
X101100Y359699D02*
X111065D01*
X101100Y331799D02*
X110993D01*
X101100Y354299D02*
X110934D01*
X101100Y340799D02*
X110786D01*
X101100Y345299D02*
X110728D01*
X101100Y128399D02*
X110624D01*
X101100Y358799D02*
X110609D01*
X101100Y355199D02*
X110530D01*
X101100Y320999D02*
X110498D01*
X101100Y408299D02*
X110484D01*
X101100Y341699D02*
X110443D01*
X101100Y368699D02*
X110435D01*
X101100Y344399D02*
X110411D01*
X101100Y357899D02*
X110348D01*
X101100Y356099D02*
X110310D01*
X101100Y342599D02*
X110275D01*
X101100Y343499D02*
X110264D01*
X101100Y356999D02*
X110251D01*
X101100Y378599D02*
X110112D01*
X101100Y330899D02*
X110058D01*
X101100Y392099D02*
X109971D01*
X101100Y112199D02*
X109852D01*
X101100Y321899D02*
X109709D01*
X101100Y369599D02*
X109664D01*
X101100Y127499D02*
X109512D01*
X101100Y377699D02*
X109432D01*
X101100Y407399D02*
X109406D01*
X101100Y329999D02*
X109393D01*
X101100Y322799D02*
X109141D01*
X101100Y370499D02*
X109109D01*
X101100Y392999D02*
X109014D01*
X101100Y376799D02*
X108943D01*
X101100Y113099D02*
X108921D01*
X101100Y329099D02*
X108915D01*
X101100Y323699D02*
X108739D01*
X101100Y371399D02*
X108716D01*
X101100Y126599D02*
X108657D01*
X101100Y375899D02*
X108604D01*
X101100Y328199D02*
X108586D01*
X101100Y406499D02*
X108573D01*
X101100Y324599D02*
X108474D01*
X101100Y372299D02*
X108460D01*
X101100Y374999D02*
X108395D01*
X101100Y327299D02*
X108385D01*
X101100Y325499D02*
X108330D01*
X101100Y373199D02*
X108324D01*
X101100Y374099D02*
X108303D01*
X101100Y326399D02*
X108301D01*
X101100Y393899D02*
X108264D01*
X101100Y113999D02*
X108191D01*
X101100Y125699D02*
X107980D01*
X101100Y405599D02*
X107914D01*
X101100Y394799D02*
X107668D01*
X101100Y114899D02*
X107610D01*
X101100Y124799D02*
X107443D01*
X101100Y404699D02*
X107390D01*
X101100Y290399D02*
X107298D01*
X101100Y395699D02*
X107196D01*
X101100Y115799D02*
X107151D01*
X101100Y123899D02*
X107020D01*
X101100Y403799D02*
X106980D01*
X101100Y396599D02*
X106831D01*
X101100Y222899D02*
X106798D01*
X101100Y116699D02*
X106796D01*
X101100Y122999D02*
X106698D01*
X101100Y402899D02*
X106668D01*
X101100Y264299D02*
X106598D01*
X101100Y397499D02*
X106560D01*
X101100Y117599D02*
X106535D01*
X101100Y122099D02*
X106467D01*
X101100Y401999D02*
X106447D01*
X101100Y156299D02*
X106395D01*
X101100Y398399D02*
X106376D01*
X101100Y118499D02*
X106361D01*
X101100Y306599D02*
X106337D01*
X101100Y257099D02*
X106337D01*
X101100Y121199D02*
X106320D01*
X101100Y401099D02*
X106309D01*
X101100Y399299D02*
X106274D01*
X101100Y119399D02*
X106268D01*
X101100Y120299D02*
X106254D01*
X101100Y400199D02*
X106252D01*
X101100Y196799D02*
X106098D01*
X101100Y416399D02*
X106040D01*
X101100Y423599D02*
X106035D01*
X101100Y297599D02*
X105928D01*
X101100Y248099D02*
X105928D01*
X101100Y273299D02*
X105746D01*
X101100Y163499D02*
X105623D01*
X101100Y172499D02*
X105618D01*
X101100Y281399D02*
X105440D01*
X101100Y289499D02*
X105298D01*
X101100Y205799D02*
X105246D01*
X101100Y147299D02*
X105089D01*
X101100Y265199D02*
X105052D01*
X101100Y213899D02*
X104940D01*
X101100Y305699D02*
X104935D01*
X101100Y256199D02*
X104935D01*
X101100Y417299D02*
X104916D01*
X101100Y422699D02*
X104913D01*
X101100Y221999D02*
X104798D01*
X101100Y298499D02*
X104731D01*
X101100Y248999D02*
X104731D01*
X101100Y155399D02*
X104669D01*
X101100Y272399D02*
X104633D01*
X101100Y197699D02*
X104552D01*
X101100Y282299D02*
X104459D01*
X101100Y288599D02*
X104376D01*
X101100Y164399D02*
X104331D01*
X101100Y171599D02*
X104329D01*
X101100Y418199D02*
X104317D01*
X101100Y421799D02*
X104316D01*
X101100Y266099D02*
X104228D01*
X101100Y304799D02*
X104157D01*
X101100Y255299D02*
X104157D01*
X101100Y204899D02*
X104133D01*
X101100Y148199D02*
X104045D01*
X101100Y299399D02*
X104030D01*
X101100Y249899D02*
X104030D01*
X101100Y419099D02*
X104000D01*
X101100Y420899D02*
X104000D01*
X101100Y271499D02*
X103969D01*
X101100Y214799D02*
X103959D01*
X101100Y419999D02*
X103900D01*
X101100Y221099D02*
X103876D01*
X101100Y283199D02*
X103861D01*
X101100Y287699D02*
X103809D01*
X101100Y154499D02*
X103799D01*
X101100Y198599D02*
X103728D01*
X101100Y266999D02*
X103718D01*
X101100Y303899D02*
X103675D01*
X101100Y254399D02*
X103675D01*
X101100Y300299D02*
X103598D01*
X101100Y250799D02*
X103598D01*
X101100Y165299D02*
X103592D01*
X101100Y170699D02*
X103591D01*
X101100Y270599D02*
X103562D01*
X101100Y284099D02*
X103500D01*
X101100Y286799D02*
X103472D01*
X101100Y203999D02*
X103469D01*
X101100Y267899D02*
X103423D01*
X101100Y149099D02*
X103414D01*
X101100Y302999D02*
X103401D01*
X101100Y253499D02*
X103401D01*
X101100Y301199D02*
X103365D01*
X101100Y251699D02*
X103365D01*
X101100Y215699D02*
X103361D01*
X101100Y269699D02*
X103349D01*
X101100Y284999D02*
X103325D01*
X101100Y285899D02*
X103316D01*
X101100Y220199D02*
X103309D01*
X101100Y268799D02*
X103304D01*
X101100Y302099D02*
X103301D01*
X101100Y252599D02*
X103301D01*
X101100Y153599D02*
X103262D01*
X101100Y199499D02*
X103218D01*
X101100Y166199D02*
X103136D01*
X101100Y169799D02*
X103135D01*
X101100Y203099D02*
X103062D01*
X101100Y149999D02*
X103031D01*
X101100Y216599D02*
X103000D01*
X101100Y219299D02*
X102972D01*
X101100Y152699D02*
X102946D01*
X101100Y200399D02*
X102923D01*
X101100Y167099D02*
X102882D01*
X101100Y168899D02*
X102881D01*
X101100Y202199D02*
X102849D01*
X101100Y150899D02*
X102836D01*
X101100Y217499D02*
X102825D01*
X101100Y218399D02*
X102816D01*
X101100Y151799D02*
X102809D01*
X101100Y201299D02*
X102804D01*
X101100Y167999D02*
X102800D01*
X100000Y100000D02*
X493000D01*
Y427500*
X100000*
Y100000*
G54D58*
X150571Y147000D03*
X147036Y150536D03*
X143500Y154071D03*
Y147000D03*
X150571Y197000D03*
X147036Y200536D03*
X143500Y204071D03*
Y197000D03*
X173500Y147000D03*
X180000Y178000D03*
X173500Y197000D03*
X214000Y135500D03*
X299000Y178500D03*
X277000Y183400D03*
X275500Y173500D03*
X268500Y171500D03*
X326571Y149571D03*
Y142500D03*
X323036Y146036D03*
X319500Y142500D03*
X329000Y172000D03*
X447071Y177228D03*
Y170157D03*
X443536Y173692D03*
X419500Y178000D03*
X412500Y147000D03*
X150571Y266000D03*
X147036Y269536D03*
X143500Y273071D03*
Y266000D03*
X180000Y228000D03*
Y266000D03*
X303000Y269000D03*
X302000Y281000D03*
X341000Y271000D03*
X372000Y252000D03*
X341500Y287000D03*
X376200Y252000D03*
X365225Y250500D03*
X363655Y262500D03*
X362085Y252000D03*
X446000Y248000D03*
X418000Y255000D03*
X412500Y285100D03*
Y272600D03*
X395100Y252000D03*
X391900D03*
X421000Y286000D03*
X427500Y229000D03*
X430500D03*
X433500D03*
X436500D03*
X439500D03*
X442500D03*
X445500D03*
X184000Y301000D03*
X260000Y324500D03*
X242000Y325000D03*
X310000Y348500D03*
X338500Y341500D03*
X362000Y342000D03*
X355500Y340500D03*
Y343500D03*
Y346500D03*
X345500Y340500D03*
Y343500D03*
Y346500D03*
X360500Y368000D03*
X350000Y323000D03*
X379500D03*
X341000Y305000D03*
X362100Y312500D03*
X399000Y358000D03*
X411000Y353000D03*
X407000D03*
X399000Y354000D03*
X427000D03*
X431000D03*
X435000D03*
X390000Y329000D03*
X397000D03*
X407500Y324500D03*
X395100Y323000D03*
X396600Y312500D03*
X402000Y293000D03*
X412500Y291400D03*
X418000Y309000D03*
X425000Y295000D03*
Y299000D03*
X260000Y419500D03*
X255000D03*
X250000D03*
X245000D03*
X240000D03*
X234500D03*
X264000Y391000D03*
X249000D03*
X254000D03*
X259000D03*
X244000D03*
X374000Y393000D03*
X358500Y393500D03*
X311000Y392500D03*
X326000Y376500D03*
Y392500D03*
X302000Y398000D03*
X395000Y373000D03*
X385000Y398500D03*
X389000Y396500D03*
G54D124*
X314500Y320000D03*
G74*
X0Y0D02*
M02*
